0
SECTION
2
HEADER
9
$INSUNITS
70
4
9
$ACADVER
1
AC1014
9
$HANDSEED
5
FFFF
0
ENDSEC
0
SECTION
2
TABLES
0
TABLE
2
VPORT
5
8
100
AcDbSymbolTable
0
ENDTAB
0
TABLE
2
LTYPE
5
5
100
AcDbSymbolTable
0
LTYPE
5
14
100
AcDbSymbolTableRecord
100
AcDbLinetypeTableRecord
2
BYBLOCK
70
0
0
LTYPE
5
15
100
AcDbSymbolTableRecord
100
AcDbLinetypeTableRecord
2
BYLAYER
70
0
0
ENDTAB
0
TABLE
2
LAYER
5
2
100
AcDbSymbolTable
70
2
0
LAYER
5
50
100
AcDbSymbolTableRecord
100
AcDbLayerTableRecord
2
0
70
0
6
CONTINUOUS
0
ENDTAB
0
TABLE
2
STYLE
5
3
100
AcDbSymbolTable
70
1
0
STYLE
5
11
100
AcDbSymbolTableRecord
100
AcDbTextStyleTableRecord
2
STANDARD
70
0
0
ENDTAB
0
TABLE
2
VIEW
5
6
100
AcDbSymbolTable
70
0
0
ENDTAB
0
TABLE
2
UCS
5
7
100
AcDbSymbolTable
70
0
0
ENDTAB
0
TABLE
2
APPID
5
9
100
AcDbSymbolTable
70
2
0
APPID
5
12
100
AcDbSymbolTableRecord
100
AcDbRegAppTableRecord
2
ACAD
70
0
0
ENDTAB
0
TABLE
2
DIMSTYLE
5
A
100
AcDbSymbolTable
70
1
0
ENDTAB
0
TABLE
2
BLOCK_RECORD
5
1
100
AcDbSymbolTable
70
1
0
BLOCK_RECORD
5
1F
100
AcDbSymbolTableRecord
100
AcDbBlockTableRecord
2
*MODEL_SPACE
0
BLOCK_RECORD
5
1B
100
AcDbSymbolTableRecord
100
AcDbBlockTableRecord
2
*PAPER_SPACE
0
ENDTAB
0
ENDSEC
0
SECTION
2
BLOCKS
0
BLOCK
5
20
100
AcDbEntity
100
AcDbBlockBegin
2
*MODEL_SPACE
0
ENDBLK
5
21
100
AcDbEntity
100
AcDbBlockEnd
0
BLOCK
5
1C
100
AcDbEntity
100
AcDbBlockBegin
2
*PAPER_SPACE
0
ENDBLK
5
1D
100
AcDbEntity
100
AcDbBlockEnd
0
ENDSEC
0
SECTION
2
ENTITIES
0
LINE
5
100
100
AcDbEntity
8
0
100
AcDbLine
10
-148
20
21.999999999999986
30
0
11
-219.91500014340579
21
19.063300666473729
31
0
0
LINE
5
101
100
AcDbEntity
8
0
100
AcDbLine
10
-219.91500014340579
20
19.063300666473729
30
0
11
-219.91500014340576
21
15.063300666473726
31
0
0
LINE
5
102
100
AcDbEntity
8
0
100
AcDbLine
10
-219.91500014340576
20
15.063300666473726
30
0
11
-220.91500014340573
21
15.063300666473673
31
0
0
LINE
5
103
100
AcDbEntity
8
0
100
AcDbLine
10
-220.91500014340573
20
15.063300666473673
30
0
11
-220.91500014340579
21
17.063300666473673
31
0
0
LINE
5
104
100
AcDbEntity
8
0
100
AcDbLine
10
-220.91500014340579
20
17.063300666473673
30
0
11
-225.91500014340582
21
14.063300666473673
31
0
0
LINE
5
105
100
AcDbEntity
8
0
100
AcDbLine
10
-225.91500014340582
20
14.063300666473673
30
0
11
-225.91500029944933
21
8.0633006664736726
31
0
0
LINE
5
106
100
AcDbEntity
8
0
100
AcDbLine
10
-225.91500029944933
20
8.0633006664736726
30
0
11
-220.91500014340573
21
5.063300650198526
31
0
0
LINE
5
107
100
AcDbEntity
8
0
100
AcDbLine
10
-220.91500014340573
20
5.063300650198526
30
0
11
-220.91500014340573
21
7.0633006664742339
31
0
0
LINE
5
108
100
AcDbEntity
8
0
100
AcDbLine
10
-220.91500014340573
20
7.0633006664742339
30
0
11
-219.91500014340573
21
7.0633006664742357
31
0
0
LINE
5
109
100
AcDbEntity
8
0
100
AcDbLine
10
-219.91500014340573
20
7.0633006664742357
30
0
11
-219.91500014340573
21
4.7633006664742359
31
0
0
LINE
5
110
100
AcDbEntity
8
0
100
AcDbLine
10
-219.91500014340573
20
4.7633006664742359
30
0
11
-163.00000000000006
21
7.0874645078846363
31
0
0
LINE
5
111
100
AcDbEntity
8
0
100
AcDbLine
10
-163.00000000000006
20
7.0874645078846363
30
0
11
-148.00000000000009
21
4.4408920985006262e-15
31
0
0
LINE
5
112
100
AcDbEntity
8
0
100
AcDbLine
10
-148.00000000000009
20
4.4408920985006262e-15
30
0
11
0
21
0
31
0
0
LINE
5
113
100
AcDbEntity
8
0
100
AcDbLine
10
-1.1102230246251565e-15
20
21.999999999999986
30
0
11
-148
21
21.999999999999986
31
0
0
SPLINE
5
114
100
AcDbEntity
8
0
100
AcDbSpline
70
0
71
3
72
13
73
9
74
0
42
0.000000001
43
0.0000000001
44
0.0000000001
40
0
40
0
40
0
40
0
40
0.13341173356646779
40
0.31793539414041516
40
0.61634273943642714
40
1.1267521950926662
40
1.727474703514229
40
2.1799097168958248
40
2.1799097168958248
40
2.1799097168958248
40
2.1799097168958248
10
-41.764681235277209
20
9.6874402145194587
30
0
10
-41.870473749551877
20
9.8403045457203415
30
0
10
-42.122589390536866
20
10.204597701135775
30
0
10
-42.467995470564965
20
10.996415377741416
30
0
10
-42.700449563760259
20
12.383562909454875
30
0
10
-42.347373653626789
20
14.315756536879407
30
0
10
-41.716206174681162
20
16.505592444077266
30
0
10
-40.525994351510917
20
17.414210808517051
30
0
10
-40.01468099999915
20
17.804551999994523
30
0
0
SPLINE
5
115
100
AcDbEntity
8
0
100
AcDbSpline
70
0
71
3
72
13
73
9
74
0
42
0.000000001
43
0.0000000001
44
0.0000000001
40
0
40
0
40
0
40
0
40
0.4524349378032147
40
1.0531574462247748
40
1.5635669169744539
40
1.8619742769176055
40
2.0464979374915582
40
2.1799096710580224
40
2.1799096710580224
40
2.1799096710580224
40
2.1799096710580224
10
-40.014681000005766
20
17.804551999989478
30
0
10
-39.503367799222126
20
17.41421078459873
30
0
10
-38.31315621350106
20
16.505592277917426
30
0
10
-37.681989069150497
20
14.31575652295518
30
0
10
-37.328912106750153
20
12.383562851782568
30
0
10
-37.56136707676297
20
10.996415405829911
30
0
10
-37.906773063980175
20
10.204597696919539
30
0
10
-38.158888716266766
20
9.8403045444808619
30
0
10
-38.26468123528381
20
9.6874402145290084
30
0
0
SPLINE
5
116
100
AcDbEntity
8
0
100
AcDbSpline
70
0
71
3
72
13
73
9
74
0
42
0.000000001
43
0.0000000001
44
0.0000000001
40
0
40
0
40
0
40
0
40
0.13341251843309634
40
0.31793663485826668
40
0.61634367257185696
40
1.2528689310458589
40
2.0973199990999554
40
2.748002438946382
40
2.748002438946382
40
2.748002438946382
40
2.748002438946382
10
-119.33959560537656
20
10.997071004119036
30
0
10
-119.49314838976626
20
11.101722984926388
30
0
10
-119.85908148296738
20
11.351120110472895
30
0
10
-120.65338714990489
20
11.694960579864214
30
0
10
-122.21630449241147
20
11.912648318521802
30
0
10
-124.66426101375998
20
11.644322546343581
30
0
10
-127.73062328475439
20
11.272451783102371
30
0
10
-129.31577124862176
20
9.8612335133831195
30
0
10
-130.0056280000066
20
9.2470710041191904
30
0
0
SPLINE
5
117
100
AcDbEntity
8
0
100
AcDbSpline
70
0
71
3
72
13
73
9
74
0
42
0.000000001
43
0.0000000001
44
0.0000000001
40
0
40
0
40
0
40
0
40
0.65068243984642904
40
1.4951335079005252
40
2.1316587588343161
40
2.4300657819014861
40
2.6145898983266567
40
2.7480024167597512
40
2.7480024167597512
40
2.7480024167597512
40
2.7480024167597512
10
-130.0056280000066
20
9.2470710041191957
30
0
10
-129.31577124961339
20
8.632908519362152
30
0
10
-127.73062328802445
20
7.2216903059547235
30
0
10
-124.66426100873221
20
6.8498190708754967
30
0
10
-122.21630456692105
20
6.5814945272789505
30
0
10
-120.65338711753448
20
6.7991813482608467
30
0
10
-119.85908148479177
20
7.1430219096999847
30
0
10
-119.49314839030546
20
7.3924190268394732
30
0
10
-119.33959560537656
20
7.4970710041190323
30
0
0
LINE
5
118
100
AcDbEntity
8
0
100
AcDbLine
10
-149.66833354588499
20
16.538099028360193
30
0
11
-144.22081654588499
21
16.538099028360193
31
0
0
SPLINE
5
119
100
AcDbEntity
8
0
100
AcDbSpline
70
0
71
3
72
10
73
6
74
0
42
0.000000001
43
0.0000000001
44
0.0000000001
40
0
40
0
40
0
40
0
40
0.19986085190477007
40
0.39335220800578519
40
0.59321315646938111
40
0.59321315646938111
40
0.59321315646938111
40
0.59321315646938111
10
-144.22081654588499
20
16.538099028360193
30
0
10
-143.94084138331453
20
16.496480475571023
30
0
10
-143.38981376918059
20
16.41456973878784
30
0
10
-142.7511694982864
20
15.784410160642487
30
0
10
-142.6618975863062
20
15.2345269164401
30
0
10
-142.61653883591248
20
14.955133137745502
30
0
0
SPLINE
5
120
100
AcDbEntity
8
0
100
AcDbSpline
70
0
71
3
72
10
73
6
74
0
42
0.000000001
43
0.0000000001
44
0.0000000001
40
0
40
0
40
0
40
0
40
0.19986085190477351
40
0.39335227871645467
40
0.59321310461370413
40
0.59321310461370413
40
0.59321310461370413
40
0.59321310461370413
10
-142.61653883591248
20
9.9891534703685299
30
0
10
-142.66189764743905
20
9.7097598783389198
30
0
10
-142.75116971700049
20
9.1598767719864842
30
0
10
-143.38981355307391
20
8.5297167510387801
30
0
10
-143.94084135576182
20
8.4478063646231654
30
0
10
-144.22081654588499
20
8.4061879999999629
30
0
0
LINE
5
121
100
AcDbEntity
8
0
100
AcDbLine
10
-144.22081654588499
20
8.4061879999999665
30
0
11
-149.66833354588499
21
8.4061879999999913
31
0
0
LINE
5
122
100
AcDbEntity
8
0
100
AcDbLine
10
-142.61653883591248
20
14.955133137745513
30
0
11
-142.61653883591248
21
9.9891534703685299
31
0
0
LINE
5
123
100
AcDbEntity
8
0
100
AcDbLine
10
0
20
2.5
30
0
11
0
21
20
31
0
0
LINE
5
124
100
AcDbEntity
8
0
100
AcDbLine
10
219.91500014340573
20
7.0633006664742357
30
0
11
219.91500014340573
21
4.7633006664742359
31
0
0
LINE
5
125
100
AcDbEntity
8
0
100
AcDbLine
10
225.91500029944933
20
8.0633006664736726
30
0
11
220.91500014340573
21
5.063300650198526
31
0
0
LINE
5
126
100
AcDbEntity
8
0
100
AcDbLine
10
219.91500014340579
20
19.063300666473729
30
0
11
219.91500014340576
21
15.063300666473726
31
0
0
SPLINE
5
127
100
AcDbEntity
8
0
100
AcDbSpline
70
0
71
3
72
10
73
6
74
0
42
0.000000001
43
0.0000000001
44
0.0000000001
40
0
40
0
40
0
40
0
40
0.19986085190477007
40
0.39335220800578519
40
0.59321315646938111
40
0.59321315646938111
40
0.59321315646938111
40
0.59321315646938111
10
144.22081654588499
20
16.538099028360193
30
0
10
143.94084138331453
20
16.496480475571023
30
0
10
143.38981376918059
20
16.41456973878784
30
0
10
142.7511694982864
20
15.784410160642487
30
0
10
142.6618975863062
20
15.2345269164401
30
0
10
142.61653883591248
20
14.955133137745502
30
0
0
SPLINE
5
128
100
AcDbEntity
8
0
100
AcDbSpline
70
0
71
3
72
13
73
9
74
0
42
0.000000001
43
0.0000000001
44
0.0000000001
40
0
40
0
40
0
40
0
40
0.65068243984642904
40
1.4951335079005252
40
2.1316587588343161
40
2.4300657819014861
40
2.6145898983266567
40
2.7480024167597512
40
2.7480024167597512
40
2.7480024167597512
40
2.7480024167597512
10
130.0056280000066
20
9.2470710041191957
30
0
10
129.31577124961339
20
8.632908519362152
30
0
10
127.73062328802445
20
7.2216903059547235
30
0
10
124.66426100873221
20
6.8498190708754967
30
0
10
122.21630456692105
20
6.5814945272789505
30
0
10
120.65338711753448
20
6.7991813482608467
30
0
10
119.85908148479177
20
7.1430219096999847
30
0
10
119.49314839030546
20
7.3924190268394732
30
0
10
119.33959560537656
20
7.4970710041190323
30
0
0
LINE
5
129
100
AcDbEntity
8
0
100
AcDbLine
10
142.61653883591248
20
14.955133137745513
30
0
11
142.61653883591248
21
9.9891534703685299
31
0
0
SPLINE
5
130
100
AcDbEntity
8
0
100
AcDbSpline
70
0
71
3
72
13
73
9
74
0
42
0.000000001
43
0.0000000001
44
0.0000000001
40
0
40
0
40
0
40
0
40
0.13341251843309634
40
0.31793663485826668
40
0.61634367257185696
40
1.2528689310458589
40
2.0973199990999554
40
2.748002438946382
40
2.748002438946382
40
2.748002438946382
40
2.748002438946382
10
119.33959560537656
20
10.997071004119036
30
0
10
119.49314838976626
20
11.101722984926388
30
0
10
119.85908148296738
20
11.351120110472895
30
0
10
120.65338714990489
20
11.694960579864214
30
0
10
122.21630449241147
20
11.912648318521802
30
0
10
124.66426101375998
20
11.644322546343581
30
0
10
127.73062328475439
20
11.272451783102371
30
0
10
129.31577124862176
20
9.8612335133831195
30
0
10
130.0056280000066
20
9.2470710041191904
30
0
0
LINE
5
131
100
AcDbEntity
8
0
100
AcDbLine
10
148.00000000000009
20
4.4408920985006262e-15
30
0
11
0
21
0
31
0
0
LINE
5
132
100
AcDbEntity
8
0
100
AcDbLine
10
219.91500014340573
20
4.7633006664742359
30
0
11
163.00000000000006
21
7.0874645078846363
31
0
0
LINE
5
133
100
AcDbEntity
8
0
100
AcDbLine
10
149.66833354588499
20
16.538099028360193
30
0
11
144.22081654588499
21
16.538099028360193
31
0
0
LINE
5
134
100
AcDbEntity
8
0
100
AcDbLine
10
148
20
21.999999999999986
30
0
11
219.91500014340579
21
19.063300666473729
31
0
0
LINE
5
135
100
AcDbEntity
8
0
100
AcDbLine
10
144.22081654588499
20
8.4061879999999665
30
0
11
149.66833354588499
21
8.4061879999999913
31
0
0
LINE
5
136
100
AcDbEntity
8
0
100
AcDbLine
10
163.00000000000006
20
7.0874645078846363
30
0
11
148.00000000000009
21
4.4408920985006262e-15
31
0
0
SPLINE
5
137
100
AcDbEntity
8
0
100
AcDbSpline
70
0
71
3
72
10
73
6
74
0
42
0.000000001
43
0.0000000001
44
0.0000000001
40
0
40
0
40
0
40
0
40
0.19986085190477351
40
0.39335227871645467
40
0.59321310461370413
40
0.59321310461370413
40
0.59321310461370413
40
0.59321310461370413
10
142.61653883591248
20
9.9891534703685299
30
0
10
142.66189764743905
20
9.7097598783389198
30
0
10
142.75116971700049
20
9.1598767719864842
30
0
10
143.38981355307391
20
8.5297167510387801
30
0
10
143.94084135576182
20
8.4478063646231654
30
0
10
144.22081654588499
20
8.4061879999999629
30
0
0
LINE
5
138
100
AcDbEntity
8
0
100
AcDbLine
10
225.91500014340582
20
14.063300666473673
30
0
11
225.91500029944933
21
8.0633006664736726
31
0
0
LINE
5
139
100
AcDbEntity
8
0
100
AcDbLine
10
220.91500014340579
20
17.063300666473673
30
0
11
225.91500014340582
21
14.063300666473673
31
0
0
LINE
5
140
100
AcDbEntity
8
0
100
AcDbLine
10
220.91500014340573
20
15.063300666473673
30
0
11
220.91500014340579
21
17.063300666473673
31
0
0
LINE
5
141
100
AcDbEntity
8
0
100
AcDbLine
10
220.91500014340573
20
5.063300650198526
30
0
11
220.91500014340573
21
7.0633006664742339
31
0
0
LINE
5
142
100
AcDbEntity
8
0
100
AcDbLine
10
219.91500014340576
20
15.063300666473726
30
0
11
220.91500014340573
21
15.063300666473673
31
0
0
LINE
5
143
100
AcDbEntity
8
0
100
AcDbLine
10
220.91500014340573
20
7.0633006664742339
30
0
11
219.91500014340573
21
7.0633006664742357
31
0
0
SPLINE
5
144
100
AcDbEntity
8
0
100
AcDbSpline
70
0
71
3
72
13
73
9
74
0
42
0.000000001
43
0.0000000001
44
0.0000000001
40
0
40
0
40
0
40
0
40
0.13341173356646779
40
0.31793539414041516
40
0.61634273943642714
40
1.1267521950926662
40
1.727474703514229
40
2.1799097168958248
40
2.1799097168958248
40
2.1799097168958248
40
2.1799097168958248
10
41.764681235277209
20
9.6874402145194587
30
0
10
41.870473749551877
20
9.8403045457203415
30
0
10
42.122589390536866
20
10.204597701135775
30
0
10
42.467995470564965
20
10.996415377741416
30
0
10
42.700449563760259
20
12.383562909454875
30
0
10
42.347373653626789
20
14.315756536879407
30
0
10
41.716206174681162
20
16.505592444077266
30
0
10
40.525994351510917
20
17.414210808517051
30
0
10
40.01468099999915
20
17.804551999994523
30
0
0
SPLINE
5
145
100
AcDbEntity
8
0
100
AcDbSpline
70
0
71
3
72
13
73
9
74
0
42
0.000000001
43
0.0000000001
44
0.0000000001
40
0
40
0
40
0
40
0
40
0.4524349378032147
40
1.0531574462247748
40
1.5635669169744539
40
1.8619742769176055
40
2.0464979374915582
40
2.1799096710580224
40
2.1799096710580224
40
2.1799096710580224
40
2.1799096710580224
10
40.014681000005766
20
17.804551999989478
30
0
10
39.503367799222126
20
17.41421078459873
30
0
10
38.31315621350106
20
16.505592277917426
30
0
10
37.681989069150497
20
14.31575652295518
30
0
10
37.328912106750153
20
12.383562851782568
30
0
10
37.56136707676297
20
10.996415405829911
30
0
10
37.906773063980175
20
10.204597696919539
30
0
10
38.158888716266766
20
9.8403045444808619
30
0
10
38.26468123528381
20
9.6874402145290084
30
0
0
LINE
5
146
100
AcDbEntity
8
0
100
AcDbLine
10
1.1102230246251565e-15
20
21.999999999999986
30
0
11
148
21
21.999999999999986
31
0
0
ENDSEC
0
SECTION
2
OBJECTS
0
DICTIONARY
5
C
100
AcDbDictionary
3
ACAD_GROUP
350
D
3
ACAD_MLINESTYLE
350
17
0
DICTIONARY
5
D
100
AcDbDictionary
0
DICTIONARY
5
1A
330
C
100
AcDbDictionary
0
DICTIONARY
5
17
100
AcDbDictionary
0
ENDSEC
0
EOF
