0
SECTION
2
HEADER
9
$INSUNITS
70
4
9
$ACADVER
1
AC1014
9
$HANDSEED
5
FFFF
0
ENDSEC
0
SECTION
2
TABLES
0
TABLE
2
VPORT
5
8
100
AcDbSymbolTable
0
ENDTAB
0
TABLE
2
LTYPE
5
5
100
AcDbSymbolTable
0
LTYPE
5
14
100
AcDbSymbolTableRecord
100
AcDbLinetypeTableRecord
2
BYBLOCK
70
0
0
LTYPE
5
15
100
AcDbSymbolTableRecord
100
AcDbLinetypeTableRecord
2
BYLAYER
70
0
0
ENDTAB
0
TABLE
2
LAYER
5
2
100
AcDbSymbolTable
70
2
0
LAYER
5
50
100
AcDbSymbolTableRecord
100
AcDbLayerTableRecord
2
0
70
0
6
CONTINUOUS
0
ENDTAB
0
TABLE
2
STYLE
5
3
100
AcDbSymbolTable
70
1
0
STYLE
5
11
100
AcDbSymbolTableRecord
100
AcDbTextStyleTableRecord
2
STANDARD
70
0
0
ENDTAB
0
TABLE
2
VIEW
5
6
100
AcDbSymbolTable
70
0
0
ENDTAB
0
TABLE
2
UCS
5
7
100
AcDbSymbolTable
70
0
0
ENDTAB
0
TABLE
2
APPID
5
9
100
AcDbSymbolTable
70
2
0
APPID
5
12
100
AcDbSymbolTableRecord
100
AcDbRegAppTableRecord
2
ACAD
70
0
0
ENDTAB
0
TABLE
2
DIMSTYLE
5
A
100
AcDbSymbolTable
70
1
0
ENDTAB
0
TABLE
2
BLOCK_RECORD
5
1
100
AcDbSymbolTable
70
1
0
BLOCK_RECORD
5
1F
100
AcDbSymbolTableRecord
100
AcDbBlockTableRecord
2
*MODEL_SPACE
0
BLOCK_RECORD
5
1B
100
AcDbSymbolTableRecord
100
AcDbBlockTableRecord
2
*PAPER_SPACE
0
ENDTAB
0
ENDSEC
0
SECTION
2
BLOCKS
0
BLOCK
5
20
100
AcDbEntity
100
AcDbBlockBegin
2
*MODEL_SPACE
0
ENDBLK
5
21
100
AcDbEntity
100
AcDbBlockEnd
0
BLOCK
5
1C
100
AcDbEntity
100
AcDbBlockBegin
2
*PAPER_SPACE
0
ENDBLK
5
1D
100
AcDbEntity
100
AcDbBlockEnd
0
ENDSEC
0
SECTION
2
ENTITIES
0
LINE
5
100
100
AcDbEntity
8
0
100
AcDbLine
10
-345.00000000005201
20
3.8228570000002908
30
0
11
-348.00000000005195
21
3.8228569999981454
31
0
0
ARC
5
101
100
AcDbEntity
8
0
100
AcDbCircle
10
-342.50000000005292
20
3.8228569999981703
30
0
40
2.5000000000009237
210
-0
220
0
230
1
100
AcDbArc
50
0
51
180
0
LINE
5
102
100
AcDbEntity
8
0
100
AcDbLine
10
-340.00000000005201
20
3.8228569999960542
30
0
11
-335.00000000005201
21
3.8228569999960489
31
0
0
LINE
5
103
100
AcDbEntity
8
0
100
AcDbLine
10
-335.00000000005201
20
3.8228569999960489
30
0
11
-315.00000000005201
21
-3.2068792066297647e-12
31
0
0
LINE
5
104
100
AcDbEntity
8
0
100
AcDbLine
10
-196.78154493611405
20
-7.2944330016381453e-16
30
0
11
-315.00000000005201
21
-3.2067361392833234e-12
31
0
0
LINE
5
105
100
AcDbEntity
8
0
100
AcDbLine
10
-196.78154493611405
20
-7.2944330016381453e-16
30
0
11
-179.99999999999997
21
4.8768474844783205e-13
31
0
0
LINE
5
106
100
AcDbEntity
8
0
100
AcDbLine
10
-179.99999999999997
20
4.8768474844783205e-13
30
0
11
-182.49999999994643
21
3.8228570000000155
31
0
0
LINE
5
107
100
AcDbEntity
8
0
100
AcDbLine
10
-182.49999999994643
20
3.8228570000000155
30
0
11
-180.49999999994643
21
3.8228570000000159
31
0
0
LINE
5
108
100
AcDbEntity
8
0
100
AcDbLine
10
-180.49999999994643
20
3.8228570000000159
30
0
11
-177.99999999999997
21
4.879430193227563e-13
31
0
0
LINE
5
109
100
AcDbEntity
8
0
100
AcDbLine
10
-177.99999999999997
20
4.8768474844783205e-13
30
0
11
0
21
0
31
0
0
LINE
5
110
100
AcDbEntity
8
0
100
AcDbLine
10
-180.49999999999997
20
21.177143000001198
30
0
11
-178.00000000005198
21
24.99999999999973
31
0
0
LINE
5
111
100
AcDbEntity
8
0
100
AcDbLine
10
-182.50000000005201
20
21.177143000002001
30
0
11
-180.49999999999997
21
21.177143000001198
31
0
0
LINE
5
112
100
AcDbEntity
8
0
100
AcDbLine
10
-180.00000000005201
20
24.999999999999723
30
0
11
-182.50000000005201
21
21.177143000002001
31
0
0
LINE
5
113
100
AcDbEntity
8
0
100
AcDbLine
10
-180.00000000005201
20
24.999999999999723
30
0
11
-196.7815441482432
21
25.000000000000075
31
0
0
LINE
5
114
100
AcDbEntity
8
0
100
AcDbLine
10
-335.00000000005201
20
21.177143000004861
30
0
11
-315.00000000005201
21
24.999999999998227
31
0
0
LINE
5
115
100
AcDbEntity
8
0
100
AcDbLine
10
-340.00000000005201
20
21.177143000004861
30
0
11
-335.00000000005201
21
21.177143000004861
31
0
0
ARC
5
116
100
AcDbEntity
8
0
100
AcDbCircle
10
-342.5000000000511
20
21.177143000002751
30
0
40
2.5000000000009237
210
0
220
0
230
1
100
AcDbArc
50
-180
51
0
0
LINE
5
117
100
AcDbEntity
8
0
100
AcDbLine
10
-345.00000000005201
20
21.177143000000637
30
0
11
-348.00000000005195
21
21.177143000002793
31
0
0
LINE
5
118
100
AcDbEntity
8
0
100
AcDbLine
10
-5.2011728257639334e-11
20
25.000000000000014
30
0
11
-178.00000000005198
21
24.99999999999973
31
0
0
LINE
5
119
100
AcDbEntity
8
0
100
AcDbLine
10
-196.7815441482432
20
25.000000000000075
30
0
11
-315.00000000005201
21
24.999999999998227
31
0
0
LINE
5
120
100
AcDbEntity
8
0
100
AcDbLine
10
-190.00000000005201
20
3.8228570000000146
30
0
11
-190.00000000005198
21
21.177143000002037
31
0
0
LINE
5
121
100
AcDbEntity
8
0
100
AcDbLine
10
-190.00000000005198
20
21.177143000002037
30
0
11
-188.00000000005198
21
21.177143000002037
31
0
0
LINE
5
122
100
AcDbEntity
8
0
100
AcDbLine
10
-188.00000000005198
20
3.8228570000000146
30
0
11
-190.00000000005201
21
3.8228570000000146
31
0
0
LINE
5
123
100
AcDbEntity
8
0
100
AcDbLine
10
-188.00000000005198
20
21.177143000002037
30
0
11
-188.00000000005198
21
3.822857000000015
31
0
0
LINE
5
124
100
AcDbEntity
8
0
100
AcDbLine
10
-173.49999967567419
20
3.8228570000000177
30
0
11
-173.50000000005198
21
21.177143000002037
31
0
0
LINE
5
125
100
AcDbEntity
8
0
100
AcDbLine
10
-173.50000000005198
20
21.177143000002037
30
0
11
-172.50000000005198
21
21.177143000002037
31
0
0
LINE
5
126
100
AcDbEntity
8
0
100
AcDbLine
10
-172.49999999999937
20
3.8228570000001563
30
0
11
-173.49999967567419
21
3.8228570000000177
31
0
0
LINE
5
127
100
AcDbEntity
8
0
100
AcDbLine
10
-172.50000000005198
20
21.177143000002037
30
0
11
-172.49999999999937
21
3.8228570000001572
31
0
0
LINE
5
128
100
AcDbEntity
8
0
100
AcDbLine
10
-154.55951772265118
20
11.330234502766032
30
0
11
-153.69802607060944
21
21.177143000002165
31
0
0
LINE
5
129
100
AcDbEntity
8
0
100
AcDbLine
10
-153.69802607060944
20
21.177143000002165
30
0
11
-152.70183136186964
21
21.089987378962537
31
0
0
LINE
5
130
100
AcDbEntity
8
0
100
AcDbLine
10
-153.56332301391956
20
11.243078881727248
30
0
11
-154.55951772265118
21
11.330234502766032
31
0
0
LINE
5
131
100
AcDbEntity
8
0
100
AcDbLine
10
-152.70183136186964
20
21.089987378962537
30
0
11
-153.56332301391956
21
11.243078881727248
31
0
0
LINE
5
132
100
AcDbEntity
8
0
100
AcDbLine
10
-144.55327475398047
20
11.330237473896883
30
0
11
-143.69178336186957
21
21.177143000002097
31
0
0
LINE
5
133
100
AcDbEntity
8
0
100
AcDbLine
10
-143.69178336186957
20
21.177143000002097
30
0
11
-142.6955886531297
21
21.089987378963237
31
0
0
LINE
5
134
100
AcDbEntity
8
0
100
AcDbLine
10
-143.55708004523999
20
11.243081852857308
30
0
11
-144.55327475398047
21
11.330237473896883
31
0
0
LINE
5
135
100
AcDbEntity
8
0
100
AcDbLine
10
-142.6955886531297
20
21.089987378963237
30
0
11
-143.55708004523999
21
11.243081852857308
31
0
0
LINE
5
136
100
AcDbEntity
8
0
100
AcDbLine
10
-134.54730078377338
20
11.330240462347604
30
0
11
-133.68580965312543
21
21.177143000002339
31
0
0
LINE
5
137
100
AcDbEntity
8
0
100
AcDbLine
10
-133.68580965312543
20
21.177143000002339
30
0
11
-132.68961494438204
21
21.089987378962508
31
0
0
LINE
5
138
100
AcDbEntity
8
0
100
AcDbLine
10
-133.55110607503713
20
11.243084841308406
30
0
11
-134.54730078377338
21
11.330240462347604
31
0
0
LINE
5
139
100
AcDbEntity
8
0
100
AcDbLine
10
-132.68961494438204
20
21.089987378962508
30
0
11
-133.55110607503713
21
11.243084841308406
31
0
0
LINE
5
140
100
AcDbEntity
8
0
100
AcDbLine
10
-117.68961561941596
20
3.8228570000000293
30
0
11
-117.68961499982427
21
19.677143000001482
31
0
0
LINE
5
141
100
AcDbEntity
8
0
100
AcDbLine
10
-117.68961499982427
20
19.677143000001482
30
0
11
-115.05682299982428
21
19.677143000001482
31
0
0
LINE
5
142
100
AcDbEntity
8
0
100
AcDbLine
10
-115.05682299982428
20
3.8228570000000293
30
0
11
-117.68961561941596
21
3.8228570000000293
31
0
0
LINE
5
143
100
AcDbEntity
8
0
100
AcDbLine
10
-115.05682299982428
20
19.677143000001482
30
0
11
-115.05682299982428
21
3.8228570000000284
31
0
0
ARC
5
144
100
AcDbEntity
8
0
100
AcDbCircle
10
-350.50000000005116
20
21.177143000002751
30
0
40
2.5000000000008527
210
0
220
0
230
1
100
AcDbArc
50
-180
51
0
0
LINE
5
145
100
AcDbEntity
8
0
100
AcDbLine
10
-353.00000000005195
20
3.8228570000003126
30
0
11
-356.00000000005195
21
3.8228569999981605
31
0
0
ARC
5
146
100
AcDbEntity
8
0
100
AcDbCircle
10
-350.50000000005292
20
3.8228569999981921
30
0
40
2.5000000000009237
210
-0
220
0
230
1
100
AcDbArc
50
0
51
180
0
LINE
5
147
100
AcDbEntity
8
0
100
AcDbLine
10
-353.00000000005195
20
21.177143000000637
30
0
11
-356.00000000005195
21
21.177143000002793
31
0
0
LINE
5
148
100
AcDbEntity
8
0
100
AcDbLine
10
-361.00000000005201
20
21.177143000000637
30
0
11
-364.00000000005207
21
21.177143000002793
31
0
0
ARC
5
149
100
AcDbEntity
8
0
100
AcDbCircle
10
-358.5000000000511
20
21.177143000002751
30
0
40
2.5000000000009237
210
0
220
0
230
1
100
AcDbArc
50
-180
51
0
0
LINE
5
150
100
AcDbEntity
8
0
100
AcDbLine
10
-369.00000000005207
20
21.177143000000637
30
0
11
-372.00000000005207
21
21.177143000002793
31
0
0
ARC
5
151
100
AcDbEntity
8
0
100
AcDbCircle
10
-366.50000000005105
20
21.177143000002751
30
0
40
2.5000000000009948
210
0
220
0
230
1
100
AcDbArc
50
-180
51
0
0
LINE
5
152
100
AcDbEntity
8
0
100
AcDbLine
10
-377.00000000005207
20
21.177143000000637
30
0
11
-380.00000000005201
21
21.177143000002793
31
0
0
ARC
5
153
100
AcDbEntity
8
0
100
AcDbCircle
10
-374.5000000000511
20
21.177143000002751
30
0
40
2.5000000000009237
210
0
220
0
230
1
100
AcDbArc
50
-180
51
0
0
LINE
5
154
100
AcDbEntity
8
0
100
AcDbLine
10
-385.00000000005201
20
21.177143000000637
30
0
11
-388.00000000005195
21
21.177143000002793
31
0
0
ARC
5
155
100
AcDbEntity
8
0
100
AcDbCircle
10
-382.50000000005116
20
21.177143000002751
30
0
40
2.5000000000008527
210
0
220
0
230
1
100
AcDbArc
50
-180
51
0
0
LINE
5
156
100
AcDbEntity
8
0
100
AcDbLine
10
-393.00000000005207
20
21.177143000000637
30
0
11
-396.00000000005207
21
21.177143000002793
31
0
0
ARC
5
157
100
AcDbEntity
8
0
100
AcDbCircle
10
-390.50000000005116
20
21.177143000002751
30
0
40
2.5000000000009237
210
0
220
0
230
1
100
AcDbArc
50
-180
51
0
0
LINE
5
158
100
AcDbEntity
8
0
100
AcDbLine
10
-401.00000000005207
20
21.177143000000637
30
0
11
-404.00000000005207
21
21.177143000002793
31
0
0
ARC
5
159
100
AcDbEntity
8
0
100
AcDbCircle
10
-398.5000000000511
20
21.177143000002751
30
0
40
2.5000000000009948
210
0
220
0
230
1
100
AcDbArc
50
-180
51
0
0
LINE
5
160
100
AcDbEntity
8
0
100
AcDbLine
10
-409.00000000005207
20
21.177143000000637
30
0
11
-412.00000000005207
21
21.177143000002793
31
0
0
ARC
5
161
100
AcDbEntity
8
0
100
AcDbCircle
10
-406.50000000005116
20
21.177143000002751
30
0
40
2.5000000000009237
210
0
220
0
230
1
100
AcDbArc
50
-180
51
0
0
LINE
5
162
100
AcDbEntity
8
0
100
AcDbLine
10
-417.00000000005207
20
21.177143000000637
30
0
11
-420.00000000005201
21
21.177143000002793
31
0
0
ARC
5
163
100
AcDbEntity
8
0
100
AcDbCircle
10
-414.50000000005116
20
21.177143000002751
30
0
40
2.5000000000008527
210
0
220
0
230
1
100
AcDbArc
50
-180
51
0
0
LINE
5
164
100
AcDbEntity
8
0
100
AcDbLine
10
-425.00000000005207
20
21.177143000000637
30
0
11
-428.00000000005213
21
21.177143000002793
31
0
0
ARC
5
165
100
AcDbEntity
8
0
100
AcDbCircle
10
-422.50000000005116
20
21.177143000002751
30
0
40
2.5000000000009237
210
0
220
0
230
1
100
AcDbArc
50
-180
51
0
0
LINE
5
166
100
AcDbEntity
8
0
100
AcDbLine
10
-433.00000000005213
20
21.177143000000637
30
0
11
-436.00000000005207
21
21.177143000002793
31
0
0
ARC
5
167
100
AcDbEntity
8
0
100
AcDbCircle
10
-430.50000000005116
20
21.177143000002751
30
0
40
2.5000000000009948
210
0
220
0
230
1
100
AcDbArc
50
-180
51
0
0
LINE
5
168
100
AcDbEntity
8
0
100
AcDbLine
10
-441.00000000005207
20
21.177143000000637
30
0
11
-444.00000000005207
21
21.177143000002793
31
0
0
ARC
5
169
100
AcDbEntity
8
0
100
AcDbCircle
10
-438.50000000005116
20
21.177143000002751
30
0
40
2.5000000000009237
210
0
220
0
230
1
100
AcDbArc
50
-180
51
0
0
LINE
5
170
100
AcDbEntity
8
0
100
AcDbLine
10
-449.00000000005207
20
21.177143000000637
30
0
11
-452.00000000005207
21
21.177143000002793
31
0
0
ARC
5
171
100
AcDbEntity
8
0
100
AcDbCircle
10
-446.50000000005122
20
21.177143000002751
30
0
40
2.5000000000008527
210
0
220
0
230
1
100
AcDbArc
50
-180
51
0
0
ARC
5
172
100
AcDbEntity
8
0
100
AcDbCircle
10
-454.50000000005309
20
3.8228569999984701
30
0
40
2.5000000000009948
210
-0
220
0
230
1
100
AcDbArc
50
0
51
180
0
LINE
5
173
100
AcDbEntity
8
0
100
AcDbLine
10
-457.00000000005213
20
3.8228570000005884
30
0
11
-460.00000000005218
21
3.8228569999984368
31
0
0
LINE
5
174
100
AcDbEntity
8
0
100
AcDbLine
10
-460.00000000005218
20
3.8228569999984368
30
0
11
-466.12770104566954
21
3.8228570000094244
31
0
0
ARC
5
175
100
AcDbEntity
8
0
100
AcDbCircle
10
-466.12770104566937
20
6.8228570000092699
30
0
40
2.9999999999998455
210
0
220
0
230
1
100
AcDbArc
50
220.8381610032728
51
269.99999999999676
0
LINE
5
176
100
AcDbEntity
8
0
100
AcDbLine
10
-473.30436072135535
20
10.538226066979757
30
0
11
-468.39738010573751
21
4.8610830669866578
31
0
0
ARC
5
177
100
AcDbEntity
8
0
100
AcDbCircle
10
-471.0346816612871
20
12.500000000002432
30
0
40
2.9999999999999387
210
0
220
0
230
1
100
AcDbArc
50
139.16183899672777
51
220.83816100327226
0
LINE
5
178
100
AcDbEntity
8
0
100
AcDbLine
10
-473.30436072135535
20
14.461773933025103
30
0
11
-468.39738010573433
21
20.138916933021878
31
0
0
ARC
5
179
100
AcDbEntity
8
0
100
AcDbCircle
10
-466.12770104566613
20
18.177142999999255
30
0
40
2.9999999999998517
210
0
220
-0
230
1
100
AcDbArc
50
90
51
139.16183899672774
0
LINE
5
180
100
AcDbEntity
8
0
100
AcDbLine
10
-460.00000000005218
20
21.177143000002793
30
0
11
-466.12770104566613
21
21.177142999999106
31
0
0
LINE
5
181
100
AcDbEntity
8
0
100
AcDbLine
10
-457.00000000005213
20
21.177143000000637
30
0
11
-460.00000000005218
21
21.177143000002793
31
0
0
ARC
5
182
100
AcDbEntity
8
0
100
AcDbCircle
10
-454.50000000005116
20
21.177143000002751
30
0
40
2.5000000000009237
210
0
220
0
230
1
100
AcDbArc
50
-180
51
0
0
LINE
5
183
100
AcDbEntity
8
0
100
AcDbLine
10
-449.00000000005207
20
3.8228570000005679
30
0
11
-452.00000000005207
21
3.8228569999984159
31
0
0
ARC
5
184
100
AcDbEntity
8
0
100
AcDbCircle
10
-446.50000000005309
20
3.8228569999984474
30
0
40
2.5000000000009948
210
-0
220
0
230
1
100
AcDbArc
50
0
51
180
0
LINE
5
185
100
AcDbEntity
8
0
100
AcDbLine
10
-441.00000000005207
20
3.8228570000005457
30
0
11
-444.00000000005207
21
3.8228569999983937
31
0
0
ARC
5
186
100
AcDbEntity
8
0
100
AcDbCircle
10
-438.50000000005303
20
3.8228569999984252
30
0
40
2.5000000000009237
210
-0
220
0
230
1
100
AcDbArc
50
0
51
180
0
LINE
5
187
100
AcDbEntity
8
0
100
AcDbLine
10
-433.00000000005213
20
3.8228570000005253
30
0
11
-436.00000000005207
21
3.8228569999983737
31
0
0
ARC
5
188
100
AcDbEntity
8
0
100
AcDbCircle
10
-430.50000000005309
20
3.8228569999984048
30
0
40
2.5000000000009948
210
-0
220
0
230
1
100
AcDbArc
50
0
51
180
0
LINE
5
189
100
AcDbEntity
8
0
100
AcDbLine
10
-425.00000000005207
20
3.8228570000005035
30
0
11
-428.00000000005213
21
3.8228569999983519
31
0
0
ARC
5
190
100
AcDbEntity
8
0
100
AcDbCircle
10
-422.50000000005298
20
3.822856999998383
30
0
40
2.5000000000009237
210
-0
220
0
230
1
100
AcDbArc
50
0
51
180
0
LINE
5
191
100
AcDbEntity
8
0
100
AcDbLine
10
-417.00000000005207
20
3.8228570000004831
30
0
11
-420.00000000005201
21
3.8228569999983315
31
0
0
ARC
5
192
100
AcDbEntity
8
0
100
AcDbCircle
10
-414.50000000005303
20
3.8228569999983626
30
0
40
2.5000000000009948
210
-0
220
0
230
1
100
AcDbArc
50
0
51
180
0
LINE
5
193
100
AcDbEntity
8
0
100
AcDbLine
10
-409.00000000005207
20
3.8228570000004614
30
0
11
-412.00000000005207
21
3.8228569999983097
31
0
0
ARC
5
194
100
AcDbEntity
8
0
100
AcDbCircle
10
-406.50000000005309
20
3.8228569999983408
30
0
40
2.5000000000009948
210
-0
220
0
230
1
100
AcDbArc
50
0
51
180
0
LINE
5
195
100
AcDbEntity
8
0
100
AcDbLine
10
-401.00000000005207
20
3.8228570000004396
30
0
11
-404.00000000005207
21
3.8228569999982875
31
0
0
ARC
5
196
100
AcDbEntity
8
0
100
AcDbCircle
10
-398.50000000005303
20
3.8228569999983191
30
0
40
2.5000000000009237
210
-0
220
0
230
1
100
AcDbArc
50
0
51
180
0
LINE
5
197
100
AcDbEntity
8
0
100
AcDbLine
10
-393.00000000005207
20
3.8228570000004192
30
0
11
-396.00000000005207
21
3.8228569999982671
31
0
0
ARC
5
198
100
AcDbEntity
8
0
100
AcDbCircle
10
-390.50000000005303
20
3.8228569999982986
30
0
40
2.5000000000009948
210
-0
220
0
230
1
100
AcDbArc
50
0
51
180
0
LINE
5
199
100
AcDbEntity
8
0
100
AcDbLine
10
-385.00000000005201
20
3.8228570000003974
30
0
11
-388.00000000005195
21
3.822856999998244
31
0
0
ARC
5
200
100
AcDbEntity
8
0
100
AcDbCircle
10
-382.50000000005292
20
3.8228569999982769
30
0
40
2.5000000000009237
210
-0
220
0
230
1
100
AcDbArc
50
0
51
180
0
LINE
5
201
100
AcDbEntity
8
0
100
AcDbLine
10
-377.00000000005207
20
3.8228570000003765
30
0
11
-380.00000000005201
21
3.8228569999982236
31
0
0
ARC
5
202
100
AcDbEntity
8
0
100
AcDbCircle
10
-374.50000000005303
20
3.822856999998256
30
0
40
2.5000000000009948
210
-0
220
0
230
1
100
AcDbArc
50
0
51
180
0
LINE
5
203
100
AcDbEntity
8
0
100
AcDbLine
10
-369.00000000005207
20
3.8228570000003548
30
0
11
-372.00000000005207
21
3.8228569999982023
31
0
0
ARC
5
204
100
AcDbEntity
8
0
100
AcDbCircle
10
-366.50000000005309
20
3.8228569999982343
30
0
40
2.5000000000009948
210
-0
220
0
230
1
100
AcDbArc
50
0
51
180
0
LINE
5
205
100
AcDbEntity
8
0
100
AcDbLine
10
-361.00000000005201
20
3.8228570000003343
30
0
11
-364.00000000005207
21
3.8228569999981827
31
0
0
ARC
5
206
100
AcDbEntity
8
0
100
AcDbCircle
10
-358.50000000005298
20
3.8228569999982138
30
0
40
2.5000000000009237
210
-0
220
0
230
1
100
AcDbArc
50
0
51
180
0
LINE
5
207
100
AcDbEntity
8
0
100
AcDbLine
10
0
20
1.75
30
0
11
0
21
22.5
31
0
0
LINE
5
208
100
AcDbEntity
8
0
100
AcDbLine
10
5.2011728257639334e-11
20
25.000000000000014
30
0
11
178.00000000005198
21
24.99999999999973
31
0
0
LINE
5
209
100
AcDbEntity
8
0
100
AcDbLine
10
177.99999999999997
20
4.8768474844783205e-13
30
0
11
0
21
0
31
0
0
LINE
5
210
100
AcDbEntity
8
0
100
AcDbLine
10
180.00000000005201
20
24.999999999999723
30
0
11
196.7815441482432
21
25.000000000000075
31
0
0
LINE
5
211
100
AcDbEntity
8
0
100
AcDbLine
10
180.49999999999997
20
21.177143000001198
30
0
11
178.00000000005198
21
24.99999999999973
31
0
0
LINE
5
212
100
AcDbEntity
8
0
100
AcDbLine
10
180.00000000005201
20
24.999999999999723
30
0
11
182.50000000005201
21
21.177143000002001
31
0
0
LINE
5
213
100
AcDbEntity
8
0
100
AcDbLine
10
182.50000000005201
20
21.177143000002001
30
0
11
180.49999999999997
21
21.177143000001198
31
0
0
LINE
5
214
100
AcDbEntity
8
0
100
AcDbLine
10
196.78154493611405
20
-8.3266726846886741e-16
30
0
11
179.99999999999997
21
4.8768474844783205e-13
31
0
0
LINE
5
215
100
AcDbEntity
8
0
100
AcDbLine
10
179.99999999999997
20
4.8768474844783205e-13
30
0
11
182.49999999994643
21
3.8228570000000155
31
0
0
LINE
5
216
100
AcDbEntity
8
0
100
AcDbLine
10
182.49999999994643
20
3.8228570000000155
30
0
11
180.49999999994643
21
3.8228570000000159
31
0
0
LINE
5
217
100
AcDbEntity
8
0
100
AcDbLine
10
180.49999999994643
20
3.8228570000000159
30
0
11
177.99999999999997
21
4.879430193227563e-13
31
0
0
LINE
5
218
100
AcDbEntity
8
0
100
AcDbLine
10
190.00000000005201
20
3.8228570000000146
30
0
11
190.00000000005198
21
21.177143000002037
31
0
0
LINE
5
219
100
AcDbEntity
8
0
100
AcDbLine
10
188.00000000005198
20
21.177143000002037
30
0
11
188.00000000005198
21
3.822857000000015
31
0
0
LINE
5
220
100
AcDbEntity
8
0
100
AcDbLine
10
188.00000000005198
20
3.8228570000000146
30
0
11
190.00000000005201
21
3.8228570000000146
31
0
0
LINE
5
221
100
AcDbEntity
8
0
100
AcDbLine
10
190.00000000005198
20
21.177143000002037
30
0
11
188.00000000005198
21
21.177143000002037
31
0
0
LINE
5
222
100
AcDbEntity
8
0
100
AcDbLine
10
172.50000000005198
20
21.177143000002037
30
0
11
172.49999999999937
21
3.8228570000001572
31
0
0
LINE
5
223
100
AcDbEntity
8
0
100
AcDbLine
10
173.49999967567419
20
3.8228570000000177
30
0
11
173.50000000005198
21
21.177143000002037
31
0
0
LINE
5
224
100
AcDbEntity
8
0
100
AcDbLine
10
173.50000000005198
20
21.177143000002037
30
0
11
172.50000000005198
21
21.177143000002037
31
0
0
LINE
5
225
100
AcDbEntity
8
0
100
AcDbLine
10
172.49999999999937
20
3.8228570000001563
30
0
11
173.49999967567419
21
3.8228570000000177
31
0
0
LINE
5
226
100
AcDbEntity
8
0
100
AcDbLine
10
152.70183136186964
20
21.089987378962537
30
0
11
153.56332301391956
21
11.243078881727248
31
0
0
LINE
5
227
100
AcDbEntity
8
0
100
AcDbLine
10
154.55951772265118
20
11.330234502766032
30
0
11
153.69802607060944
21
21.177143000002165
31
0
0
LINE
5
228
100
AcDbEntity
8
0
100
AcDbLine
10
153.69802607060944
20
21.177143000002165
30
0
11
152.70183136186964
21
21.089987378962537
31
0
0
LINE
5
229
100
AcDbEntity
8
0
100
AcDbLine
10
153.56332301391956
20
11.243078881727248
30
0
11
154.55951772265118
21
11.330234502766032
31
0
0
LINE
5
230
100
AcDbEntity
8
0
100
AcDbLine
10
142.6955886531297
20
21.089987378963237
30
0
11
143.55708004523999
21
11.243081852857308
31
0
0
LINE
5
231
100
AcDbEntity
8
0
100
AcDbLine
10
144.55327475398047
20
11.330237473896883
30
0
11
143.69178336186957
21
21.177143000002097
31
0
0
LINE
5
232
100
AcDbEntity
8
0
100
AcDbLine
10
143.55708004523999
20
11.243081852857308
30
0
11
144.55327475398047
21
11.330237473896883
31
0
0
LINE
5
233
100
AcDbEntity
8
0
100
AcDbLine
10
143.69178336186957
20
21.177143000002097
30
0
11
142.6955886531297
21
21.089987378963237
31
0
0
LINE
5
234
100
AcDbEntity
8
0
100
AcDbLine
10
133.68580965312543
20
21.177143000002339
30
0
11
132.68961494438204
21
21.089987378962508
31
0
0
LINE
5
235
100
AcDbEntity
8
0
100
AcDbLine
10
132.68961494438204
20
21.089987378962508
30
0
11
133.55110607503713
21
11.243084841308406
31
0
0
LINE
5
236
100
AcDbEntity
8
0
100
AcDbLine
10
134.54730078377338
20
11.330240462347604
30
0
11
133.68580965312543
21
21.177143000002339
31
0
0
LINE
5
237
100
AcDbEntity
8
0
100
AcDbLine
10
133.55110607503713
20
11.243084841308406
30
0
11
134.54730078377338
21
11.330240462347604
31
0
0
LINE
5
238
100
AcDbEntity
8
0
100
AcDbLine
10
115.05682299982428
20
19.677143000001482
30
0
11
115.05682299982428
21
3.8228570000000284
31
0
0
LINE
5
239
100
AcDbEntity
8
0
100
AcDbLine
10
117.68961499982427
20
19.677143000001482
30
0
11
115.05682299982428
21
19.677143000001482
31
0
0
LINE
5
240
100
AcDbEntity
8
0
100
AcDbLine
10
117.68961561941596
20
3.8228570000000293
30
0
11
117.68961499982427
21
19.677143000001482
31
0
0
LINE
5
241
100
AcDbEntity
8
0
100
AcDbLine
10
115.05682299982428
20
3.8228570000000293
30
0
11
117.68961561941596
21
3.8228570000000293
31
0
0
LINE
5
242
100
AcDbEntity
8
0
100
AcDbLine
10
196.7815441482432
20
25.000000000000075
30
0
11
191.00000000005201
21
25.000000000000075
31
0
0
LINE
5
243
100
AcDbEntity
8
0
100
AcDbLine
10
195.00000000005201
20
21.000000000000089
30
0
11
195.00000000005201
21
4.0000000000000115
31
0
0
LINE
5
244
100
AcDbEntity
8
0
100
AcDbLine
10
191.00000000005201
20
1.1448474579013935e-14
30
0
11
196.78154493611405
21
-8.3266726846886741e-16
31
0
0
ARC
5
245
100
AcDbEntity
8
0
100
AcDbCircle
10
191.00000000005201
20
21.000000000000078
30
0
40
3.9999999999999858
210
0
220
-0
230
1
100
AcDbArc
50
0
51
90
0
ARC
5
246
100
AcDbEntity
8
0
100
AcDbCircle
10
191.00000000005201
20
4.0000000000000115
30
0
40
4
210
-0
220
0
230
1
100
AcDbArc
50
-90
51
0
0
ENDSEC
0
SECTION
2
OBJECTS
0
DICTIONARY
5
C
100
AcDbDictionary
3
ACAD_GROUP
350
D
3
ACAD_MLINESTYLE
350
17
0
DICTIONARY
5
D
100
AcDbDictionary
0
DICTIONARY
5
1A
330
C
100
AcDbDictionary
0
DICTIONARY
5
17
100
AcDbDictionary
0
ENDSEC
0
EOF
