  0
SECTION
  2
HEADER
  9
$ACADVER
  1
AC1014
  9
$HANDSEED
  5
FFFF
  9
$MEASUREMENT
 70
     1
  0
ENDSEC
  0
SECTION
  2
TABLES
  0
TABLE
  2
VPORT
  5
8
330
0
100
AcDbSymbolTable
 70
     4
  0
VPORT
  5
2E
330
8
100
AcDbSymbolTableRecord
100
AcDbViewportTableRecord
  2
*ACTIVE
 70
     0
 10
0.0
 20
0.0
 11
1.0
 21
1.0
 12
210.0
 22
148.5
 13
0.0
 23
0.0
 14
10.0
 24
10.0
 15
10.0
 25
10.0
 16
0.0
 26
0.0
 36
1.0
 17
0.0
 27
0.0
 37
0.0
 40
341.0
 41
1.24
 42
50.0
 43
0.0
 44
0.0
 50
0.0
 51
0.0
 71
     0
 72
   100
 73
     1
 74
     3
 75
     0
 76
     0
 77
     0
 78
     0
  0
ENDTAB
  0
TABLE
  2
LTYPE
  5
5
330
0
100
AcDbSymbolTable
 70
     1
  0
LTYPE
  5
14
330
5
100
AcDbSymbolTableRecord
100
AcDbLinetypeTableRecord
  2
BYBLOCK
 70
     0
  3

 72
    65
 73
     0
 40
0.0
  0
LTYPE
  5
15
330
5
100
AcDbSymbolTableRecord
100
AcDbLinetypeTableRecord
  2
BYLAYER
 70
     0
  3

 72
    65
 73
     0
 40
0.0
  0
LTYPE
  5
16
330
5
100
AcDbSymbolTableRecord
100
AcDbLinetypeTableRecord
  2
CONTINUOUS
 70
     0
  3
Solid line
 72
    65
 73
     0
 40
0.0
  0
ENDTAB
  0
TABLE
  2
LAYER
  5
2
100
AcDbSymbolTable
 70
2
  0
LAYER
  5
50
100
AcDbSymbolTableRecord
100
AcDbLayerTableRecord
  2
0
 70
0
  6
CONTINUOUS
  0
LAYER
  5
51
100
AcDbSymbolTableRecord
100
AcDbLayerTableRecord
  2
Calque_1
 70
0
  6
CONTINUOUS
  0
ENDTAB
  0
TABLE
  2
STYLE
  5
3
330
0
100
AcDbSymbolTable
 70
     1
  0
STYLE
  5
11
330
3
100
AcDbSymbolTableRecord
100
AcDbTextStyleTableRecord
  2
STANDARD
 70
     0
 40
0.0
 41
1.0
 50
0.0
 71
     0
 42
2.5
  3
txt
  4

  0
ENDTAB
  0
TABLE
  2
VIEW
  5
6
330
0
100
AcDbSymbolTable
 70
     0
  0
ENDTAB
  0
TABLE
  2
UCS
  5
7
330
0
100
AcDbSymbolTable
 70
     0
  0
ENDTAB
  0
TABLE
  2
APPID
  5
9
330
0
100
AcDbSymbolTable
 70
     2
  0
APPID
  5
12
330
9
100
AcDbSymbolTableRecord
100
AcDbRegAppTableRecord
  2
ACAD
 70
     0
  0
ENDTAB
  0
TABLE
  2
DIMSTYLE
  5
A
330
0
100
AcDbSymbolTable
 70
     1
  0
DIMSTYLE
105
27
330
A
100
AcDbSymbolTableRecord
100
AcDbDimStyleTableRecord
  2
ISO-25
 70
     0
  3

  4

  5

  6

  7

 40
1.0
 41
2.5
 42
0.625
 43
3.75
 44
1.25
 45
0.0
 46
0.0
 47
0.0
 48
0.0
140
2.5
141
2.5
142
0.0
143
0.03937007874016
144
1.0
145
0.0
146
1.0
147
0.625
 71
     0
 72
     0
 73
     0
 74
     0
 75
     0
 76
     0
 77
     1
 78
     8
170
     0
171
     3
172
     1
173
     0
174
     0
175
     0
176
     0
177
     0
178
     0
270
     2
271
     2
272
     2
273
     2
274
     3
340
11
275
     0
280
     0
281
     0
282
     0
283
     0
284
     8
285
     0
286
     0
287
     3
288
     0
  0
ENDTAB
  0
TABLE
  2
BLOCK_RECORD
  5
1
330
0
100
AcDbSymbolTable
 70
     1
  0
BLOCK_RECORD
  5
1F
330
1
100
AcDbSymbolTableRecord
100
AcDbBlockTableRecord
  2
*MODEL_SPACE
  0
BLOCK_RECORD
  5
1B
330
1
100
AcDbSymbolTableRecord
100
AcDbBlockTableRecord
  2
*PAPER_SPACE
  0
ENDTAB
  0
ENDSEC
  0
SECTION
  2
BLOCKS
  0
BLOCK
  5
20
330
1F
100
AcDbEntity
  8
0
100
AcDbBlockBegin
  2
*MODEL_SPACE
 70
     0
 10
0.0
 20
0.0
 30
0.0
  3
*MODEL_SPACE
  1

  0
ENDBLK
  5
21
330
1F
100
AcDbEntity
  8
0
100
AcDbBlockEnd
  0
BLOCK
  5
1C
330
1B
100
AcDbEntity
 67
     1
  8
0
100
AcDbBlockBegin
  2
*PAPER_SPACE
  1

  0
ENDBLK
  5
1D
330
1B
100
AcDbEntity
 67
     1
  8
0
100
AcDbBlockEnd
  0
ENDSEC
  0
SECTION
  2
ENTITIES
  0
LWPOLYLINE
  5
100
100
AcDbEntity
  8
Calque_1
 62
7
100
AcDbPolyline
 90
14
 70
0
 10
70.053564
 20
116.116887
 30
0.0
 10
9.115380
 20
113.628443
 30
0.0
 10
9.115380
 20
107.683259
 30
0.0
 10
7.629081
 20
107.683259
 30
0.0
 10
7.629081
 20
110.655831
 30
0.0
 10
0.197599
 20
106.196972
 30
0.0
 10
0.197595
 20
97.279176
 30
0.0
 10
7.629081
 20
92.820277
 30
0.0
 10
7.629081
 20
95.792889
 30
0.0
 10
9.115380
 20
95.792889
 30
0.0
 10
9.115380
 20
92.374411
 30
0.0
 10
47.759108
 20
93.952442
 30
0.0
 10
70.053564
 20
83.418351
 30
0.0
 10
290.025549
 20
83.418351
 30
0.0
  0
SPLINE
  5
101
100
AcDbEntity
  8
Calque_1
 62
7
100
AcDbSpline
 70
8
 71
3
 72
8
 73
4
 74
0
 40
0
 40
0
 40
0
 40
0
 40
1
 40
1
 40
1
 40
1
 10
227.950822
 20
97.816787
 30
0.0
 10
227.793581
 20
98.043967
 30
0.0
 10
227.636344
 20
98.271187
 30
0.0
 10
227.498455
 20
98.509928
 30
0.0
  0
SPLINE
  5
102
100
AcDbEntity
  8
Calque_1
 62
7
100
AcDbSpline
 70
8
 71
3
 72
8
 73
4
 74
0
 40
0
 40
0
 40
0
 40
0
 40
1
 40
1
 40
1
 40
1
 10
227.498455
 20
98.509928
 30
0.0
 10
227.307737
 20
98.840179
 30
0.0
 10
227.154044
 20
99.192492
 30
0.0
 10
227.034547
 20
99.556562
 30
0.0
  0
SPLINE
  5
103
100
AcDbEntity
  8
Calque_1
 62
7
100
AcDbSpline
 70
8
 71
3
 72
8
 73
4
 74
0
 40
0
 40
0
 40
0
 40
0
 40
1
 40
1
 40
1
 40
1
 10
227.034547
 20
99.556562
 30
0.0
 10
226.841308
 20
100.145296
 30
0.0
 10
226.737518
 20
100.764624
 30
0.0
 10
226.713010
 20
101.379784
 30
0.0
  0
SPLINE
  5
104
100
AcDbEntity
  8
Calque_1
 62
7
100
AcDbSpline
 70
8
 71
3
 72
8
 73
4
 74
0
 40
0
 40
0
 40
0
 40
0
 40
1
 40
1
 40
1
 40
1
 10
226.713010
 20
101.379784
 30
0.0
 10
226.671090
 20
102.432002
 30
0.0
 10
226.861116
 20
103.471911
 30
0.0
 10
227.104522
 20
104.522202
 30
0.0
  0
SPLINE
  5
105
100
AcDbEntity
  8
Calque_1
 62
7
100
AcDbSpline
 70
8
 71
3
 72
8
 73
4
 74
0
 40
0
 40
0
 40
0
 40
0
 40
1
 40
1
 40
1
 40
1
 10
227.104522
 20
104.522202
 30
0.0
 10
227.391000
 20
105.758303
 30
0.0
 10
227.751421
 20
107.008757
 30
0.0
 10
228.481815
 20
107.985353
 30
0.0
  0
SPLINE
  5
106
100
AcDbEntity
  8
Calque_1
 62
7
100
AcDbSpline
 70
8
 71
3
 72
8
 73
4
 74
0
 40
0
 40
0
 40
0
 40
0
 40
1
 40
1
 40
1
 40
1
 10
228.481815
 20
107.985353
 30
0.0
 10
229.031916
 20
108.720887
 30
0.0
 10
229.791878
 20
109.301048
 30
0.0
 10
230.551841
 20
109.881209
 30
0.0
  0
SPLINE
  5
107
100
AcDbEntity
  8
Calque_1
 62
7
100
AcDbSpline
 70
8
 71
3
 72
8
 73
4
 74
0
 40
0
 40
0
 40
0
 40
0
 40
1
 40
1
 40
1
 40
1
 10
230.551841
 20
109.881209
 30
0.0
 10
231.311803
 20
109.301048
 30
0.0
 10
232.071770
 20
108.720887
 30
0.0
 10
232.621867
 20
107.985353
 30
0.0
  0
SPLINE
  5
108
100
AcDbEntity
  8
Calque_1
 62
7
100
AcDbSpline
 70
8
 71
3
 72
8
 73
4
 74
0
 40
0
 40
0
 40
0
 40
0
 40
1
 40
1
 40
1
 40
1
 10
232.621867
 20
107.985353
 30
0.0
 10
233.352261
 20
107.008757
 30
0.0
 10
233.712682
 20
105.758303
 30
0.0
 10
233.999160
 20
104.522202
 30
0.0
  0
SPLINE
  5
109
100
AcDbEntity
  8
Calque_1
 62
7
100
AcDbSpline
 70
8
 71
3
 72
8
 73
4
 74
0
 40
0
 40
0
 40
0
 40
0
 40
1
 40
1
 40
1
 40
1
 10
233.999160
 20
104.522202
 30
0.0
 10
234.242566
 20
103.471911
 30
0.0
 10
234.432592
 20
102.432002
 30
0.0
 10
234.390671
 20
101.379784
 30
0.0
  0
SPLINE
  5
10a
100
AcDbEntity
  8
Calque_1
 62
7
100
AcDbSpline
 70
8
 71
3
 72
8
 73
4
 74
0
 40
0
 40
0
 40
0
 40
0
 40
1
 40
1
 40
1
 40
1
 10
234.390671
 20
101.379784
 30
0.0
 10
234.366172
 20
100.764624
 30
0.0
 10
234.262374
 20
100.145296
 30
0.0
 10
234.069135
 20
99.556562
 30
0.0
  0
SPLINE
  5
10b
100
AcDbEntity
  8
Calque_1
 62
7
100
AcDbSpline
 70
8
 71
3
 72
8
 73
4
 74
0
 40
0
 40
0
 40
0
 40
0
 40
1
 40
1
 40
1
 40
1
 10
234.069135
 20
99.556562
 30
0.0
 10
233.949638
 20
99.192492
 30
0.0
 10
233.795945
 20
98.840179
 30
0.0
 10
233.605226
 20
98.509928
 30
0.0
  0
SPLINE
  5
10c
100
AcDbEntity
  8
Calque_1
 62
7
100
AcDbSpline
 70
8
 71
3
 72
8
 73
4
 74
0
 40
0
 40
0
 40
0
 40
0
 40
1
 40
1
 40
1
 40
1
 10
233.605226
 20
98.509928
 30
0.0
 10
233.467337
 20
98.271187
 30
0.0
 10
233.310101
 20
98.043967
 30
0.0
 10
233.152860
 20
97.816787
 30
0.0
  0
SPLINE
  5
10d
100
AcDbEntity
  8
Calque_1
 62
7
100
AcDbSpline
 70
8
 71
3
 72
8
 73
4
 74
0
 40
0
 40
0
 40
0
 40
0
 40
1
 40
1
 40
1
 40
1
 10
112.651444
 20
99.763254
 30
0.0
 10
112.423217
 20
99.918823
 30
0.0
 10
112.194995
 20
100.074353
 30
0.0
 10
111.955306
 20
100.211047
 30
0.0
  0
SPLINE
  5
10e
100
AcDbEntity
  8
Calque_1
 62
7
100
AcDbSpline
 70
8
 71
3
 72
8
 73
4
 74
0
 40
0
 40
0
 40
0
 40
0
 40
1
 40
1
 40
1
 40
1
 10
111.955306
 20
100.211047
 30
0.0
 10
111.623788
 20
100.400121
 30
0.0
 10
111.270344
 20
100.553135
 30
0.0
 10
110.905640
 20
100.668042
 30
0.0
  0
SPLINE
  5
10f
100
AcDbEntity
  8
Calque_1
 62
7
100
AcDbSpline
 70
8
 71
3
 72
8
 73
4
 74
0
 40
0
 40
0
 40
0
 40
0
 40
1
 40
1
 40
1
 40
1
 10
110.905640
 20
100.668042
 30
0.0
 10
110.315856
 20
100.853892
 30
0.0
 10
109.696638
 20
100.940131
 30
0.0
 10
109.080310
 20
100.977490
 30
0.0
  0
SPLINE
  5
110
100
AcDbEntity
  8
Calque_1
 62
7
100
AcDbSpline
 70
8
 71
3
 72
8
 73
4
 74
0
 40
0
 40
0
 40
0
 40
0
 40
1
 40
1
 40
1
 40
1
 10
109.080310
 20
100.977490
 30
0.0
 10
107.765634
 20
101.057202
 30
0.0
 10
106.464100
 20
100.914531
 30
0.0
 10
105.137048
 20
100.762265
 30
0.0
  0
SPLINE
  5
111
100
AcDbEntity
  8
Calque_1
 62
7
100
AcDbSpline
 70
8
 71
3
 72
8
 73
4
 74
0
 40
0
 40
0
 40
0
 40
0
 40
1
 40
1
 40
1
 40
1
 10
105.137048
 20
100.762265
 30
0.0
 10
103.376506
 20
100.560252
 30
0.0
 10
101.571054
 20
100.341291
 30
0.0
 10
100.033759
 20
99.576893
 30
0.0
  0
SPLINE
  5
112
100
AcDbEntity
  8
Calque_1
 62
7
100
AcDbSpline
 70
8
 71
3
 72
8
 73
4
 74
0
 40
0
 40
0
 40
0
 40
0
 40
1
 40
1
 40
1
 40
1
 10
100.033759
 20
99.576893
 30
0.0
 10
98.849213
 20
98.987923
 30
0.0
 10
97.823882
 20
98.075073
 30
0.0
 10
96.798551
 20
97.162263
 30
0.0
  0
SPLINE
  5
113
100
AcDbEntity
  8
Calque_1
 62
7
100
AcDbSpline
 70
8
 71
3
 72
8
 73
4
 74
0
 40
0
 40
0
 40
0
 40
0
 40
1
 40
1
 40
1
 40
1
 10
96.798551
 20
97.162263
 30
0.0
 10
97.823882
 20
96.249413
 30
0.0
 10
98.849213
 20
95.336602
 30
0.0
 10
100.033759
 20
94.747593
 30
0.0
  0
SPLINE
  5
114
100
AcDbEntity
  8
Calque_1
 62
7
100
AcDbSpline
 70
8
 71
3
 72
8
 73
4
 74
0
 40
0
 40
0
 40
0
 40
0
 40
1
 40
1
 40
1
 40
1
 10
100.033759
 20
94.747593
 30
0.0
 10
101.571054
 20
93.983234
 30
0.0
 10
103.376506
 20
93.764273
 30
0.0
 10
105.137048
 20
93.562221
 30
0.0
  0
SPLINE
  5
115
100
AcDbEntity
  8
Calque_1
 62
7
100
AcDbSpline
 70
8
 71
3
 72
8
 73
4
 74
0
 40
0
 40
0
 40
0
 40
0
 40
1
 40
1
 40
1
 40
1
 10
105.137048
 20
93.562221
 30
0.0
 10
106.464100
 20
93.409955
 30
0.0
 10
107.765634
 20
93.267284
 30
0.0
 10
109.080310
 20
93.346996
 30
0.0
  0
SPLINE
  5
116
100
AcDbEntity
  8
Calque_1
 62
7
100
AcDbSpline
 70
8
 71
3
 72
8
 73
4
 74
0
 40
0
 40
0
 40
0
 40
0
 40
1
 40
1
 40
1
 40
1
 10
109.080310
 20
93.346996
 30
0.0
 10
109.696638
 20
93.384354
 30
0.0
 10
110.315856
 20
93.470633
 30
0.0
 10
110.905640
 20
93.656483
 30
0.0
  0
SPLINE
  5
117
100
AcDbEntity
  8
Calque_1
 62
7
100
AcDbSpline
 70
8
 71
3
 72
8
 73
4
 74
0
 40
0
 40
0
 40
0
 40
0
 40
1
 40
1
 40
1
 40
1
 10
110.905640
 20
93.656483
 30
0.0
 10
111.270344
 20
93.771390
 30
0.0
 10
111.623788
 20
93.924404
 30
0.0
 10
111.955306
 20
94.113439
 30
0.0
  0
SPLINE
  5
118
100
AcDbEntity
  8
Calque_1
 62
7
100
AcDbSpline
 70
8
 71
3
 72
8
 73
4
 74
0
 40
0
 40
0
 40
0
 40
0
 40
1
 40
1
 40
1
 40
1
 10
111.955306
 20
94.113439
 30
0.0
 10
112.194995
 20
94.250132
 30
0.0
 10
112.423217
 20
94.405702
 30
0.0
 10
112.651444
 20
94.561232
 30
0.0
  0
LWPOLYLINE
  5
119
100
AcDbEntity
  8
Calque_1
 62
7
100
AcDbPolyline
 90
2
 70
0
 10
290.025549
 20
116.116887
 30
0.0
 10
70.053564
 20
116.116887
 30
0.0
  0
SPLINE
  5
11a
100
AcDbEntity
  8
Calque_1
 62
7
100
AcDbSpline
 70
8
 71
3
 72
8
 73
4
 74
0
 40
0
 40
0
 40
0
 40
0
 40
1
 40
1
 40
1
 40
1
 10
75.670555
 20
107.998881
 30
0.0
 10
76.086680
 20
107.937023
 30
0.0
 10
76.502808
 20
107.875164
 30
0.0
 10
76.869993
 20
107.684399
 30
0.0
  0
SPLINE
  5
11b
100
AcDbEntity
  8
Calque_1
 62
7
100
AcDbSpline
 70
8
 71
3
 72
8
 73
4
 74
0
 40
0
 40
0
 40
0
 40
0
 40
1
 40
1
 40
1
 40
1
 10
76.869993
 20
107.684399
 30
0.0
 10
77.225475
 20
107.499729
 30
0.0
 10
77.535084
 20
107.194253
 30
0.0
 10
77.724501
 20
106.841272
 30
0.0
  0
SPLINE
  5
11c
100
AcDbEntity
  8
Calque_1
 62
7
100
AcDbSpline
 70
8
 71
3
 72
8
 73
4
 74
0
 40
0
 40
0
 40
0
 40
0
 40
1
 40
1
 40
1
 40
1
 10
77.724501
 20
106.841272
 30
0.0
 10
77.920154
 20
106.476651
 30
0.0
 10
77.987573
 20
106.061380
 30
0.0
 10
78.054988
 20
105.646148
 30
0.0
  0
LWPOLYLINE
  5
11d
100
AcDbEntity
  8
Calque_1
 62
7
100
AcDbPolyline
 90
2
 70
0
 10
67.573926
 20
107.998881
 30
0.0
 10
75.670555
 20
107.998881
 30
0.0
  0
SPLINE
  5
11e
100
AcDbEntity
  8
Calque_1
 62
7
100
AcDbSpline
 70
8
 71
3
 72
8
 73
4
 74
0
 40
0
 40
0
 40
0
 40
0
 40
1
 40
1
 40
1
 40
1
 10
78.054988
 20
98.265209
 30
0.0
 10
77.987573
 20
97.849938
 30
0.0
 10
77.920154
 20
97.434666
 30
0.0
 10
77.724501
 20
97.070085
 30
0.0
  0
SPLINE
  5
11f
100
AcDbEntity
  8
Calque_1
 62
7
100
AcDbSpline
 70
8
 71
3
 72
8
 73
4
 74
0
 40
0
 40
0
 40
0
 40
0
 40
1
 40
1
 40
1
 40
1
 10
77.724501
 20
97.070085
 30
0.0
 10
77.535084
 20
96.717104
 30
0.0
 10
77.225475
 20
96.411589
 30
0.0
 10
76.869993
 20
96.226919
 30
0.0
  0
SPLINE
  5
120
100
AcDbEntity
  8
Calque_1
 62
7
100
AcDbSpline
 70
8
 71
3
 72
8
 73
4
 74
0
 40
0
 40
0
 40
0
 40
0
 40
1
 40
1
 40
1
 40
1
 10
76.869993
 20
96.226919
 30
0.0
 10
76.502808
 20
96.036153
 30
0.0
 10
76.086680
 20
95.974295
 30
0.0
 10
75.670555
 20
95.912437
 30
0.0
  0
LWPOLYLINE
  5
121
100
AcDbEntity
  8
Calque_1
 62
7
100
AcDbPolyline
 90
2
 70
0
 10
78.054988
 20
105.646148
 30
0.0
 10
78.054988
 20
98.265209
 30
0.0
  0
SPLINE
  5
122
100
AcDbEntity
  8
Calque_1
 62
7
100
AcDbSpline
 70
8
 71
3
 72
8
 73
4
 74
0
 40
0
 40
0
 40
0
 40
0
 40
1
 40
1
 40
1
 40
1
 10
349.499257
 20
109.881209
 30
0.0
 10
348.739295
 20
109.301048
 30
0.0
 10
347.979328
 20
108.720887
 30
0.0
 10
347.429231
 20
107.985353
 30
0.0
  0
SPLINE
  5
123
100
AcDbEntity
  8
Calque_1
 62
7
100
AcDbSpline
 70
8
 71
3
 72
8
 73
4
 74
0
 40
0
 40
0
 40
0
 40
0
 40
1
 40
1
 40
1
 40
1
 10
347.429231
 20
107.985353
 30
0.0
 10
346.698837
 20
107.008757
 30
0.0
 10
346.338416
 20
105.758303
 30
0.0
 10
346.051938
 20
104.522202
 30
0.0
  0
SPLINE
  5
124
100
AcDbEntity
  8
Calque_1
 62
7
100
AcDbSpline
 70
8
 71
3
 72
8
 73
4
 74
0
 40
0
 40
0
 40
0
 40
0
 40
1
 40
1
 40
1
 40
1
 10
346.051938
 20
104.522202
 30
0.0
 10
345.808532
 20
103.471911
 30
0.0
 10
345.618506
 20
102.432002
 30
0.0
 10
345.660427
 20
101.379784
 30
0.0
  0
SPLINE
  5
125
100
AcDbEntity
  8
Calque_1
 62
7
100
AcDbSpline
 70
8
 71
3
 72
8
 73
4
 74
0
 40
0
 40
0
 40
0
 40
0
 40
1
 40
1
 40
1
 40
1
 10
345.660427
 20
101.379784
 30
0.0
 10
345.684926
 20
100.764624
 30
0.0
 10
345.788724
 20
100.145296
 30
0.0
 10
345.981963
 20
99.556562
 30
0.0
  0
SPLINE
  5
126
100
AcDbEntity
  8
Calque_1
 62
7
100
AcDbSpline
 70
8
 71
3
 72
8
 73
4
 74
0
 40
0
 40
0
 40
0
 40
0
 40
1
 40
1
 40
1
 40
1
 10
345.981963
 20
99.556562
 30
0.0
 10
346.101460
 20
99.192492
 30
0.0
 10
346.255153
 20
98.840179
 30
0.0
 10
346.445872
 20
98.509928
 30
0.0
  0
SPLINE
  5
127
100
AcDbEntity
  8
Calque_1
 62
7
100
AcDbSpline
 70
8
 71
3
 72
8
 73
4
 74
0
 40
0
 40
0
 40
0
 40
0
 40
1
 40
1
 40
1
 40
1
 10
346.445872
 20
98.509928
 30
0.0
 10
346.583761
 20
98.271187
 30
0.0
 10
346.740997
 20
98.043967
 30
0.0
 10
346.898238
 20
97.816787
 30
0.0
  0
SPLINE
  5
128
100
AcDbEntity
  8
Calque_1
 62
7
100
AcDbSpline
 70
8
 71
3
 72
8
 73
4
 74
0
 40
0
 40
0
 40
0
 40
0
 40
1
 40
1
 40
1
 40
1
 10
352.100276
 20
97.816787
 30
0.0
 10
352.257517
 20
98.043967
 30
0.0
 10
352.414754
 20
98.271187
 30
0.0
 10
352.552643
 20
98.509928
 30
0.0
  0
SPLINE
  5
129
100
AcDbEntity
  8
Calque_1
 62
7
100
AcDbSpline
 70
8
 71
3
 72
8
 73
4
 74
0
 40
0
 40
0
 40
0
 40
0
 40
1
 40
1
 40
1
 40
1
 10
352.552643
 20
98.509928
 30
0.0
 10
352.743361
 20
98.840179
 30
0.0
 10
352.897054
 20
99.192492
 30
0.0
 10
353.016551
 20
99.556562
 30
0.0
  0
SPLINE
  5
12a
100
AcDbEntity
  8
Calque_1
 62
7
100
AcDbSpline
 70
8
 71
3
 72
8
 73
4
 74
0
 40
0
 40
0
 40
0
 40
0
 40
1
 40
1
 40
1
 40
1
 10
353.016551
 20
99.556562
 30
0.0
 10
353.209790
 20
100.145296
 30
0.0
 10
353.313580
 20
100.764624
 30
0.0
 10
353.338088
 20
101.379784
 30
0.0
  0
SPLINE
  5
12b
100
AcDbEntity
  8
Calque_1
 62
7
100
AcDbSpline
 70
8
 71
3
 72
8
 73
4
 74
0
 40
0
 40
0
 40
0
 40
0
 40
1
 40
1
 40
1
 40
1
 10
353.338088
 20
101.379784
 30
0.0
 10
353.380008
 20
102.432002
 30
0.0
 10
353.189982
 20
103.471911
 30
0.0
 10
352.946576
 20
104.522202
 30
0.0
  0
SPLINE
  5
12c
100
AcDbEntity
  8
Calque_1
 62
7
100
AcDbSpline
 70
8
 71
3
 72
8
 73
4
 74
0
 40
0
 40
0
 40
0
 40
0
 40
1
 40
1
 40
1
 40
1
 10
352.946576
 20
104.522202
 30
0.0
 10
352.660098
 20
105.758303
 30
0.0
 10
352.299677
 20
107.008757
 30
0.0
 10
351.569283
 20
107.985353
 30
0.0
  0
SPLINE
  5
12d
100
AcDbEntity
  8
Calque_1
 62
7
100
AcDbSpline
 70
8
 71
3
 72
8
 73
4
 74
0
 40
0
 40
0
 40
0
 40
0
 40
1
 40
1
 40
1
 40
1
 10
351.569283
 20
107.985353
 30
0.0
 10
351.019182
 20
108.720887
 30
0.0
 10
350.259219
 20
109.301048
 30
0.0
 10
349.499257
 20
109.881209
 30
0.0
  0
SPLINE
  5
12e
100
AcDbEntity
  8
Calque_1
 62
7
100
AcDbSpline
 70
8
 71
3
 72
8
 73
4
 74
0
 40
0
 40
0
 40
0
 40
0
 40
1
 40
1
 40
1
 40
1
 10
483.252547
 20
97.162263
 30
0.0
 10
482.227216
 20
96.249413
 30
0.0
 10
481.201885
 20
95.336602
 30
0.0
 10
480.017339
 20
94.747593
 30
0.0
  0
SPLINE
  5
12f
100
AcDbEntity
  8
Calque_1
 62
7
100
AcDbSpline
 70
8
 71
3
 72
8
 73
4
 74
0
 40
0
 40
0
 40
0
 40
0
 40
1
 40
1
 40
1
 40
1
 10
480.017339
 20
94.747593
 30
0.0
 10
478.480044
 20
93.983234
 30
0.0
 10
476.674592
 20
93.764273
 30
0.0
 10
474.914050
 20
93.562221
 30
0.0
  0
SPLINE
  5
130
100
AcDbEntity
  8
Calque_1
 62
7
100
AcDbSpline
 70
8
 71
3
 72
8
 73
4
 74
0
 40
0
 40
0
 40
0
 40
0
 40
1
 40
1
 40
1
 40
1
 10
474.914050
 20
93.562221
 30
0.0
 10
473.586998
 20
93.409955
 30
0.0
 10
472.285464
 20
93.267284
 30
0.0
 10
470.970788
 20
93.346996
 30
0.0
  0
SPLINE
  5
131
100
AcDbEntity
  8
Calque_1
 62
7
100
AcDbSpline
 70
8
 71
3
 72
8
 73
4
 74
0
 40
0
 40
0
 40
0
 40
0
 40
1
 40
1
 40
1
 40
1
 10
470.970788
 20
93.346996
 30
0.0
 10
470.354460
 20
93.384354
 30
0.0
 10
469.735242
 20
93.470633
 30
0.0
 10
469.145458
 20
93.656483
 30
0.0
  0
SPLINE
  5
132
100
AcDbEntity
  8
Calque_1
 62
7
100
AcDbSpline
 70
8
 71
3
 72
8
 73
4
 74
0
 40
0
 40
0
 40
0
 40
0
 40
1
 40
1
 40
1
 40
1
 10
469.145458
 20
93.656483
 30
0.0
 10
468.780754
 20
93.771390
 30
0.0
 10
468.427310
 20
93.924404
 30
0.0
 10
468.095792
 20
94.113439
 30
0.0
  0
SPLINE
  5
133
100
AcDbEntity
  8
Calque_1
 62
7
100
AcDbSpline
 70
8
 71
3
 72
8
 73
4
 74
0
 40
0
 40
0
 40
0
 40
0
 40
1
 40
1
 40
1
 40
1
 10
468.095792
 20
94.113439
 30
0.0
 10
467.856103
 20
94.250132
 30
0.0
 10
467.627881
 20
94.405702
 30
0.0
 10
467.399654
 20
94.561232
 30
0.0
  0
SPLINE
  5
134
100
AcDbEntity
  8
Calque_1
 62
7
100
AcDbSpline
 70
8
 71
3
 72
8
 73
4
 74
0
 40
0
 40
0
 40
0
 40
0
 40
1
 40
1
 40
1
 40
1
 10
467.399654
 20
99.763254
 30
0.0
 10
467.627881
 20
99.918823
 30
0.0
 10
467.856103
 20
100.074353
 30
0.0
 10
468.095792
 20
100.211047
 30
0.0
  0
SPLINE
  5
135
100
AcDbEntity
  8
Calque_1
 62
7
100
AcDbSpline
 70
8
 71
3
 72
8
 73
4
 74
0
 40
0
 40
0
 40
0
 40
0
 40
1
 40
1
 40
1
 40
1
 10
468.095792
 20
100.211047
 30
0.0
 10
468.427310
 20
100.400121
 30
0.0
 10
468.780754
 20
100.553135
 30
0.0
 10
469.145458
 20
100.668042
 30
0.0
  0
SPLINE
  5
136
100
AcDbEntity
  8
Calque_1
 62
7
100
AcDbSpline
 70
8
 71
3
 72
8
 73
4
 74
0
 40
0
 40
0
 40
0
 40
0
 40
1
 40
1
 40
1
 40
1
 10
469.145458
 20
100.668042
 30
0.0
 10
469.735242
 20
100.853892
 30
0.0
 10
470.354460
 20
100.940131
 30
0.0
 10
470.970788
 20
100.977490
 30
0.0
  0
SPLINE
  5
137
100
AcDbEntity
  8
Calque_1
 62
7
100
AcDbSpline
 70
8
 71
3
 72
8
 73
4
 74
0
 40
0
 40
0
 40
0
 40
0
 40
1
 40
1
 40
1
 40
1
 10
470.970788
 20
100.977490
 30
0.0
 10
472.285464
 20
101.057202
 30
0.0
 10
473.586998
 20
100.914531
 30
0.0
 10
474.914050
 20
100.762265
 30
0.0
  0
SPLINE
  5
138
100
AcDbEntity
  8
Calque_1
 62
7
100
AcDbSpline
 70
8
 71
3
 72
8
 73
4
 74
0
 40
0
 40
0
 40
0
 40
0
 40
1
 40
1
 40
1
 40
1
 10
474.914050
 20
100.762265
 30
0.0
 10
476.674592
 20
100.560252
 30
0.0
 10
478.480044
 20
100.341291
 30
0.0
 10
480.017339
 20
99.576893
 30
0.0
  0
SPLINE
  5
139
100
AcDbEntity
  8
Calque_1
 62
7
100
AcDbSpline
 70
8
 71
3
 72
8
 73
4
 74
0
 40
0
 40
0
 40
0
 40
0
 40
1
 40
1
 40
1
 40
1
 10
480.017339
 20
99.576893
 30
0.0
 10
481.201885
 20
98.987923
 30
0.0
 10
482.227216
 20
98.075073
 30
0.0
 10
483.252547
 20
97.162263
 30
0.0
  0
LWPOLYLINE
  5
13a
100
AcDbEntity
  8
Calque_1
 62
7
100
AcDbPolyline
 90
2
 70
0
 10
75.670555
 20
95.912437
 30
0.0
 10
67.573926
 20
95.912437
 30
0.0
  0
LWPOLYLINE
  5
13b
100
AcDbEntity
  8
Calque_1
 62
7
100
AcDbPolyline
 90
2
 70
0
 10
509.997534
 20
83.418351
 30
0.0
 10
290.025549
 20
83.418351
 30
0.0
  0
SPLINE
  5
13c
100
AcDbEntity
  8
Calque_1
 62
7
100
AcDbSpline
 70
8
 71
3
 72
8
 73
4
 74
0
 40
0
 40
0
 40
0
 40
0
 40
1
 40
1
 40
1
 40
1
 10
504.380543
 20
107.998881
 30
0.0
 10
503.964418
 20
107.937023
 30
0.0
 10
503.548289
 20
107.875164
 30
0.0
 10
503.181105
 20
107.684399
 30
0.0
  0
SPLINE
  5
13d
100
AcDbEntity
  8
Calque_1
 62
7
100
AcDbSpline
 70
8
 71
3
 72
8
 73
4
 74
0
 40
0
 40
0
 40
0
 40
0
 40
1
 40
1
 40
1
 40
1
 10
503.181105
 20
107.684399
 30
0.0
 10
502.825623
 20
107.499729
 30
0.0
 10
502.516014
 20
107.194253
 30
0.0
 10
502.326597
 20
106.841272
 30
0.0
  0
SPLINE
  5
13e
100
AcDbEntity
  8
Calque_1
 62
7
100
AcDbSpline
 70
8
 71
3
 72
8
 73
4
 74
0
 40
0
 40
0
 40
0
 40
0
 40
1
 40
1
 40
1
 40
1
 10
502.326597
 20
106.841272
 30
0.0
 10
502.130944
 20
106.476651
 30
0.0
 10
502.063525
 20
106.061380
 30
0.0
 10
501.996110
 20
105.646148
 30
0.0
  0
LWPOLYLINE
  5
13f
100
AcDbEntity
  8
Calque_1
 62
7
100
AcDbPolyline
 90
2
 70
0
 10
501.996110
 20
105.646148
 30
0.0
 10
501.996110
 20
98.265209
 30
0.0
  0
LWPOLYLINE
  5
140
100
AcDbEntity
  8
Calque_1
 62
7
100
AcDbPolyline
 90
2
 70
0
 10
512.477172
 20
107.998881
 30
0.0
 10
504.380543
 20
107.998881
 30
0.0
  0
SPLINE
  5
141
100
AcDbEntity
  8
Calque_1
 62
7
100
AcDbSpline
 70
8
 71
3
 72
8
 73
4
 74
0
 40
0
 40
0
 40
0
 40
0
 40
1
 40
1
 40
1
 40
1
 10
501.996110
 20
98.265209
 30
0.0
 10
502.063525
 20
97.849938
 30
0.0
 10
502.130944
 20
97.434666
 30
0.0
 10
502.326597
 20
97.070085
 30
0.0
  0
SPLINE
  5
142
100
AcDbEntity
  8
Calque_1
 62
7
100
AcDbSpline
 70
8
 71
3
 72
8
 73
4
 74
0
 40
0
 40
0
 40
0
 40
0
 40
1
 40
1
 40
1
 40
1
 10
502.326597
 20
97.070085
 30
0.0
 10
502.516014
 20
96.717104
 30
0.0
 10
502.825623
 20
96.411589
 30
0.0
 10
503.181105
 20
96.226919
 30
0.0
  0
SPLINE
  5
143
100
AcDbEntity
  8
Calque_1
 62
7
100
AcDbSpline
 70
8
 71
3
 72
8
 73
4
 74
0
 40
0
 40
0
 40
0
 40
0
 40
1
 40
1
 40
1
 40
1
 10
503.181105
 20
96.226919
 30
0.0
 10
503.548289
 20
96.036153
 30
0.0
 10
503.964418
 20
95.974295
 30
0.0
 10
504.380543
 20
95.912437
 30
0.0
  0
LWPOLYLINE
  5
144
100
AcDbEntity
  8
Calque_1
 62
7
100
AcDbPolyline
 90
2
 70
0
 10
504.380543
 20
95.912437
 30
0.0
 10
512.477172
 20
95.912437
 30
0.0
  0
LWPOLYLINE
  5
145
100
AcDbEntity
  8
Calque_1
 62
7
100
AcDbPolyline
 90
2
 70
0
 10
572.422016
 20
95.792889
 30
0.0
 10
570.935718
 20
95.792889
 30
0.0
  0
LWPOLYLINE
  5
146
100
AcDbEntity
  8
Calque_1
 62
7
100
AcDbPolyline
 90
4
 70
0
 10
570.935718
 20
113.628443
 30
0.0
 10
570.935718
 20
107.683259
 30
0.0
 10
572.422016
 20
107.683259
 30
0.0
 10
572.422016
 20
110.655831
 30
0.0
  0
LWPOLYLINE
  5
147
100
AcDbEntity
  8
Calque_1
 62
7
100
AcDbPolyline
 90
2
 70
0
 10
579.853503
 20
97.279176
 30
0.0
 10
572.422016
 20
92.820277
 30
0.0
  0
LWPOLYLINE
  5
148
100
AcDbEntity
  8
Calque_1
 62
7
100
AcDbPolyline
 90
2
 70
0
 10
579.853499
 20
106.196972
 30
0.0
 10
579.853503
 20
97.279176
 30
0.0
  0
LWPOLYLINE
  5
149
100
AcDbEntity
  8
Calque_1
 62
7
100
AcDbPolyline
 90
2
 70
0
 10
570.935718
 20
95.792889
 30
0.0
 10
570.935718
 20
92.374411
 30
0.0
  0
LWPOLYLINE
  5
14a
100
AcDbEntity
  8
Calque_1
 62
7
100
AcDbPolyline
 90
2
 70
0
 10
572.422016
 20
110.655831
 30
0.0
 10
579.853499
 20
106.196972
 30
0.0
  0
LWPOLYLINE
  5
14b
100
AcDbEntity
  8
Calque_1
 62
7
100
AcDbPolyline
 90
2
 70
0
 10
572.422016
 20
92.820277
 30
0.0
 10
572.422016
 20
95.792889
 30
0.0
  0
LWPOLYLINE
  5
14c
100
AcDbEntity
  8
Calque_1
 62
7
100
AcDbPolyline
 90
3
 70
0
 10
570.935718
 20
92.374411
 30
0.0
 10
532.291990
 20
93.952442
 30
0.0
 10
509.997534
 20
83.418351
 30
0.0
  0
LWPOLYLINE
  5
14d
100
AcDbEntity
  8
Calque_1
 62
7
100
AcDbPolyline
 90
2
 70
0
 10
509.997534
 20
116.116887
 30
0.0
 10
570.935718
 20
113.628443
 30
0.0
  0
LWPOLYLINE
  5
14e
100
AcDbEntity
  8
Calque_1
 62
7
100
AcDbPolyline
 90
2
 70
0
 10
290.025549
 20
116.116887
 30
0.0
 10
509.997534
 20
116.116887
 30
0.0
  0
LWPOLYLINE
  5
14f
100
AcDbEntity
  8
Calque_1
 62
7
100
AcDbPolyline
 90
4
 70
1
 10
504.376969
 20
77.503103
 30
0.0
 10
578.322196
 20
77.503103
 30
0.0
 10
578.322196
 20
63.009842
 30
0.0
 10
504.376969
 20
63.009842
 30
0.0
  0
LWPOLYLINE
  5
150
100
AcDbEntity
  8
Calque_1
 62
7
100
AcDbPolyline
 90
2
 70
0
 10
21.748908
 20
147.592460
 30
0.0
 10
25.024649
 20
152.601554
 30
0.0
  0
LWPOLYLINE
  5
151
100
AcDbEntity
  8
Calque_1
 62
7
100
AcDbPolyline
 90
2
 70
0
 10
18.776312
 20
147.592460
 30
0.0
 10
21.748908
 20
147.592460
 30
0.0
  0
LWPOLYLINE
  5
152
100
AcDbEntity
  8
Calque_1
 62
7
100
AcDbPolyline
 90
2
 70
0
 10
20.988092
 20
150.974602
 30
0.0
 10
18.776312
 20
147.592460
 30
0.0
  0
SPLINE
  5
153
100
AcDbEntity
  8
Calque_1
 62
7
100
AcDbSpline
 70
8
 71
3
 72
8
 73
4
 74
0
 40
0
 40
0
 40
0
 40
0
 40
1
 40
1
 40
1
 40
1
 10
8.696923
 20
153.274364
 30
0.0
 10
7.377972
 20
153.274364
 30
0.0
 10
6.059021
 20
153.274364
 30
0.0
 10
4.831745
 20
152.853391
 30
0.0
  0
SPLINE
  5
154
100
AcDbEntity
  8
Calque_1
 62
7
100
AcDbSpline
 70
8
 71
3
 72
8
 73
4
 74
0
 40
0
 40
0
 40
0
 40
0
 40
1
 40
1
 40
1
 40
1
 10
4.831745
 20
152.853391
 30
0.0
 10
3.640863
 20
152.444923
 30
0.0
 10
2.536300
 20
151.640098
 30
0.0
 10
1.782591
 20
150.631649
 30
0.0
  0
SPLINE
  5
155
100
AcDbEntity
  8
Calque_1
 62
7
100
AcDbSpline
 70
8
 71
3
 72
8
 73
4
 74
0
 40
0
 40
0
 40
0
 40
0
 40
1
 40
1
 40
1
 40
1
 10
1.782591
 20
150.631649
 30
0.0
 10
1.005844
 20
149.592370
 30
0.0
 10
0.601721
 20
148.336881
 30
0.0
 10
0.197599
 20
147.081354
 30
0.0
  0
LWPOLYLINE
  5
156
100
AcDbEntity
  8
Calque_1
 62
7
100
AcDbPolyline
 90
2
 70
0
 10
19.744173
 20
153.274364
 30
0.0
 10
8.696923
 20
153.274364
 30
0.0
  0
SPLINE
  5
157
100
AcDbEntity
  8
Calque_1
 62
7
100
AcDbSpline
 70
8
 71
3
 72
8
 73
4
 74
0
 40
0
 40
0
 40
0
 40
0
 40
1
 40
1
 40
1
 40
1
 10
0.197599
 20
122.309941
 30
0.0
 10
0.601721
 20
121.054453
 30
0.0
 10
1.005844
 20
119.798925
 30
0.0
 10
1.782591
 20
118.759645
 30
0.0
  0
SPLINE
  5
158
100
AcDbEntity
  8
Calque_1
 62
7
100
AcDbSpline
 70
8
 71
3
 72
8
 73
4
 74
0
 40
0
 40
0
 40
0
 40
0
 40
1
 40
1
 40
1
 40
1
 10
1.782591
 20
118.759645
 30
0.0
 10
2.536300
 20
117.751197
 30
0.0
 10
3.640863
 20
116.946372
 30
0.0
 10
4.831745
 20
116.537904
 30
0.0
  0
SPLINE
  5
159
100
AcDbEntity
  8
Calque_1
 62
7
100
AcDbSpline
 70
8
 71
3
 72
8
 73
4
 74
0
 40
0
 40
0
 40
0
 40
0
 40
1
 40
1
 40
1
 40
1
 10
4.831745
 20
116.537904
 30
0.0
 10
6.059017
 20
116.116930
 30
0.0
 10
7.377968
 20
116.116930
 30
0.0
 10
8.696919
 20
116.116930
 30
0.0
  0
LWPOLYLINE
  5
15a
100
AcDbEntity
  8
Calque_1
 62
7
100
AcDbPolyline
 90
2
 70
0
 10
0.197599
 20
147.081354
 30
0.0
 10
0.197599
 20
122.309941
 30
0.0
  0
LWPOLYLINE
  5
15b
100
AcDbEntity
  8
Calque_1
 62
7
100
AcDbPolyline
 90
2
 70
0
 10
8.696919
 20
116.116930
 30
0.0
 10
20.156259
 20
116.116930
 30
0.0
  0
LWPOLYLINE
  5
15c
100
AcDbEntity
  8
Calque_1
 62
7
100
AcDbPolyline
 90
4
 70
0
 10
21.401972
 20
118.413979
 30
0.0
 10
19.199051
 20
121.798835
 30
0.0
 10
22.171643
 20
121.798835
 30
0.0
 10
25.429829
 20
116.792494
 30
0.0
  0
LWPOLYLINE
  5
15d
100
AcDbEntity
  8
Calque_1
 62
7
100
AcDbPolyline
 90
2
 70
0
 10
26.675545
 20
116.116930
 30
0.0
 10
290.025549
 20
116.116930
 30
0.0
  0
LWPOLYLINE
  5
15e
100
AcDbEntity
  8
Calque_1
 62
7
100
AcDbPolyline
 90
2
 70
0
 10
290.025549
 20
153.274364
 30
0.0
 10
26.268571
 20
153.274364
 30
0.0
  0
LWPOLYLINE
  5
15f
100
AcDbEntity
  8
Calque_1
 62
7
100
AcDbPolyline
 90
3
 70
0
 10
7.629081
 20
121.798835
 30
0.0
 10
7.629081
 20
147.592460
 30
0.0
 10
10.601678
 20
147.592460
 30
0.0
  0
LWPOLYLINE
  5
160
100
AcDbEntity
  8
Calque_1
 62
7
100
AcDbPolyline
 90
2
 70
0
 10
10.601678
 20
121.798835
 30
0.0
 10
7.629081
 20
121.798835
 30
0.0
  0
LWPOLYLINE
  5
161
100
AcDbEntity
  8
Calque_1
 62
7
100
AcDbPolyline
 90
2
 70
0
 10
10.601678
 20
147.592460
 30
0.0
 10
10.601678
 20
121.798835
 30
0.0
  0
LWPOLYLINE
  5
162
100
AcDbEntity
  8
Calque_1
 62
7
100
AcDbPolyline
 90
3
 70
0
 10
33.639285
 20
147.592460
 30
0.0
 10
33.639285
 20
121.798835
 30
0.0
 10
32.152987
 20
121.798835
 30
0.0
  0
LWPOLYLINE
  5
163
100
AcDbEntity
  8
Calque_1
 62
7
100
AcDbPolyline
 90
2
 70
0
 10
32.152987
 20
147.592460
 30
0.0
 10
33.639285
 20
147.592460
 30
0.0
  0
LWPOLYLINE
  5
164
100
AcDbEntity
  8
Calque_1
 62
7
100
AcDbPolyline
 90
2
 70
0
 10
32.152987
 20
121.798835
 30
0.0
 10
32.152987
 20
147.592460
 30
0.0
  0
LWPOLYLINE
  5
165
100
AcDbEntity
  8
Calque_1
 62
7
100
AcDbPolyline
 90
3
 70
0
 10
60.304171
 20
132.957013
 30
0.0
 10
61.584603
 20
147.592460
 30
0.0
 10
63.065246
 20
147.462924
 30
0.0
  0
LWPOLYLINE
  5
166
100
AcDbEntity
  8
Calque_1
 62
7
100
AcDbPolyline
 90
2
 70
0
 10
61.784814
 20
132.827477
 30
0.0
 10
60.304171
 20
132.957013
 30
0.0
  0
LWPOLYLINE
  5
167
100
AcDbEntity
  8
Calque_1
 62
7
100
AcDbPolyline
 90
2
 70
0
 10
63.065246
 20
147.462924
 30
0.0
 10
61.784814
 20
132.827477
 30
0.0
  0
LWPOLYLINE
  5
168
100
AcDbEntity
  8
Calque_1
 62
7
100
AcDbPolyline
 90
3
 70
0
 10
75.176421
 20
132.957052
 30
0.0
 10
76.456857
 20
147.592460
 30
0.0
 10
77.937497
 20
147.462924
 30
0.0
  0
LWPOLYLINE
  5
169
100
AcDbEntity
  8
Calque_1
 62
7
100
AcDbPolyline
 90
2
 70
0
 10
76.657065
 20
132.827516
 30
0.0
 10
75.176421
 20
132.957052
 30
0.0
  0
LWPOLYLINE
  5
16a
100
AcDbEntity
  8
Calque_1
 62
7
100
AcDbPolyline
 90
2
 70
0
 10
77.937497
 20
147.462924
 30
0.0
 10
76.657065
 20
132.827516
 30
0.0
  0
LWPOLYLINE
  5
16b
100
AcDbEntity
  8
Calque_1
 62
7
100
AcDbPolyline
 90
3
 70
0
 10
90.048274
 20
132.957052
 30
0.0
 10
91.328707
 20
147.592460
 30
0.0
 10
92.809346
 20
147.462924
 30
0.0
  0
LWPOLYLINE
  5
16c
100
AcDbEntity
  8
Calque_1
 62
7
100
AcDbPolyline
 90
2
 70
0
 10
91.528914
 20
132.827516
 30
0.0
 10
90.048274
 20
132.957052
 30
0.0
  0
LWPOLYLINE
  5
16d
100
AcDbEntity
  8
Calque_1
 62
7
100
AcDbPolyline
 90
2
 70
0
 10
92.809346
 20
147.462924
 30
0.0
 10
91.528914
 20
132.827516
 30
0.0
  0
LWPOLYLINE
  5
16e
100
AcDbEntity
  8
Calque_1
 62
7
100
AcDbPolyline
 90
3
 70
0
 10
115.103802
 20
121.798835
 30
0.0
 10
115.103806
 20
147.592460
 30
0.0
 10
119.016918
 20
147.592460
 30
0.0
  0
LWPOLYLINE
  5
16f
100
AcDbEntity
  8
Calque_1
 62
7
100
AcDbPolyline
 90
2
 70
0
 10
119.016918
 20
121.798835
 30
0.0
 10
115.103802
 20
121.798835
 30
0.0
  0
LWPOLYLINE
  5
170
100
AcDbEntity
  8
Calque_1
 62
7
100
AcDbPolyline
 90
2
 70
0
 10
119.016918
 20
147.592460
 30
0.0
 10
119.016918
 20
121.798835
 30
0.0
  0
LWPOLYLINE
  5
171
100
AcDbEntity
  8
Calque_1
 62
7
100
AcDbPolyline
 90
2
 70
0
 10
290.025549
 20
153.274364
 30
0.0
 10
553.782527
 20
153.274364
 30
0.0
  0
LWPOLYLINE
  5
172
100
AcDbEntity
  8
Calque_1
 62
7
100
AcDbPolyline
 90
2
 70
0
 10
553.375553
 20
116.116930
 30
0.0
 10
290.025549
 20
116.116930
 30
0.0
  0
LWPOLYLINE
  5
173
100
AcDbEntity
  8
Calque_1
 62
7
100
AcDbPolyline
 90
2
 70
0
 10
503.394033
 20
132.827516
 30
0.0
 10
504.874677
 20
132.957052
 30
0.0
  0
LWPOLYLINE
  5
174
100
AcDbEntity
  8
Calque_1
 62
7
100
AcDbPolyline
 90
2
 70
0
 10
518.466495
 20
147.592460
 30
0.0
 10
516.985852
 20
147.462924
 30
0.0
  0
SPLINE
  5
175
100
AcDbEntity
  8
Calque_1
 62
7
100
AcDbSpline
 70
8
 71
3
 72
8
 73
4
 74
0
 40
0
 40
0
 40
0
 40
0
 40
1
 40
1
 40
1
 40
1
 10
571.354175
 20
153.274364
 30
0.0
 10
572.673126
 20
153.274364
 30
0.0
 10
573.992077
 20
153.274364
 30
0.0
 10
575.219353
 20
152.853391
 30
0.0
  0
SPLINE
  5
176
100
AcDbEntity
  8
Calque_1
 62
7
100
AcDbSpline
 70
8
 71
3
 72
8
 73
4
 74
0
 40
0
 40
0
 40
0
 40
0
 40
1
 40
1
 40
1
 40
1
 10
575.219353
 20
152.853391
 30
0.0
 10
576.410235
 20
152.444923
 30
0.0
 10
577.514798
 20
151.640098
 30
0.0
 10
578.268507
 20
150.631649
 30
0.0
  0
SPLINE
  5
177
100
AcDbEntity
  8
Calque_1
 62
7
100
AcDbSpline
 70
8
 71
3
 72
8
 73
4
 74
0
 40
0
 40
0
 40
0
 40
0
 40
1
 40
1
 40
1
 40
1
 10
578.268507
 20
150.631649
 30
0.0
 10
579.045254
 20
149.592370
 30
0.0
 10
579.449377
 20
148.336881
 30
0.0
 10
579.853499
 20
147.081354
 30
0.0
  0
LWPOLYLINE
  5
178
100
AcDbEntity
  8
Calque_1
 62
7
100
AcDbPolyline
 90
2
 70
0
 10
559.063006
 20
150.974602
 30
0.0
 10
561.274786
 20
147.592460
 30
0.0
  0
LWPOLYLINE
  5
179
100
AcDbEntity
  8
Calque_1
 62
7
100
AcDbPolyline
 90
2
 70
0
 10
558.649126
 20
118.413979
 30
0.0
 10
560.852047
 20
121.798835
 30
0.0
  0
LWPOLYLINE
  5
17a
100
AcDbEntity
  8
Calque_1
 62
7
100
AcDbPolyline
 90
2
 70
0
 10
546.411813
 20
121.798835
 30
0.0
 10
547.898111
 20
121.798835
 30
0.0
  0
LWPOLYLINE
  5
17b
100
AcDbEntity
  8
Calque_1
 62
7
100
AcDbPolyline
 90
2
 70
0
 10
572.422016
 20
147.592460
 30
0.0
 10
569.449420
 20
147.592460
 30
0.0
  0
LWPOLYLINE
  5
17c
100
AcDbEntity
  8
Calque_1
 62
7
100
AcDbPolyline
 90
2
 70
0
 10
560.306925
 20
153.274364
 30
0.0
 10
571.354175
 20
153.274364
 30
0.0
  0
LWPOLYLINE
  5
17d
100
AcDbEntity
  8
Calque_1
 62
7
100
AcDbPolyline
 90
2
 70
0
 10
571.354179
 20
116.116930
 30
0.0
 10
559.894838
 20
116.116930
 30
0.0
  0
LWPOLYLINE
  5
17e
100
AcDbEntity
  8
Calque_1
 62
7
100
AcDbPolyline
 90
2
 70
0
 10
560.852047
 20
121.798835
 30
0.0
 10
557.879455
 20
121.798835
 30
0.0
  0
LWPOLYLINE
  5
17f
100
AcDbEntity
  8
Calque_1
 62
7
100
AcDbPolyline
 90
2
 70
0
 10
547.898111
 20
121.798835
 30
0.0
 10
547.898111
 20
147.592460
 30
0.0
  0
LWPOLYLINE
  5
180
100
AcDbEntity
  8
Calque_1
 62
7
100
AcDbPolyline
 90
2
 70
0
 10
561.274786
 20
147.592460
 30
0.0
 10
558.302190
 20
147.592460
 30
0.0
  0
LWPOLYLINE
  5
181
100
AcDbEntity
  8
Calque_1
 62
7
100
AcDbPolyline
 90
2
 70
0
 10
557.879455
 20
121.798835
 30
0.0
 10
554.621269
 20
116.792494
 30
0.0
  0
LWPOLYLINE
  5
182
100
AcDbEntity
  8
Calque_1
 62
7
100
AcDbPolyline
 90
2
 70
0
 10
558.302190
 20
147.592460
 30
0.0
 10
555.026449
 20
152.601554
 30
0.0
  0
LWPOLYLINE
  5
183
100
AcDbEntity
  8
Calque_1
 62
7
100
AcDbPolyline
 90
2
 70
0
 10
502.113601
 20
147.462924
 30
0.0
 10
503.394033
 20
132.827516
 30
0.0
  0
LWPOLYLINE
  5
184
100
AcDbEntity
  8
Calque_1
 62
7
100
AcDbPolyline
 90
2
 70
0
 10
572.422016
 20
121.798835
 30
0.0
 10
572.422016
 20
147.592460
 30
0.0
  0
LWPOLYLINE
  5
185
100
AcDbEntity
  8
Calque_1
 62
7
100
AcDbPolyline
 90
2
 70
0
 10
569.449420
 20
121.798835
 30
0.0
 10
572.422016
 20
121.798835
 30
0.0
  0
SPLINE
  5
186
100
AcDbEntity
  8
Calque_1
 62
7
100
AcDbSpline
 70
8
 71
3
 72
8
 73
4
 74
0
 40
0
 40
0
 40
0
 40
0
 40
1
 40
1
 40
1
 40
1
 10
579.853499
 20
122.309941
 30
0.0
 10
579.449377
 20
121.054453
 30
0.0
 10
579.045254
 20
119.798925
 30
0.0
 10
578.268507
 20
118.759645
 30
0.0
  0
SPLINE
  5
187
100
AcDbEntity
  8
Calque_1
 62
7
100
AcDbSpline
 70
8
 71
3
 72
8
 73
4
 74
0
 40
0
 40
0
 40
0
 40
0
 40
1
 40
1
 40
1
 40
1
 10
578.268507
 20
118.759645
 30
0.0
 10
577.514798
 20
117.751197
 30
0.0
 10
576.410235
 20
116.946372
 30
0.0
 10
575.219353
 20
116.537904
 30
0.0
  0
SPLINE
  5
188
100
AcDbEntity
  8
Calque_1
 62
7
100
AcDbSpline
 70
8
 71
3
 72
8
 73
4
 74
0
 40
0
 40
0
 40
0
 40
0
 40
1
 40
1
 40
1
 40
1
 10
575.219353
 20
116.537904
 30
0.0
 10
573.992081
 20
116.116930
 30
0.0
 10
572.673130
 20
116.116930
 30
0.0
 10
571.354179
 20
116.116930
 30
0.0
  0
LWPOLYLINE
  5
189
100
AcDbEntity
  8
Calque_1
 62
7
100
AcDbPolyline
 90
2
 70
0
 10
569.449420
 20
147.592460
 30
0.0
 10
569.449420
 20
121.798835
 30
0.0
  0
LWPOLYLINE
  5
18a
100
AcDbEntity
  8
Calque_1
 62
7
100
AcDbPolyline
 90
3
 70
0
 10
547.898111
 20
147.592460
 30
0.0
 10
546.411813
 20
147.592460
 30
0.0
 10
546.411813
 20
121.798835
 30
0.0
  0
LWPOLYLINE
  5
18b
100
AcDbEntity
  8
Calque_1
 62
7
100
AcDbPolyline
 90
2
 70
0
 10
579.853499
 20
147.081354
 30
0.0
 10
579.853499
 20
122.309941
 30
0.0
  0
LWPOLYLINE
  5
18c
100
AcDbEntity
  8
Calque_1
 62
7
100
AcDbPolyline
 90
2
 70
0
 10
461.034180
 20
121.798835
 30
0.0
 10
464.947296
 20
121.798835
 30
0.0
  0
LWPOLYLINE
  5
18d
100
AcDbEntity
  8
Calque_1
 62
7
100
AcDbPolyline
 90
2
 70
0
 10
461.034180
 20
147.592460
 30
0.0
 10
461.034180
 20
121.798835
 30
0.0
  0
LWPOLYLINE
  5
18e
100
AcDbEntity
  8
Calque_1
 62
7
100
AcDbPolyline
 90
2
 70
0
 10
464.947296
 20
121.798835
 30
0.0
 10
464.947292
 20
147.592460
 30
0.0
  0
LWPOLYLINE
  5
18f
100
AcDbEntity
  8
Calque_1
 62
7
100
AcDbPolyline
 90
2
 70
0
 10
516.985852
 20
147.462924
 30
0.0
 10
518.266284
 20
132.827477
 30
0.0
  0
LWPOLYLINE
  5
190
100
AcDbEntity
  8
Calque_1
 62
7
100
AcDbPolyline
 90
2
 70
0
 10
503.594241
 20
147.592460
 30
0.0
 10
502.113601
 20
147.462924
 30
0.0
  0
LWPOLYLINE
  5
191
100
AcDbEntity
  8
Calque_1
 62
7
100
AcDbPolyline
 90
2
 70
0
 10
464.947292
 20
147.592460
 30
0.0
 10
461.034180
 20
147.592460
 30
0.0
  0
LWPOLYLINE
  5
192
100
AcDbEntity
  8
Calque_1
 62
7
100
AcDbPolyline
 90
2
 70
0
 10
488.522184
 20
132.827516
 30
0.0
 10
490.002823
 20
132.957052
 30
0.0
  0
LWPOLYLINE
  5
193
100
AcDbEntity
  8
Calque_1
 62
7
100
AcDbPolyline
 90
3
 70
0
 10
488.722391
 20
147.592460
 30
0.0
 10
487.241752
 20
147.462924
 30
0.0
 10
488.522184
 20
132.827516
 30
0.0
  0
LWPOLYLINE
  5
194
100
AcDbEntity
  8
Calque_1
 62
7
100
AcDbPolyline
 90
2
 70
0
 10
519.746927
 20
132.957013
 30
0.0
 10
518.466495
 20
147.592460
 30
0.0
  0
LWPOLYLINE
  5
195
100
AcDbEntity
  8
Calque_1
 62
7
100
AcDbPolyline
 90
2
 70
0
 10
490.002823
 20
132.957052
 30
0.0
 10
488.722391
 20
147.592460
 30
0.0
  0
LWPOLYLINE
  5
196
100
AcDbEntity
  8
Calque_1
 62
7
100
AcDbPolyline
 90
2
 70
0
 10
504.874677
 20
132.957052
 30
0.0
 10
503.594241
 20
147.592460
 30
0.0
  0
SPLINE
  5
197
100
AcDbEntity
  8
Calque_1
 62
7
100
AcDbSpline
 70
8
 71
3
 72
8
 73
4
 74
0
 40
0
 40
0
 40
0
 40
0
 40
1
 40
1
 40
1
 40
1
 10
20.156259
 20
116.116930
 30
0.0
 10
20.701460
 20
116.116925
 30
0.0
 10
21.202903
 20
116.415419
 30
0.0
 10
21.462811
 20
116.894680
 30
0.0
  0
SPLINE
  5
198
100
AcDbEntity
  8
Calque_1
 62
7
100
AcDbSpline
 70
8
 71
3
 72
8
 73
4
 74
0
 40
0
 40
0
 40
0
 40
0
 40
1
 40
1
 40
1
 40
1
 10
21.462811
 20
116.894680
 30
0.0
 10
21.722719
 20
117.373941
 30
0.0
 10
21.699370
 20
117.957035
 30
0.0
 10
21.401972
 20
118.413979
 30
0.0
  0
SPLINE
  5
199
100
AcDbEntity
  8
Calque_1
 62
7
100
AcDbSpline
 70
8
 71
3
 72
8
 73
4
 74
0
 40
0
 40
0
 40
0
 40
0
 40
1
 40
1
 40
1
 40
1
 10
25.429829
 20
116.792494
 30
0.0
 10
25.704078
 20
116.371105
 30
0.0
 10
26.172771
 20
116.116928
 30
0.0
 10
26.675545
 20
116.116930
 30
0.0
  0
SPLINE
  5
19a
100
AcDbEntity
  8
Calque_1
 62
7
100
AcDbSpline
 70
8
 71
3
 72
8
 73
4
 74
0
 40
0
 40
0
 40
0
 40
0
 40
1
 40
1
 40
1
 40
1
 10
20.988092
 20
150.974602
 30
0.0
 10
21.286801
 20
151.431380
 30
0.0
 10
21.311135
 20
152.015127
 30
0.0
 10
21.051479
 20
152.495181
 30
0.0
  0
SPLINE
  5
19b
100
AcDbEntity
  8
Calque_1
 62
7
100
AcDbSpline
 70
8
 71
3
 72
8
 73
4
 74
0
 40
0
 40
0
 40
0
 40
0
 40
1
 40
1
 40
1
 40
1
 10
21.051479
 20
152.495181
 30
0.0
 10
20.791823
 20
152.975234
 30
0.0
 10
20.289950
 20
153.274361
 30
0.0
 10
19.744173
 20
153.274364
 30
0.0
  0
SPLINE
  5
19c
100
AcDbEntity
  8
Calque_1
 62
7
100
AcDbSpline
 70
8
 71
3
 72
8
 73
4
 74
0
 40
0
 40
0
 40
0
 40
0
 40
1
 40
1
 40
1
 40
1
 10
26.268571
 20
153.274364
 30
0.0
 10
25.766963
 20
153.274368
 30
0.0
 10
25.299191
 20
153.021361
 30
0.0
 10
25.024649
 20
152.601554
 30
0.0
  0
SPLINE
  5
19d
100
AcDbEntity
  8
Calque_1
 62
7
100
AcDbSpline
 70
8
 71
3
 72
8
 73
4
 74
0
 40
0
 40
0
 40
0
 40
0
 40
1
 40
1
 40
1
 40
1
 10
555.026449
 20
152.601554
 30
0.0
 10
554.751907
 20
153.021361
 30
0.0
 10
554.284135
 20
153.274368
 30
0.0
 10
553.782527
 20
153.274364
 30
0.0
  0
SPLINE
  5
19e
100
AcDbEntity
  8
Calque_1
 62
7
100
AcDbSpline
 70
8
 71
3
 72
8
 73
4
 74
0
 40
0
 40
0
 40
0
 40
0
 40
1
 40
1
 40
1
 40
1
 10
560.306925
 20
153.274364
 30
0.0
 10
559.761148
 20
153.274361
 30
0.0
 10
559.259275
 20
152.975234
 30
0.0
 10
558.999619
 20
152.495181
 30
0.0
  0
SPLINE
  5
19f
100
AcDbEntity
  8
Calque_1
 62
7
100
AcDbSpline
 70
8
 71
3
 72
8
 73
4
 74
0
 40
0
 40
0
 40
0
 40
0
 40
1
 40
1
 40
1
 40
1
 10
558.999619
 20
152.495181
 30
0.0
 10
558.739963
 20
152.015127
 30
0.0
 10
558.764297
 20
151.431380
 30
0.0
 10
559.063006
 20
150.974602
 30
0.0
  0
SPLINE
  5
1a0
100
AcDbEntity
  8
Calque_1
 62
7
100
AcDbSpline
 70
8
 71
3
 72
8
 73
4
 74
0
 40
0
 40
0
 40
0
 40
0
 40
1
 40
1
 40
1
 40
1
 10
553.375553
 20
116.116930
 30
0.0
 10
553.878326
 20
116.116928
 30
0.0
 10
554.347020
 20
116.371105
 30
0.0
 10
554.621269
 20
116.792494
 30
0.0
  0
SPLINE
  5
1a1
100
AcDbEntity
  8
Calque_1
 62
7
100
AcDbSpline
 70
8
 71
3
 72
8
 73
4
 74
0
 40
0
 40
0
 40
0
 40
0
 40
1
 40
1
 40
1
 40
1
 10
558.649126
 20
118.413979
 30
0.0
 10
558.351728
 20
117.957035
 30
0.0
 10
558.328379
 20
117.373941
 30
0.0
 10
558.588287
 20
116.894680
 30
0.0
  0
SPLINE
  5
1a2
100
AcDbEntity
  8
Calque_1
 62
7
100
AcDbSpline
 70
8
 71
3
 72
8
 73
4
 74
0
 40
0
 40
0
 40
0
 40
0
 40
1
 40
1
 40
1
 40
1
 10
558.588287
 20
116.894680
 30
0.0
 10
558.848195
 20
116.415419
 30
0.0
 10
559.349638
 20
116.116925
 30
0.0
 10
559.894838
 20
116.116930
 30
0.0
  0
LWPOLYLINE
  5
1a3
100
AcDbEntity
  8
Calque_1
 62
7
100
AcDbPolyline
 90
2
 70
0
 10
518.266284
 20
132.827477
 30
0.0
 10
519.746927
 20
132.957013
 30
0.0
  0
LWPOLYLINE
  5
1a4
100
AcDbEntity
  8
Calque_1
 62
7
100
AcDbPolyline
 90
3
 70
0
 10
287.706962
 20
99.108835
 30
0.0
 10
290.025520
 20
103.786005
 30
0.0
 10
292.344077
 20
99.108835
 30
0.0
  0
LWPOLYLINE
  5
1a5
100
AcDbEntity
  8
Calque_1
 62
7
100
AcDbPolyline
 90
2
 70
0
 10
290.025506
 20
103.786005
 30
0.0
 10
290.025506
 20
95.308001
 30
0.0
  0
LWPOLYLINE
  5
1a6
100
AcDbEntity
  8
Calque_1
 62
7
100
AcDbPolyline
 90
3
 70
0
 10
287.706962
 20
134.036863
 30
0.0
 10
290.025520
 20
138.714033
 30
0.0
 10
292.344077
 20
134.036863
 30
0.0
  0
LWPOLYLINE
  5
1a7
100
AcDbEntity
  8
Calque_1
 62
7
100
AcDbPolyline
 90
2
 70
0
 10
290.025506
 20
138.714033
 30
0.0
 10
290.025506
 20
130.236029
 30
0.0
  0
LWPOLYLINE
  5
1a8
100
AcDbEntity
  8
Calque_1
 62
7
100
AcDbPolyline
 90
3
 70
0
 10
560.393927
 20
137.014299
 30
0.0
 10
565.071097
 20
134.695742
 30
0.0
 10
560.393927
 20
132.377185
 30
0.0
  0
LWPOLYLINE
  5
1a9
100
AcDbEntity
  8
Calque_1
 62
7
100
AcDbPolyline
 90
2
 70
0
 10
565.071097
 20
134.695756
 30
0.0
 10
556.593094
 20
134.695756
 30
0.0
  0
SPLINE
  5
1aa
100
AcDbEntity
  8
Calque_1
 62
7
100
AcDbSpline
 70
8
 71
3
 72
8
 73
4
 74
0
 40
0
 40
0
 40
0
 40
0
 40
1
 40
1
 40
1
 40
1
 10
481.969523
 20
56.918518
 30
0.0
 10
481.366676
 20
56.918517
 30
0.0
 10
480.770089
 20
56.796270
 30
0.0
 10
480.215827
 20
56.559167
 30
0.0
  0
SPLINE
  5
1ab
100
AcDbEntity
  8
Calque_1
 62
7
100
AcDbSpline
 70
8
 71
3
 72
8
 73
4
 74
0
 40
0
 40
0
 40
0
 40
0
 40
1
 40
1
 40
1
 40
1
 10
480.215827
 20
56.559167
 30
0.0
 10
478.249905
 20
55.718196
 30
0.0
 10
475.964483
 20
56.290604
 30
0.0
 10
474.627044
 20
57.958938
 30
0.0
  0
SPLINE
  5
1ac
100
AcDbEntity
  8
Calque_1
 62
7
100
AcDbSpline
 70
8
 71
3
 72
8
 73
4
 74
0
 40
0
 40
0
 40
0
 40
0
 40
1
 40
1
 40
1
 40
1
 10
474.627044
 20
57.958938
 30
0.0
 10
474.084736
 20
58.635416
 30
0.0
 10
473.264613
 20
59.029076
 30
0.0
 10
472.397595
 20
59.029076
 30
0.0
  0
SPLINE
  5
1ad
100
AcDbEntity
  8
Calque_1
 62
7
100
AcDbSpline
 70
8
 71
3
 72
8
 73
4
 74
0
 40
0
 40
0
 40
0
 40
0
 40
1
 40
1
 40
1
 40
1
 10
472.397595
 20
59.029076
 30
0.0
 10
471.530577
 20
59.029076
 30
0.0
 10
470.710454
 20
58.635416
 30
0.0
 10
470.168146
 20
57.958938
 30
0.0
  0
SPLINE
  5
1ae
100
AcDbEntity
  8
Calque_1
 62
7
100
AcDbSpline
 70
8
 71
3
 72
8
 73
4
 74
0
 40
0
 40
0
 40
0
 40
0
 40
1
 40
1
 40
1
 40
1
 10
470.168146
 20
57.958938
 30
0.0
 10
469.264299
 20
56.831484
 30
0.0
 10
467.897433
 20
56.175391
 30
0.0
 10
466.452410
 20
56.175391
 30
0.0
  0
SPLINE
  5
1af
100
AcDbEntity
  8
Calque_1
 62
7
100
AcDbSpline
 70
8
 71
3
 72
8
 73
4
 74
0
 40
0
 40
0
 40
0
 40
0
 40
1
 40
1
 40
1
 40
1
 10
466.452410
 20
56.175391
 30
0.0
 10
465.007387
 20
56.175391
 30
0.0
 10
463.640521
 20
56.831484
 30
0.0
 10
462.736675
 20
57.958938
 30
0.0
  0
SPLINE
  5
1b0
100
AcDbEntity
  8
Calque_1
 62
7
100
AcDbSpline
 70
8
 71
3
 72
8
 73
4
 74
0
 40
0
 40
0
 40
0
 40
0
 40
1
 40
1
 40
1
 40
1
 10
462.736675
 20
57.958938
 30
0.0
 10
462.194367
 20
58.635416
 30
0.0
 10
461.374244
 20
59.029076
 30
0.0
 10
460.507225
 20
59.029076
 30
0.0
  0
SPLINE
  5
1b1
100
AcDbEntity
  8
Calque_1
 62
7
100
AcDbSpline
 70
8
 71
3
 72
8
 73
4
 74
0
 40
0
 40
0
 40
0
 40
0
 40
1
 40
1
 40
1
 40
1
 10
460.507225
 20
59.029076
 30
0.0
 10
459.640207
 20
59.029076
 30
0.0
 10
458.820084
 20
58.635416
 30
0.0
 10
458.277776
 20
57.958938
 30
0.0
  0
SPLINE
  5
1b2
100
AcDbEntity
  8
Calque_1
 62
7
100
AcDbSpline
 70
8
 71
3
 72
8
 73
4
 74
0
 40
0
 40
0
 40
0
 40
0
 40
1
 40
1
 40
1
 40
1
 10
458.277776
 20
57.958938
 30
0.0
 10
457.373929
 20
56.831484
 30
0.0
 10
456.007064
 20
56.175391
 30
0.0
 10
454.562041
 20
56.175391
 30
0.0
  0
SPLINE
  5
1b3
100
AcDbEntity
  8
Calque_1
 62
7
100
AcDbSpline
 70
8
 71
3
 72
8
 73
4
 74
0
 40
0
 40
0
 40
0
 40
0
 40
1
 40
1
 40
1
 40
1
 10
454.562041
 20
56.175391
 30
0.0
 10
453.117018
 20
56.175391
 30
0.0
 10
451.750152
 20
56.831484
 30
0.0
 10
450.846305
 20
57.958938
 30
0.0
  0
SPLINE
  5
1b4
100
AcDbEntity
  8
Calque_1
 62
7
100
AcDbSpline
 70
8
 71
3
 72
8
 73
4
 74
0
 40
0
 40
0
 40
0
 40
0
 40
1
 40
1
 40
1
 40
1
 10
450.846305
 20
57.958938
 30
0.0
 10
450.303997
 20
58.635416
 30
0.0
 10
449.483874
 20
59.029076
 30
0.0
 10
448.616856
 20
59.029076
 30
0.0
  0
SPLINE
  5
1b5
100
AcDbEntity
  8
Calque_1
 62
7
100
AcDbSpline
 70
8
 71
3
 72
8
 73
4
 74
0
 40
0
 40
0
 40
0
 40
0
 40
1
 40
1
 40
1
 40
1
 10
448.616856
 20
59.029076
 30
0.0
 10
447.749838
 20
59.029076
 30
0.0
 10
446.929715
 20
58.635416
 30
0.0
 10
446.387407
 20
57.958938
 30
0.0
  0
SPLINE
  5
1b6
100
AcDbEntity
  8
Calque_1
 62
7
100
AcDbSpline
 70
8
 71
3
 72
8
 73
4
 74
0
 40
0
 40
0
 40
0
 40
0
 40
1
 40
1
 40
1
 40
1
 10
446.387407
 20
57.958938
 30
0.0
 10
445.483560
 20
56.831484
 30
0.0
 10
444.116694
 20
56.175391
 30
0.0
 10
442.671671
 20
56.175391
 30
0.0
  0
SPLINE
  5
1b7
100
AcDbEntity
  8
Calque_1
 62
7
100
AcDbSpline
 70
8
 71
3
 72
8
 73
4
 74
0
 40
0
 40
0
 40
0
 40
0
 40
1
 40
1
 40
1
 40
1
 10
442.671671
 20
56.175391
 30
0.0
 10
441.226648
 20
56.175391
 30
0.0
 10
439.859782
 20
56.831484
 30
0.0
 10
438.955936
 20
57.958938
 30
0.0
  0
SPLINE
  5
1b8
100
AcDbEntity
  8
Calque_1
 62
7
100
AcDbSpline
 70
8
 71
3
 72
8
 73
4
 74
0
 40
0
 40
0
 40
0
 40
0
 40
1
 40
1
 40
1
 40
1
 10
438.955936
 20
57.958938
 30
0.0
 10
438.413628
 20
58.635416
 30
0.0
 10
437.593505
 20
59.029076
 30
0.0
 10
436.726486
 20
59.029076
 30
0.0
  0
SPLINE
  5
1b9
100
AcDbEntity
  8
Calque_1
 62
7
100
AcDbSpline
 70
8
 71
3
 72
8
 73
4
 74
0
 40
0
 40
0
 40
0
 40
0
 40
1
 40
1
 40
1
 40
1
 10
436.726486
 20
59.029076
 30
0.0
 10
435.859468
 20
59.029076
 30
0.0
 10
435.039345
 20
58.635416
 30
0.0
 10
434.497037
 20
57.958938
 30
0.0
  0
SPLINE
  5
1ba
100
AcDbEntity
  8
Calque_1
 62
7
100
AcDbSpline
 70
8
 71
3
 72
8
 73
4
 74
0
 40
0
 40
0
 40
0
 40
0
 40
1
 40
1
 40
1
 40
1
 10
434.497037
 20
57.958938
 30
0.0
 10
433.593191
 20
56.831477
 30
0.0
 10
432.226320
 20
56.175378
 30
0.0
 10
430.781292
 20
56.175378
 30
0.0
  0
SPLINE
  5
1bb
100
AcDbEntity
  8
Calque_1
 62
7
100
AcDbSpline
 70
8
 71
3
 72
8
 73
4
 74
0
 40
0
 40
0
 40
0
 40
0
 40
1
 40
1
 40
1
 40
1
 10
430.781292
 20
56.175378
 30
0.0
 10
429.336264
 20
56.175378
 30
0.0
 10
427.969393
 20
56.831477
 30
0.0
 10
427.065547
 20
57.958938
 30
0.0
  0
SPLINE
  5
1bc
100
AcDbEntity
  8
Calque_1
 62
7
100
AcDbSpline
 70
8
 71
3
 72
8
 73
4
 74
0
 40
0
 40
0
 40
0
 40
0
 40
1
 40
1
 40
1
 40
1
 10
427.065547
 20
57.958938
 30
0.0
 10
426.523239
 20
58.635415
 30
0.0
 10
425.703116
 20
59.029074
 30
0.0
 10
424.836099
 20
59.029074
 30
0.0
  0
SPLINE
  5
1bd
100
AcDbEntity
  8
Calque_1
 62
7
100
AcDbSpline
 70
8
 71
3
 72
8
 73
4
 74
0
 40
0
 40
0
 40
0
 40
0
 40
1
 40
1
 40
1
 40
1
 10
424.836099
 20
59.029074
 30
0.0
 10
423.969082
 20
59.029074
 30
0.0
 10
423.148960
 20
58.635415
 30
0.0
 10
422.606652
 20
57.958938
 30
0.0
  0
SPLINE
  5
1be
100
AcDbEntity
  8
Calque_1
 62
7
100
AcDbSpline
 70
8
 71
3
 72
8
 73
4
 74
0
 40
0
 40
0
 40
0
 40
0
 40
1
 40
1
 40
1
 40
1
 10
422.606652
 20
57.958938
 30
0.0
 10
421.702806
 20
56.831480
 30
0.0
 10
420.335937
 20
56.175383
 30
0.0
 10
418.890911
 20
56.175383
 30
0.0
  0
SPLINE
  5
1bf
100
AcDbEntity
  8
Calque_1
 62
7
100
AcDbSpline
 70
8
 71
3
 72
8
 73
4
 74
0
 40
0
 40
0
 40
0
 40
0
 40
1
 40
1
 40
1
 40
1
 10
418.890911
 20
56.175383
 30
0.0
 10
417.445884
 20
56.175383
 30
0.0
 10
416.079016
 20
56.831480
 30
0.0
 10
415.175169
 20
57.958938
 30
0.0
  0
SPLINE
  5
1c0
100
AcDbEntity
  8
Calque_1
 62
7
100
AcDbSpline
 70
8
 71
3
 72
8
 73
4
 74
0
 40
0
 40
0
 40
0
 40
0
 40
1
 40
1
 40
1
 40
1
 10
415.175169
 20
57.958938
 30
0.0
 10
414.632861
 20
58.635413
 30
0.0
 10
413.812740
 20
59.029071
 30
0.0
 10
412.945724
 20
59.029071
 30
0.0
  0
SPLINE
  5
1c1
100
AcDbEntity
  8
Calque_1
 62
7
100
AcDbSpline
 70
8
 71
3
 72
8
 73
4
 74
0
 40
0
 40
0
 40
0
 40
0
 40
1
 40
1
 40
1
 40
1
 10
412.945724
 20
59.029071
 30
0.0
 10
412.078708
 20
59.029071
 30
0.0
 10
411.258587
 20
58.635413
 30
0.0
 10
410.716279
 20
57.958938
 30
0.0
  0
SPLINE
  5
1c2
100
AcDbEntity
  8
Calque_1
 62
7
100
AcDbSpline
 70
8
 71
3
 72
8
 73
4
 74
0
 40
0
 40
0
 40
0
 40
0
 40
1
 40
1
 40
1
 40
1
 10
410.716279
 20
57.958938
 30
0.0
 10
409.812432
 20
56.831478
 30
0.0
 10
408.445563
 20
56.175381
 30
0.0
 10
407.000535
 20
56.175381
 30
0.0
  0
SPLINE
  5
1c3
100
AcDbEntity
  8
Calque_1
 62
7
100
AcDbSpline
 70
8
 71
3
 72
8
 73
4
 74
0
 40
0
 40
0
 40
0
 40
0
 40
1
 40
1
 40
1
 40
1
 10
407.000535
 20
56.175381
 30
0.0
 10
405.555508
 20
56.175381
 30
0.0
 10
404.188638
 20
56.831478
 30
0.0
 10
403.284792
 20
57.958938
 30
0.0
  0
SPLINE
  5
1c4
100
AcDbEntity
  8
Calque_1
 62
7
100
AcDbSpline
 70
8
 71
3
 72
8
 73
4
 74
0
 40
0
 40
0
 40
0
 40
0
 40
1
 40
1
 40
1
 40
1
 10
403.284792
 20
57.958938
 30
0.0
 10
402.742484
 20
58.635415
 30
0.0
 10
401.922362
 20
59.029074
 30
0.0
 10
401.055345
 20
59.029074
 30
0.0
  0
SPLINE
  5
1c5
100
AcDbEntity
  8
Calque_1
 62
7
100
AcDbSpline
 70
8
 71
3
 72
8
 73
4
 74
0
 40
0
 40
0
 40
0
 40
0
 40
1
 40
1
 40
1
 40
1
 10
401.055345
 20
59.029074
 30
0.0
 10
400.188328
 20
59.029074
 30
0.0
 10
399.368205
 20
58.635415
 30
0.0
 10
398.825897
 20
57.958938
 30
0.0
  0
SPLINE
  5
1c6
100
AcDbEntity
  8
Calque_1
 62
7
100
AcDbSpline
 70
8
 71
3
 72
8
 73
4
 74
0
 40
0
 40
0
 40
0
 40
0
 40
1
 40
1
 40
1
 40
1
 10
398.825897
 20
57.958938
 30
0.0
 10
397.922051
 20
56.831480
 30
0.0
 10
396.555182
 20
56.175383
 30
0.0
 10
395.110156
 20
56.175383
 30
0.0
  0
SPLINE
  5
1c7
100
AcDbEntity
  8
Calque_1
 62
7
100
AcDbSpline
 70
8
 71
3
 72
8
 73
4
 74
0
 40
0
 40
0
 40
0
 40
0
 40
1
 40
1
 40
1
 40
1
 10
395.110156
 20
56.175383
 30
0.0
 10
393.665130
 20
56.175383
 30
0.0
 10
392.298261
 20
56.831480
 30
0.0
 10
391.394415
 20
57.958938
 30
0.0
  0
SPLINE
  5
1c8
100
AcDbEntity
  8
Calque_1
 62
7
100
AcDbSpline
 70
8
 71
3
 72
8
 73
4
 74
0
 40
0
 40
0
 40
0
 40
0
 40
1
 40
1
 40
1
 40
1
 10
391.394415
 20
57.958938
 30
0.0
 10
390.852107
 20
58.635415
 30
0.0
 10
390.031984
 20
59.029074
 30
0.0
 10
389.164967
 20
59.029074
 30
0.0
  0
SPLINE
  5
1c9
100
AcDbEntity
  8
Calque_1
 62
7
100
AcDbSpline
 70
8
 71
3
 72
8
 73
4
 74
0
 40
0
 40
0
 40
0
 40
0
 40
1
 40
1
 40
1
 40
1
 10
389.164967
 20
59.029074
 30
0.0
 10
388.297950
 20
59.029074
 30
0.0
 10
387.477828
 20
58.635415
 30
0.0
 10
386.935520
 20
57.958938
 30
0.0
  0
SPLINE
  5
1ca
100
AcDbEntity
  8
Calque_1
 62
7
100
AcDbSpline
 70
8
 71
3
 72
8
 73
4
 74
0
 40
0
 40
0
 40
0
 40
0
 40
1
 40
1
 40
1
 40
1
 10
386.935520
 20
57.958938
 30
0.0
 10
386.031674
 20
56.831480
 30
0.0
 10
384.664805
 20
56.175383
 30
0.0
 10
383.219779
 20
56.175383
 30
0.0
  0
SPLINE
  5
1cb
100
AcDbEntity
  8
Calque_1
 62
7
100
AcDbSpline
 70
8
 71
3
 72
8
 73
4
 74
0
 40
0
 40
0
 40
0
 40
0
 40
1
 40
1
 40
1
 40
1
 10
383.219779
 20
56.175383
 30
0.0
 10
381.774752
 20
56.175383
 30
0.0
 10
380.407884
 20
56.831480
 30
0.0
 10
379.504037
 20
57.958938
 30
0.0
  0
SPLINE
  5
1cc
100
AcDbEntity
  8
Calque_1
 62
7
100
AcDbSpline
 70
8
 71
3
 72
8
 73
4
 74
0
 40
0
 40
0
 40
0
 40
0
 40
1
 40
1
 40
1
 40
1
 10
379.504037
 20
57.958938
 30
0.0
 10
378.961729
 20
58.635415
 30
0.0
 10
378.141607
 20
59.029074
 30
0.0
 10
377.274590
 20
59.029074
 30
0.0
  0
SPLINE
  5
1cd
100
AcDbEntity
  8
Calque_1
 62
7
100
AcDbSpline
 70
8
 71
3
 72
8
 73
4
 74
0
 40
0
 40
0
 40
0
 40
0
 40
1
 40
1
 40
1
 40
1
 10
377.274590
 20
59.029074
 30
0.0
 10
376.407573
 20
59.029074
 30
0.0
 10
375.587451
 20
58.635415
 30
0.0
 10
375.045143
 20
57.958938
 30
0.0
  0
SPLINE
  5
1ce
100
AcDbEntity
  8
Calque_1
 62
7
100
AcDbSpline
 70
8
 71
3
 72
8
 73
4
 74
0
 40
0
 40
0
 40
0
 40
0
 40
1
 40
1
 40
1
 40
1
 10
375.045143
 20
57.958938
 30
0.0
 10
374.141296
 20
56.831480
 30
0.0
 10
372.774428
 20
56.175383
 30
0.0
 10
371.329401
 20
56.175383
 30
0.0
  0
SPLINE
  5
1cf
100
AcDbEntity
  8
Calque_1
 62
7
100
AcDbSpline
 70
8
 71
3
 72
8
 73
4
 74
0
 40
0
 40
0
 40
0
 40
0
 40
1
 40
1
 40
1
 40
1
 10
371.329401
 20
56.175383
 30
0.0
 10
369.884375
 20
56.175383
 30
0.0
 10
368.517506
 20
56.831480
 30
0.0
 10
367.613660
 20
57.958938
 30
0.0
  0
SPLINE
  5
1d0
100
AcDbEntity
  8
Calque_1
 62
7
100
AcDbSpline
 70
8
 71
3
 72
8
 73
4
 74
0
 40
0
 40
0
 40
0
 40
0
 40
1
 40
1
 40
1
 40
1
 10
367.613660
 20
57.958938
 30
0.0
 10
367.071352
 20
58.635415
 30
0.0
 10
366.251230
 20
59.029074
 30
0.0
 10
365.384213
 20
59.029074
 30
0.0
  0
SPLINE
  5
1d1
100
AcDbEntity
  8
Calque_1
 62
7
100
AcDbSpline
 70
8
 71
3
 72
8
 73
4
 74
0
 40
0
 40
0
 40
0
 40
0
 40
1
 40
1
 40
1
 40
1
 10
365.384213
 20
59.029074
 30
0.0
 10
364.517196
 20
59.029074
 30
0.0
 10
363.697073
 20
58.635415
 30
0.0
 10
363.154765
 20
57.958938
 30
0.0
  0
SPLINE
  5
1d2
100
AcDbEntity
  8
Calque_1
 62
7
100
AcDbSpline
 70
8
 71
3
 72
8
 73
4
 74
0
 40
0
 40
0
 40
0
 40
0
 40
1
 40
1
 40
1
 40
1
 10
363.154765
 20
57.958938
 30
0.0
 10
362.250919
 20
56.831480
 30
0.0
 10
360.884050
 20
56.175383
 30
0.0
 10
359.439024
 20
56.175383
 30
0.0
  0
SPLINE
  5
1d3
100
AcDbEntity
  8
Calque_1
 62
7
100
AcDbSpline
 70
8
 71
3
 72
8
 73
4
 74
0
 40
0
 40
0
 40
0
 40
0
 40
1
 40
1
 40
1
 40
1
 10
359.439024
 20
56.175383
 30
0.0
 10
357.993998
 20
56.175383
 30
0.0
 10
356.627129
 20
56.831480
 30
0.0
 10
355.723283
 20
57.958938
 30
0.0
  0
SPLINE
  5
1d4
100
AcDbEntity
  8
Calque_1
 62
7
100
AcDbSpline
 70
8
 71
3
 72
8
 73
4
 74
0
 40
0
 40
0
 40
0
 40
0
 40
1
 40
1
 40
1
 40
1
 10
355.723283
 20
57.958938
 30
0.0
 10
355.180975
 20
58.635415
 30
0.0
 10
354.360852
 20
59.029074
 30
0.0
 10
353.493835
 20
59.029074
 30
0.0
  0
SPLINE
  5
1d5
100
AcDbEntity
  8
Calque_1
 62
7
100
AcDbSpline
 70
8
 71
3
 72
8
 73
4
 74
0
 40
0
 40
0
 40
0
 40
0
 40
1
 40
1
 40
1
 40
1
 10
353.493835
 20
59.029074
 30
0.0
 10
352.626818
 20
59.029074
 30
0.0
 10
351.806696
 20
58.635415
 30
0.0
 10
351.264388
 20
57.958938
 30
0.0
  0
SPLINE
  5
1d6
100
AcDbEntity
  8
Calque_1
 62
7
100
AcDbSpline
 70
8
 71
3
 72
8
 73
4
 74
0
 40
0
 40
0
 40
0
 40
0
 40
1
 40
1
 40
1
 40
1
 10
351.264388
 20
57.958938
 30
0.0
 10
350.360542
 20
56.831480
 30
0.0
 10
348.993673
 20
56.175383
 30
0.0
 10
347.548647
 20
56.175383
 30
0.0
  0
SPLINE
  5
1d7
100
AcDbEntity
  8
Calque_1
 62
7
100
AcDbSpline
 70
8
 71
3
 72
8
 73
4
 74
0
 40
0
 40
0
 40
0
 40
0
 40
1
 40
1
 40
1
 40
1
 10
347.548647
 20
56.175383
 30
0.0
 10
346.103620
 20
56.175383
 30
0.0
 10
344.736752
 20
56.831480
 30
0.0
 10
343.832905
 20
57.958938
 30
0.0
  0
SPLINE
  5
1d8
100
AcDbEntity
  8
Calque_1
 62
7
100
AcDbSpline
 70
8
 71
3
 72
8
 73
4
 74
0
 40
0
 40
0
 40
0
 40
0
 40
1
 40
1
 40
1
 40
1
 10
343.832905
 20
57.958938
 30
0.0
 10
343.290597
 20
58.635415
 30
0.0
 10
342.470475
 20
59.029074
 30
0.0
 10
341.603458
 20
59.029074
 30
0.0
  0
SPLINE
  5
1d9
100
AcDbEntity
  8
Calque_1
 62
7
100
AcDbSpline
 70
8
 71
3
 72
8
 73
4
 74
0
 40
0
 40
0
 40
0
 40
0
 40
1
 40
1
 40
1
 40
1
 10
341.603458
 20
59.029074
 30
0.0
 10
340.736441
 20
59.029074
 30
0.0
 10
339.916319
 20
58.635415
 30
0.0
 10
339.374011
 20
57.958938
 30
0.0
  0
SPLINE
  5
1da
100
AcDbEntity
  8
Calque_1
 62
7
100
AcDbSpline
 70
8
 71
3
 72
8
 73
4
 74
0
 40
0
 40
0
 40
0
 40
0
 40
1
 40
1
 40
1
 40
1
 10
339.374011
 20
57.958938
 30
0.0
 10
338.470164
 20
56.831478
 30
0.0
 10
337.103295
 20
56.175381
 30
0.0
 10
335.658267
 20
56.175381
 30
0.0
  0
SPLINE
  5
1db
100
AcDbEntity
  8
Calque_1
 62
7
100
AcDbSpline
 70
8
 71
3
 72
8
 73
4
 74
0
 40
0
 40
0
 40
0
 40
0
 40
1
 40
1
 40
1
 40
1
 10
335.658267
 20
56.175381
 30
0.0
 10
334.213240
 20
56.175381
 30
0.0
 10
332.846370
 20
56.831478
 30
0.0
 10
331.942524
 20
57.958938
 30
0.0
  0
SPLINE
  5
1dc
100
AcDbEntity
  8
Calque_1
 62
7
100
AcDbSpline
 70
8
 71
3
 72
8
 73
4
 74
0
 40
0
 40
0
 40
0
 40
0
 40
1
 40
1
 40
1
 40
1
 10
331.942524
 20
57.958938
 30
0.0
 10
331.400216
 20
58.635413
 30
0.0
 10
330.580095
 20
59.029071
 30
0.0
 10
329.713079
 20
59.029071
 30
0.0
  0
SPLINE
  5
1dd
100
AcDbEntity
  8
Calque_1
 62
7
100
AcDbSpline
 70
8
 71
3
 72
8
 73
4
 74
0
 40
0
 40
0
 40
0
 40
0
 40
1
 40
1
 40
1
 40
1
 10
329.713079
 20
59.029071
 30
0.0
 10
328.846063
 20
59.029071
 30
0.0
 10
328.025941
 20
58.635413
 30
0.0
 10
327.483633
 20
57.958938
 30
0.0
  0
SPLINE
  5
1de
100
AcDbEntity
  8
Calque_1
 62
7
100
AcDbSpline
 70
8
 71
3
 72
8
 73
4
 74
0
 40
0
 40
0
 40
0
 40
0
 40
1
 40
1
 40
1
 40
1
 10
327.483633
 20
57.958938
 30
0.0
 10
326.579787
 20
56.831478
 30
0.0
 10
325.212917
 20
56.175381
 30
0.0
 10
323.767890
 20
56.175381
 30
0.0
  0
SPLINE
  5
1df
100
AcDbEntity
  8
Calque_1
 62
7
100
AcDbSpline
 70
8
 71
3
 72
8
 73
4
 74
0
 40
0
 40
0
 40
0
 40
0
 40
1
 40
1
 40
1
 40
1
 10
323.767890
 20
56.175381
 30
0.0
 10
322.322863
 20
56.175381
 30
0.0
 10
320.955993
 20
56.831478
 30
0.0
 10
320.052147
 20
57.958938
 30
0.0
  0
SPLINE
  5
1e0
100
AcDbEntity
  8
Calque_1
 62
7
100
AcDbSpline
 70
8
 71
3
 72
8
 73
4
 74
0
 40
0
 40
0
 40
0
 40
0
 40
1
 40
1
 40
1
 40
1
 10
320.052147
 20
57.958938
 30
0.0
 10
319.509839
 20
58.635413
 30
0.0
 10
318.689717
 20
59.029071
 30
0.0
 10
317.822701
 20
59.029071
 30
0.0
  0
SPLINE
  5
1e1
100
AcDbEntity
  8
Calque_1
 62
7
100
AcDbSpline
 70
8
 71
3
 72
8
 73
4
 74
0
 40
0
 40
0
 40
0
 40
0
 40
1
 40
1
 40
1
 40
1
 10
317.822701
 20
59.029071
 30
0.0
 10
316.955685
 20
59.029071
 30
0.0
 10
316.135564
 20
58.635413
 30
0.0
 10
315.593256
 20
57.958938
 30
0.0
  0
SPLINE
  5
1e2
100
AcDbEntity
  8
Calque_1
 62
7
100
AcDbSpline
 70
8
 71
3
 72
8
 73
4
 74
0
 40
0
 40
0
 40
0
 40
0
 40
1
 40
1
 40
1
 40
1
 10
315.593256
 20
57.958938
 30
0.0
 10
314.689410
 20
56.831478
 30
0.0
 10
313.322540
 20
56.175381
 30
0.0
 10
311.877513
 20
56.175381
 30
0.0
  0
SPLINE
  5
1e3
100
AcDbEntity
  8
Calque_1
 62
7
100
AcDbSpline
 70
8
 71
3
 72
8
 73
4
 74
0
 40
0
 40
0
 40
0
 40
0
 40
1
 40
1
 40
1
 40
1
 10
311.877513
 20
56.175381
 30
0.0
 10
310.432485
 20
56.175381
 30
0.0
 10
309.065616
 20
56.831478
 30
0.0
 10
308.161769
 20
57.958938
 30
0.0
  0
SPLINE
  5
1e4
100
AcDbEntity
  8
Calque_1
 62
7
100
AcDbSpline
 70
8
 71
3
 72
8
 73
4
 74
0
 40
0
 40
0
 40
0
 40
0
 40
1
 40
1
 40
1
 40
1
 10
308.161769
 20
57.958938
 30
0.0
 10
307.655656
 20
58.590252
 30
0.0
 10
306.905615
 20
58.977392
 30
0.0
 10
306.097833
 20
59.024255
 30
0.0
  0
SPLINE
  5
1e5
100
AcDbEntity
  8
Calque_1
 62
7
100
AcDbSpline
 70
8
 71
3
 72
8
 73
4
 74
0
 40
0
 40
0
 40
0
 40
0
 40
1
 40
1
 40
1
 40
1
 10
306.097833
 20
59.024255
 30
0.0
 10
305.290051
 20
59.071118
 30
0.0
 10
304.500272
 20
58.773310
 30
0.0
 10
303.924550
 20
58.204758
 30
0.0
  0
SPLINE
  5
1e6
100
AcDbEntity
  8
Calque_1
 62
7
100
AcDbSpline
 70
8
 71
3
 72
8
 73
4
 74
0
 40
0
 40
0
 40
0
 40
0
 40
1
 40
1
 40
1
 40
1
 10
303.924550
 20
58.204758
 30
0.0
 10
303.090007
 20
57.380632
 30
0.0
 10
301.964355
 20
56.918512
 30
0.0
 10
300.791476
 20
56.918518
 30
0.0
  0
LWPOLYLINE
  5
1e7
100
AcDbEntity
  8
Calque_1
 62
7
100
AcDbPolyline
 90
2
 70
0
 10
490.512946
 20
56.918518
 30
0.0
 10
481.969523
 20
56.918518
 30
0.0
  0
SPLINE
  5
1e8
100
AcDbEntity
  8
Calque_1
 62
7
100
AcDbSpline
 70
8
 71
3
 72
8
 73
4
 74
0
 40
0
 40
0
 40
0
 40
0
 40
1
 40
1
 40
1
 40
1
 10
52.518654
 20
56.918518
 30
0.0
 10
51.697799
 20
56.918518
 30
0.0
 10
51.032363
 20
56.253087
 30
0.0
 10
51.032357
 20
55.432232
 30
0.0
  0
LWPOLYLINE
  5
1e9
100
AcDbEntity
  8
Calque_1
 62
7
100
AcDbPolyline
 90
2
 70
0
 10
300.791476
 20
56.918518
 30
0.0
 10
52.518654
 20
56.918518
 30
0.0
  0
SPLINE
  5
1ea
100
AcDbEntity
  8
Calque_1
 62
7
100
AcDbSpline
 70
8
 71
3
 72
8
 73
4
 74
0
 40
0
 40
0
 40
0
 40
0
 40
1
 40
1
 40
1
 40
1
 10
51.032357
 20
54.168878
 30
0.0
 10
51.032362
 20
53.380494
 30
0.0
 10
50.719181
 20
52.624399
 30
0.0
 10
50.161710
 20
52.066925
 30
0.0
  0
SPLINE
  5
1eb
100
AcDbEntity
  8
Calque_1
 62
7
100
AcDbSpline
 70
8
 71
3
 72
8
 73
4
 74
0
 40
0
 40
0
 40
0
 40
0
 40
1
 40
1
 40
1
 40
1
 10
50.161710
 20
52.066925
 30
0.0
 10
49.604240
 20
51.509452
 30
0.0
 10
48.848146
 20
51.196266
 30
0.0
 10
48.059762
 20
51.196266
 30
0.0
  0
LWPOLYLINE
  5
1ec
100
AcDbEntity
  8
Calque_1
 62
7
100
AcDbPolyline
 90
2
 70
0
 10
51.032357
 20
55.432232
 30
0.0
 10
51.032357
 20
54.168878
 30
0.0
  0
SPLINE
  5
1ed
100
AcDbEntity
  8
Calque_1
 62
7
100
AcDbSpline
 70
8
 71
3
 72
8
 73
4
 74
0
 40
0
 40
0
 40
0
 40
0
 40
1
 40
1
 40
1
 40
1
 10
39.141979
 20
51.196266
 30
0.0
 10
38.353595
 20
51.196266
 30
0.0
 10
37.597501
 20
51.509452
 30
0.0
 10
37.040031
 20
52.066925
 30
0.0
  0
SPLINE
  5
1ee
100
AcDbEntity
  8
Calque_1
 62
7
100
AcDbSpline
 70
8
 71
3
 72
8
 73
4
 74
0
 40
0
 40
0
 40
0
 40
0
 40
1
 40
1
 40
1
 40
1
 10
37.040031
 20
52.066925
 30
0.0
 10
36.482561
 20
52.624399
 30
0.0
 10
36.169380
 20
53.380494
 30
0.0
 10
36.169385
 20
54.168878
 30
0.0
  0
LWPOLYLINE
  5
1ef
100
AcDbEntity
  8
Calque_1
 62
7
100
AcDbPolyline
 90
2
 70
0
 10
48.059762
 20
51.196266
 30
0.0
 10
39.141979
 20
51.196266
 30
0.0
  0
SPLINE
  5
1f0
100
AcDbEntity
  8
Calque_1
 62
7
100
AcDbSpline
 70
8
 71
3
 72
8
 73
4
 74
0
 40
0
 40
0
 40
0
 40
0
 40
1
 40
1
 40
1
 40
1
 10
36.169385
 20
85.381088
 30
0.0
 10
36.169380
 20
86.169473
 30
0.0
 10
36.482561
 20
86.925568
 30
0.0
 10
37.040031
 20
87.483041
 30
0.0
  0
SPLINE
  5
1f1
100
AcDbEntity
  8
Calque_1
 62
7
100
AcDbSpline
 70
8
 71
3
 72
8
 73
4
 74
0
 40
0
 40
0
 40
0
 40
0
 40
1
 40
1
 40
1
 40
1
 10
37.040031
 20
87.483041
 30
0.0
 10
37.597501
 20
88.040515
 30
0.0
 10
38.353595
 20
88.353700
 30
0.0
 10
39.141979
 20
88.353700
 30
0.0
  0
LWPOLYLINE
  5
1f2
100
AcDbEntity
  8
Calque_1
 62
7
100
AcDbPolyline
 90
2
 70
0
 10
36.169385
 20
54.168878
 30
0.0
 10
36.169385
 20
85.381088
 30
0.0
  0
SPLINE
  5
1f3
100
AcDbEntity
  8
Calque_1
 62
7
100
AcDbSpline
 70
8
 71
3
 72
8
 73
4
 74
0
 40
0
 40
0
 40
0
 40
0
 40
1
 40
1
 40
1
 40
1
 10
48.059762
 20
88.353700
 30
0.0
 10
48.848146
 20
88.353701
 30
0.0
 10
49.604240
 20
88.040515
 30
0.0
 10
50.161710
 20
87.483042
 30
0.0
  0
SPLINE
  5
1f4
100
AcDbEntity
  8
Calque_1
 62
7
100
AcDbSpline
 70
8
 71
3
 72
8
 73
4
 74
0
 40
0
 40
0
 40
0
 40
0
 40
1
 40
1
 40
1
 40
1
 10
50.161710
 20
87.483042
 30
0.0
 10
50.719181
 20
86.925568
 30
0.0
 10
51.032362
 20
86.169473
 30
0.0
 10
51.032357
 20
85.381088
 30
0.0
  0
LWPOLYLINE
  5
1f5
100
AcDbEntity
  8
Calque_1
 62
7
100
AcDbPolyline
 90
2
 70
0
 10
39.141979
 20
88.353700
 30
0.0
 10
48.059762
 20
88.353700
 30
0.0
  0
SPLINE
  5
1f6
100
AcDbEntity
  8
Calque_1
 62
7
100
AcDbSpline
 70
8
 71
3
 72
8
 73
4
 74
0
 40
0
 40
0
 40
0
 40
0
 40
1
 40
1
 40
1
 40
1
 10
51.032357
 20
84.117735
 30
0.0
 10
51.032363
 20
83.296880
 30
0.0
 10
51.697799
 20
82.631449
 30
0.0
 10
52.518654
 20
82.631449
 30
0.0
  0
LWPOLYLINE
  5
1f7
100
AcDbEntity
  8
Calque_1
 62
7
100
AcDbPolyline
 90
2
 70
0
 10
51.032357
 20
85.381088
 30
0.0
 10
51.032357
 20
84.117735
 30
0.0
  0
SPLINE
  5
1f8
100
AcDbEntity
  8
Calque_1
 62
7
100
AcDbSpline
 70
8
 71
3
 72
8
 73
4
 74
0
 40
0
 40
0
 40
0
 40
0
 40
1
 40
1
 40
1
 40
1
 10
300.791476
 20
82.631449
 30
0.0
 10
301.964355
 20
82.631455
 30
0.0
 10
303.090007
 20
82.169335
 30
0.0
 10
303.924550
 20
81.345209
 30
0.0
  0
SPLINE
  5
1f9
100
AcDbEntity
  8
Calque_1
 62
7
100
AcDbSpline
 70
8
 71
3
 72
8
 73
4
 74
0
 40
0
 40
0
 40
0
 40
0
 40
1
 40
1
 40
1
 40
1
 10
303.924550
 20
81.345209
 30
0.0
 10
304.500272
 20
80.776657
 30
0.0
 10
305.290051
 20
80.478849
 30
0.0
 10
306.097833
 20
80.525712
 30
0.0
  0
SPLINE
  5
1fa
100
AcDbEntity
  8
Calque_1
 62
7
100
AcDbSpline
 70
8
 71
3
 72
8
 73
4
 74
0
 40
0
 40
0
 40
0
 40
0
 40
1
 40
1
 40
1
 40
1
 10
306.097833
 20
80.525712
 30
0.0
 10
306.905615
 20
80.572575
 30
0.0
 10
307.655656
 20
80.959715
 30
0.0
 10
308.161769
 20
81.591029
 30
0.0
  0
SPLINE
  5
1fb
100
AcDbEntity
  8
Calque_1
 62
7
100
AcDbSpline
 70
8
 71
3
 72
8
 73
4
 74
0
 40
0
 40
0
 40
0
 40
0
 40
1
 40
1
 40
1
 40
1
 10
308.161769
 20
81.591029
 30
0.0
 10
309.065616
 20
82.718488
 30
0.0
 10
310.432485
 20
83.374586
 30
0.0
 10
311.877513
 20
83.374586
 30
0.0
  0
SPLINE
  5
1fc
100
AcDbEntity
  8
Calque_1
 62
7
100
AcDbSpline
 70
8
 71
3
 72
8
 73
4
 74
0
 40
0
 40
0
 40
0
 40
0
 40
1
 40
1
 40
1
 40
1
 10
311.877513
 20
83.374586
 30
0.0
 10
313.322540
 20
83.374586
 30
0.0
 10
314.689410
 20
82.718488
 30
0.0
 10
315.593256
 20
81.591029
 30
0.0
  0
SPLINE
  5
1fd
100
AcDbEntity
  8
Calque_1
 62
7
100
AcDbSpline
 70
8
 71
3
 72
8
 73
4
 74
0
 40
0
 40
0
 40
0
 40
0
 40
1
 40
1
 40
1
 40
1
 10
315.593256
 20
81.591029
 30
0.0
 10
316.135564
 20
80.914554
 30
0.0
 10
316.955685
 20
80.520895
 30
0.0
 10
317.822701
 20
80.520895
 30
0.0
  0
SPLINE
  5
1fe
100
AcDbEntity
  8
Calque_1
 62
7
100
AcDbSpline
 70
8
 71
3
 72
8
 73
4
 74
0
 40
0
 40
0
 40
0
 40
0
 40
1
 40
1
 40
1
 40
1
 10
317.822701
 20
80.520895
 30
0.0
 10
318.689717
 20
80.520895
 30
0.0
 10
319.509839
 20
80.914554
 30
0.0
 10
320.052147
 20
81.591029
 30
0.0
  0
SPLINE
  5
1ff
100
AcDbEntity
  8
Calque_1
 62
7
100
AcDbSpline
 70
8
 71
3
 72
8
 73
4
 74
0
 40
0
 40
0
 40
0
 40
0
 40
1
 40
1
 40
1
 40
1
 10
320.052147
 20
81.591029
 30
0.0
 10
320.955993
 20
82.718488
 30
0.0
 10
322.322863
 20
83.374586
 30
0.0
 10
323.767890
 20
83.374586
 30
0.0
  0
SPLINE
  5
200
100
AcDbEntity
  8
Calque_1
 62
7
100
AcDbSpline
 70
8
 71
3
 72
8
 73
4
 74
0
 40
0
 40
0
 40
0
 40
0
 40
1
 40
1
 40
1
 40
1
 10
323.767890
 20
83.374586
 30
0.0
 10
325.212917
 20
83.374586
 30
0.0
 10
326.579787
 20
82.718488
 30
0.0
 10
327.483633
 20
81.591029
 30
0.0
  0
SPLINE
  5
201
100
AcDbEntity
  8
Calque_1
 62
7
100
AcDbSpline
 70
8
 71
3
 72
8
 73
4
 74
0
 40
0
 40
0
 40
0
 40
0
 40
1
 40
1
 40
1
 40
1
 10
327.483633
 20
81.591029
 30
0.0
 10
328.025941
 20
80.914554
 30
0.0
 10
328.846063
 20
80.520895
 30
0.0
 10
329.713079
 20
80.520895
 30
0.0
  0
SPLINE
  5
202
100
AcDbEntity
  8
Calque_1
 62
7
100
AcDbSpline
 70
8
 71
3
 72
8
 73
4
 74
0
 40
0
 40
0
 40
0
 40
0
 40
1
 40
1
 40
1
 40
1
 10
329.713079
 20
80.520895
 30
0.0
 10
330.580095
 20
80.520895
 30
0.0
 10
331.400216
 20
80.914554
 30
0.0
 10
331.942524
 20
81.591029
 30
0.0
  0
SPLINE
  5
203
100
AcDbEntity
  8
Calque_1
 62
7
100
AcDbSpline
 70
8
 71
3
 72
8
 73
4
 74
0
 40
0
 40
0
 40
0
 40
0
 40
1
 40
1
 40
1
 40
1
 10
331.942524
 20
81.591029
 30
0.0
 10
332.846370
 20
82.718488
 30
0.0
 10
334.213240
 20
83.374586
 30
0.0
 10
335.658267
 20
83.374586
 30
0.0
  0
SPLINE
  5
204
100
AcDbEntity
  8
Calque_1
 62
7
100
AcDbSpline
 70
8
 71
3
 72
8
 73
4
 74
0
 40
0
 40
0
 40
0
 40
0
 40
1
 40
1
 40
1
 40
1
 10
335.658267
 20
83.374586
 30
0.0
 10
337.103295
 20
83.374586
 30
0.0
 10
338.470164
 20
82.718488
 30
0.0
 10
339.374011
 20
81.591029
 30
0.0
  0
SPLINE
  5
205
100
AcDbEntity
  8
Calque_1
 62
7
100
AcDbSpline
 70
8
 71
3
 72
8
 73
4
 74
0
 40
0
 40
0
 40
0
 40
0
 40
1
 40
1
 40
1
 40
1
 10
339.374011
 20
81.591029
 30
0.0
 10
339.916319
 20
80.914552
 30
0.0
 10
340.736441
 20
80.520893
 30
0.0
 10
341.603458
 20
80.520893
 30
0.0
  0
SPLINE
  5
206
100
AcDbEntity
  8
Calque_1
 62
7
100
AcDbSpline
 70
8
 71
3
 72
8
 73
4
 74
0
 40
0
 40
0
 40
0
 40
0
 40
1
 40
1
 40
1
 40
1
 10
341.603458
 20
80.520893
 30
0.0
 10
342.470475
 20
80.520893
 30
0.0
 10
343.290597
 20
80.914552
 30
0.0
 10
343.832905
 20
81.591029
 30
0.0
  0
SPLINE
  5
207
100
AcDbEntity
  8
Calque_1
 62
7
100
AcDbSpline
 70
8
 71
3
 72
8
 73
4
 74
0
 40
0
 40
0
 40
0
 40
0
 40
1
 40
1
 40
1
 40
1
 10
343.832905
 20
81.591029
 30
0.0
 10
344.736752
 20
82.718487
 30
0.0
 10
346.103620
 20
83.374584
 30
0.0
 10
347.548647
 20
83.374584
 30
0.0
  0
SPLINE
  5
208
100
AcDbEntity
  8
Calque_1
 62
7
100
AcDbSpline
 70
8
 71
3
 72
8
 73
4
 74
0
 40
0
 40
0
 40
0
 40
0
 40
1
 40
1
 40
1
 40
1
 10
347.548647
 20
83.374584
 30
0.0
 10
348.993673
 20
83.374584
 30
0.0
 10
350.360542
 20
82.718487
 30
0.0
 10
351.264388
 20
81.591029
 30
0.0
  0
SPLINE
  5
209
100
AcDbEntity
  8
Calque_1
 62
7
100
AcDbSpline
 70
8
 71
3
 72
8
 73
4
 74
0
 40
0
 40
0
 40
0
 40
0
 40
1
 40
1
 40
1
 40
1
 10
351.264388
 20
81.591029
 30
0.0
 10
351.806696
 20
80.914552
 30
0.0
 10
352.626818
 20
80.520893
 30
0.0
 10
353.493835
 20
80.520893
 30
0.0
  0
SPLINE
  5
20a
100
AcDbEntity
  8
Calque_1
 62
7
100
AcDbSpline
 70
8
 71
3
 72
8
 73
4
 74
0
 40
0
 40
0
 40
0
 40
0
 40
1
 40
1
 40
1
 40
1
 10
353.493835
 20
80.520893
 30
0.0
 10
354.360852
 20
80.520893
 30
0.0
 10
355.180975
 20
80.914552
 30
0.0
 10
355.723283
 20
81.591029
 30
0.0
  0
SPLINE
  5
20b
100
AcDbEntity
  8
Calque_1
 62
7
100
AcDbSpline
 70
8
 71
3
 72
8
 73
4
 74
0
 40
0
 40
0
 40
0
 40
0
 40
1
 40
1
 40
1
 40
1
 10
355.723283
 20
81.591029
 30
0.0
 10
356.627129
 20
82.718487
 30
0.0
 10
357.993998
 20
83.374584
 30
0.0
 10
359.439024
 20
83.374584
 30
0.0
  0
SPLINE
  5
20c
100
AcDbEntity
  8
Calque_1
 62
7
100
AcDbSpline
 70
8
 71
3
 72
8
 73
4
 74
0
 40
0
 40
0
 40
0
 40
0
 40
1
 40
1
 40
1
 40
1
 10
359.439024
 20
83.374584
 30
0.0
 10
360.884050
 20
83.374584
 30
0.0
 10
362.250919
 20
82.718487
 30
0.0
 10
363.154765
 20
81.591029
 30
0.0
  0
SPLINE
  5
20d
100
AcDbEntity
  8
Calque_1
 62
7
100
AcDbSpline
 70
8
 71
3
 72
8
 73
4
 74
0
 40
0
 40
0
 40
0
 40
0
 40
1
 40
1
 40
1
 40
1
 10
363.154765
 20
81.591029
 30
0.0
 10
363.697073
 20
80.914552
 30
0.0
 10
364.517196
 20
80.520893
 30
0.0
 10
365.384213
 20
80.520893
 30
0.0
  0
SPLINE
  5
20e
100
AcDbEntity
  8
Calque_1
 62
7
100
AcDbSpline
 70
8
 71
3
 72
8
 73
4
 74
0
 40
0
 40
0
 40
0
 40
0
 40
1
 40
1
 40
1
 40
1
 10
365.384213
 20
80.520893
 30
0.0
 10
366.251230
 20
80.520893
 30
0.0
 10
367.071352
 20
80.914552
 30
0.0
 10
367.613660
 20
81.591029
 30
0.0
  0
SPLINE
  5
20f
100
AcDbEntity
  8
Calque_1
 62
7
100
AcDbSpline
 70
8
 71
3
 72
8
 73
4
 74
0
 40
0
 40
0
 40
0
 40
0
 40
1
 40
1
 40
1
 40
1
 10
367.613660
 20
81.591029
 30
0.0
 10
368.517506
 20
82.718487
 30
0.0
 10
369.884375
 20
83.374584
 30
0.0
 10
371.329401
 20
83.374584
 30
0.0
  0
SPLINE
  5
210
100
AcDbEntity
  8
Calque_1
 62
7
100
AcDbSpline
 70
8
 71
3
 72
8
 73
4
 74
0
 40
0
 40
0
 40
0
 40
0
 40
1
 40
1
 40
1
 40
1
 10
371.329401
 20
83.374584
 30
0.0
 10
372.774428
 20
83.374584
 30
0.0
 10
374.141296
 20
82.718487
 30
0.0
 10
375.045143
 20
81.591029
 30
0.0
  0
SPLINE
  5
211
100
AcDbEntity
  8
Calque_1
 62
7
100
AcDbSpline
 70
8
 71
3
 72
8
 73
4
 74
0
 40
0
 40
0
 40
0
 40
0
 40
1
 40
1
 40
1
 40
1
 10
375.045143
 20
81.591029
 30
0.0
 10
375.587451
 20
80.914552
 30
0.0
 10
376.407573
 20
80.520893
 30
0.0
 10
377.274590
 20
80.520893
 30
0.0
  0
SPLINE
  5
212
100
AcDbEntity
  8
Calque_1
 62
7
100
AcDbSpline
 70
8
 71
3
 72
8
 73
4
 74
0
 40
0
 40
0
 40
0
 40
0
 40
1
 40
1
 40
1
 40
1
 10
377.274590
 20
80.520893
 30
0.0
 10
378.141607
 20
80.520893
 30
0.0
 10
378.961729
 20
80.914552
 30
0.0
 10
379.504037
 20
81.591029
 30
0.0
  0
SPLINE
  5
213
100
AcDbEntity
  8
Calque_1
 62
7
100
AcDbSpline
 70
8
 71
3
 72
8
 73
4
 74
0
 40
0
 40
0
 40
0
 40
0
 40
1
 40
1
 40
1
 40
1
 10
379.504037
 20
81.591029
 30
0.0
 10
380.407884
 20
82.718487
 30
0.0
 10
381.774752
 20
83.374584
 30
0.0
 10
383.219779
 20
83.374584
 30
0.0
  0
SPLINE
  5
214
100
AcDbEntity
  8
Calque_1
 62
7
100
AcDbSpline
 70
8
 71
3
 72
8
 73
4
 74
0
 40
0
 40
0
 40
0
 40
0
 40
1
 40
1
 40
1
 40
1
 10
383.219779
 20
83.374584
 30
0.0
 10
384.664805
 20
83.374584
 30
0.0
 10
386.031674
 20
82.718487
 30
0.0
 10
386.935520
 20
81.591029
 30
0.0
  0
SPLINE
  5
215
100
AcDbEntity
  8
Calque_1
 62
7
100
AcDbSpline
 70
8
 71
3
 72
8
 73
4
 74
0
 40
0
 40
0
 40
0
 40
0
 40
1
 40
1
 40
1
 40
1
 10
386.935520
 20
81.591029
 30
0.0
 10
387.477828
 20
80.914552
 30
0.0
 10
388.297950
 20
80.520893
 30
0.0
 10
389.164967
 20
80.520893
 30
0.0
  0
SPLINE
  5
216
100
AcDbEntity
  8
Calque_1
 62
7
100
AcDbSpline
 70
8
 71
3
 72
8
 73
4
 74
0
 40
0
 40
0
 40
0
 40
0
 40
1
 40
1
 40
1
 40
1
 10
389.164967
 20
80.520893
 30
0.0
 10
390.031984
 20
80.520893
 30
0.0
 10
390.852107
 20
80.914552
 30
0.0
 10
391.394415
 20
81.591029
 30
0.0
  0
SPLINE
  5
217
100
AcDbEntity
  8
Calque_1
 62
7
100
AcDbSpline
 70
8
 71
3
 72
8
 73
4
 74
0
 40
0
 40
0
 40
0
 40
0
 40
1
 40
1
 40
1
 40
1
 10
391.394415
 20
81.591029
 30
0.0
 10
392.298261
 20
82.718487
 30
0.0
 10
393.665130
 20
83.374584
 30
0.0
 10
395.110156
 20
83.374584
 30
0.0
  0
SPLINE
  5
218
100
AcDbEntity
  8
Calque_1
 62
7
100
AcDbSpline
 70
8
 71
3
 72
8
 73
4
 74
0
 40
0
 40
0
 40
0
 40
0
 40
1
 40
1
 40
1
 40
1
 10
395.110156
 20
83.374584
 30
0.0
 10
396.555182
 20
83.374584
 30
0.0
 10
397.922051
 20
82.718487
 30
0.0
 10
398.825897
 20
81.591029
 30
0.0
  0
SPLINE
  5
219
100
AcDbEntity
  8
Calque_1
 62
7
100
AcDbSpline
 70
8
 71
3
 72
8
 73
4
 74
0
 40
0
 40
0
 40
0
 40
0
 40
1
 40
1
 40
1
 40
1
 10
398.825897
 20
81.591029
 30
0.0
 10
399.368205
 20
80.914552
 30
0.0
 10
400.188328
 20
80.520893
 30
0.0
 10
401.055345
 20
80.520893
 30
0.0
  0
SPLINE
  5
21a
100
AcDbEntity
  8
Calque_1
 62
7
100
AcDbSpline
 70
8
 71
3
 72
8
 73
4
 74
0
 40
0
 40
0
 40
0
 40
0
 40
1
 40
1
 40
1
 40
1
 10
401.055345
 20
80.520893
 30
0.0
 10
401.922362
 20
80.520893
 30
0.0
 10
402.742484
 20
80.914552
 30
0.0
 10
403.284792
 20
81.591029
 30
0.0
  0
SPLINE
  5
21b
100
AcDbEntity
  8
Calque_1
 62
7
100
AcDbSpline
 70
8
 71
3
 72
8
 73
4
 74
0
 40
0
 40
0
 40
0
 40
0
 40
1
 40
1
 40
1
 40
1
 10
403.284792
 20
81.591029
 30
0.0
 10
404.188638
 20
82.718488
 30
0.0
 10
405.555508
 20
83.374586
 30
0.0
 10
407.000535
 20
83.374586
 30
0.0
  0
SPLINE
  5
21c
100
AcDbEntity
  8
Calque_1
 62
7
100
AcDbSpline
 70
8
 71
3
 72
8
 73
4
 74
0
 40
0
 40
0
 40
0
 40
0
 40
1
 40
1
 40
1
 40
1
 10
407.000535
 20
83.374586
 30
0.0
 10
408.445563
 20
83.374586
 30
0.0
 10
409.812432
 20
82.718488
 30
0.0
 10
410.716279
 20
81.591029
 30
0.0
  0
SPLINE
  5
21d
100
AcDbEntity
  8
Calque_1
 62
7
100
AcDbSpline
 70
8
 71
3
 72
8
 73
4
 74
0
 40
0
 40
0
 40
0
 40
0
 40
1
 40
1
 40
1
 40
1
 10
410.716279
 20
81.591029
 30
0.0
 10
411.258587
 20
80.914554
 30
0.0
 10
412.078708
 20
80.520895
 30
0.0
 10
412.945724
 20
80.520895
 30
0.0
  0
SPLINE
  5
21e
100
AcDbEntity
  8
Calque_1
 62
7
100
AcDbSpline
 70
8
 71
3
 72
8
 73
4
 74
0
 40
0
 40
0
 40
0
 40
0
 40
1
 40
1
 40
1
 40
1
 10
412.945724
 20
80.520895
 30
0.0
 10
413.812740
 20
80.520895
 30
0.0
 10
414.632861
 20
80.914554
 30
0.0
 10
415.175169
 20
81.591029
 30
0.0
  0
SPLINE
  5
21f
100
AcDbEntity
  8
Calque_1
 62
7
100
AcDbSpline
 70
8
 71
3
 72
8
 73
4
 74
0
 40
0
 40
0
 40
0
 40
0
 40
1
 40
1
 40
1
 40
1
 10
415.175169
 20
81.591029
 30
0.0
 10
416.079016
 20
82.718487
 30
0.0
 10
417.445884
 20
83.374584
 30
0.0
 10
418.890911
 20
83.374584
 30
0.0
  0
SPLINE
  5
220
100
AcDbEntity
  8
Calque_1
 62
7
100
AcDbSpline
 70
8
 71
3
 72
8
 73
4
 74
0
 40
0
 40
0
 40
0
 40
0
 40
1
 40
1
 40
1
 40
1
 10
418.890911
 20
83.374584
 30
0.0
 10
420.335937
 20
83.374584
 30
0.0
 10
421.702806
 20
82.718487
 30
0.0
 10
422.606652
 20
81.591029
 30
0.0
  0
SPLINE
  5
221
100
AcDbEntity
  8
Calque_1
 62
7
100
AcDbSpline
 70
8
 71
3
 72
8
 73
4
 74
0
 40
0
 40
0
 40
0
 40
0
 40
1
 40
1
 40
1
 40
1
 10
422.606652
 20
81.591029
 30
0.0
 10
423.148960
 20
80.914552
 30
0.0
 10
423.969082
 20
80.520893
 30
0.0
 10
424.836099
 20
80.520893
 30
0.0
  0
SPLINE
  5
222
100
AcDbEntity
  8
Calque_1
 62
7
100
AcDbSpline
 70
8
 71
3
 72
8
 73
4
 74
0
 40
0
 40
0
 40
0
 40
0
 40
1
 40
1
 40
1
 40
1
 10
424.836099
 20
80.520893
 30
0.0
 10
425.703116
 20
80.520893
 30
0.0
 10
426.523239
 20
80.914552
 30
0.0
 10
427.065547
 20
81.591029
 30
0.0
  0
SPLINE
  5
223
100
AcDbEntity
  8
Calque_1
 62
7
100
AcDbSpline
 70
8
 71
3
 72
8
 73
4
 74
0
 40
0
 40
0
 40
0
 40
0
 40
1
 40
1
 40
1
 40
1
 10
427.065547
 20
81.591029
 30
0.0
 10
427.969393
 20
82.718490
 30
0.0
 10
429.336264
 20
83.374588
 30
0.0
 10
430.781292
 20
83.374588
 30
0.0
  0
SPLINE
  5
224
100
AcDbEntity
  8
Calque_1
 62
7
100
AcDbSpline
 70
8
 71
3
 72
8
 73
4
 74
0
 40
0
 40
0
 40
0
 40
0
 40
1
 40
1
 40
1
 40
1
 10
430.781292
 20
83.374588
 30
0.0
 10
432.226320
 20
83.374588
 30
0.0
 10
433.593191
 20
82.718490
 30
0.0
 10
434.497037
 20
81.591029
 30
0.0
  0
SPLINE
  5
225
100
AcDbEntity
  8
Calque_1
 62
7
100
AcDbSpline
 70
8
 71
3
 72
8
 73
4
 74
0
 40
0
 40
0
 40
0
 40
0
 40
1
 40
1
 40
1
 40
1
 10
434.497037
 20
81.591029
 30
0.0
 10
435.039345
 20
80.914551
 30
0.0
 10
435.859468
 20
80.520891
 30
0.0
 10
436.726486
 20
80.520891
 30
0.0
  0
SPLINE
  5
226
100
AcDbEntity
  8
Calque_1
 62
7
100
AcDbSpline
 70
8
 71
3
 72
8
 73
4
 74
0
 40
0
 40
0
 40
0
 40
0
 40
1
 40
1
 40
1
 40
1
 10
436.726486
 20
80.520891
 30
0.0
 10
437.593505
 20
80.520891
 30
0.0
 10
438.413628
 20
80.914551
 30
0.0
 10
438.955936
 20
81.591029
 30
0.0
  0
SPLINE
  5
227
100
AcDbEntity
  8
Calque_1
 62
7
100
AcDbSpline
 70
8
 71
3
 72
8
 73
4
 74
0
 40
0
 40
0
 40
0
 40
0
 40
1
 40
1
 40
1
 40
1
 10
438.955936
 20
81.591029
 30
0.0
 10
439.859782
 20
82.718483
 30
0.0
 10
441.226648
 20
83.374576
 30
0.0
 10
442.671671
 20
83.374576
 30
0.0
  0
SPLINE
  5
228
100
AcDbEntity
  8
Calque_1
 62
7
100
AcDbSpline
 70
8
 71
3
 72
8
 73
4
 74
0
 40
0
 40
0
 40
0
 40
0
 40
1
 40
1
 40
1
 40
1
 10
442.671671
 20
83.374576
 30
0.0
 10
444.116694
 20
83.374576
 30
0.0
 10
445.483560
 20
82.718483
 30
0.0
 10
446.387407
 20
81.591029
 30
0.0
  0
SPLINE
  5
229
100
AcDbEntity
  8
Calque_1
 62
7
100
AcDbSpline
 70
8
 71
3
 72
8
 73
4
 74
0
 40
0
 40
0
 40
0
 40
0
 40
1
 40
1
 40
1
 40
1
 10
446.387407
 20
81.591029
 30
0.0
 10
446.929715
 20
80.914551
 30
0.0
 10
447.749838
 20
80.520891
 30
0.0
 10
448.616856
 20
80.520891
 30
0.0
  0
SPLINE
  5
22a
100
AcDbEntity
  8
Calque_1
 62
7
100
AcDbSpline
 70
8
 71
3
 72
8
 73
4
 74
0
 40
0
 40
0
 40
0
 40
0
 40
1
 40
1
 40
1
 40
1
 10
448.616856
 20
80.520891
 30
0.0
 10
449.483874
 20
80.520891
 30
0.0
 10
450.303997
 20
80.914551
 30
0.0
 10
450.846305
 20
81.591029
 30
0.0
  0
SPLINE
  5
22b
100
AcDbEntity
  8
Calque_1
 62
7
100
AcDbSpline
 70
8
 71
3
 72
8
 73
4
 74
0
 40
0
 40
0
 40
0
 40
0
 40
1
 40
1
 40
1
 40
1
 10
450.846305
 20
81.591029
 30
0.0
 10
451.750152
 20
82.718483
 30
0.0
 10
453.117018
 20
83.374576
 30
0.0
 10
454.562041
 20
83.374576
 30
0.0
  0
SPLINE
  5
22c
100
AcDbEntity
  8
Calque_1
 62
7
100
AcDbSpline
 70
8
 71
3
 72
8
 73
4
 74
0
 40
0
 40
0
 40
0
 40
0
 40
1
 40
1
 40
1
 40
1
 10
454.562041
 20
83.374576
 30
0.0
 10
456.007064
 20
83.374576
 30
0.0
 10
457.373929
 20
82.718483
 30
0.0
 10
458.277776
 20
81.591029
 30
0.0
  0
SPLINE
  5
22d
100
AcDbEntity
  8
Calque_1
 62
7
100
AcDbSpline
 70
8
 71
3
 72
8
 73
4
 74
0
 40
0
 40
0
 40
0
 40
0
 40
1
 40
1
 40
1
 40
1
 10
458.277776
 20
81.591029
 30
0.0
 10
458.820084
 20
80.914551
 30
0.0
 10
459.640207
 20
80.520891
 30
0.0
 10
460.507225
 20
80.520891
 30
0.0
  0
SPLINE
  5
22e
100
AcDbEntity
  8
Calque_1
 62
7
100
AcDbSpline
 70
8
 71
3
 72
8
 73
4
 74
0
 40
0
 40
0
 40
0
 40
0
 40
1
 40
1
 40
1
 40
1
 10
460.507225
 20
80.520891
 30
0.0
 10
461.374244
 20
80.520891
 30
0.0
 10
462.194367
 20
80.914551
 30
0.0
 10
462.736675
 20
81.591029
 30
0.0
  0
SPLINE
  5
22f
100
AcDbEntity
  8
Calque_1
 62
7
100
AcDbSpline
 70
8
 71
3
 72
8
 73
4
 74
0
 40
0
 40
0
 40
0
 40
0
 40
1
 40
1
 40
1
 40
1
 10
462.736675
 20
81.591029
 30
0.0
 10
463.640521
 20
82.718483
 30
0.0
 10
465.007387
 20
83.374576
 30
0.0
 10
466.452410
 20
83.374576
 30
0.0
  0
SPLINE
  5
230
100
AcDbEntity
  8
Calque_1
 62
7
100
AcDbSpline
 70
8
 71
3
 72
8
 73
4
 74
0
 40
0
 40
0
 40
0
 40
0
 40
1
 40
1
 40
1
 40
1
 10
466.452410
 20
83.374576
 30
0.0
 10
467.897433
 20
83.374576
 30
0.0
 10
469.264299
 20
82.718483
 30
0.0
 10
470.168146
 20
81.591029
 30
0.0
  0
SPLINE
  5
231
100
AcDbEntity
  8
Calque_1
 62
7
100
AcDbSpline
 70
8
 71
3
 72
8
 73
4
 74
0
 40
0
 40
0
 40
0
 40
0
 40
1
 40
1
 40
1
 40
1
 10
470.168146
 20
81.591029
 30
0.0
 10
470.710454
 20
80.914551
 30
0.0
 10
471.530577
 20
80.520891
 30
0.0
 10
472.397595
 20
80.520891
 30
0.0
  0
SPLINE
  5
232
100
AcDbEntity
  8
Calque_1
 62
7
100
AcDbSpline
 70
8
 71
3
 72
8
 73
4
 74
0
 40
0
 40
0
 40
0
 40
0
 40
1
 40
1
 40
1
 40
1
 10
472.397595
 20
80.520891
 30
0.0
 10
473.264613
 20
80.520891
 30
0.0
 10
474.084736
 20
80.914551
 30
0.0
 10
474.627044
 20
81.591029
 30
0.0
  0
SPLINE
  5
233
100
AcDbEntity
  8
Calque_1
 62
7
100
AcDbSpline
 70
8
 71
3
 72
8
 73
4
 74
0
 40
0
 40
0
 40
0
 40
0
 40
1
 40
1
 40
1
 40
1
 10
474.627044
 20
81.591029
 30
0.0
 10
475.964483
 20
83.259363
 30
0.0
 10
478.249905
 20
83.831771
 30
0.0
 10
480.215827
 20
82.990800
 30
0.0
  0
SPLINE
  5
234
100
AcDbEntity
  8
Calque_1
 62
7
100
AcDbSpline
 70
8
 71
3
 72
8
 73
4
 74
0
 40
0
 40
0
 40
0
 40
0
 40
1
 40
1
 40
1
 40
1
 10
480.215827
 20
82.990800
 30
0.0
 10
480.770089
 20
82.753697
 30
0.0
 10
481.366676
 20
82.631450
 30
0.0
 10
481.969523
 20
82.631449
 30
0.0
  0
LWPOLYLINE
  5
235
100
AcDbEntity
  8
Calque_1
 62
7
100
AcDbPolyline
 90
2
 70
0
 10
52.518654
 20
82.631449
 30
0.0
 10
300.791476
 20
82.631449
 30
0.0
  0
SPLINE
  5
236
100
AcDbEntity
  8
Calque_1
 62
7
100
AcDbSpline
 70
8
 71
3
 72
8
 73
4
 74
0
 40
0
 40
0
 40
0
 40
0
 40
1
 40
1
 40
1
 40
1
 10
490.512946
 20
82.631449
 30
0.0
 10
491.755916
 20
82.631450
 30
0.0
 10
492.942469
 20
82.112623
 30
0.0
 10
493.786433
 20
81.200099
 30
0.0
  0
LWPOLYLINE
  5
237
100
AcDbEntity
  8
Calque_1
 62
7
100
AcDbPolyline
 90
2
 70
0
 10
481.969523
 20
82.631449
 30
0.0
 10
490.512946
 20
82.631449
 30
0.0
  0
SPLINE
  5
238
100
AcDbEntity
  8
Calque_1
 62
7
100
AcDbSpline
 70
8
 71
3
 72
8
 73
4
 74
0
 40
0
 40
0
 40
0
 40
0
 40
1
 40
1
 40
1
 40
1
 10
501.552992
 20
72.802493
 30
0.0
 10
503.133494
 20
71.093564
 30
0.0
 10
503.133494
 20
68.456402
 30
0.0
 10
501.552992
 20
66.747474
 30
0.0
  0
LWPOLYLINE
  5
239
100
AcDbEntity
  8
Calque_1
 62
7
100
AcDbPolyline
 90
2
 70
0
 10
493.786433
 20
81.200099
 30
0.0
 10
501.552992
 20
72.802493
 30
0.0
  0
SPLINE
  5
23a
100
AcDbEntity
  8
Calque_1
 62
7
100
AcDbSpline
 70
8
 71
3
 72
8
 73
4
 74
0
 40
0
 40
0
 40
0
 40
0
 40
1
 40
1
 40
1
 40
1
 10
493.786433
 20
58.349867
 30
0.0
 10
492.942469
 20
57.437344
 30
0.0
 10
491.755916
 20
56.918517
 30
0.0
 10
490.512946
 20
56.918518
 30
0.0
  0
LWPOLYLINE
  5
23b
100
AcDbEntity
  8
Calque_1
 62
7
100
AcDbPolyline
 90
2
 70
0
 10
501.552992
 20
66.747474
 30
0.0
 10
493.786433
 20
58.349867
 30
0.0
  0
LWPOLYLINE
  5
23c
100
AcDbEntity
  8
Calque_1
 62
7
100
AcDbPolyline
 90
1
 70
1
 10
490.512946
 20
56.918518
 30
0.0
  0
LWPOLYLINE
  5
23d
100
AcDbEntity
  8
Calque_1
 62
7
100
AcDbPolyline
 90
3
 70
0
 10
490.426696
 20
72.094243
 30
0.0
 10
495.103866
 20
69.775685
 30
0.0
 10
490.426696
 20
67.457128
 30
0.0
  0
LWPOLYLINE
  5
23e
100
AcDbEntity
  8
Calque_1
 62
7
100
AcDbPolyline
 90
2
 70
0
 10
495.103866
 20
69.775699
 30
0.0
 10
486.625863
 20
69.775699
 30
0.0
  0
LWPOLYLINE
  5
23f
100
AcDbEntity
  8
Calque_1
 62
7
100
AcDbPolyline
 90
3
 70
0
 10
23.422316
 20
137.014299
 30
0.0
 10
28.099486
 20
134.695742
 30
0.0
 10
23.422316
 20
132.377185
 30
0.0
  0
LWPOLYLINE
  5
240
100
AcDbEntity
  8
Calque_1
 62
7
100
AcDbPolyline
 90
2
 70
0
 10
28.099486
 20
134.695756
 30
0.0
 10
19.621482
 20
134.695756
 30
0.0
  0
ENDSEC
  0
SECTION
  2
OBJECTS
  0
DICTIONARY
  5
C
330
0
100
AcDbDictionary
  3
ACAD_GROUP
350
D
  3
ACAD_MLINESTYLE
350
17
  0
DICTIONARY
  5
D
330
C
100
AcDbDictionary
  0
DICTIONARY
  5
1A
330
C
100
AcDbDictionary
  0
DICTIONARY
  5
17
330
C
100
AcDbDictionary
  3
STANDARD
350
18
  0
DICTIONARY
  5
19
330
C
100
AcDbDictionary
  0
ENDSEC
  0
EOF
