  0
SECTION
  2
HEADER
  9
$ACADVER
  1
AC1014
  9
$HANDSEED
  5
FFFF
  9
$MEASUREMENT
 70
     1
  0
ENDSEC
  0
SECTION
  2
TABLES
  0
TABLE
  2
VPORT
  5
8
330
0
100
AcDbSymbolTable
 70
     4
  0
VPORT
  5
2E
330
8
100
AcDbSymbolTableRecord
100
AcDbViewportTableRecord
  2
*ACTIVE
 70
     0
 10
0.0
 20
0.0
 11
1.0
 21
1.0
 12
210.0
 22
148.5
 13
0.0
 23
0.0
 14
10.0
 24
10.0
 15
10.0
 25
10.0
 16
0.0
 26
0.0
 36
1.0
 17
0.0
 27
0.0
 37
0.0
 40
341.0
 41
1.24
 42
50.0
 43
0.0
 44
0.0
 50
0.0
 51
0.0
 71
     0
 72
   100
 73
     1
 74
     3
 75
     0
 76
     0
 77
     0
 78
     0
  0
ENDTAB
  0
TABLE
  2
LTYPE
  5
5
330
0
100
AcDbSymbolTable
 70
     1
  0
LTYPE
  5
14
330
5
100
AcDbSymbolTableRecord
100
AcDbLinetypeTableRecord
  2
BYBLOCK
 70
     0
  3

 72
    65
 73
     0
 40
0.0
  0
LTYPE
  5
15
330
5
100
AcDbSymbolTableRecord
100
AcDbLinetypeTableRecord
  2
BYLAYER
 70
     0
  3

 72
    65
 73
     0
 40
0.0
  0
LTYPE
  5
16
330
5
100
AcDbSymbolTableRecord
100
AcDbLinetypeTableRecord
  2
CONTINUOUS
 70
     0
  3
Solid line
 72
    65
 73
     0
 40
0.0
  0
ENDTAB
  0
TABLE
  2
LAYER
  5
2
100
AcDbSymbolTable
 70
2
  0
LAYER
  5
50
100
AcDbSymbolTableRecord
100
AcDbLayerTableRecord
  2
0
 70
0
  6
CONTINUOUS
  0
LAYER
  5
51
100
AcDbSymbolTableRecord
100
AcDbLayerTableRecord
  2
Calque_1
 70
0
  6
CONTINUOUS
  0
ENDTAB
  0
TABLE
  2
STYLE
  5
3
330
0
100
AcDbSymbolTable
 70
     1
  0
STYLE
  5
11
330
3
100
AcDbSymbolTableRecord
100
AcDbTextStyleTableRecord
  2
STANDARD
 70
     0
 40
0.0
 41
1.0
 50
0.0
 71
     0
 42
2.5
  3
txt
  4

  0
ENDTAB
  0
TABLE
  2
VIEW
  5
6
330
0
100
AcDbSymbolTable
 70
     0
  0
ENDTAB
  0
TABLE
  2
UCS
  5
7
330
0
100
AcDbSymbolTable
 70
     0
  0
ENDTAB
  0
TABLE
  2
APPID
  5
9
330
0
100
AcDbSymbolTable
 70
     2
  0
APPID
  5
12
330
9
100
AcDbSymbolTableRecord
100
AcDbRegAppTableRecord
  2
ACAD
 70
     0
  0
ENDTAB
  0
TABLE
  2
DIMSTYLE
  5
A
330
0
100
AcDbSymbolTable
 70
     1
  0
DIMSTYLE
105
27
330
A
100
AcDbSymbolTableRecord
100
AcDbDimStyleTableRecord
  2
ISO-25
 70
     0
  3

  4

  5

  6

  7

 40
1.0
 41
2.5
 42
0.625
 43
3.75
 44
1.25
 45
0.0
 46
0.0
 47
0.0
 48
0.0
140
2.5
141
2.5
142
0.0
143
0.03937007874016
144
1.0
145
0.0
146
1.0
147
0.625
 71
     0
 72
     0
 73
     0
 74
     0
 75
     0
 76
     0
 77
     1
 78
     8
170
     0
171
     3
172
     1
173
     0
174
     0
175
     0
176
     0
177
     0
178
     0
270
     2
271
     2
272
     2
273
     2
274
     3
340
11
275
     0
280
     0
281
     0
282
     0
283
     0
284
     8
285
     0
286
     0
287
     3
288
     0
  0
ENDTAB
  0
TABLE
  2
BLOCK_RECORD
  5
1
330
0
100
AcDbSymbolTable
 70
     1
  0
BLOCK_RECORD
  5
1F
330
1
100
AcDbSymbolTableRecord
100
AcDbBlockTableRecord
  2
*MODEL_SPACE
  0
BLOCK_RECORD
  5
1B
330
1
100
AcDbSymbolTableRecord
100
AcDbBlockTableRecord
  2
*PAPER_SPACE
  0
ENDTAB
  0
ENDSEC
  0
SECTION
  2
BLOCKS
  0
BLOCK
  5
20
330
1F
100
AcDbEntity
  8
0
100
AcDbBlockBegin
  2
*MODEL_SPACE
 70
     0
 10
0.0
 20
0.0
 30
0.0
  3
*MODEL_SPACE
  1

  0
ENDBLK
  5
21
330
1F
100
AcDbEntity
  8
0
100
AcDbBlockEnd
  0
BLOCK
  5
1C
330
1B
100
AcDbEntity
 67
     1
  8
0
100
AcDbBlockBegin
  2
*PAPER_SPACE
  1

  0
ENDBLK
  5
1D
330
1B
100
AcDbEntity
 67
     1
  8
0
100
AcDbBlockEnd
  0
ENDSEC
  0
SECTION
  2
ENTITIES
  0
LWPOLYLINE
  5
100
100
AcDbEntity
  8
Calque_1
 62
7
100
AcDbPolyline
 90
14
 70
0
 10
71.137217
 20
117.913090
 30
0.0
 10
9.256385
 20
115.386153
 30
0.0
 10
9.256385
 20
109.349002
 30
0.0
 10
7.747095
 20
109.349002
 30
0.0
 10
7.747095
 20
112.367558
 30
0.0
 10
0.200655
 20
107.839725
 30
0.0
 10
0.200651
 20
98.783979
 30
0.0
 10
7.747095
 20
94.256107
 30
0.0
 10
7.747095
 20
97.274702
 30
0.0
 10
9.256385
 20
97.274702
 30
0.0
 10
9.256385
 20
93.803343
 30
0.0
 10
48.497890
 20
95.405785
 30
0.0
 10
71.137217
 20
84.708743
 30
0.0
 10
294.511931
 20
84.708743
 30
0.0
  0
SPLINE
  5
101
100
AcDbEntity
  8
Calque_1
 62
7
100
AcDbSpline
 70
0
 71
3
 72
25
 73
21
 74
19
 40
0.000000
 40
0.000000
 40
0.000000
 40
0.000000
 40
0.280515
 40
0.560759
 40
0.840715
 40
1.228160
 40
1.616298
 40
2.005098
 40
2.634369
 40
3.263478
 40
3.890426
 40
4.956008
 40
6.027960
 40
7.114832
 40
8.406180
 40
9.679962
 40
10.923508
 40
11.859888
 40
12.813972
 40
13.782181
 40
13.782181
 40
13.782181
 40
13.782181
 10
231.476975
 20
99.329907
 30
0.0
 10
231.423761
 20
99.406793
 30
0.0
 10
231.317383
 20
99.560492
 30
0.0
 10
231.162086
 20
99.793801
 30
0.0
 10
230.996646
 20
100.063025
 30
0.0
 10
230.832139
 20
100.374436
 30
0.0
 10
230.675462
 20
100.729864
 30
0.0
 10
230.515266
 20
101.170696
 30
0.0
 10
230.370499
 20
101.701309
 30
0.0
 10
230.262969
 20
102.321356
 30
0.0
 10
230.198896
 20
103.093546
 30
0.0
 10
230.229906
 20
104.017387
 30
0.0
 10
230.383880
 20
105.082443
 30
0.0
 10
230.626608
 20
106.206877
 30
0.0
 10
230.922951
 20
107.388343
 30
0.0
 10
231.350818
 20
108.586882
 30
0.0
 10
231.922995
 20
109.597689
 30
0.0
 10
232.629080
 20
110.374355
 30
0.0
 10
233.352299
 20
110.996285
 30
0.0
 10
233.861671
 20
111.385111
 30
0.0
 10
234.118229
 20
111.580952
 30
0.0
 11
231.476975
 21
99.329907
 31
0.0
 11
231.318031
 21
99.561047
 31
0.0
 11
231.163454
 21
99.794804
 31
0.0
 11
231.017611
 21
100.033771
 31
0.0
 11
230.836369
 21
100.376210
 31
0.0
 11
230.679553
 21
100.731260
 31
0.0
 11
230.546526
 21
101.096594
 31
0.0
 11
230.380193
 21
101.703484
 31
0.0
 11
230.272121
 21
102.323241
 31
0.0
 11
230.220016
 21
102.948020
 31
0.0
 11
230.249243
 21
104.013201
 31
0.0
 11
230.395197
 21
105.075170
 31
0.0
 11
230.617583
 21
106.139047
 31
0.0
 11
230.944656
 21
107.388288
 31
0.0
 11
231.388588
 21
108.582208
 31
0.0
 11
232.016182
 21
109.655770
 31
0.0
 11
232.637936
 21
110.355933
 31
0.0
 11
233.354404
 21
110.985973
 31
0.0
 11
234.118229
 21
111.580952
 31
0.0
  0
SPLINE
  5
102
100
AcDbEntity
  8
Calque_1
 62
7
100
AcDbSpline
 70
0
 71
3
 72
25
 73
21
 74
19
 40
0.000000
 40
0.000000
 40
0.000000
 40
0.000000
 40
0.968210
 40
1.922295
 40
2.858673
 40
4.102220
 40
5.376002
 40
6.667350
 40
7.754221
 40
8.826173
 40
9.891755
 40
10.518704
 40
11.147813
 40
11.777084
 40
12.165884
 40
12.554022
 40
12.941467
 40
13.221423
 40
13.501667
 40
13.782182
 40
13.782182
 40
13.782182
 40
13.782182
 10
234.118229
 20
111.580952
 30
0.0
 10
234.374787
 20
111.385111
 30
0.0
 10
234.884160
 20
110.996285
 30
0.0
 10
235.607380
 20
110.374356
 30
0.0
 10
236.313463
 20
109.597688
 30
0.0
 10
236.885640
 20
108.586883
 30
0.0
 10
237.313507
 20
107.388343
 30
0.0
 10
237.609850
 20
106.206877
 30
0.0
 10
237.852578
 20
105.082443
 30
0.0
 10
238.006552
 20
104.017386
 30
0.0
 10
238.037559
 20
103.093546
 30
0.0
 10
237.973494
 20
102.321356
 30
0.0
 10
237.865961
 20
101.701309
 30
0.0
 10
237.721191
 20
101.170696
 30
0.0
 10
237.560996
 20
100.729864
 30
0.0
 10
237.404319
 20
100.374436
 30
0.0
 10
237.239812
 20
100.063025
 30
0.0
 10
237.074372
 20
99.793801
 30
0.0
 10
236.919075
 20
99.560492
 30
0.0
 10
236.812697
 20
99.406793
 30
0.0
 10
236.759483
 20
99.329907
 30
0.0
 11
234.118229
 21
111.580952
 31
0.0
 11
234.882055
 21
110.985973
 31
0.0
 11
235.598524
 21
110.355933
 31
0.0
 11
236.220276
 21
109.655770
 31
0.0
 11
236.847870
 21
108.582208
 31
0.0
 11
237.291802
 21
107.388288
 31
0.0
 11
237.618874
 21
106.139047
 31
0.0
 11
237.841261
 21
105.075170
 31
0.0
 11
237.987215
 21
104.013201
 31
0.0
 11
238.016442
 21
102.948020
 31
0.0
 11
237.964340
 21
102.323241
 31
0.0
 11
237.856266
 21
101.703484
 31
0.0
 11
237.689932
 21
101.096594
 31
0.0
 11
237.556905
 21
100.731260
 31
0.0
 11
237.400089
 21
100.376210
 31
0.0
 11
237.218847
 21
100.033771
 31
0.0
 11
237.073004
 21
99.794804
 31
0.0
 11
236.918427
 21
99.561047
 31
0.0
 11
236.759483
 21
99.329907
 31
0.0
  0
SPLINE
  5
103
100
AcDbEntity
  8
Calque_1
 62
7
100
AcDbSpline
 70
0
 71
3
 72
25
 73
21
 74
19
 40
0.000000
 40
0.000000
 40
0.000000
 40
0.000000
 40
0.280428
 40
0.560648
 40
0.840735
 40
1.228555
 40
1.616866
 40
2.005228
 40
2.632816
 40
3.261261
 40
3.889421
 40
5.221510
 40
6.556316
 40
7.904358
 40
9.710363
 40
11.498247
 40
13.248597
 40
14.596820
 40
15.968523
 40
17.358982
 40
17.358982
 40
17.358982
 40
17.358982
 10
114.394040
 20
101.306484
 30
0.0
 10
114.316800
 20
101.359132
 30
0.0
 10
114.162377
 20
101.464389
 30
0.0
 10
113.928013
 20
101.618102
 30
0.0
 10
113.657655
 20
101.781978
 30
0.0
 10
113.345308
 20
101.945174
 30
0.0
 10
112.989006
 20
102.099990
 30
0.0
 10
112.547347
 20
102.256147
 30
0.0
 10
112.015144
 20
102.391640
 30
0.0
 10
111.394243
 20
102.490494
 30
0.0
 10
110.534099
 20
102.565388
 30
0.0
 10
109.433879
 20
102.570366
 30
0.0
 10
108.098478
 20
102.472730
 30
0.0
 10
106.611669
 20
102.304540
 30
0.0
 10
104.975200
 20
102.112932
 30
0.0
 10
103.223191
 20
101.775987
 30
0.0
 10
101.677270
 20
101.225014
 30
0.0
 10
100.403730
 20
100.438705
 30
0.0
 10
99.329830
 20
99.585778
 30
0.0
 10
98.642113
 20
98.973484
 30
0.0
 10
98.295920
 20
98.665258
 30
0.0
 11
114.394040
 21
101.306484
 31
0.0
 11
114.161853
 21
101.463739
 31
0.0
 11
113.927080
 21
101.616727
 31
0.0
 11
113.687133
 21
101.761204
 31
0.0
 11
113.343467
 21
101.940920
 31
0.0
 11
112.987364
 21
102.095762
 31
0.0
 11
112.621231
 21
102.225268
 31
0.0
 11
112.013576
 21
102.382184
 31
0.0
 11
111.393289
 21
102.483113
 31
0.0
 11
110.767664
 21
102.539503
 31
0.0
 11
109.435646
 21
102.553176
 31
0.0
 11
108.103801
 21
102.464319
 31
0.0
 11
106.763405
 21
102.320948
 31
0.0
 11
104.972202
 21
102.090198
 31
0.0
 11
103.221242
 21
101.728714
 31
0.0
 11
101.581174
 21
101.117240
 31
0.0
 11
100.426208
 21
100.421712
 31
0.0
 11
99.343100
 21
99.580019
 31
0.0
 11
98.295920
 21
98.665258
 31
0.0
  0
LWPOLYLINE
  5
104
100
AcDbEntity
  8
Calque_1
 62
7
100
AcDbPolyline
 90
2
 70
0
 10
294.511931
 20
117.913090
 30
0.0
 10
71.137217
 20
117.913090
 30
0.0
  0
SPLINE
  5
105
100
AcDbEntity
  8
Calque_1
 62
7
100
AcDbSpline
 70
0
 71
3
 72
25
 73
21
 74
19
 40
0.000000
 40
0.000000
 40
0.000000
 40
0.000000
 40
1.390471
 40
2.762175
 40
4.110408
 40
5.860749
 40
7.648633
 40
9.454641
 40
10.802683
 40
12.137489
 40
13.469578
 40
14.097739
 40
14.726187
 40
15.353778
 40
15.742139
 40
16.130446
 40
16.518253
 40
16.798344
 40
17.078569
 40
17.358988
 40
17.358988
 40
17.358988
 40
17.358988
 10
98.295920
 20
98.665258
 30
0.0
 10
98.642112
 20
98.357024
 30
0.0
 10
99.329824
 20
97.744717
 30
0.0
 10
100.403737
 20
96.891795
 30
0.0
 10
101.677258
 20
96.105452
 30
0.0
 10
103.223199
 20
95.554523
 30
0.0
 10
104.975201
 20
95.217576
 30
0.0
 10
106.611668
 20
95.025930
 30
0.0
 10
108.098478
 20
94.857746
 30
0.0
 10
109.433879
 20
94.760111
 30
0.0
 10
110.534100
 20
94.765083
 30
0.0
 10
111.394244
 20
94.839989
 30
0.0
 10
112.015144
 20
94.938867
 30
0.0
 10
112.547345
 20
95.074370
 30
0.0
 10
112.989005
 20
95.230524
 30
0.0
 10
113.345302
 20
95.385334
 30
0.0
 10
113.657664
 20
95.548494
 30
0.0
 10
113.928013
 20
95.712383
 30
0.0
 10
114.162369
 20
95.866106
 30
0.0
 10
114.316799
 20
95.971351
 30
0.0
 10
114.394040
 20
96.023992
 30
0.0
 11
98.295920
 21
98.665258
 31
0.0
 11
99.343100
 21
97.750477
 31
0.0
 11
100.426208
 21
96.908783
 31
0.0
 11
101.581174
 21
96.213236
 31
0.0
 11
103.221242
 21
95.601788
 31
0.0
 11
104.972202
 21
95.240305
 31
0.0
 11
106.763405
 21
95.009528
 31
0.0
 11
108.103801
 21
94.866157
 31
0.0
 11
109.435646
 21
94.777299
 31
0.0
 11
110.767664
 21
94.790973
 31
0.0
 11
111.393289
 21
94.847373
 31
0.0
 11
112.013576
 21
94.948322
 31
0.0
 11
112.621231
 21
95.105248
 31
0.0
 11
112.987364
 21
95.234753
 31
0.0
 11
113.343467
 21
95.389584
 31
0.0
 11
113.687133
 21
95.569272
 31
0.0
 11
113.927080
 21
95.713758
 31
0.0
 11
114.161853
 21
95.866754
 31
0.0
 11
114.394040
 21
96.023992
 31
0.0
  0
LWPOLYLINE
  5
106
100
AcDbEntity
  8
Calque_1
 62
7
100
AcDbPolyline
 90
2
 70
0
 10
68.619222
 20
109.669507
 30
0.0
 10
76.841097
 20
109.669507
 30
0.0
  0
SPLINE
  5
107
100
AcDbEntity
  8
Calque_1
 62
7
100
AcDbSpline
 70
0
 71
3
 72
16
 73
12
 74
10
 40
0.000000
 40
0.000000
 40
0.000000
 40
0.000000
 40
0.426128
 40
0.847078
 40
1.264487
 40
1.674776
 40
2.088963
 40
2.499255
 40
2.916677
 40
3.337627
 40
3.763738
 40
3.763738
 40
3.763738
 40
3.763738
 10
76.841097
 20
109.669507
 30
0.0
 10
76.981607
 20
109.648622
 30
0.0
 10
77.260920
 20
109.607105
 30
0.0
 10
77.673095
 20
109.515591
 30
0.0
 10
78.063856
 20
109.364707
 30
0.0
 10
78.411233
 20
109.133894
 30
0.0
 10
78.705846
 20
108.843206
 30
0.0
 10
78.941304
 20
108.498953
 30
0.0
 10
79.097385
 20
108.110231
 30
0.0
 10
79.194405
 20
107.699320
 30
0.0
 10
79.239652
 20
107.420593
 30
0.0
 10
79.262414
 20
107.280380
 30
0.0
 11
76.841097
 21
109.669507
 31
0.0
 11
77.261819
 21
109.601844
 31
0.0
 11
77.671498
 21
109.505091
 31
0.0
 11
78.059089
 21
109.350161
 31
0.0
 11
78.401747
 21
109.124499
 31
0.0
 11
78.696580
 21
108.833596
 31
0.0
 11
78.926815
 21
108.493991
 31
0.0
 11
79.086912
 21
108.108492
 31
0.0
 11
79.189132
 21
107.700142
 31
0.0
 11
79.262414
 21
107.280380
 31
0.0
  0
LWPOLYLINE
  5
108
100
AcDbEntity
  8
Calque_1
 62
7
100
AcDbPolyline
 90
2
 70
0
 10
79.262414
 20
107.280380
 30
0.0
 10
79.262414
 20
99.785266
 30
0.0
  0
SPLINE
  5
109
100
AcDbEntity
  8
Calque_1
 62
7
100
AcDbSpline
 70
0
 71
3
 72
16
 73
12
 74
10
 40
0.000000
 40
0.000000
 40
0.000000
 40
0.000000
 40
0.426137
 40
0.847087
 40
1.264484
 40
1.674784
 40
2.088985
 40
2.499280
 40
2.916689
 40
3.337639
 40
3.763767
 40
3.763767
 40
3.763767
 40
3.763767
 10
79.262414
 20
99.785266
 30
0.0
 10
79.239653
 20
99.645044
 30
0.0
 10
79.194406
 20
99.366308
 30
0.0
 10
79.097391
 20
98.955394
 30
0.0
 10
78.941295
 20
98.566685
 30
0.0
 10
78.705845
 20
98.222429
 30
0.0
 10
78.411236
 20
97.931723
 30
0.0
 10
78.063859
 20
97.700897
 30
0.0
 10
77.673095
 20
97.550015
 30
0.0
 10
77.260920
 20
97.458500
 30
0.0
 10
76.981607
 20
97.416984
 30
0.0
 10
76.841097
 20
97.396099
 30
0.0
 11
79.262414
 21
99.785266
 31
0.0
 11
79.189132
 21
99.365477
 31
0.0
 11
79.086912
 21
98.957127
 31
0.0
 11
78.926815
 21
98.571654
 31
0.0
 11
78.696580
 21
98.232040
 31
0.0
 11
78.401747
 21
97.941117
 31
0.0
 11
78.059089
 21
97.715445
 31
0.0
 11
77.671498
 21
97.560515
 31
0.0
 11
77.261819
 21
97.463762
 31
0.0
 11
76.841097
 21
97.396099
 31
0.0
  0
SPLINE
  5
10a
100
AcDbEntity
  8
Calque_1
 62
7
100
AcDbSpline
 70
0
 71
3
 72
25
 73
21
 74
19
 40
0.000000
 40
0.000000
 40
0.000000
 40
0.000000
 40
0.968210
 40
1.922295
 40
2.858673
 40
4.102220
 40
5.376002
 40
6.667350
 40
7.754221
 40
8.826173
 40
9.891755
 40
10.518704
 40
11.147813
 40
11.777084
 40
12.165884
 40
12.554022
 40
12.941467
 40
13.221423
 40
13.501667
 40
13.782182
 40
13.782182
 40
13.782182
 40
13.782182
 10
354.905633
 20
111.580952
 30
0.0
 10
354.649075
 20
111.385111
 30
0.0
 10
354.139703
 20
110.996285
 30
0.0
 10
353.416483
 20
110.374356
 30
0.0
 10
352.710399
 20
109.597688
 30
0.0
 10
352.138222
 20
108.586883
 30
0.0
 10
351.710355
 20
107.388343
 30
0.0
 10
351.414012
 20
106.206877
 30
0.0
 10
351.171285
 20
105.082443
 30
0.0
 10
351.017310
 20
104.017386
 30
0.0
 10
350.986303
 20
103.093546
 30
0.0
 10
351.050368
 20
102.321356
 30
0.0
 10
351.157902
 20
101.701309
 30
0.0
 10
351.302671
 20
101.170696
 30
0.0
 10
351.462867
 20
100.729864
 30
0.0
 10
351.619544
 20
100.374436
 30
0.0
 10
351.784050
 20
100.063025
 30
0.0
 10
351.949490
 20
99.793801
 30
0.0
 10
352.104788
 20
99.560492
 30
0.0
 10
352.211165
 20
99.406793
 30
0.0
 10
352.264379
 20
99.329907
 30
0.0
 11
354.905633
 21
111.580952
 31
0.0
 11
354.141807
 21
110.985973
 31
0.0
 11
353.425338
 21
110.355933
 31
0.0
 11
352.803586
 21
109.655770
 31
0.0
 11
352.175992
 21
108.582208
 31
0.0
 11
351.732060
 21
107.388288
 31
0.0
 11
351.404988
 21
106.139047
 31
0.0
 11
351.182601
 21
105.075170
 31
0.0
 11
351.036647
 21
104.013201
 31
0.0
 11
351.007420
 21
102.948020
 31
0.0
 11
351.059522
 21
102.323241
 31
0.0
 11
351.167596
 21
101.703484
 31
0.0
 11
351.333930
 21
101.096594
 31
0.0
 11
351.466957
 21
100.731260
 31
0.0
 11
351.623773
 21
100.376210
 31
0.0
 11
351.805015
 21
100.033771
 31
0.0
 11
351.950859
 21
99.794804
 31
0.0
 11
352.105435
 21
99.561047
 31
0.0
 11
352.264379
 21
99.329907
 31
0.0
  0
SPLINE
  5
10b
100
AcDbEntity
  8
Calque_1
 62
7
100
AcDbSpline
 70
0
 71
3
 72
25
 73
21
 74
19
 40
0.000000
 40
0.000000
 40
0.000000
 40
0.000000
 40
0.280515
 40
0.560759
 40
0.840715
 40
1.228160
 40
1.616298
 40
2.005098
 40
2.634369
 40
3.263478
 40
3.890426
 40
4.956008
 40
6.027960
 40
7.114832
 40
8.406180
 40
9.679962
 40
10.923508
 40
11.859888
 40
12.813972
 40
13.782181
 40
13.782181
 40
13.782181
 40
13.782181
 10
357.546887
 20
99.329907
 30
0.0
 10
357.600101
 20
99.406793
 30
0.0
 10
357.706479
 20
99.560492
 30
0.0
 10
357.861776
 20
99.793801
 30
0.0
 10
358.027216
 20
100.063025
 30
0.0
 10
358.191723
 20
100.374436
 30
0.0
 10
358.348400
 20
100.729864
 30
0.0
 10
358.508596
 20
101.170696
 30
0.0
 10
358.653363
 20
101.701309
 30
0.0
 10
358.760893
 20
102.321356
 30
0.0
 10
358.824966
 20
103.093546
 30
0.0
 10
358.793956
 20
104.017387
 30
0.0
 10
358.639982
 20
105.082443
 30
0.0
 10
358.397254
 20
106.206877
 30
0.0
 10
358.100911
 20
107.388343
 30
0.0
 10
357.673044
 20
108.586882
 30
0.0
 10
357.100868
 20
109.597689
 30
0.0
 10
356.394782
 20
110.374355
 30
0.0
 10
355.671563
 20
110.996285
 30
0.0
 10
355.162191
 20
111.385111
 30
0.0
 10
354.905633
 20
111.580952
 30
0.0
 11
357.546887
 21
99.329907
 31
0.0
 11
357.705831
 21
99.561047
 31
0.0
 11
357.860408
 21
99.794804
 31
0.0
 11
358.006251
 21
100.033771
 31
0.0
 11
358.187494
 21
100.376210
 31
0.0
 11
358.344309
 21
100.731260
 31
0.0
 11
358.477336
 21
101.096594
 31
0.0
 11
358.643669
 21
101.703484
 31
0.0
 11
358.751741
 21
102.323241
 31
0.0
 11
358.803846
 21
102.948020
 31
0.0
 11
358.774620
 21
104.013201
 31
0.0
 11
358.628665
 21
105.075170
 31
0.0
 11
358.406279
 21
106.139047
 31
0.0
 11
358.079206
 21
107.388288
 31
0.0
 11
357.635274
 21
108.582208
 31
0.0
 11
357.007680
 21
109.655770
 31
0.0
 11
356.385927
 21
110.355933
 31
0.0
 11
355.669459
 21
110.985973
 31
0.0
 11
354.905633
 21
111.580952
 31
0.0
  0
SPLINE
  5
10c
100
AcDbEntity
  8
Calque_1
 62
7
100
AcDbSpline
 70
0
 71
3
 72
25
 73
21
 74
19
 40
0.000000
 40
0.000000
 40
0.000000
 40
0.000000
 40
1.390471
 40
2.762175
 40
4.110408
 40
5.860749
 40
7.648633
 40
9.454641
 40
10.802683
 40
12.137489
 40
13.469578
 40
14.097739
 40
14.726187
 40
15.353778
 40
15.742139
 40
16.130446
 40
16.518253
 40
16.798344
 40
17.078569
 40
17.358988
 40
17.358988
 40
17.358988
 40
17.358988
 10
490.727942
 20
98.665258
 30
0.0
 10
490.381750
 20
98.357024
 30
0.0
 10
489.694039
 20
97.744717
 30
0.0
 10
488.620126
 20
96.891795
 30
0.0
 10
487.346604
 20
96.105452
 30
0.0
 10
485.800664
 20
95.554523
 30
0.0
 10
484.048661
 20
95.217576
 30
0.0
 10
482.412195
 20
95.025930
 30
0.0
 10
480.925384
 20
94.857746
 30
0.0
 10
479.589983
 20
94.760111
 30
0.0
 10
478.489763
 20
94.765083
 30
0.0
 10
477.629618
 20
94.839989
 30
0.0
 10
477.008718
 20
94.938867
 30
0.0
 10
476.476517
 20
95.074370
 30
0.0
 10
476.034857
 20
95.230524
 30
0.0
 10
475.678561
 20
95.385334
 30
0.0
 10
475.366199
 20
95.548494
 30
0.0
 10
475.095849
 20
95.712383
 30
0.0
 10
474.861493
 20
95.866106
 30
0.0
 10
474.707064
 20
95.971351
 30
0.0
 10
474.629822
 20
96.023992
 30
0.0
 11
490.727942
 21
98.665258
 31
0.0
 11
489.680762
 21
97.750477
 31
0.0
 11
488.597654
 21
96.908783
 31
0.0
 11
487.442689
 21
96.213236
 31
0.0
 11
485.802620
 21
95.601788
 31
0.0
 11
484.051661
 21
95.240305
 31
0.0
 11
482.260458
 21
95.009528
 31
0.0
 11
480.920061
 21
94.866157
 31
0.0
 11
479.588216
 21
94.777299
 31
0.0
 11
478.256198
 21
94.790973
 31
0.0
 11
477.630573
 21
94.847373
 31
0.0
 11
477.010286
 21
94.948322
 31
0.0
 11
476.402632
 21
95.105248
 31
0.0
 11
476.036499
 21
95.234753
 31
0.0
 11
475.680395
 21
95.389584
 31
0.0
 11
475.336729
 21
95.569272
 31
0.0
 11
475.096782
 21
95.713758
 31
0.0
 11
474.862009
 21
95.866754
 31
0.0
 11
474.629822
 21
96.023992
 31
0.0
  0
LWPOLYLINE
  5
10d
100
AcDbEntity
  8
Calque_1
 62
7
100
AcDbPolyline
 90
2
 70
0
 10
76.841097
 20
97.396099
 30
0.0
 10
68.619222
 20
97.396099
 30
0.0
  0
LWPOLYLINE
  5
10e
100
AcDbEntity
  8
Calque_1
 62
7
100
AcDbPolyline
 90
2
 70
0
 10
517.886645
 20
84.708743
 30
0.0
 10
294.511931
 20
84.708743
 30
0.0
  0
SPLINE
  5
10f
100
AcDbEntity
  8
Calque_1
 62
7
100
AcDbSpline
 70
0
 71
3
 72
25
 73
21
 74
19
 40
0.000000
 40
0.000000
 40
0.000000
 40
0.000000
 40
0.280428
 40
0.560648
 40
0.840735
 40
1.228555
 40
1.616866
 40
2.005228
 40
2.632816
 40
3.261261
 40
3.889421
 40
5.221510
 40
6.556316
 40
7.904358
 40
9.710363
 40
11.498247
 40
13.248597
 40
14.596820
 40
15.968523
 40
17.358982
 40
17.358982
 40
17.358982
 40
17.358982
 10
474.629822
 20
101.306484
 30
0.0
 10
474.707063
 20
101.359132
 30
0.0
 10
474.861486
 20
101.464389
 30
0.0
 10
475.095849
 20
101.618102
 30
0.0
 10
475.366208
 20
101.781978
 30
0.0
 10
475.678554
 20
101.945174
 30
0.0
 10
476.034856
 20
102.099990
 30
0.0
 10
476.476516
 20
102.256147
 30
0.0
 10
477.008718
 20
102.391640
 30
0.0
 10
477.629619
 20
102.490494
 30
0.0
 10
478.489763
 20
102.565388
 30
0.0
 10
479.589983
 20
102.570366
 30
0.0
 10
480.925384
 20
102.472730
 30
0.0
 10
482.412193
 20
102.304540
 30
0.0
 10
484.048663
 20
102.112932
 30
0.0
 10
485.800671
 20
101.775987
 30
0.0
 10
487.346592
 20
101.225014
 30
0.0
 10
488.620132
 20
100.438705
 30
0.0
 10
489.694032
 20
99.585778
 30
0.0
 10
490.381749
 20
98.973484
 30
0.0
 10
490.727942
 20
98.665258
 30
0.0
 11
474.629822
 21
101.306484
 31
0.0
 11
474.862009
 21
101.463739
 31
0.0
 11
475.096782
 21
101.616727
 31
0.0
 11
475.336729
 21
101.761204
 31
0.0
 11
475.680395
 21
101.940920
 31
0.0
 11
476.036499
 21
102.095762
 31
0.0
 11
476.402632
 21
102.225268
 31
0.0
 11
477.010286
 21
102.382184
 31
0.0
 11
477.630573
 21
102.483113
 31
0.0
 11
478.256198
 21
102.539503
 31
0.0
 11
479.588216
 21
102.553176
 31
0.0
 11
480.920061
 21
102.464319
 31
0.0
 11
482.260458
 21
102.320948
 31
0.0
 11
484.051661
 21
102.090198
 31
0.0
 11
485.802620
 21
101.728714
 31
0.0
 11
487.442689
 21
101.117240
 31
0.0
 11
488.597654
 21
100.421712
 31
0.0
 11
489.680762
 21
99.580019
 31
0.0
 11
490.727942
 21
98.665258
 31
0.0
  0
LWPOLYLINE
  5
110
100
AcDbEntity
  8
Calque_1
 62
7
100
AcDbPolyline
 90
2
 70
0
 10
509.761448
 20
107.280380
 30
0.0
 10
509.761448
 20
99.785266
 30
0.0
  0
LWPOLYLINE
  5
111
100
AcDbEntity
  8
Calque_1
 62
7
100
AcDbPolyline
 90
2
 70
0
 10
520.404641
 20
109.669507
 30
0.0
 10
512.182765
 20
109.669507
 30
0.0
  0
SPLINE
  5
112
100
AcDbEntity
  8
Calque_1
 62
7
100
AcDbSpline
 70
0
 71
3
 72
16
 73
12
 74
10
 40
0.000000
 40
0.000000
 40
0.000000
 40
0.000000
 40
0.426128
 40
0.847078
 40
1.264487
 40
1.674776
 40
2.088963
 40
2.499255
 40
2.916677
 40
3.337627
 40
3.763738
 40
3.763738
 40
3.763738
 40
3.763738
 10
512.182765
 20
109.669507
 30
0.0
 10
512.042255
 20
109.648622
 30
0.0
 10
511.762942
 20
109.607105
 30
0.0
 10
511.350767
 20
109.515591
 30
0.0
 10
510.960006
 20
109.364707
 30
0.0
 10
510.612629
 20
109.133894
 30
0.0
 10
510.318016
 20
108.843206
 30
0.0
 10
510.082558
 20
108.498953
 30
0.0
 10
509.926477
 20
108.110231
 30
0.0
 10
509.829458
 20
107.699320
 30
0.0
 10
509.784210
 20
107.420593
 30
0.0
 10
509.761448
 20
107.280380
 30
0.0
 11
512.182765
 21
109.669507
 31
0.0
 11
511.762043
 21
109.601844
 31
0.0
 11
511.352364
 21
109.505091
 31
0.0
 11
510.964773
 21
109.350161
 31
0.0
 11
510.622115
 21
109.124499
 31
0.0
 11
510.327283
 21
108.833596
 31
0.0
 11
510.097047
 21
108.493991
 31
0.0
 11
509.936951
 21
108.108492
 31
0.0
 11
509.834730
 21
107.700142
 31
0.0
 11
509.761448
 21
107.280380
 31
0.0
  0
LWPOLYLINE
  5
113
100
AcDbEntity
  8
Calque_1
 62
7
100
AcDbPolyline
 90
2
 70
0
 10
512.182765
 20
97.396099
 30
0.0
 10
520.404641
 20
97.396099
 30
0.0
  0
LWPOLYLINE
  5
114
100
AcDbEntity
  8
Calque_1
 62
7
100
AcDbPolyline
 90
2
 70
0
 10
581.276767
 20
97.274702
 30
0.0
 10
579.767477
 20
97.274702
 30
0.0
  0
LWPOLYLINE
  5
115
100
AcDbEntity
  8
Calque_1
 62
7
100
AcDbPolyline
 90
4
 70
0
 10
579.767477
 20
115.386153
 30
0.0
 10
579.767477
 20
109.349002
 30
0.0
 10
581.276767
 20
109.349002
 30
0.0
 10
581.276767
 20
112.367558
 30
0.0
  0
LWPOLYLINE
  5
116
100
AcDbEntity
  8
Calque_1
 62
7
100
AcDbPolyline
 90
2
 70
0
 10
588.823211
 20
98.783979
 30
0.0
 10
581.276767
 20
94.256107
 30
0.0
  0
LWPOLYLINE
  5
117
100
AcDbEntity
  8
Calque_1
 62
7
100
AcDbPolyline
 90
2
 70
0
 10
588.823207
 20
107.839725
 30
0.0
 10
588.823211
 20
98.783979
 30
0.0
  0
LWPOLYLINE
  5
118
100
AcDbEntity
  8
Calque_1
 62
7
100
AcDbPolyline
 90
2
 70
0
 10
579.767477
 20
97.274702
 30
0.0
 10
579.767477
 20
93.803343
 30
0.0
  0
LWPOLYLINE
  5
119
100
AcDbEntity
  8
Calque_1
 62
7
100
AcDbPolyline
 90
2
 70
0
 10
581.276767
 20
112.367558
 30
0.0
 10
588.823207
 20
107.839725
 30
0.0
  0
LWPOLYLINE
  5
11a
100
AcDbEntity
  8
Calque_1
 62
7
100
AcDbPolyline
 90
2
 70
0
 10
581.276767
 20
94.256107
 30
0.0
 10
581.276767
 20
97.274702
 30
0.0
  0
LWPOLYLINE
  5
11b
100
AcDbEntity
  8
Calque_1
 62
7
100
AcDbPolyline
 90
3
 70
0
 10
579.767477
 20
93.803343
 30
0.0
 10
540.525972
 20
95.405785
 30
0.0
 10
517.886645
 20
84.708743
 30
0.0
  0
LWPOLYLINE
  5
11c
100
AcDbEntity
  8
Calque_1
 62
7
100
AcDbPolyline
 90
2
 70
0
 10
517.886645
 20
117.913090
 30
0.0
 10
579.767477
 20
115.386153
 30
0.0
  0
LWPOLYLINE
  5
11d
100
AcDbEntity
  8
Calque_1
 62
7
100
AcDbPolyline
 90
2
 70
0
 10
294.511931
 20
117.913090
 30
0.0
 10
517.886645
 20
117.913090
 30
0.0
  0
LWPOLYLINE
  5
11e
100
AcDbEntity
  8
Calque_1
 62
7
100
AcDbPolyline
 90
2
 70
0
 10
22.085340
 20
149.875556
 30
0.0
 10
25.858558
 20
155.645353
 30
0.0
  0
LWPOLYLINE
  5
11f
100
AcDbEntity
  8
Calque_1
 62
7
100
AcDbPolyline
 90
2
 70
0
 10
19.066761
 20
149.875556
 30
0.0
 10
22.085340
 20
149.875556
 30
0.0
  0
LWPOLYLINE
  5
120
100
AcDbEntity
  8
Calque_1
 62
7
100
AcDbPolyline
 90
2
 70
0
 10
22.839983
 20
155.645353
 30
0.0
 10
19.066761
 20
149.875556
 30
0.0
  0
SPLINE
  5
121
100
AcDbEntity
  8
Calque_1
 62
7
100
AcDbSpline
 70
0
 71
3
 72
16
 73
12
 74
10
 40
0.000000
 40
0.000000
 40
0.000000
 40
0.000000
 40
0.426137
 40
0.847087
 40
1.264484
 40
1.674784
 40
2.088985
 40
2.499280
 40
2.916689
 40
3.337639
 40
3.763767
 40
3.763767
 40
3.763767
 40
3.763767
 10
509.761448
 20
99.785266
 30
0.0
 10
509.784210
 20
99.645044
 30
0.0
 10
509.829456
 20
99.366308
 30
0.0
 10
509.926471
 20
98.955394
 30
0.0
 10
510.082568
 20
98.566685
 30
0.0
 10
510.318017
 20
98.222429
 30
0.0
 10
510.612626
 20
97.931723
 30
0.0
 10
510.960003
 20
97.700897
 30
0.0
 10
511.350767
 20
97.550015
 30
0.0
 10
511.762942
 20
97.458500
 30
0.0
 10
512.042255
 20
97.416984
 30
0.0
 10
512.182765
 20
97.396099
 30
0.0
 11
509.761448
 21
99.785266
 31
0.0
 11
509.834730
 21
99.365477
 31
0.0
 11
509.936951
 21
98.957127
 31
0.0
 11
510.097047
 21
98.571654
 31
0.0
 11
510.327283
 21
98.232040
 31
0.0
 11
510.622115
 21
97.941117
 31
0.0
 11
510.964773
 21
97.715445
 31
0.0
 11
511.352364
 21
97.560515
 31
0.0
 11
511.762043
 21
97.463762
 31
0.0
 11
512.182765
 21
97.396099
 31
0.0
  0
LWPOLYLINE
  5
122
100
AcDbEntity
  8
Calque_1
 62
7
100
AcDbPolyline
 90
2
 70
0
 10
22.839983
 20
155.645353
 30
0.0
 10
8.831455
 20
155.645353
 30
0.0
  0
SPLINE
  5
123
100
AcDbEntity
  8
Calque_1
 62
7
100
AcDbSpline
 70
0
 71
3
 72
16
 73
12
 74
10
 40
0.000000
 40
0.000000
 40
0.000000
 40
0.000000
 40
1.336000
 40
2.655879
 40
3.964762
 40
5.254203
 40
6.555851
 40
7.845292
 40
9.154174
 40
10.474048
 40
11.810050
 40
11.810050
 40
11.810050
 40
11.810050
 10
8.831455
 20
155.645353
 30
0.0
 10
8.386086
 20
155.645360
 30
0.0
 10
7.500723
 20
155.645374
 30
0.0
 10
6.180211
 20
155.551869
 30
0.0
 10
4.897570
 20
155.264832
 30
0.0
 10
3.711283
 20
154.709762
 30
0.0
 10
2.660048
 20
153.943789
 30
0.0
 10
1.768187
 20
152.984640
 30
0.0
 10
1.101977
 20
151.851627
 30
0.0
 10
0.608366
 20
150.623280
 30
0.0
 10
0.337108
 20
149.780495
 30
0.0
 10
0.200655
 20
149.356544
 30
0.0
 11
8.831455
 21
155.645353
 31
0.0
 11
7.495549
 21
155.629521
 31
0.0
 11
6.180331
 21
155.518691
 31
0.0
 11
4.906487
 21
155.217868
 31
0.0
 11
3.736351
 21
154.676167
 31
0.0
 11
2.684345
 21
153.909634
 31
0.0
 11
1.810165
 21
152.961758
 31
0.0
 11
1.133518
 21
151.841348
 31
0.0
 11
0.625044
 21
150.623349
 31
0.0
 11
0.200655
 21
149.356544
 31
0.0
  0
LWPOLYLINE
  5
124
100
AcDbEntity
  8
Calque_1
 62
7
100
AcDbPolyline
 90
2
 70
0
 10
0.200655
 20
149.356544
 30
0.0
 10
0.200655
 20
124.201944
 30
0.0
  0
LWPOLYLINE
  5
125
100
AcDbEntity
  8
Calque_1
 62
7
100
AcDbPolyline
 90
6
 70
0
 10
8.831451
 20
117.913134
 30
0.0
 10
22.839983
 20
117.913134
 30
0.0
 10
19.066761
 20
123.682931
 30
0.0
 10
22.085340
 20
123.682931
 30
0.0
 10
25.858558
 20
117.913134
 30
0.0
 10
294.511931
 20
117.913134
 30
0.0
  0
LWPOLYLINE
  5
126
100
AcDbEntity
  8
Calque_1
 62
7
100
AcDbPolyline
 90
2
 70
0
 10
294.511931
 20
155.645353
 30
0.0
 10
25.858558
 20
155.645353
 30
0.0
  0
LWPOLYLINE
  5
127
100
AcDbEntity
  8
Calque_1
 62
7
100
AcDbPolyline
 90
3
 70
0
 10
7.747095
 20
123.682931
 30
0.0
 10
7.747095
 20
149.875556
 30
0.0
 10
10.765674
 20
149.875556
 30
0.0
  0
LWPOLYLINE
  5
128
100
AcDbEntity
  8
Calque_1
 62
7
100
AcDbPolyline
 90
2
 70
0
 10
10.765674
 20
123.682931
 30
0.0
 10
7.747095
 20
123.682931
 30
0.0
  0
LWPOLYLINE
  5
129
100
AcDbEntity
  8
Calque_1
 62
7
100
AcDbPolyline
 90
2
 70
0
 10
10.765674
 20
149.875556
 30
0.0
 10
10.765674
 20
123.682931
 30
0.0
  0
LWPOLYLINE
  5
12a
100
AcDbEntity
  8
Calque_1
 62
7
100
AcDbPolyline
 90
3
 70
0
 10
34.159649
 20
149.875556
 30
0.0
 10
34.159649
 20
123.682931
 30
0.0
 10
32.650359
 20
123.682931
 30
0.0
  0
LWPOLYLINE
  5
12b
100
AcDbEntity
  8
Calque_1
 62
7
100
AcDbPolyline
 90
2
 70
0
 10
32.650359
 20
149.875556
 30
0.0
 10
34.159649
 20
149.875556
 30
0.0
  0
LWPOLYLINE
  5
12c
100
AcDbEntity
  8
Calque_1
 62
7
100
AcDbPolyline
 90
2
 70
0
 10
32.650359
 20
123.682931
 30
0.0
 10
32.650359
 20
149.875556
 30
0.0
  0
LWPOLYLINE
  5
12d
100
AcDbEntity
  8
Calque_1
 62
7
100
AcDbPolyline
 90
3
 70
0
 10
61.237011
 20
135.013714
 30
0.0
 10
62.537250
 20
149.875556
 30
0.0
 10
64.040797
 20
149.744016
 30
0.0
  0
LWPOLYLINE
  5
12e
100
AcDbEntity
  8
Calque_1
 62
7
100
AcDbPolyline
 90
2
 70
0
 10
62.740558
 20
134.882174
 30
0.0
 10
61.237011
 20
135.013714
 30
0.0
  0
LWPOLYLINE
  5
12f
100
AcDbEntity
  8
Calque_1
 62
7
100
AcDbPolyline
 90
2
 70
0
 10
64.040797
 20
149.744016
 30
0.0
 10
62.740558
 20
134.882174
 30
0.0
  0
LWPOLYLINE
  5
130
100
AcDbEntity
  8
Calque_1
 62
7
100
AcDbPolyline
 90
3
 70
0
 10
76.339319
 20
135.013754
 30
0.0
 10
77.639562
 20
149.875556
 30
0.0
 10
79.143105
 20
149.744016
 30
0.0
  0
LWPOLYLINE
  5
131
100
AcDbEntity
  8
Calque_1
 62
7
100
AcDbPolyline
 90
2
 70
0
 10
77.842867
 20
134.882214
 30
0.0
 10
76.339319
 20
135.013754
 30
0.0
  0
LWPOLYLINE
  5
132
100
AcDbEntity
  8
Calque_1
 62
7
100
AcDbPolyline
 90
2
 70
0
 10
79.143105
 20
149.744016
 30
0.0
 10
77.842867
 20
134.882214
 30
0.0
  0
LWPOLYLINE
  5
133
100
AcDbEntity
  8
Calque_1
 62
7
100
AcDbPolyline
 90
3
 70
0
 10
91.441224
 20
135.013754
 30
0.0
 10
92.741463
 20
149.875556
 30
0.0
 10
94.245006
 20
149.744016
 30
0.0
  0
LWPOLYLINE
  5
134
100
AcDbEntity
  8
Calque_1
 62
7
100
AcDbPolyline
 90
2
 70
0
 10
92.944767
 20
134.882214
 30
0.0
 10
91.441224
 20
135.013754
 30
0.0
  0
LWPOLYLINE
  5
135
100
AcDbEntity
  8
Calque_1
 62
7
100
AcDbPolyline
 90
2
 70
0
 10
94.245006
 20
149.744016
 30
0.0
 10
92.944767
 20
134.882214
 30
0.0
  0
LWPOLYLINE
  5
136
100
AcDbEntity
  8
Calque_1
 62
7
100
AcDbPolyline
 90
3
 70
0
 10
116.884334
 20
123.682931
 30
0.0
 10
116.884338
 20
149.875556
 30
0.0
 10
120.857981
 20
149.875556
 30
0.0
  0
LWPOLYLINE
  5
137
100
AcDbEntity
  8
Calque_1
 62
7
100
AcDbPolyline
 90
2
 70
0
 10
120.857981
 20
123.682931
 30
0.0
 10
116.884334
 20
123.682931
 30
0.0
  0
LWPOLYLINE
  5
138
100
AcDbEntity
  8
Calque_1
 62
7
100
AcDbPolyline
 90
2
 70
0
 10
120.857981
 20
149.875556
 30
0.0
 10
120.857981
 20
123.682931
 30
0.0
  0
LWPOLYLINE
  5
139
100
AcDbEntity
  8
Calque_1
 62
7
100
AcDbPolyline
 90
2
 70
0
 10
294.511931
 20
155.645353
 30
0.0
 10
563.165304
 20
155.645353
 30
0.0
  0
LWPOLYLINE
  5
13a
100
AcDbEntity
  8
Calque_1
 62
7
100
AcDbPolyline
 90
2
 70
0
 10
563.165304
 20
117.913134
 30
0.0
 10
294.511931
 20
117.913134
 30
0.0
  0
LWPOLYLINE
  5
13b
100
AcDbEntity
  8
Calque_1
 62
7
100
AcDbPolyline
 90
2
 70
0
 10
511.180996
 20
134.882214
 30
0.0
 10
512.684543
 20
135.013754
 30
0.0
  0
LWPOLYLINE
  5
13c
100
AcDbEntity
  8
Calque_1
 62
7
100
AcDbPolyline
 90
2
 70
0
 10
526.486612
 20
149.875556
 30
0.0
 10
524.983065
 20
149.744016
 30
0.0
  0
SPLINE
  5
13d
100
AcDbEntity
  8
Calque_1
 62
7
100
AcDbSpline
 70
0
 71
3
 72
16
 73
12
 74
10
 40
0.000000
 40
0.000000
 40
0.000000
 40
0.000000
 40
1.335986
 40
2.655868
 40
3.964757
 40
5.254197
 40
6.555846
 40
7.845287
 40
9.154167
 40
10.474046
 40
11.810045
 40
11.810045
 40
11.810045
 40
11.810045
 10
0.200655
 20
124.201944
 30
0.0
 10
0.337109
 20
123.777998
 30
0.0
 10
0.608371
 20
122.935218
 30
0.0
 10
1.101977
 20
121.706870
 30
0.0
 10
1.768184
 20
120.573849
 30
0.0
 10
2.660048
 20
119.614699
 30
0.0
 10
3.711283
 20
118.848725
 30
0.0
 10
4.897569
 20
118.293656
 30
0.0
 10
6.180209
 20
118.006618
 30
0.0
 10
7.500719
 20
117.913114
 30
0.0
 10
8.386082
 20
117.913127
 30
0.0
 10
8.831451
 20
117.913134
 30
0.0
 11
0.200655
 21
124.201944
 31
0.0
 11
0.625044
 21
122.935156
 31
0.0
 11
1.133518
 21
121.717148
 31
0.0
 11
1.810165
 21
120.596729
 31
0.0
 11
2.684345
 21
119.648854
 31
0.0
 11
3.736351
 21
118.882320
 31
0.0
 11
4.906487
 21
118.340620
 31
0.0
 11
6.180328
 21
118.039796
 31
0.0
 11
7.495545
 21
117.928967
 31
0.0
 11
8.831451
 21
117.913134
 31
0.0
  0
LWPOLYLINE
  5
13e
100
AcDbEntity
  8
Calque_1
 62
7
100
AcDbPolyline
 90
2
 70
0
 10
566.183879
 20
155.645353
 30
0.0
 10
569.957101
 20
149.875556
 30
0.0
  0
LWPOLYLINE
  5
13f
100
AcDbEntity
  8
Calque_1
 62
7
100
AcDbPolyline
 90
2
 70
0
 10
566.183879
 20
117.913134
 30
0.0
 10
569.957101
 20
123.682931
 30
0.0
  0
LWPOLYLINE
  5
140
100
AcDbEntity
  8
Calque_1
 62
7
100
AcDbPolyline
 90
2
 70
0
 10
554.864213
 20
123.682931
 30
0.0
 10
556.373503
 20
123.682931
 30
0.0
  0
LWPOLYLINE
  5
141
100
AcDbEntity
  8
Calque_1
 62
7
100
AcDbPolyline
 90
2
 70
0
 10
581.276767
 20
149.875556
 30
0.0
 10
578.258188
 20
149.875556
 30
0.0
  0
LWPOLYLINE
  5
142
100
AcDbEntity
  8
Calque_1
 62
7
100
AcDbPolyline
 90
2
 70
0
 10
566.183879
 20
155.645353
 30
0.0
 10
580.192407
 20
155.645353
 30
0.0
  0
LWPOLYLINE
  5
143
100
AcDbEntity
  8
Calque_1
 62
7
100
AcDbPolyline
 90
2
 70
0
 10
580.192411
 20
117.913134
 30
0.0
 10
566.183879
 20
117.913134
 30
0.0
  0
LWPOLYLINE
  5
144
100
AcDbEntity
  8
Calque_1
 62
7
100
AcDbPolyline
 90
2
 70
0
 10
569.957101
 20
123.682931
 30
0.0
 10
566.938522
 20
123.682931
 30
0.0
  0
LWPOLYLINE
  5
145
100
AcDbEntity
  8
Calque_1
 62
7
100
AcDbPolyline
 90
2
 70
0
 10
556.373503
 20
123.682931
 30
0.0
 10
556.373503
 20
149.875556
 30
0.0
  0
LWPOLYLINE
  5
146
100
AcDbEntity
  8
Calque_1
 62
7
100
AcDbPolyline
 90
2
 70
0
 10
569.957101
 20
149.875556
 30
0.0
 10
566.938522
 20
149.875556
 30
0.0
  0
LWPOLYLINE
  5
147
100
AcDbEntity
  8
Calque_1
 62
7
100
AcDbPolyline
 90
2
 70
0
 10
566.938522
 20
123.682931
 30
0.0
 10
563.165304
 20
117.913134
 30
0.0
  0
LWPOLYLINE
  5
148
100
AcDbEntity
  8
Calque_1
 62
7
100
AcDbPolyline
 90
2
 70
0
 10
566.938522
 20
149.875556
 30
0.0
 10
563.165304
 20
155.645353
 30
0.0
  0
LWPOLYLINE
  5
149
100
AcDbEntity
  8
Calque_1
 62
7
100
AcDbPolyline
 90
2
 70
0
 10
509.880757
 20
149.744016
 30
0.0
 10
511.180996
 20
134.882214
 30
0.0
  0
LWPOLYLINE
  5
14a
100
AcDbEntity
  8
Calque_1
 62
7
100
AcDbPolyline
 90
2
 70
0
 10
581.276767
 20
123.682931
 30
0.0
 10
581.276767
 20
149.875556
 30
0.0
  0
LWPOLYLINE
  5
14b
100
AcDbEntity
  8
Calque_1
 62
7
100
AcDbPolyline
 90
2
 70
0
 10
578.258188
 20
123.682931
 30
0.0
 10
581.276767
 20
123.682931
 30
0.0
  0
SPLINE
  5
14c
100
AcDbEntity
  8
Calque_1
 62
7
100
AcDbSpline
 70
0
 71
3
 72
16
 73
12
 74
10
 40
0.000000
 40
0.000000
 40
0.000000
 40
0.000000
 40
1.336000
 40
2.655879
 40
3.964762
 40
5.254203
 40
6.555851
 40
7.845292
 40
9.154174
 40
10.474048
 40
11.810050
 40
11.810050
 40
11.810050
 40
11.810050
 10
580.192407
 20
155.645353
 30
0.0
 10
580.637776
 20
155.645360
 30
0.0
 10
581.523140
 20
155.645374
 30
0.0
 10
582.843651
 20
155.551869
 30
0.0
 10
584.126292
 20
155.264832
 30
0.0
 10
585.312579
 20
154.709762
 30
0.0
 10
586.363814
 20
153.943789
 30
0.0
 10
587.255675
 20
152.984640
 30
0.0
 10
587.921885
 20
151.851627
 30
0.0
 10
588.415496
 20
150.623280
 30
0.0
 10
588.686754
 20
149.780495
 30
0.0
 10
588.823207
 20
149.356544
 30
0.0
 11
580.192407
 21
155.645353
 31
0.0
 11
581.528313
 21
155.629521
 31
0.0
 11
582.843532
 21
155.518691
 31
0.0
 11
584.117376
 21
155.217868
 31
0.0
 11
585.287512
 21
154.676167
 31
0.0
 11
586.339517
 21
153.909634
 31
0.0
 11
587.213697
 21
152.961758
 31
0.0
 11
587.890344
 21
151.841348
 31
0.0
 11
588.398818
 21
150.623349
 31
0.0
 11
588.823207
 21
149.356544
 31
0.0
  0
LWPOLYLINE
  5
14d
100
AcDbEntity
  8
Calque_1
 62
7
100
AcDbPolyline
 90
2
 70
0
 10
578.258188
 20
149.875556
 30
0.0
 10
578.258188
 20
123.682931
 30
0.0
  0
LWPOLYLINE
  5
14e
100
AcDbEntity
  8
Calque_1
 62
7
100
AcDbPolyline
 90
3
 70
0
 10
556.373503
 20
149.875556
 30
0.0
 10
554.864213
 20
149.875556
 30
0.0
 10
554.864213
 20
123.682931
 30
0.0
  0
LWPOLYLINE
  5
14f
100
AcDbEntity
  8
Calque_1
 62
7
100
AcDbPolyline
 90
2
 70
0
 10
588.823207
 20
149.356544
 30
0.0
 10
588.823207
 20
124.201944
 30
0.0
  0
LWPOLYLINE
  5
150
100
AcDbEntity
  8
Calque_1
 62
7
100
AcDbPolyline
 90
2
 70
0
 10
468.165881
 20
123.682931
 30
0.0
 10
472.139528
 20
123.682931
 30
0.0
  0
LWPOLYLINE
  5
151
100
AcDbEntity
  8
Calque_1
 62
7
100
AcDbPolyline
 90
2
 70
0
 10
468.165881
 20
149.875556
 30
0.0
 10
468.165881
 20
123.682931
 30
0.0
  0
LWPOLYLINE
  5
152
100
AcDbEntity
  8
Calque_1
 62
7
100
AcDbPolyline
 90
2
 70
0
 10
472.139528
 20
123.682931
 30
0.0
 10
472.139524
 20
149.875556
 30
0.0
  0
LWPOLYLINE
  5
153
100
AcDbEntity
  8
Calque_1
 62
7
100
AcDbPolyline
 90
2
 70
0
 10
524.983065
 20
149.744016
 30
0.0
 10
526.283304
 20
134.882174
 30
0.0
  0
LWPOLYLINE
  5
154
100
AcDbEntity
  8
Calque_1
 62
7
100
AcDbPolyline
 90
2
 70
0
 10
511.384300
 20
149.875556
 30
0.0
 10
509.880757
 20
149.744016
 30
0.0
  0
LWPOLYLINE
  5
155
100
AcDbEntity
  8
Calque_1
 62
7
100
AcDbPolyline
 90
2
 70
0
 10
472.139524
 20
149.875556
 30
0.0
 10
468.165881
 20
149.875556
 30
0.0
  0
LWPOLYLINE
  5
156
100
AcDbEntity
  8
Calque_1
 62
7
100
AcDbPolyline
 90
2
 70
0
 10
496.079095
 20
134.882214
 30
0.0
 10
497.582638
 20
135.013754
 30
0.0
  0
LWPOLYLINE
  5
157
100
AcDbEntity
  8
Calque_1
 62
7
100
AcDbPolyline
 90
3
 70
0
 10
496.282399
 20
149.875556
 30
0.0
 10
494.778856
 20
149.744016
 30
0.0
 10
496.079095
 20
134.882214
 30
0.0
  0
LWPOLYLINE
  5
158
100
AcDbEntity
  8
Calque_1
 62
7
100
AcDbPolyline
 90
2
 70
0
 10
527.786851
 20
135.013714
 30
0.0
 10
526.486612
 20
149.875556
 30
0.0
  0
LWPOLYLINE
  5
159
100
AcDbEntity
  8
Calque_1
 62
7
100
AcDbPolyline
 90
2
 70
0
 10
497.582638
 20
135.013754
 30
0.0
 10
496.282399
 20
149.875556
 30
0.0
  0
LWPOLYLINE
  5
15a
100
AcDbEntity
  8
Calque_1
 62
7
100
AcDbPolyline
 90
2
 70
0
 10
512.684543
 20
135.013754
 30
0.0
 10
511.384300
 20
149.875556
 30
0.0
  0
LWPOLYLINE
  5
15b
100
AcDbEntity
  8
Calque_1
 62
7
100
AcDbPolyline
 90
2
 70
0
 10
526.283304
 20
134.882174
 30
0.0
 10
527.786851
 20
135.013714
 30
0.0
  0
SPLINE
  5
15c
100
AcDbEntity
  8
Calque_1
 62
7
100
AcDbSpline
 70
0
 71
3
 72
16
 73
12
 74
10
 40
0.000000
 40
0.000000
 40
0.000000
 40
0.000000
 40
1.335986
 40
2.655868
 40
3.964757
 40
5.254197
 40
6.555846
 40
7.845287
 40
9.154167
 40
10.474046
 40
11.810045
 40
11.810045
 40
11.810045
 40
11.810045
 10
588.823207
 20
124.201944
 30
0.0
 10
588.686753
 20
123.777998
 30
0.0
 10
588.415491
 20
122.935218
 30
0.0
 10
587.921885
 20
121.706870
 30
0.0
 10
587.255678
 20
120.573849
 30
0.0
 10
586.363814
 20
119.614699
 30
0.0
 10
585.312579
 20
118.848725
 30
0.0
 10
584.126293
 20
118.293656
 30
0.0
 10
582.843653
 20
118.006618
 30
0.0
 10
581.523143
 20
117.913114
 30
0.0
 10
580.637780
 20
117.913127
 30
0.0
 10
580.192411
 20
117.913134
 30
0.0
 11
588.823207
 21
124.201944
 31
0.0
 11
588.398818
 21
122.935156
 31
0.0
 11
587.890344
 21
121.717148
 31
0.0
 11
587.213697
 21
120.596729
 31
0.0
 11
586.339517
 21
119.648854
 31
0.0
 11
585.287512
 21
118.882320
 31
0.0
 11
584.117376
 21
118.340620
 31
0.0
 11
582.843534
 21
118.039796
 31
0.0
 11
581.528317
 21
117.928967
 31
0.0
 11
580.192411
 21
117.913134
 31
0.0
  0
LWPOLYLINE
  5
15d
100
AcDbEntity
  8
Calque_1
 62
7
100
AcDbPolyline
 90
3
 70
0
 10
127.451411
 20
84.708708
 30
0.0
 10
136.036582
 20
84.708708
 30
0.0
 10
140.564455
 20
84.708708
 30
0.0
  0
SPLINE
  5
15e
100
AcDbEntity
  8
Calque_1
 62
7
100
AcDbSpline
 70
0
 71
3
 72
16
 73
12
 74
10
 40
0.000000
 40
0.000000
 40
0.000000
 40
0.000000
 40
1.316723
 40
2.614602
 40
3.931325
 40
5.248049
 40
6.545927
 40
7.862651
 40
9.179374
 40
10.477253
 40
11.793976
 40
11.793976
 40
11.793976
 40
11.793976
 10
140.564455
 20
84.708708
 30
0.0
 10
140.609537
 20
84.267562
 30
0.0
 10
140.699055
 20
83.391583
 30
0.0
 10
141.393592
 20
82.233963
 30
0.0
 10
142.410460
 20
81.373303
 30
0.0
 10
143.669841
 20
80.916838
 30
0.0
 10
145.005538
 20
80.916838
 30
0.0
 10
146.264919
 20
81.373303
 30
0.0
 10
147.281787
 20
82.233963
 30
0.0
 10
147.976323
 20
83.391583
 30
0.0
 10
148.065841
 20
84.267562
 30
0.0
 10
148.110923
 20
84.708708
 30
0.0
 11
140.564455
 21
84.708708
 31
0.0
 11
140.794146
 21
83.412173
 31
0.0
 11
141.443086
 21
82.288177
 31
0.0
 11
142.451072
 21
81.440992
 31
0.0
 11
143.688750
 21
80.991643
 31
0.0
 11
144.986629
 21
80.991643
 31
0.0
 11
146.224306
 21
81.440992
 31
0.0
 11
147.232292
 21
82.288177
 31
0.0
 11
147.881232
 21
83.412173
 31
0.0
 11
148.110923
 21
84.708708
 31
0.0
  0
LWPOLYLINE
  5
15f
100
AcDbEntity
  8
Calque_1
 62
7
100
AcDbPolyline
 90
2
 70
0
 10
148.110923
 20
84.708708
 30
0.0
 10
152.638756
 20
84.708708
 30
0.0
  0
SPLINE
  5
160
100
AcDbEntity
  8
Calque_1
 62
7
100
AcDbSpline
 70
0
 71
3
 72
16
 73
12
 74
10
 40
0.000000
 40
0.000000
 40
0.000000
 40
0.000000
 40
1.316723
 40
2.614602
 40
3.931325
 40
5.248049
 40
6.545927
 40
7.862651
 40
9.179374
 40
10.477253
 40
11.793976
 40
11.793976
 40
11.793976
 40
11.793976
 10
152.638756
 20
84.708708
 30
0.0
 10
152.683838
 20
84.267562
 30
0.0
 10
152.773356
 20
83.391583
 30
0.0
 10
153.467892
 20
82.233963
 30
0.0
 10
154.484760
 20
81.373303
 30
0.0
 10
155.744141
 20
80.916838
 30
0.0
 10
157.079838
 20
80.916838
 30
0.0
 10
158.339219
 20
81.373303
 30
0.0
 10
159.356087
 20
82.233963
 30
0.0
 10
160.050623
 20
83.391583
 30
0.0
 10
160.140142
 20
84.267562
 30
0.0
 10
160.185224
 20
84.708708
 30
0.0
 11
152.638756
 21
84.708708
 31
0.0
 11
152.868447
 21
83.412173
 31
0.0
 11
153.517386
 21
82.288177
 31
0.0
 11
154.525373
 21
81.440992
 31
0.0
 11
155.763050
 21
80.991643
 31
0.0
 11
157.060929
 21
80.991643
 31
0.0
 11
158.298607
 21
81.440992
 31
0.0
 11
159.306593
 21
82.288177
 31
0.0
 11
159.955532
 21
83.412173
 31
0.0
 11
160.185224
 21
84.708708
 31
0.0
  0
LWPOLYLINE
  5
161
100
AcDbEntity
  8
Calque_1
 62
7
100
AcDbPolyline
 90
2
 70
0
 10
160.185224
 20
84.708708
 30
0.0
 10
164.713096
 20
84.708708
 30
0.0
  0
SPLINE
  5
162
100
AcDbEntity
  8
Calque_1
 62
7
100
AcDbSpline
 70
0
 71
3
 72
13
 73
9
 74
7
 40
0.000000
 40
0.000000
 40
0.000000
 40
0.000000
 40
1.970358
 40
3.882403
 40
5.852761
 40
7.823119
 40
9.735164
 40
11.705522
 40
11.705522
 40
11.705522
 40
11.705522
 10
164.713096
 20
84.708708
 30
0.0
 10
164.817937
 20
84.044624
 30
0.0
 10
165.024514
 20
82.736109
 30
0.0
 10
166.524914
 20
81.296784
 30
0.0
 10
168.486310
 20
80.763532
 30
0.0
 10
170.447706
 20
81.296784
 30
0.0
 10
171.948107
 20
82.736109
 30
0.0
 10
172.154684
 20
84.044624
 30
0.0
 10
172.259524
 20
84.708708
 30
0.0
 11
164.713096
 21
84.708708
 31
0.0
 11
165.230761
 21
82.807568
 31
0.0
 11
166.584136
 21
81.456904
 31
0.0
 11
168.486310
 21
80.943053
 31
0.0
 11
170.388485
 21
81.456904
 31
0.0
 11
171.741860
 21
82.807568
 31
0.0
 11
172.259524
 21
84.708708
 31
0.0
  0
LWPOLYLINE
  5
163
100
AcDbEntity
  8
Calque_1
 62
7
100
AcDbPolyline
 90
2
 70
0
 10
172.259524
 20
84.708708
 30
0.0
 10
176.787389
 20
84.708708
 30
0.0
  0
SPLINE
  5
164
100
AcDbEntity
  8
Calque_1
 62
7
100
AcDbSpline
 70
0
 71
3
 72
16
 73
12
 74
10
 40
0.000000
 40
0.000000
 40
0.000000
 40
0.000000
 40
1.316719
 40
2.614594
 40
3.931313
 40
5.248032
 40
6.545907
 40
7.862626
 40
9.179345
 40
10.477220
 40
11.793939
 40
11.793939
 40
11.793939
 40
11.793939
 10
176.787389
 20
84.708708
 30
0.0
 10
176.832471
 20
84.267563
 30
0.0
 10
176.921989
 20
83.391587
 30
0.0
 10
177.616523
 20
82.233971
 30
0.0
 10
178.633388
 20
81.373314
 30
0.0
 10
179.892765
 20
80.916850
 30
0.0
 10
181.228457
 20
80.916850
 30
0.0
 10
182.487834
 20
81.373314
 30
0.0
 10
183.504699
 20
82.233971
 30
0.0
 10
184.199233
 20
83.391587
 30
0.0
 10
184.288751
 20
84.267563
 30
0.0
 10
184.333833
 20
84.708708
 30
0.0
 11
176.787389
 21
84.708708
 31
0.0
 11
177.017080
 21
83.412178
 31
0.0
 11
177.666017
 21
82.288185
 31
0.0
 11
178.674000
 21
81.441002
 31
0.0
 11
179.911674
 21
80.991655
 31
0.0
 11
181.209548
 21
80.991655
 31
0.0
 11
182.447222
 21
81.441002
 31
0.0
 11
183.455205
 21
82.288185
 31
0.0
 11
184.104142
 21
83.412178
 31
0.0
 11
184.333833
 21
84.708708
 31
0.0
  0
LWPOLYLINE
  5
165
100
AcDbEntity
  8
Calque_1
 62
7
100
AcDbPolyline
 90
2
 70
0
 10
184.333833
 20
84.708708
 30
0.0
 10
188.861706
 20
84.708708
 30
0.0
  0
SPLINE
  5
166
100
AcDbEntity
  8
Calque_1
 62
7
100
AcDbSpline
 70
0
 71
3
 72
16
 73
12
 74
10
 40
0.000000
 40
0.000000
 40
0.000000
 40
0.000000
 40
1.316719
 40
2.614594
 40
3.931313
 40
5.248032
 40
6.545907
 40
7.862626
 40
9.179345
 40
10.477220
 40
11.793939
 40
11.793939
 40
11.793939
 40
11.793939
 10
188.861706
 20
84.708708
 30
0.0
 10
188.906787
 20
84.267563
 30
0.0
 10
188.996305
 20
83.391587
 30
0.0
 10
189.690839
 20
82.233971
 30
0.0
 10
190.707704
 20
81.373314
 30
0.0
 10
191.967081
 20
80.916850
 30
0.0
 10
193.302774
 20
80.916850
 30
0.0
 10
194.562151
 20
81.373314
 30
0.0
 10
195.579016
 20
82.233971
 30
0.0
 10
196.273550
 20
83.391587
 30
0.0
 10
196.363068
 20
84.267563
 30
0.0
 10
196.408150
 20
84.708708
 30
0.0
 11
188.861706
 21
84.708708
 31
0.0
 11
189.091396
 21
83.412178
 31
0.0
 11
189.740334
 21
82.288185
 31
0.0
 11
190.748317
 21
81.441002
 31
0.0
 11
191.985990
 21
80.991655
 31
0.0
 11
193.283865
 21
80.991655
 31
0.0
 11
194.521539
 21
81.441002
 31
0.0
 11
195.529522
 21
82.288185
 31
0.0
 11
196.178459
 21
83.412178
 31
0.0
 11
196.408150
 21
84.708708
 31
0.0
  0
LWPOLYLINE
  5
167
100
AcDbEntity
  8
Calque_1
 62
7
100
AcDbPolyline
 90
2
 70
0
 10
196.408150
 20
84.708708
 30
0.0
 10
200.936014
 20
84.708708
 30
0.0
  0
SPLINE
  5
168
100
AcDbEntity
  8
Calque_1
 62
7
100
AcDbSpline
 70
0
 71
3
 72
13
 73
9
 74
7
 40
0.000000
 40
0.000000
 40
0.000000
 40
0.000000
 40
1.971714
 40
3.885005
 40
5.856719
 40
7.828433
 40
9.741725
 40
11.713439
 40
11.713439
 40
11.713439
 40
11.713439
 10
200.936014
 20
84.708708
 30
0.0
 10
201.040283
 20
84.044043
 30
0.0
 10
201.245730
 20
82.734408
 30
0.0
 10
202.746490
 20
81.293177
 30
0.0
 10
204.709234
 20
80.759186
 30
0.0
 10
206.671979
 20
81.293177
 30
0.0
 10
208.172738
 20
82.734408
 30
0.0
 10
208.378186
 20
84.044043
 30
0.0
 10
208.482454
 20
84.708708
 30
0.0
 11
200.936014
 21
84.708708
 31
0.0
 11
201.452322
 21
82.805794
 31
0.0
 11
202.805846
 21
81.453515
 31
0.0
 11
204.709234
 21
80.938958
 31
0.0
 11
206.612623
 21
81.453515
 31
0.0
 11
207.966146
 21
82.805794
 31
0.0
 11
208.482454
 21
84.708708
 31
0.0
  0
LWPOLYLINE
  5
169
100
AcDbEntity
  8
Calque_1
 62
7
100
AcDbPolyline
 90
2
 70
0
 10
208.482454
 20
84.708708
 30
0.0
 10
213.010323
 20
84.708708
 30
0.0
  0
SPLINE
  5
16a
100
AcDbEntity
  8
Calque_1
 62
7
100
AcDbSpline
 70
0
 71
3
 72
16
 73
12
 74
10
 40
0.000000
 40
0.000000
 40
0.000000
 40
0.000000
 40
1.316719
 40
2.614594
 40
3.931313
 40
5.248032
 40
6.545907
 40
7.862626
 40
9.179345
 40
10.477220
 40
11.793939
 40
11.793939
 40
11.793939
 40
11.793939
 10
213.010323
 20
84.708708
 30
0.0
 10
213.055405
 20
84.267563
 30
0.0
 10
213.144923
 20
83.391587
 30
0.0
 10
213.839457
 20
82.233971
 30
0.0
 10
214.856321
 20
81.373314
 30
0.0
 10
216.115698
 20
80.916850
 30
0.0
 10
217.451391
 20
80.916850
 30
0.0
 10
218.710768
 20
81.373314
 30
0.0
 10
219.727633
 20
82.233971
 30
0.0
 10
220.422167
 20
83.391587
 30
0.0
 10
220.511685
 20
84.267563
 30
0.0
 10
220.556767
 20
84.708708
 30
0.0
 11
213.010323
 21
84.708708
 31
0.0
 11
213.240013
 21
83.412178
 31
0.0
 11
213.888951
 21
82.288185
 31
0.0
 11
214.896934
 21
81.441002
 31
0.0
 11
216.134608
 21
80.991655
 31
0.0
 11
217.432482
 21
80.991655
 31
0.0
 11
218.670156
 21
81.441002
 31
0.0
 11
219.678139
 21
82.288185
 31
0.0
 11
220.327076
 21
83.412178
 31
0.0
 11
220.556767
 21
84.708708
 31
0.0
  0
LWPOLYLINE
  5
16b
100
AcDbEntity
  8
Calque_1
 62
7
100
AcDbPolyline
 90
2
 70
0
 10
220.556767
 20
84.708708
 30
0.0
 10
225.084632
 20
84.708708
 30
0.0
  0
SPLINE
  5
16c
100
AcDbEntity
  8
Calque_1
 62
7
100
AcDbSpline
 70
0
 71
3
 72
16
 73
12
 74
10
 40
0.000000
 40
0.000000
 40
0.000000
 40
0.000000
 40
1.316719
 40
2.614594
 40
3.931313
 40
5.248032
 40
6.545907
 40
7.862626
 40
9.179345
 40
10.477220
 40
11.793939
 40
11.793939
 40
11.793939
 40
11.793939
 10
225.084632
 20
84.708708
 30
0.0
 10
225.129713
 20
84.267563
 30
0.0
 10
225.219231
 20
83.391587
 30
0.0
 10
225.913765
 20
82.233971
 30
0.0
 10
226.930630
 20
81.373314
 30
0.0
 10
228.190007
 20
80.916850
 30
0.0
 10
229.525700
 20
80.916850
 30
0.0
 10
230.785077
 20
81.373314
 30
0.0
 10
231.801942
 20
82.233971
 30
0.0
 10
232.496476
 20
83.391587
 30
0.0
 10
232.585994
 20
84.267563
 30
0.0
 10
232.631075
 20
84.708708
 30
0.0
 11
225.084632
 21
84.708708
 31
0.0
 11
225.314322
 21
83.412178
 31
0.0
 11
225.963259
 21
82.288185
 31
0.0
 11
226.971243
 21
81.441002
 31
0.0
 11
228.208916
 21
80.991655
 31
0.0
 11
229.506791
 21
80.991655
 31
0.0
 11
230.744465
 21
81.441002
 31
0.0
 11
231.752448
 21
82.288185
 31
0.0
 11
232.401385
 21
83.412178
 31
0.0
 11
232.631075
 21
84.708708
 31
0.0
  0
LWPOLYLINE
  5
16d
100
AcDbEntity
  8
Calque_1
 62
7
100
AcDbPolyline
 90
2
 70
0
 10
232.631075
 20
84.708708
 30
0.0
 10
237.158940
 20
84.708708
 30
0.0
  0
SPLINE
  5
16e
100
AcDbEntity
  8
Calque_1
 62
7
100
AcDbSpline
 70
0
 71
3
 72
16
 73
12
 74
10
 40
0.000000
 40
0.000000
 40
0.000000
 40
0.000000
 40
1.316719
 40
2.614594
 40
3.931313
 40
5.248032
 40
6.545907
 40
7.862626
 40
9.179345
 40
10.477220
 40
11.793939
 40
11.793939
 40
11.793939
 40
11.793939
 10
237.158940
 20
84.708708
 30
0.0
 10
237.204022
 20
84.267563
 30
0.0
 10
237.293540
 20
83.391587
 30
0.0
 10
237.988074
 20
82.233971
 30
0.0
 10
239.004939
 20
81.373314
 30
0.0
 10
240.264316
 20
80.916850
 30
0.0
 10
241.600009
 20
80.916850
 30
0.0
 10
242.859386
 20
81.373314
 30
0.0
 10
243.876250
 20
82.233971
 30
0.0
 10
244.570784
 20
83.391587
 30
0.0
 10
244.660302
 20
84.267563
 30
0.0
 10
244.705384
 20
84.708708
 30
0.0
 11
237.158940
 21
84.708708
 31
0.0
 11
237.388631
 21
83.412178
 31
0.0
 11
238.037568
 21
82.288185
 31
0.0
 11
239.045551
 21
81.441002
 31
0.0
 11
240.283225
 21
80.991655
 31
0.0
 11
241.581100
 21
80.991655
 31
0.0
 11
242.818773
 21
81.441002
 31
0.0
 11
243.826756
 21
82.288185
 31
0.0
 11
244.475694
 21
83.412178
 31
0.0
 11
244.705384
 21
84.708708
 31
0.0
  0
LWPOLYLINE
  5
16f
100
AcDbEntity
  8
Calque_1
 62
7
100
AcDbPolyline
 90
2
 70
0
 10
244.705384
 20
84.708708
 30
0.0
 10
249.233249
 20
84.708708
 30
0.0
  0
SPLINE
  5
170
100
AcDbEntity
  8
Calque_1
 62
7
100
AcDbSpline
 70
0
 71
3
 72
16
 73
12
 74
10
 40
0.000000
 40
0.000000
 40
0.000000
 40
0.000000
 40
1.316719
 40
2.614594
 40
3.931313
 40
5.248032
 40
6.545907
 40
7.862626
 40
9.179345
 40
10.477220
 40
11.793939
 40
11.793939
 40
11.793939
 40
11.793939
 10
249.233249
 20
84.708708
 30
0.0
 10
249.278330
 20
84.267563
 30
0.0
 10
249.367849
 20
83.391587
 30
0.0
 10
250.062383
 20
82.233971
 30
0.0
 10
251.079247
 20
81.373314
 30
0.0
 10
252.338624
 20
80.916850
 30
0.0
 10
253.674317
 20
80.916850
 30
0.0
 10
254.933694
 20
81.373314
 30
0.0
 10
255.950559
 20
82.233971
 30
0.0
 10
256.645093
 20
83.391587
 30
0.0
 10
256.734611
 20
84.267563
 30
0.0
 10
256.779693
 20
84.708708
 30
0.0
 11
249.233249
 21
84.708708
 31
0.0
 11
249.462939
 21
83.412178
 31
0.0
 11
250.111877
 21
82.288185
 31
0.0
 11
251.119860
 21
81.441002
 31
0.0
 11
252.357533
 21
80.991655
 31
0.0
 11
253.655408
 21
80.991655
 31
0.0
 11
254.893082
 21
81.441002
 31
0.0
 11
255.901065
 21
82.288185
 31
0.0
 11
256.550002
 21
83.412178
 31
0.0
 11
256.779693
 21
84.708708
 31
0.0
  0
LWPOLYLINE
  5
171
100
AcDbEntity
  8
Calque_1
 62
7
100
AcDbPolyline
 90
2
 70
0
 10
256.779693
 20
84.708708
 30
0.0
 10
261.307557
 20
84.708708
 30
0.0
  0
SPLINE
  5
172
100
AcDbEntity
  8
Calque_1
 62
7
100
AcDbSpline
 70
0
 71
3
 72
16
 73
12
 74
10
 40
0.000000
 40
0.000000
 40
0.000000
 40
0.000000
 40
1.316719
 40
2.614594
 40
3.931313
 40
5.248032
 40
6.545907
 40
7.862626
 40
9.179345
 40
10.477220
 40
11.793939
 40
11.793939
 40
11.793939
 40
11.793939
 10
261.307557
 20
84.708708
 30
0.0
 10
261.352639
 20
84.267563
 30
0.0
 10
261.442157
 20
83.391587
 30
0.0
 10
262.136691
 20
82.233971
 30
0.0
 10
263.153556
 20
81.373314
 30
0.0
 10
264.412933
 20
80.916850
 30
0.0
 10
265.748626
 20
80.916850
 30
0.0
 10
267.008003
 20
81.373314
 30
0.0
 10
268.024868
 20
82.233971
 30
0.0
 10
268.719402
 20
83.391587
 30
0.0
 10
268.808920
 20
84.267563
 30
0.0
 10
268.854001
 20
84.708708
 30
0.0
 11
261.307557
 21
84.708708
 31
0.0
 11
261.537248
 21
83.412178
 31
0.0
 11
262.186185
 21
82.288185
 31
0.0
 11
263.194168
 21
81.441002
 31
0.0
 11
264.431842
 21
80.991655
 31
0.0
 11
265.729717
 21
80.991655
 31
0.0
 11
266.967390
 21
81.441002
 31
0.0
 11
267.975374
 21
82.288185
 31
0.0
 11
268.624311
 21
83.412178
 31
0.0
 11
268.854001
 21
84.708708
 31
0.0
  0
LWPOLYLINE
  5
173
100
AcDbEntity
  8
Calque_1
 62
7
100
AcDbPolyline
 90
2
 70
0
 10
268.854001
 20
84.708708
 30
0.0
 10
273.381866
 20
84.708708
 30
0.0
  0
SPLINE
  5
174
100
AcDbEntity
  8
Calque_1
 62
7
100
AcDbSpline
 70
0
 71
3
 72
16
 73
12
 74
10
 40
0.000000
 40
0.000000
 40
0.000000
 40
0.000000
 40
1.316719
 40
2.614594
 40
3.931313
 40
5.248032
 40
6.545907
 40
7.862626
 40
9.179345
 40
10.477220
 40
11.793939
 40
11.793939
 40
11.793939
 40
11.793939
 10
273.381866
 20
84.708708
 30
0.0
 10
273.426948
 20
84.267563
 30
0.0
 10
273.516466
 20
83.391587
 30
0.0
 10
274.211000
 20
82.233971
 30
0.0
 10
275.227865
 20
81.373314
 30
0.0
 10
276.487242
 20
80.916850
 30
0.0
 10
277.822935
 20
80.916850
 30
0.0
 10
279.082311
 20
81.373314
 30
0.0
 10
280.099176
 20
82.233971
 30
0.0
 10
280.793710
 20
83.391587
 30
0.0
 10
280.883228
 20
84.267563
 30
0.0
 10
280.928310
 20
84.708708
 30
0.0
 11
273.381866
 21
84.708708
 31
0.0
 11
273.611557
 21
83.412178
 31
0.0
 11
274.260494
 21
82.288185
 31
0.0
 11
275.268477
 21
81.441002
 31
0.0
 11
276.506151
 21
80.991655
 31
0.0
 11
277.804025
 21
80.991655
 31
0.0
 11
279.041699
 21
81.441002
 31
0.0
 11
280.049682
 21
82.288185
 31
0.0
 11
280.698620
 21
83.412178
 31
0.0
 11
280.928310
 21
84.708708
 31
0.0
  0
LWPOLYLINE
  5
175
100
AcDbEntity
  8
Calque_1
 62
7
100
AcDbPolyline
 90
2
 70
0
 10
280.928310
 20
84.708708
 30
0.0
 10
285.456175
 20
84.708708
 30
0.0
  0
SPLINE
  5
176
100
AcDbEntity
  8
Calque_1
 62
7
100
AcDbSpline
 70
0
 71
3
 72
16
 73
12
 74
10
 40
0.000000
 40
0.000000
 40
0.000000
 40
0.000000
 40
1.316719
 40
2.614594
 40
3.931313
 40
5.248032
 40
6.545907
 40
7.862626
 40
9.179345
 40
10.477220
 40
11.793939
 40
11.793939
 40
11.793939
 40
11.793939
 10
285.456175
 20
84.708708
 30
0.0
 10
285.501256
 20
84.267563
 30
0.0
 10
285.590775
 20
83.391587
 30
0.0
 10
286.285308
 20
82.233971
 30
0.0
 10
287.302173
 20
81.373314
 30
0.0
 10
288.561550
 20
80.916850
 30
0.0
 10
289.897243
 20
80.916850
 30
0.0
 10
291.156620
 20
81.373314
 30
0.0
 10
292.173485
 20
82.233971
 30
0.0
 10
292.868019
 20
83.391587
 30
0.0
 10
292.957537
 20
84.267563
 30
0.0
 10
293.002619
 20
84.708708
 30
0.0
 11
285.456175
 21
84.708708
 31
0.0
 11
285.685865
 21
83.412178
 31
0.0
 11
286.334803
 21
82.288185
 31
0.0
 11
287.342786
 21
81.441002
 31
0.0
 11
288.580459
 21
80.991655
 31
0.0
 11
289.878334
 21
80.991655
 31
0.0
 11
291.116008
 21
81.441002
 31
0.0
 11
292.123991
 21
82.288185
 31
0.0
 11
292.772928
 21
83.412178
 31
0.0
 11
293.002619
 21
84.708708
 31
0.0
  0
LWPOLYLINE
  5
177
100
AcDbEntity
  8
Calque_1
 62
7
100
AcDbPolyline
 90
2
 70
0
 10
293.002619
 20
84.708708
 30
0.0
 10
297.530483
 20
84.708708
 30
0.0
  0
SPLINE
  5
178
100
AcDbEntity
  8
Calque_1
 62
7
100
AcDbSpline
 70
0
 71
3
 72
16
 73
12
 74
10
 40
0.000000
 40
0.000000
 40
0.000000
 40
0.000000
 40
1.316719
 40
2.614594
 40
3.931313
 40
5.248032
 40
6.545907
 40
7.862626
 40
9.179345
 40
10.477220
 40
11.793939
 40
11.793939
 40
11.793939
 40
11.793939
 10
297.530483
 20
84.708708
 30
0.0
 10
297.575565
 20
84.267563
 30
0.0
 10
297.665083
 20
83.391587
 30
0.0
 10
298.359617
 20
82.233971
 30
0.0
 10
299.376482
 20
81.373314
 30
0.0
 10
300.635859
 20
80.916850
 30
0.0
 10
301.971552
 20
80.916850
 30
0.0
 10
303.230929
 20
81.373314
 30
0.0
 10
304.247794
 20
82.233971
 30
0.0
 10
304.942327
 20
83.391587
 30
0.0
 10
305.031846
 20
84.267563
 30
0.0
 10
305.076927
 20
84.708708
 30
0.0
 11
297.530483
 21
84.708708
 31
0.0
 11
297.760174
 21
83.412178
 31
0.0
 11
298.409111
 21
82.288185
 31
0.0
 11
299.417094
 21
81.441002
 31
0.0
 11
300.654768
 21
80.991655
 31
0.0
 11
301.952643
 21
80.991655
 31
0.0
 11
303.190316
 21
81.441002
 31
0.0
 11
304.198299
 21
82.288185
 31
0.0
 11
304.847237
 21
83.412178
 31
0.0
 11
305.076927
 21
84.708708
 31
0.0
  0
LWPOLYLINE
  5
179
100
AcDbEntity
  8
Calque_1
 62
7
100
AcDbPolyline
 90
2
 70
0
 10
305.076927
 20
84.708708
 30
0.0
 10
309.604792
 20
84.708708
 30
0.0
  0
SPLINE
  5
17a
100
AcDbEntity
  8
Calque_1
 62
7
100
AcDbSpline
 70
0
 71
3
 72
16
 73
12
 74
10
 40
0.000000
 40
0.000000
 40
0.000000
 40
0.000000
 40
1.316719
 40
2.614594
 40
3.931313
 40
5.248032
 40
6.545907
 40
7.862626
 40
9.179345
 40
10.477220
 40
11.793939
 40
11.793939
 40
11.793939
 40
11.793939
 10
309.604792
 20
84.708708
 30
0.0
 10
309.649874
 20
84.267563
 30
0.0
 10
309.739392
 20
83.391587
 30
0.0
 10
310.433926
 20
82.233971
 30
0.0
 10
311.450791
 20
81.373314
 30
0.0
 10
312.710167
 20
80.916850
 30
0.0
 10
314.045860
 20
80.916850
 30
0.0
 10
315.305237
 20
81.373314
 30
0.0
 10
316.322102
 20
82.233971
 30
0.0
 10
317.016636
 20
83.391587
 30
0.0
 10
317.106154
 20
84.267563
 30
0.0
 10
317.151236
 20
84.708708
 30
0.0
 11
309.604792
 21
84.708708
 31
0.0
 11
309.834482
 21
83.412178
 31
0.0
 11
310.483420
 21
82.288185
 31
0.0
 11
311.491403
 21
81.441002
 31
0.0
 11
312.729077
 21
80.991655
 31
0.0
 11
314.026951
 21
80.991655
 31
0.0
 11
315.264625
 21
81.441002
 31
0.0
 11
316.272608
 21
82.288185
 31
0.0
 11
316.921545
 21
83.412178
 31
0.0
 11
317.151236
 21
84.708708
 31
0.0
  0
LWPOLYLINE
  5
17b
100
AcDbEntity
  8
Calque_1
 62
7
100
AcDbPolyline
 90
2
 70
0
 10
317.151236
 20
84.708708
 30
0.0
 10
572.221009
 20
84.708708
 30
0.0
  0
SPLINE
  5
17c
100
AcDbEntity
  8
Calque_1
 62
7
100
AcDbSpline
 70
0
 71
3
 72
10
 73
6
 74
4
 40
0.000000
 40
0.000000
 40
0.000000
 40
0.000000
 40
0.789142
 40
1.554878
 40
2.344019
 40
2.344019
 40
2.344019
 40
2.344019
 10
572.221009
 20
84.708708
 30
0.0
 10
572.485475
 20
84.750221
 30
0.0
 10
573.006561
 20
84.832016
 30
0.0
 10
573.606985
 20
85.432435
 30
0.0
 10
573.688783
 20
85.953521
 30
0.0
 10
573.730298
 20
86.217986
 30
0.0
 11
572.221009
 21
84.708708
 31
0.0
 11
572.982773
 21
84.914768
 31
0.0
 11
573.524232
 21
85.456224
 31
0.0
 11
573.730298
 21
86.217986
 31
0.0
  0
LWPOLYLINE
  5
17d
100
AcDbEntity
  8
Calque_1
 62
7
100
AcDbPolyline
 90
2
 70
0
 10
573.730298
 20
86.217986
 30
0.0
 10
573.730298
 20
87.500882
 30
0.0
  0
SPLINE
  5
17e
100
AcDbEntity
  8
Calque_1
 62
7
100
AcDbSpline
 70
0
 71
3
 72
13
 73
9
 74
7
 40
0.000000
 40
0.000000
 40
0.000000
 40
0.000000
 40
0.790191
 40
1.573842
 40
2.364033
 40
3.154224
 40
3.937875
 40
4.728066
 40
4.728066
 40
4.728066
 40
4.728066
 10
573.730298
 20
87.500882
 30
0.0
 10
573.750419
 20
87.765048
 30
0.0
 10
573.790495
 20
88.291195
 30
0.0
 10
574.107218
 20
89.027253
 30
0.0
 10
574.589083
 20
89.660679
 30
0.0
 10
575.222506
 20
90.142548
 30
0.0
 10
575.958562
 20
90.459275
 30
0.0
 10
576.484709
 20
90.499354
 30
0.0
 10
576.748875
 20
90.519477
 30
0.0
 11
573.730298
 21
87.500882
 31
0.0
 11
573.833712
 21
88.284276
 31
0.0
 11
574.133599
 21
89.008277
 31
0.0
 11
574.614412
 21
89.635350
 31
0.0
 11
575.241482
 21
90.116166
 31
0.0
 11
575.965482
 21
90.416058
 31
0.0
 11
576.748875
 21
90.519477
 31
0.0
  0
LWPOLYLINE
  5
17f
100
AcDbEntity
  8
Calque_1
 62
7
100
AcDbPolyline
 90
2
 70
0
 10
576.748875
 20
90.519477
 30
0.0
 10
585.804607
 20
90.519477
 30
0.0
  0
SPLINE
  5
180
100
AcDbEntity
  8
Calque_1
 62
7
100
AcDbSpline
 70
0
 71
3
 72
13
 73
9
 74
7
 40
0.000000
 40
0.000000
 40
0.000000
 40
0.000000
 40
0.790191
 40
1.573842
 40
2.364033
 40
3.154224
 40
3.937875
 40
4.728066
 40
4.728066
 40
4.728066
 40
4.728066
 10
585.804607
 20
90.519477
 30
0.0
 10
586.068773
 20
90.499354
 30
0.0
 10
586.594920
 20
90.459275
 30
0.0
 10
587.330976
 20
90.142548
 30
0.0
 10
587.964399
 20
89.660679
 30
0.0
 10
588.446264
 20
89.027253
 30
0.0
 10
588.762987
 20
88.291195
 30
0.0
 10
588.803063
 20
87.765048
 30
0.0
 10
588.823184
 20
87.500882
 30
0.0
 11
585.804607
 21
90.519477
 31
0.0
 11
586.588001
 21
90.416058
 31
0.0
 11
587.312000
 21
90.116166
 31
0.0
 11
587.939070
 21
89.635350
 31
0.0
 11
588.419883
 21
89.008277
 31
0.0
 11
588.719770
 21
88.284276
 31
0.0
 11
588.823184
 21
87.500882
 31
0.0
  0
LWPOLYLINE
  5
181
100
AcDbEntity
  8
Calque_1
 62
7
100
AcDbPolyline
 90
2
 70
0
 10
588.823184
 20
87.500882
 30
0.0
 10
588.823184
 20
55.805852
 30
0.0
  0
SPLINE
  5
182
100
AcDbEntity
  8
Calque_1
 62
7
100
AcDbSpline
 70
0
 71
3
 72
13
 73
9
 74
7
 40
0.000000
 40
0.000000
 40
0.000000
 40
0.000000
 40
0.790191
 40
1.573842
 40
2.364033
 40
3.154224
 40
3.937875
 40
4.728066
 40
4.728066
 40
4.728066
 40
4.728066
 10
588.823184
 20
55.805852
 30
0.0
 10
588.803063
 20
55.541686
 30
0.0
 10
588.762987
 20
55.015539
 30
0.0
 10
588.446264
 20
54.279481
 30
0.0
 10
587.964399
 20
53.646055
 30
0.0
 10
587.330976
 20
53.164186
 30
0.0
 10
586.594920
 20
52.847459
 30
0.0
 10
586.068773
 20
52.807380
 30
0.0
 10
585.804607
 20
52.787257
 30
0.0
 11
588.823184
 21
55.805852
 31
0.0
 11
588.719770
 21
55.022458
 31
0.0
 11
588.419883
 21
54.298457
 31
0.0
 11
587.939070
 21
53.671384
 31
0.0
 11
587.312000
 21
53.190568
 31
0.0
 11
586.588001
 21
52.890676
 31
0.0
 11
585.804607
 21
52.787257
 31
0.0
  0
LWPOLYLINE
  5
183
100
AcDbEntity
  8
Calque_1
 62
7
100
AcDbPolyline
 90
2
 70
0
 10
585.804607
 20
52.787257
 30
0.0
 10
576.748875
 20
52.787257
 30
0.0
  0
SPLINE
  5
184
100
AcDbEntity
  8
Calque_1
 62
7
100
AcDbSpline
 70
0
 71
3
 72
13
 73
9
 74
7
 40
0.000000
 40
0.000000
 40
0.000000
 40
0.000000
 40
0.790191
 40
1.573842
 40
2.364033
 40
3.154224
 40
3.937875
 40
4.728066
 40
4.728066
 40
4.728066
 40
4.728066
 10
576.748875
 20
52.787257
 30
0.0
 10
576.484709
 20
52.807380
 30
0.0
 10
575.958562
 20
52.847459
 30
0.0
 10
575.222506
 20
53.164186
 30
0.0
 10
574.589083
 20
53.646055
 30
0.0
 10
574.107218
 20
54.279481
 30
0.0
 10
573.790495
 20
55.015539
 30
0.0
 10
573.750419
 20
55.541686
 30
0.0
 10
573.730298
 20
55.805852
 30
0.0
 11
576.748875
 21
52.787257
 31
0.0
 11
575.965482
 21
52.890676
 31
0.0
 11
575.241482
 21
53.190567
 31
0.0
 11
574.614412
 21
53.671384
 31
0.0
 11
574.133599
 21
54.298457
 31
0.0
 11
573.833712
 21
55.022458
 31
0.0
 11
573.730298
 21
55.805852
 31
0.0
  0
LWPOLYLINE
  5
185
100
AcDbEntity
  8
Calque_1
 62
7
100
AcDbPolyline
 90
2
 70
0
 10
573.730298
 20
55.805852
 30
0.0
 10
573.730298
 20
57.088748
 30
0.0
  0
SPLINE
  5
186
100
AcDbEntity
  8
Calque_1
 62
7
100
AcDbSpline
 70
0
 71
3
 72
10
 73
6
 74
4
 40
0.000000
 40
0.000000
 40
0.000000
 40
0.000000
 40
0.789142
 40
1.554878
 40
2.344019
 40
2.344019
 40
2.344019
 40
2.344019
 10
573.730298
 20
57.088748
 30
0.0
 10
573.688783
 20
57.353213
 30
0.0
 10
573.606985
 20
57.874299
 30
0.0
 10
573.006561
 20
58.474718
 30
0.0
 10
572.485475
 20
58.556513
 30
0.0
 10
572.221009
 20
58.598026
 30
0.0
 11
573.730298
 21
57.088748
 31
0.0
 11
573.524232
 21
57.850510
 31
0.0
 11
572.982773
 21
58.391966
 31
0.0
 11
572.221009
 21
58.598026
 31
0.0
  0
LWPOLYLINE
  5
187
100
AcDbEntity
  8
Calque_1
 62
7
100
AcDbPolyline
 90
2
 70
0
 10
572.221009
 20
58.598026
 30
0.0
 10
317.151236
 20
58.598026
 30
0.0
  0
SPLINE
  5
188
100
AcDbEntity
  8
Calque_1
 62
7
100
AcDbSpline
 70
0
 71
3
 72
16
 73
12
 74
10
 40
0.000000
 40
0.000000
 40
0.000000
 40
0.000000
 40
1.316719
 40
2.614594
 40
3.931313
 40
5.248032
 40
6.545907
 40
7.862626
 40
9.179345
 40
10.477220
 40
11.793939
 40
11.793939
 40
11.793939
 40
11.793939
 10
317.151236
 20
58.598026
 30
0.0
 10
317.106154
 20
59.039171
 30
0.0
 10
317.016636
 20
59.915147
 30
0.0
 10
316.322102
 20
61.072763
 30
0.0
 10
315.305237
 20
61.933420
 30
0.0
 10
314.045860
 20
62.389884
 30
0.0
 10
312.710167
 20
62.389884
 30
0.0
 10
311.450791
 20
61.933420
 30
0.0
 10
310.433926
 20
61.072763
 30
0.0
 10
309.739392
 20
59.915147
 30
0.0
 10
309.649874
 20
59.039171
 30
0.0
 10
309.604792
 20
58.598026
 30
0.0
 11
317.151236
 21
58.598026
 31
0.0
 11
316.921545
 21
59.894556
 31
0.0
 11
316.272608
 21
61.018549
 31
0.0
 11
315.264625
 21
61.865732
 31
0.0
 11
314.026951
 21
62.315079
 31
0.0
 11
312.729077
 21
62.315079
 31
0.0
 11
311.491403
 21
61.865732
 31
0.0
 11
310.483420
 21
61.018549
 31
0.0
 11
309.834482
 21
59.894556
 31
0.0
 11
309.604792
 21
58.598026
 31
0.0
  0
LWPOLYLINE
  5
189
100
AcDbEntity
  8
Calque_1
 62
7
100
AcDbPolyline
 90
2
 70
0
 10
309.604792
 20
58.598026
 30
0.0
 10
305.076927
 20
58.598026
 30
0.0
  0
SPLINE
  5
18a
100
AcDbEntity
  8
Calque_1
 62
7
100
AcDbSpline
 70
0
 71
3
 72
16
 73
12
 74
10
 40
0.000000
 40
0.000000
 40
0.000000
 40
0.000000
 40
1.316719
 40
2.614594
 40
3.931313
 40
5.248032
 40
6.545907
 40
7.862626
 40
9.179345
 40
10.477220
 40
11.793939
 40
11.793939
 40
11.793939
 40
11.793939
 10
305.076927
 20
58.598026
 30
0.0
 10
305.031846
 20
59.039171
 30
0.0
 10
304.942327
 20
59.915147
 30
0.0
 10
304.247794
 20
61.072763
 30
0.0
 10
303.230929
 20
61.933420
 30
0.0
 10
301.971552
 20
62.389884
 30
0.0
 10
300.635859
 20
62.389884
 30
0.0
 10
299.376482
 20
61.933420
 30
0.0
 10
298.359617
 20
61.072763
 30
0.0
 10
297.665083
 20
59.915147
 30
0.0
 10
297.575565
 20
59.039171
 30
0.0
 10
297.530483
 20
58.598026
 30
0.0
 11
305.076927
 21
58.598026
 31
0.0
 11
304.847237
 21
59.894556
 31
0.0
 11
304.198299
 21
61.018549
 31
0.0
 11
303.190316
 21
61.865732
 31
0.0
 11
301.952643
 21
62.315079
 31
0.0
 11
300.654768
 21
62.315079
 31
0.0
 11
299.417094
 21
61.865732
 31
0.0
 11
298.409111
 21
61.018549
 31
0.0
 11
297.760174
 21
59.894556
 31
0.0
 11
297.530483
 21
58.598026
 31
0.0
  0
LWPOLYLINE
  5
18b
100
AcDbEntity
  8
Calque_1
 62
7
100
AcDbPolyline
 90
2
 70
0
 10
297.530483
 20
58.598026
 30
0.0
 10
293.002619
 20
58.598026
 30
0.0
  0
SPLINE
  5
18c
100
AcDbEntity
  8
Calque_1
 62
7
100
AcDbSpline
 70
0
 71
3
 72
16
 73
12
 74
10
 40
0.000000
 40
0.000000
 40
0.000000
 40
0.000000
 40
1.316719
 40
2.614594
 40
3.931313
 40
5.248032
 40
6.545907
 40
7.862626
 40
9.179345
 40
10.477220
 40
11.793939
 40
11.793939
 40
11.793939
 40
11.793939
 10
293.002619
 20
58.598026
 30
0.0
 10
292.957537
 20
59.039171
 30
0.0
 10
292.868019
 20
59.915147
 30
0.0
 10
292.173485
 20
61.072763
 30
0.0
 10
291.156620
 20
61.933420
 30
0.0
 10
289.897243
 20
62.389884
 30
0.0
 10
288.561550
 20
62.389884
 30
0.0
 10
287.302173
 20
61.933420
 30
0.0
 10
286.285308
 20
61.072763
 30
0.0
 10
285.590775
 20
59.915147
 30
0.0
 10
285.501256
 20
59.039171
 30
0.0
 10
285.456175
 20
58.598026
 30
0.0
 11
293.002619
 21
58.598026
 31
0.0
 11
292.772928
 21
59.894556
 31
0.0
 11
292.123991
 21
61.018549
 31
0.0
 11
291.116008
 21
61.865732
 31
0.0
 11
289.878334
 21
62.315079
 31
0.0
 11
288.580459
 21
62.315079
 31
0.0
 11
287.342786
 21
61.865732
 31
0.0
 11
286.334803
 21
61.018549
 31
0.0
 11
285.685865
 21
59.894556
 31
0.0
 11
285.456175
 21
58.598026
 31
0.0
  0
LWPOLYLINE
  5
18d
100
AcDbEntity
  8
Calque_1
 62
7
100
AcDbPolyline
 90
2
 70
0
 10
285.456175
 20
58.598026
 30
0.0
 10
280.928310
 20
58.598026
 30
0.0
  0
SPLINE
  5
18e
100
AcDbEntity
  8
Calque_1
 62
7
100
AcDbSpline
 70
0
 71
3
 72
16
 73
12
 74
10
 40
0.000000
 40
0.000000
 40
0.000000
 40
0.000000
 40
1.316719
 40
2.614594
 40
3.931313
 40
5.248032
 40
6.545907
 40
7.862626
 40
9.179345
 40
10.477220
 40
11.793939
 40
11.793939
 40
11.793939
 40
11.793939
 10
280.928310
 20
58.598026
 30
0.0
 10
280.883228
 20
59.039171
 30
0.0
 10
280.793710
 20
59.915147
 30
0.0
 10
280.099176
 20
61.072763
 30
0.0
 10
279.082311
 20
61.933420
 30
0.0
 10
277.822935
 20
62.389884
 30
0.0
 10
276.487242
 20
62.389884
 30
0.0
 10
275.227865
 20
61.933420
 30
0.0
 10
274.211000
 20
61.072763
 30
0.0
 10
273.516466
 20
59.915147
 30
0.0
 10
273.426948
 20
59.039171
 30
0.0
 10
273.381866
 20
58.598026
 30
0.0
 11
280.928310
 21
58.598026
 31
0.0
 11
280.698620
 21
59.894556
 31
0.0
 11
280.049682
 21
61.018549
 31
0.0
 11
279.041699
 21
61.865732
 31
0.0
 11
277.804025
 21
62.315079
 31
0.0
 11
276.506151
 21
62.315079
 31
0.0
 11
275.268477
 21
61.865732
 31
0.0
 11
274.260494
 21
61.018549
 31
0.0
 11
273.611557
 21
59.894556
 31
0.0
 11
273.381866
 21
58.598026
 31
0.0
  0
LWPOLYLINE
  5
18f
100
AcDbEntity
  8
Calque_1
 62
7
100
AcDbPolyline
 90
2
 70
0
 10
273.381866
 20
58.598026
 30
0.0
 10
268.854001
 20
58.598026
 30
0.0
  0
SPLINE
  5
190
100
AcDbEntity
  8
Calque_1
 62
7
100
AcDbSpline
 70
0
 71
3
 72
16
 73
12
 74
10
 40
0.000000
 40
0.000000
 40
0.000000
 40
0.000000
 40
1.316719
 40
2.614594
 40
3.931313
 40
5.248032
 40
6.545907
 40
7.862626
 40
9.179345
 40
10.477220
 40
11.793939
 40
11.793939
 40
11.793939
 40
11.793939
 10
268.854001
 20
58.598026
 30
0.0
 10
268.808920
 20
59.039171
 30
0.0
 10
268.719402
 20
59.915147
 30
0.0
 10
268.024868
 20
61.072763
 30
0.0
 10
267.008003
 20
61.933420
 30
0.0
 10
265.748626
 20
62.389884
 30
0.0
 10
264.412933
 20
62.389884
 30
0.0
 10
263.153556
 20
61.933420
 30
0.0
 10
262.136691
 20
61.072763
 30
0.0
 10
261.442157
 20
59.915147
 30
0.0
 10
261.352639
 20
59.039171
 30
0.0
 10
261.307557
 20
58.598026
 30
0.0
 11
268.854001
 21
58.598026
 31
0.0
 11
268.624311
 21
59.894556
 31
0.0
 11
267.975374
 21
61.018549
 31
0.0
 11
266.967390
 21
61.865732
 31
0.0
 11
265.729717
 21
62.315079
 31
0.0
 11
264.431842
 21
62.315079
 31
0.0
 11
263.194168
 21
61.865732
 31
0.0
 11
262.186185
 21
61.018549
 31
0.0
 11
261.537248
 21
59.894556
 31
0.0
 11
261.307557
 21
58.598026
 31
0.0
  0
LWPOLYLINE
  5
191
100
AcDbEntity
  8
Calque_1
 62
7
100
AcDbPolyline
 90
2
 70
0
 10
261.307557
 20
58.598026
 30
0.0
 10
256.779693
 20
58.598026
 30
0.0
  0
SPLINE
  5
192
100
AcDbEntity
  8
Calque_1
 62
7
100
AcDbSpline
 70
0
 71
3
 72
16
 73
12
 74
10
 40
0.000000
 40
0.000000
 40
0.000000
 40
0.000000
 40
1.316719
 40
2.614594
 40
3.931313
 40
5.248032
 40
6.545907
 40
7.862626
 40
9.179345
 40
10.477220
 40
11.793939
 40
11.793939
 40
11.793939
 40
11.793939
 10
256.779693
 20
58.598026
 30
0.0
 10
256.734611
 20
59.039171
 30
0.0
 10
256.645093
 20
59.915147
 30
0.0
 10
255.950559
 20
61.072763
 30
0.0
 10
254.933694
 20
61.933420
 30
0.0
 10
253.674317
 20
62.389884
 30
0.0
 10
252.338624
 20
62.389884
 30
0.0
 10
251.079247
 20
61.933420
 30
0.0
 10
250.062383
 20
61.072763
 30
0.0
 10
249.367849
 20
59.915147
 30
0.0
 10
249.278330
 20
59.039171
 30
0.0
 10
249.233249
 20
58.598026
 30
0.0
 11
256.779693
 21
58.598026
 31
0.0
 11
256.550002
 21
59.894556
 31
0.0
 11
255.901065
 21
61.018549
 31
0.0
 11
254.893082
 21
61.865732
 31
0.0
 11
253.655408
 21
62.315079
 31
0.0
 11
252.357533
 21
62.315079
 31
0.0
 11
251.119860
 21
61.865732
 31
0.0
 11
250.111877
 21
61.018549
 31
0.0
 11
249.462939
 21
59.894556
 31
0.0
 11
249.233249
 21
58.598026
 31
0.0
  0
LWPOLYLINE
  5
193
100
AcDbEntity
  8
Calque_1
 62
7
100
AcDbPolyline
 90
2
 70
0
 10
249.233249
 20
58.598026
 30
0.0
 10
244.705384
 20
58.598026
 30
0.0
  0
SPLINE
  5
194
100
AcDbEntity
  8
Calque_1
 62
7
100
AcDbSpline
 70
0
 71
3
 72
16
 73
12
 74
10
 40
0.000000
 40
0.000000
 40
0.000000
 40
0.000000
 40
1.316719
 40
2.614594
 40
3.931313
 40
5.248032
 40
6.545907
 40
7.862626
 40
9.179345
 40
10.477220
 40
11.793939
 40
11.793939
 40
11.793939
 40
11.793939
 10
244.705384
 20
58.598026
 30
0.0
 10
244.660302
 20
59.039171
 30
0.0
 10
244.570784
 20
59.915147
 30
0.0
 10
243.876250
 20
61.072763
 30
0.0
 10
242.859386
 20
61.933420
 30
0.0
 10
241.600009
 20
62.389884
 30
0.0
 10
240.264316
 20
62.389884
 30
0.0
 10
239.004939
 20
61.933420
 30
0.0
 10
237.988074
 20
61.072763
 30
0.0
 10
237.293540
 20
59.915147
 30
0.0
 10
237.204022
 20
59.039171
 30
0.0
 10
237.158940
 20
58.598026
 30
0.0
 11
244.705384
 21
58.598026
 31
0.0
 11
244.475694
 21
59.894556
 31
0.0
 11
243.826756
 21
61.018549
 31
0.0
 11
242.818773
 21
61.865732
 31
0.0
 11
241.581100
 21
62.315079
 31
0.0
 11
240.283225
 21
62.315079
 31
0.0
 11
239.045551
 21
61.865732
 31
0.0
 11
238.037568
 21
61.018549
 31
0.0
 11
237.388631
 21
59.894556
 31
0.0
 11
237.158940
 21
58.598026
 31
0.0
  0
LWPOLYLINE
  5
195
100
AcDbEntity
  8
Calque_1
 62
7
100
AcDbPolyline
 90
2
 70
0
 10
237.158940
 20
58.598026
 30
0.0
 10
232.631075
 20
58.598026
 30
0.0
  0
SPLINE
  5
196
100
AcDbEntity
  8
Calque_1
 62
7
100
AcDbSpline
 70
0
 71
3
 72
16
 73
12
 74
10
 40
0.000000
 40
0.000000
 40
0.000000
 40
0.000000
 40
1.316719
 40
2.614594
 40
3.931313
 40
5.248032
 40
6.545907
 40
7.862626
 40
9.179345
 40
10.477220
 40
11.793939
 40
11.793939
 40
11.793939
 40
11.793939
 10
232.631075
 20
58.598026
 30
0.0
 10
232.585994
 20
59.039171
 30
0.0
 10
232.496476
 20
59.915147
 30
0.0
 10
231.801942
 20
61.072763
 30
0.0
 10
230.785077
 20
61.933420
 30
0.0
 10
229.525700
 20
62.389884
 30
0.0
 10
228.190007
 20
62.389884
 30
0.0
 10
226.930630
 20
61.933420
 30
0.0
 10
225.913765
 20
61.072763
 30
0.0
 10
225.219231
 20
59.915147
 30
0.0
 10
225.129713
 20
59.039171
 30
0.0
 10
225.084632
 20
58.598026
 30
0.0
 11
232.631075
 21
58.598026
 31
0.0
 11
232.401385
 21
59.894556
 31
0.0
 11
231.752448
 21
61.018549
 31
0.0
 11
230.744465
 21
61.865732
 31
0.0
 11
229.506791
 21
62.315079
 31
0.0
 11
228.208916
 21
62.315079
 31
0.0
 11
226.971243
 21
61.865732
 31
0.0
 11
225.963259
 21
61.018549
 31
0.0
 11
225.314322
 21
59.894556
 31
0.0
 11
225.084632
 21
58.598026
 31
0.0
  0
LWPOLYLINE
  5
197
100
AcDbEntity
  8
Calque_1
 62
7
100
AcDbPolyline
 90
2
 70
0
 10
225.084632
 20
58.598026
 30
0.0
 10
220.556767
 20
58.598026
 30
0.0
  0
SPLINE
  5
198
100
AcDbEntity
  8
Calque_1
 62
7
100
AcDbSpline
 70
0
 71
3
 72
16
 73
12
 74
10
 40
0.000000
 40
0.000000
 40
0.000000
 40
0.000000
 40
1.316719
 40
2.614594
 40
3.931313
 40
5.248032
 40
6.545907
 40
7.862626
 40
9.179345
 40
10.477220
 40
11.793939
 40
11.793939
 40
11.793939
 40
11.793939
 10
220.556767
 20
58.598026
 30
0.0
 10
220.511685
 20
59.039171
 30
0.0
 10
220.422167
 20
59.915147
 30
0.0
 10
219.727633
 20
61.072763
 30
0.0
 10
218.710768
 20
61.933420
 30
0.0
 10
217.451391
 20
62.389884
 30
0.0
 10
216.115698
 20
62.389884
 30
0.0
 10
214.856321
 20
61.933420
 30
0.0
 10
213.839457
 20
61.072763
 30
0.0
 10
213.144923
 20
59.915147
 30
0.0
 10
213.055405
 20
59.039171
 30
0.0
 10
213.010323
 20
58.598026
 30
0.0
 11
220.556767
 21
58.598026
 31
0.0
 11
220.327076
 21
59.894556
 31
0.0
 11
219.678139
 21
61.018549
 31
0.0
 11
218.670156
 21
61.865732
 31
0.0
 11
217.432482
 21
62.315079
 31
0.0
 11
216.134608
 21
62.315079
 31
0.0
 11
214.896934
 21
61.865732
 31
0.0
 11
213.888951
 21
61.018549
 31
0.0
 11
213.240013
 21
59.894556
 31
0.0
 11
213.010323
 21
58.598026
 31
0.0
  0
LWPOLYLINE
  5
199
100
AcDbEntity
  8
Calque_1
 62
7
100
AcDbPolyline
 90
2
 70
0
 10
213.010323
 20
58.598026
 30
0.0
 10
208.482454
 20
58.598026
 30
0.0
  0
SPLINE
  5
19a
100
AcDbEntity
  8
Calque_1
 62
7
100
AcDbSpline
 70
0
 71
3
 72
13
 73
9
 74
7
 40
0.000000
 40
0.000000
 40
0.000000
 40
0.000000
 40
1.971714
 40
3.885005
 40
5.856719
 40
7.828433
 40
9.741725
 40
11.713439
 40
11.713439
 40
11.713439
 40
11.713439
 10
208.482454
 20
58.598026
 30
0.0
 10
208.378186
 20
59.262691
 30
0.0
 10
208.172738
 20
60.572326
 30
0.0
 10
206.671979
 20
62.013557
 30
0.0
 10
204.709234
 20
62.547548
 30
0.0
 10
202.746490
 20
62.013557
 30
0.0
 10
201.245730
 20
60.572326
 30
0.0
 10
201.040283
 20
59.262691
 30
0.0
 10
200.936014
 20
58.598026
 30
0.0
 11
208.482454
 21
58.598026
 31
0.0
 11
207.966146
 21
60.500940
 31
0.0
 11
206.612623
 21
61.853219
 31
0.0
 11
204.709234
 21
62.367776
 31
0.0
 11
202.805846
 21
61.853219
 31
0.0
 11
201.452322
 21
60.500940
 31
0.0
 11
200.936014
 21
58.598026
 31
0.0
  0
LWPOLYLINE
  5
19b
100
AcDbEntity
  8
Calque_1
 62
7
100
AcDbPolyline
 90
2
 70
0
 10
200.936014
 20
58.598026
 30
0.0
 10
196.408150
 20
58.598026
 30
0.0
  0
SPLINE
  5
19c
100
AcDbEntity
  8
Calque_1
 62
7
100
AcDbSpline
 70
0
 71
3
 72
16
 73
12
 74
10
 40
0.000000
 40
0.000000
 40
0.000000
 40
0.000000
 40
1.316719
 40
2.614594
 40
3.931313
 40
5.248032
 40
6.545907
 40
7.862626
 40
9.179345
 40
10.477220
 40
11.793939
 40
11.793939
 40
11.793939
 40
11.793939
 10
196.408150
 20
58.598026
 30
0.0
 10
196.363068
 20
59.039171
 30
0.0
 10
196.273550
 20
59.915147
 30
0.0
 10
195.579016
 20
61.072763
 30
0.0
 10
194.562151
 20
61.933420
 30
0.0
 10
193.302774
 20
62.389884
 30
0.0
 10
191.967081
 20
62.389884
 30
0.0
 10
190.707704
 20
61.933420
 30
0.0
 10
189.690839
 20
61.072763
 30
0.0
 10
188.996305
 20
59.915147
 30
0.0
 10
188.906787
 20
59.039171
 30
0.0
 10
188.861706
 20
58.598026
 30
0.0
 11
196.408150
 21
58.598026
 31
0.0
 11
196.178459
 21
59.894556
 31
0.0
 11
195.529522
 21
61.018549
 31
0.0
 11
194.521539
 21
61.865732
 31
0.0
 11
193.283865
 21
62.315079
 31
0.0
 11
191.985990
 21
62.315079
 31
0.0
 11
190.748317
 21
61.865732
 31
0.0
 11
189.740334
 21
61.018549
 31
0.0
 11
189.091396
 21
59.894556
 31
0.0
 11
188.861706
 21
58.598026
 31
0.0
  0
LWPOLYLINE
  5
19d
100
AcDbEntity
  8
Calque_1
 62
7
100
AcDbPolyline
 90
2
 70
0
 10
188.861706
 20
58.598026
 30
0.0
 10
184.333833
 20
58.598026
 30
0.0
  0
SPLINE
  5
19e
100
AcDbEntity
  8
Calque_1
 62
7
100
AcDbSpline
 70
0
 71
3
 72
16
 73
12
 74
10
 40
0.000000
 40
0.000000
 40
0.000000
 40
0.000000
 40
1.316719
 40
2.614594
 40
3.931313
 40
5.248032
 40
6.545907
 40
7.862626
 40
9.179345
 40
10.477220
 40
11.793939
 40
11.793939
 40
11.793939
 40
11.793939
 10
184.333833
 20
58.598026
 30
0.0
 10
184.288751
 20
59.039171
 30
0.0
 10
184.199233
 20
59.915147
 30
0.0
 10
183.504699
 20
61.072763
 30
0.0
 10
182.487834
 20
61.933420
 30
0.0
 10
181.228457
 20
62.389884
 30
0.0
 10
179.892765
 20
62.389884
 30
0.0
 10
178.633388
 20
61.933420
 30
0.0
 10
177.616523
 20
61.072763
 30
0.0
 10
176.921989
 20
59.915147
 30
0.0
 10
176.832471
 20
59.039171
 30
0.0
 10
176.787389
 20
58.598026
 30
0.0
 11
184.333833
 21
58.598026
 31
0.0
 11
184.104142
 21
59.894556
 31
0.0
 11
183.455205
 21
61.018549
 31
0.0
 11
182.447222
 21
61.865732
 31
0.0
 11
181.209548
 21
62.315079
 31
0.0
 11
179.911674
 21
62.315079
 31
0.0
 11
178.674000
 21
61.865732
 31
0.0
 11
177.666017
 21
61.018549
 31
0.0
 11
177.017080
 21
59.894556
 31
0.0
 11
176.787389
 21
58.598026
 31
0.0
  0
LWPOLYLINE
  5
19f
100
AcDbEntity
  8
Calque_1
 62
7
100
AcDbPolyline
 90
2
 70
0
 10
176.787389
 20
58.598026
 30
0.0
 10
172.259524
 20
58.598026
 30
0.0
  0
SPLINE
  5
1a0
100
AcDbEntity
  8
Calque_1
 62
7
100
AcDbSpline
 70
0
 71
3
 72
13
 73
9
 74
7
 40
0.000000
 40
0.000000
 40
0.000000
 40
0.000000
 40
1.970358
 40
3.882403
 40
5.852761
 40
7.823119
 40
9.735164
 40
11.705522
 40
11.705522
 40
11.705522
 40
11.705522
 10
172.259524
 20
58.598026
 30
0.0
 10
172.154684
 20
59.262110
 30
0.0
 10
171.948107
 20
60.570625
 30
0.0
 10
170.447706
 20
62.009950
 30
0.0
 10
168.486310
 20
62.543202
 30
0.0
 10
166.524914
 20
62.009950
 30
0.0
 10
165.024514
 20
60.570625
 30
0.0
 10
164.817937
 20
59.262110
 30
0.0
 10
164.713096
 20
58.598026
 30
0.0
 11
172.259524
 21
58.598026
 31
0.0
 11
171.741860
 21
60.499166
 31
0.0
 11
170.388485
 21
61.849830
 31
0.0
 11
168.486310
 21
62.363681
 31
0.0
 11
166.584136
 21
61.849830
 31
0.0
 11
165.230761
 21
60.499166
 31
0.0
 11
164.713096
 21
58.598026
 31
0.0
  0
LWPOLYLINE
  5
1a1
100
AcDbEntity
  8
Calque_1
 62
7
100
AcDbPolyline
 90
2
 70
0
 10
164.713096
 20
58.598026
 30
0.0
 10
160.185224
 20
58.598026
 30
0.0
  0
SPLINE
  5
1a2
100
AcDbEntity
  8
Calque_1
 62
7
100
AcDbSpline
 70
0
 71
3
 72
16
 73
12
 74
10
 40
0.000000
 40
0.000000
 40
0.000000
 40
0.000000
 40
1.316723
 40
2.614602
 40
3.931325
 40
5.248049
 40
6.545927
 40
7.862651
 40
9.179374
 40
10.477253
 40
11.793976
 40
11.793976
 40
11.793976
 40
11.793976
 10
160.185224
 20
58.598026
 30
0.0
 10
160.140142
 20
59.039172
 30
0.0
 10
160.050623
 20
59.915151
 30
0.0
 10
159.356087
 20
61.072771
 30
0.0
 10
158.339219
 20
61.933431
 30
0.0
 10
157.079838
 20
62.389896
 30
0.0
 10
155.744141
 20
62.389896
 30
0.0
 10
154.484760
 20
61.933431
 30
0.0
 10
153.467892
 20
61.072771
 30
0.0
 10
152.773356
 20
59.915151
 30
0.0
 10
152.683838
 20
59.039172
 30
0.0
 10
152.638756
 20
58.598026
 30
0.0
 11
160.185224
 21
58.598026
 31
0.0
 11
159.955532
 21
59.894561
 31
0.0
 11
159.306593
 21
61.018557
 31
0.0
 11
158.298607
 21
61.865742
 31
0.0
 11
157.060929
 21
62.315091
 31
0.0
 11
155.763050
 21
62.315091
 31
0.0
 11
154.525373
 21
61.865742
 31
0.0
 11
153.517386
 21
61.018557
 31
0.0
 11
152.868447
 21
59.894561
 31
0.0
 11
152.638756
 21
58.598026
 31
0.0
  0
LWPOLYLINE
  5
1a3
100
AcDbEntity
  8
Calque_1
 62
7
100
AcDbPolyline
 90
2
 70
0
 10
152.638756
 20
58.598026
 30
0.0
 10
148.110923
 20
58.598026
 30
0.0
  0
SPLINE
  5
1a4
100
AcDbEntity
  8
Calque_1
 62
7
100
AcDbSpline
 70
0
 71
3
 72
16
 73
12
 74
10
 40
0.000000
 40
0.000000
 40
0.000000
 40
0.000000
 40
1.316723
 40
2.614602
 40
3.931325
 40
5.248049
 40
6.545927
 40
7.862651
 40
9.179374
 40
10.477253
 40
11.793976
 40
11.793976
 40
11.793976
 40
11.793976
 10
148.110923
 20
58.598026
 30
0.0
 10
148.065841
 20
59.039172
 30
0.0
 10
147.976323
 20
59.915151
 30
0.0
 10
147.281787
 20
61.072771
 30
0.0
 10
146.264919
 20
61.933431
 30
0.0
 10
145.005538
 20
62.389896
 30
0.0
 10
143.669841
 20
62.389896
 30
0.0
 10
142.410460
 20
61.933431
 30
0.0
 10
141.393592
 20
61.072771
 30
0.0
 10
140.699055
 20
59.915151
 30
0.0
 10
140.609537
 20
59.039172
 30
0.0
 10
140.564455
 20
58.598026
 30
0.0
 11
148.110923
 21
58.598026
 31
0.0
 11
147.881232
 21
59.894561
 31
0.0
 11
147.232292
 21
61.018557
 31
0.0
 11
146.224306
 21
61.865742
 31
0.0
 11
144.986629
 21
62.315091
 31
0.0
 11
143.688750
 21
62.315091
 31
0.0
 11
142.451072
 21
61.865742
 31
0.0
 11
141.443086
 21
61.018557
 31
0.0
 11
140.794146
 21
59.894561
 31
0.0
 11
140.564455
 21
58.598026
 31
0.0
  0
LWPOLYLINE
  5
1a5
100
AcDbEntity
  8
Calque_1
 62
7
100
AcDbPolyline
 90
3
 70
0
 10
140.564455
 20
58.598026
 30
0.0
 10
136.036582
 20
58.598026
 30
0.0
 10
127.451411
 20
58.598026
 30
0.0
  0
SPLINE
  5
1a6
100
AcDbEntity
  8
Calque_1
 62
7
100
AcDbSpline
 70
0
 71
3
 72
10
 73
6
 74
4
 40
0.000000
 40
0.000000
 40
0.000000
 40
0.000000
 40
1.244133
 40
2.476963
 40
3.721096
 40
3.721096
 40
3.721096
 40
3.721096
 10
127.451411
 20
58.598026
 30
0.0
 10
127.036331
 20
58.632213
 30
0.0
 10
126.209942
 20
58.700277
 30
0.0
 10
125.045298
 20
59.209524
 30
0.0
 10
124.434220
 20
59.770000
 30
0.0
 10
124.127286
 20
60.051517
 30
0.0
 11
127.451411
 21
58.598026
 31
0.0
 11
126.219073
 21
58.768937
 31
0.0
 11
125.089505
 21
59.262846
 31
0.0
 11
124.127286
 21
60.051517
 31
0.0
  0
LWPOLYLINE
  5
1a7
100
AcDbEntity
  8
Calque_1
 62
7
100
AcDbPolyline
 90
2
 70
0
 10
124.127286
 20
60.051517
 30
0.0
 10
116.240587
 20
68.579025
 30
0.0
  0
SPLINE
  5
1a8
100
AcDbEntity
  8
Calque_1
 62
7
100
AcDbSpline
 70
0
 71
3
 72
10
 73
6
 74
4
 40
0.000000
 40
0.000000
 40
0.000000
 40
0.000000
 40
2.250378
 40
4.439582
 40
6.689960
 40
6.689960
 40
6.689960
 40
6.689960
 10
116.240587
 20
68.579025
 30
0.0
 10
115.811417
 20
69.208592
 30
0.0
 10
114.964744
 20
70.450613
 30
0.0
 10
114.964744
 20
72.856121
 30
0.0
 10
115.811417
 20
74.098142
 30
0.0
 10
116.240587
 20
74.727709
 30
0.0
 11
116.240587
 21
68.579025
 31
0.0
 11
115.170620
 21
70.558765
 31
0.0
 11
115.170620
 21
72.747969
 31
0.0
 11
116.240587
 21
74.727709
 31
0.0
  0
LWPOLYLINE
  5
1a9
100
AcDbEntity
  8
Calque_1
 62
7
100
AcDbPolyline
 90
2
 70
0
 10
116.240587
 20
74.727709
 30
0.0
 10
124.127286
 20
83.255217
 30
0.0
  0
LWPOLYLINE
  5
1aa
100
AcDbEntity
  8
Calque_1
 62
7
100
AcDbPolyline
 90
1
 70
1
 10
127.451411
 20
84.708708
 30
0.0
  0
SPLINE
  5
1ab
100
AcDbEntity
  8
Calque_1
 62
7
100
AcDbSpline
 70
0
 71
3
 72
10
 73
6
 74
4
 40
0.000000
 40
0.000000
 40
0.000000
 40
0.000000
 40
1.244133
 40
2.476963
 40
3.721096
 40
3.721096
 40
3.721096
 40
3.721096
 10
124.127286
 20
83.255217
 30
0.0
 10
124.434220
 20
83.536734
 30
0.0
 10
125.045298
 20
84.097210
 30
0.0
 10
126.209942
 20
84.606457
 30
0.0
 10
127.036331
 20
84.674521
 30
0.0
 10
127.451411
 20
84.708708
 30
0.0
 11
124.127286
 21
83.255217
 31
0.0
 11
125.089505
 21
84.043888
 31
0.0
 11
126.219073
 21
84.537797
 31
0.0
 11
127.451411
 21
84.708708
 31
0.0
  0
LWPOLYLINE
  5
1ac
100
AcDbEntity
  8
Calque_1
 62
7
100
AcDbPolyline
 90
4
 70
1
 10
13.264068
 20
75.962676
 30
0.0
 10
88.353148
 20
75.962676
 30
0.0
 10
88.353148
 20
61.245219
 30
0.0
 10
13.264068
 20
61.245219
 30
0.0
  0
ENDSEC
  0
SECTION
  2
OBJECTS
  0
DICTIONARY
  5
C
330
0
100
AcDbDictionary
  3
ACAD_GROUP
350
D
  3
ACAD_MLINESTYLE
350
17
  0
DICTIONARY
  5
D
330
C
100
AcDbDictionary
  0
DICTIONARY
  5
1A
330
C
100
AcDbDictionary
  0
DICTIONARY
  5
17
330
C
100
AcDbDictionary
  3
STANDARD
350
18
  0
DICTIONARY
  5
19
330
C
100
AcDbDictionary
  0
ENDSEC
  0
EOF
