0
SECTION
2
HEADER
9
$INSUNITS
70
4
9
$ACADVER
1
AC1014
9
$HANDSEED
5
FFFF
0
ENDSEC
0
SECTION
2
TABLES
0
TABLE
2
VPORT
5
8
100
AcDbSymbolTable
0
ENDTAB
0
TABLE
2
LTYPE
5
5
100
AcDbSymbolTable
0
LTYPE
5
14
100
AcDbSymbolTableRecord
100
AcDbLinetypeTableRecord
2
BYBLOCK
70
0
0
LTYPE
5
15
100
AcDbSymbolTableRecord
100
AcDbLinetypeTableRecord
2
BYLAYER
70
0
0
ENDTAB
0
TABLE
2
LAYER
5
2
100
AcDbSymbolTable
70
2
0
LAYER
5
50
100
AcDbSymbolTableRecord
100
AcDbLayerTableRecord
2
0
70
0
6
CONTINUOUS
0
ENDTAB
0
TABLE
2
STYLE
5
3
100
AcDbSymbolTable
70
1
0
STYLE
5
11
100
AcDbSymbolTableRecord
100
AcDbTextStyleTableRecord
2
STANDARD
70
0
0
ENDTAB
0
TABLE
2
VIEW
5
6
100
AcDbSymbolTable
70
0
0
ENDTAB
0
TABLE
2
UCS
5
7
100
AcDbSymbolTable
70
0
0
ENDTAB
0
TABLE
2
APPID
5
9
100
AcDbSymbolTable
70
2
0
APPID
5
12
100
AcDbSymbolTableRecord
100
AcDbRegAppTableRecord
2
ACAD
70
0
0
ENDTAB
0
TABLE
2
DIMSTYLE
5
A
100
AcDbSymbolTable
70
1
0
ENDTAB
0
TABLE
2
BLOCK_RECORD
5
1
100
AcDbSymbolTable
70
1
0
BLOCK_RECORD
5
1F
100
AcDbSymbolTableRecord
100
AcDbBlockTableRecord
2
*MODEL_SPACE
0
BLOCK_RECORD
5
1B
100
AcDbSymbolTableRecord
100
AcDbBlockTableRecord
2
*PAPER_SPACE
0
ENDTAB
0
ENDSEC
0
SECTION
2
BLOCKS
0
BLOCK
5
20
100
AcDbEntity
100
AcDbBlockBegin
2
*MODEL_SPACE
0
ENDBLK
5
21
100
AcDbEntity
100
AcDbBlockEnd
0
BLOCK
5
1C
100
AcDbEntity
100
AcDbBlockBegin
2
*PAPER_SPACE
0
ENDBLK
5
1D
100
AcDbEntity
100
AcDbBlockEnd
0
ENDSEC
0
SECTION
2
ENTITIES
0
LINE
5
100
100
AcDbEntity
8
0
100
AcDbLine
10
-180.49999999999952
20
21.177143000001507
30
0
11
-178.00000000005144
21
25.000000000000249
31
0
0
LINE
5
101
100
AcDbEntity
8
0
100
AcDbLine
10
-182.50000000005201
20
21.177143000001507
30
0
11
-180.49999999999952
21
21.177143000001507
31
0
0
LINE
5
102
100
AcDbEntity
8
0
100
AcDbLine
10
-180.00000000005201
20
24.999999999999396
30
0
11
-182.50000000005201
21
21.177143000001507
31
0
0
LINE
5
103
100
AcDbEntity
8
0
100
AcDbLine
10
-180.00000000005201
20
24.999999999999396
30
0
11
-189.28154414824323
21
24.999999999999474
31
0
0
SPLINE
5
104
100
AcDbEntity
8
0
100
AcDbSpline
70
0
71
3
72
10
73
6
74
0
42
0.000000001
43
0.0000000001
44
0.0000000001
40
0
40
0
40
0
40
0
40
0.62667722815980242
40
1.2347713116000278
40
1.8614485136474803
40
1.8614485136474803
40
1.8614485136474803
40
1.8614485136474803
10
-189.28154414824326
20
24.999999999999481
30
0
10
-190.16895152083637
20
24.999999999999481
30
0
10
-191.91745157180836
20
24.999999999999464
30
0
10
-194.19236359831876
20
23.342392217197897
30
0
10
-194.72810028115083
20
21.677988730480795
30
0
10
-195.00000000005198
20
20.833262478426793
30
0
0
LINE
5
105
100
AcDbEntity
8
0
100
AcDbLine
10
-195.00000000005201
20
20.833262478426793
30
0
11
-195.00000000005195
21
4.1667386028513409
31
0
0
SPLINE
5
106
100
AcDbEntity
8
0
100
AcDbSpline
70
0
71
3
72
10
73
6
74
0
42
0.000000001
43
0.0000000001
44
0.0000000001
40
0
40
0
40
0
40
0
40
0.62667729857798948
40
1.2347713820182173
40
1.8614485840656689
40
1.8614485840656689
40
1.8614485840656689
40
1.8614485840656689
10
-195.00000000005195
20
4.1667386028513409
30
0
10
-194.7281004459704
20
3.322012156425338
30
0
10
-194.1923641285303
20
1.6576084129874293
30
0
10
-191.91745233795245
20
-4.2569451856208011e-15
30
0
10
-190.16895228931332
20
8.4651073320620158e-15
30
0
10
-189.28154493611413
20
1.4921866061216925e-14
30
0
0
LINE
5
107
100
AcDbEntity
8
0
100
AcDbLine
10
-189.28154493611413
20
1.4988010832064999e-14
30
0
11
-179.99999999999943
21
2.6526167999123365e-13
31
0
0
LINE
5
108
100
AcDbEntity
8
0
100
AcDbLine
10
-179.99999999999943
20
2.6526167999123365e-13
30
0
11
-182.49999999994597
21
3.8228570000000173
31
0
0
LINE
5
109
100
AcDbEntity
8
0
100
AcDbLine
10
-182.49999999994597
20
3.8228570000000173
30
0
11
-180.49999999994594
21
3.8228570000000177
31
0
0
LINE
5
110
100
AcDbEntity
8
0
100
AcDbLine
10
-180.49999999994594
20
3.8228570000000177
30
0
11
-177.99999999999943
21
2.6534330288541241e-13
31
0
0
LINE
5
111
100
AcDbEntity
8
0
100
AcDbLine
10
-177.99999999999943
20
2.6526167999123365e-13
30
0
11
0
21
0
31
0
0
LINE
5
112
100
AcDbEntity
8
0
100
AcDbLine
10
-5.2011728257639334e-11
20
25.000000000000014
30
0
11
-178.00000000005144
21
25.000000000000249
31
0
0
LINE
5
113
100
AcDbEntity
8
0
100
AcDbLine
10
-190.00000000005201
20
3.822857000000015
30
0
11
-190.00000000005198
21
21.177143000000843
31
0
0
LINE
5
114
100
AcDbEntity
8
0
100
AcDbLine
10
-190.00000000005198
20
21.177143000000843
30
0
11
-188.00000000005198
21
21.177143000000843
31
0
0
LINE
5
115
100
AcDbEntity
8
0
100
AcDbLine
10
-188.00000000005198
20
3.822857000000015
30
0
11
-190.00000000005201
21
3.822857000000015
31
0
0
LINE
5
116
100
AcDbEntity
8
0
100
AcDbLine
10
-188.00000000005198
20
21.177143000000843
30
0
11
-188.00000000005198
21
3.822857000000015
31
0
0
LINE
5
117
100
AcDbEntity
8
0
100
AcDbLine
10
-172.50000000005198
20
21.177143000000843
30
0
11
-172.49999999999937
21
3.8228569999998108
31
0
0
LINE
5
118
100
AcDbEntity
8
0
100
AcDbLine
10
-172.49999999999937
20
3.8228569999998108
30
0
11
-173.49999967567419
21
3.8228569999996727
31
0
0
LINE
5
119
100
AcDbEntity
8
0
100
AcDbLine
10
-173.50000000005198
20
21.177143000000843
30
0
11
-172.50000000005198
21
21.177143000000843
31
0
0
LINE
5
120
100
AcDbEntity
8
0
100
AcDbLine
10
-173.49999967567419
20
3.8228569999996727
30
0
11
-173.50000000005198
21
21.177143000000843
31
0
0
LINE
5
121
100
AcDbEntity
8
0
100
AcDbLine
10
-154.55951802213806
20
11.330234502766388
30
0
11
-153.69802637009639
21
21.177143000001465
31
0
0
LINE
5
122
100
AcDbEntity
8
0
100
AcDbLine
10
-153.69802637009639
20
21.177143000001465
30
0
11
-152.70183141937906
21
21.089987357792637
31
0
0
LINE
5
123
100
AcDbEntity
8
0
100
AcDbLine
10
-153.56332307142904
20
11.243078860557352
30
0
11
-154.55951802213806
21
11.330234502766388
31
0
0
LINE
5
124
100
AcDbEntity
8
0
100
AcDbLine
10
-152.70183141937906
20
21.089987357792637
30
0
11
-153.56332307142904
21
11.243078860557352
31
0
0
LINE
5
125
100
AcDbEntity
8
0
100
AcDbLine
10
-144.5532748114897
20
11.330237473896203
30
0
11
-143.69178341937902
21
21.177143000001447
31
0
0
LINE
5
126
100
AcDbEntity
8
0
100
AcDbLine
10
-143.69178341937902
20
21.177143000001447
30
0
11
-142.69558870879177
21
21.089987378907892
31
0
0
LINE
5
127
100
AcDbEntity
8
0
100
AcDbLine
10
-143.55708010091146
20
11.243081852695841
30
0
11
-144.5532748114897
21
11.330237473896203
31
0
0
LINE
5
128
100
AcDbEntity
8
0
100
AcDbLine
10
-142.69558870879177
20
21.089987378907892
30
0
11
-143.55708010091146
21
11.243081852695841
31
0
0
LINE
5
129
100
AcDbEntity
8
0
100
AcDbLine
10
-134.5473008394446
20
11.330240462346453
30
0
11
-133.6858097087931
21
21.177143000000875
31
0
0
LINE
5
130
100
AcDbEntity
8
0
100
AcDbLine
10
-133.6858097087931
20
21.177143000000875
30
0
11
-132.68961500005202
21
21.089987378961254
31
0
0
LINE
5
131
100
AcDbEntity
8
0
100
AcDbLine
10
-133.55110613070707
20
11.243084841307153
30
0
11
-134.5473008394446
21
11.330240462346453
31
0
0
LINE
5
132
100
AcDbEntity
8
0
100
AcDbLine
10
-132.68961500005202
20
21.089987378961254
30
0
11
-133.55110613070707
21
11.243084841307153
31
0
0
LINE
5
133
100
AcDbEntity
8
0
100
AcDbLine
10
-117.68961567826426
20
3.8228570000000097
30
0
11
-117.68961500005202
21
21.177143000000722
31
0
0
LINE
5
134
100
AcDbEntity
8
0
100
AcDbLine
10
-117.68961500005202
20
21.177143000000722
30
0
11
-115.05682300005202
21
21.177143000000722
31
0
0
LINE
5
135
100
AcDbEntity
8
0
100
AcDbLine
10
-115.05682300005202
20
3.8228570000000097
30
0
11
-117.68961567826426
21
3.8228570000000097
31
0
0
LINE
5
136
100
AcDbEntity
8
0
100
AcDbLine
10
-115.05682300005202
20
21.177143000000722
30
0
11
-115.05682300005202
21
3.8228570000000106
31
0
0
LINE
5
137
100
AcDbEntity
8
0
100
AcDbLine
10
0
20
2.5
30
0
11
0
21
20
31
0
0
LINE
5
138
100
AcDbEntity
8
0
100
AcDbLine
10
5.2011728257639334e-11
20
25.000000000000014
30
0
11
178.00000000005144
21
25.000000000000249
31
0
0
LINE
5
139
100
AcDbEntity
8
0
100
AcDbLine
10
177.99999999999943
20
2.6526167999123365e-13
30
0
11
0
21
0
31
0
0
LINE
5
140
100
AcDbEntity
8
0
100
AcDbLine
10
143.55708010091146
20
11.243081852695841
30
0
11
144.55327481026893
21
11.330237473789399
31
0
0
LINE
5
141
100
AcDbEntity
8
0
100
AcDbLine
10
153.69802620816847
20
21.177143000001465
30
0
11
152.701831418149
21
21.089987371851766
31
0
0
LINE
5
142
100
AcDbEntity
8
0
100
AcDbLine
10
180.00000000005201
20
24.999999999999396
30
0
11
182.50000000005201
21
21.177143000001507
31
0
0
SPLINE
5
143
100
AcDbEntity
8
0
100
AcDbSpline
70
0
71
3
72
10
73
6
74
0
42
0.000000001
43
0.0000000001
44
0.0000000001
40
0
40
0
40
0
40
0
40
0.62667722815980242
40
1.2347713116000278
40
1.8614485136474803
40
1.8614485136474803
40
1.8614485136474803
40
1.8614485136474803
10
189.28154414824323
20
24.999999999999481
30
0
10
190.16895152083634
20
24.999999999999485
30
0
10
191.91745157180836
20
24.999999999999464
30
0
10
194.19236359831876
20
23.342392217197897
30
0
10
194.7281002811508
20
21.677988730480795
30
0
10
195.00000000005195
20
20.833262478426789
30
0
0
LINE
5
144
100
AcDbEntity
8
0
100
AcDbLine
10
179.99999999999943
20
2.6526167999123365e-13
30
0
11
182.49999999994597
21
3.8228570000000173
31
0
0
LINE
5
145
100
AcDbEntity
8
0
100
AcDbLine
10
172.49999999999937
20
3.8228569999998108
30
0
11
173.49999967567419
21
3.8228569999996727
31
0
0
LINE
5
146
100
AcDbEntity
8
0
100
AcDbLine
10
190.00000000005198
20
21.177143000000843
30
0
11
188.00000000005198
21
21.177143000000843
31
0
0
LINE
5
147
100
AcDbEntity
8
0
100
AcDbLine
10
180.00000000005201
20
24.999999999999396
30
0
11
189.28154414824323
21
24.999999999999474
31
0
0
LINE
5
148
100
AcDbEntity
8
0
100
AcDbLine
10
189.28154493611413
20
1.4988010832439613e-14
30
0
11
179.99999999999943
21
2.6526167999123365e-13
31
0
0
LINE
5
149
100
AcDbEntity
8
0
100
AcDbLine
10
182.49999999994597
20
3.8228570000000173
30
0
11
180.49999999994594
21
3.8228570000000177
31
0
0
LINE
5
150
100
AcDbEntity
8
0
100
AcDbLine
10
173.49999967567419
20
3.8228569999996727
30
0
11
173.50000000005198
21
21.177143000000843
31
0
0
LINE
5
151
100
AcDbEntity
8
0
100
AcDbLine
10
182.50000000005201
20
21.177143000001507
30
0
11
180.49999999999952
21
21.177143000001507
31
0
0
LINE
5
152
100
AcDbEntity
8
0
100
AcDbLine
10
180.49999999994594
20
3.8228570000000177
30
0
11
177.99999999999943
21
2.6534330288541241e-13
31
0
0
LINE
5
153
100
AcDbEntity
8
0
100
AcDbLine
10
180.49999999999952
20
21.177143000001507
30
0
11
178.00000000005144
21
25.000000000000249
31
0
0
LINE
5
154
100
AcDbEntity
8
0
100
AcDbLine
10
142.69558870879177
20
21.089987378907892
30
0
11
143.55708010091146
21
11.243081852695841
31
0
0
LINE
5
155
100
AcDbEntity
8
0
100
AcDbLine
10
190.00000000005201
20
3.822857000000015
30
0
11
190.00000000005198
21
21.177143000000843
31
0
0
LINE
5
156
100
AcDbEntity
8
0
100
AcDbLine
10
188.00000000005198
20
3.822857000000015
30
0
11
190.00000000005201
21
3.822857000000015
31
0
0
LINE
5
157
100
AcDbEntity
8
0
100
AcDbLine
10
188.00000000005198
20
21.177143000000843
30
0
11
188.00000000005198
21
3.822857000000015
31
0
0
SPLINE
5
158
100
AcDbEntity
8
0
100
AcDbSpline
70
0
71
3
72
10
73
6
74
0
42
0.000000001
43
0.0000000001
44
0.0000000001
40
0
40
0
40
0
40
0
40
0.62667729857798948
40
1.2347713820182173
40
1.8614485840656689
40
1.8614485840656689
40
1.8614485840656689
40
1.8614485840656689
10
195.00000000005195
20
4.1667386028513409
30
0
10
194.7281004459704
20
3.322012156425338
30
0
10
194.1923641285303
20
1.6576084129874293
30
0
10
191.91745233795245
20
-4.2569451856208011e-15
30
0
10
190.16895228931332
20
8.4651073320620158e-15
30
0
10
189.28154493611413
20
1.4921866061216925e-14
30
0
0
LINE
5
159
100
AcDbEntity
8
0
100
AcDbLine
10
173.50000000005198
20
21.177143000000843
30
0
11
172.50000000005198
21
21.177143000000843
31
0
0
LINE
5
160
100
AcDbEntity
8
0
100
AcDbLine
10
172.50000000005198
20
21.177143000000843
30
0
11
172.49999999999937
21
3.8228569999998108
31
0
0
LINE
5
161
100
AcDbEntity
8
0
100
AcDbLine
10
195.00000000005201
20
20.833262478426793
30
0
11
195.00000000005195
21
4.1667386028513409
31
0
0
LINE
5
162
100
AcDbEntity
8
0
100
AcDbLine
10
115.05682300005202
20
3.8228570000000097
30
0
11
117.68961567826426
21
3.8228570000000097
31
0
0
LINE
5
163
100
AcDbEntity
8
0
100
AcDbLine
10
115.05682300005202
20
21.177143000000722
30
0
11
115.05682300005202
21
3.8228570000000106
31
0
0
LINE
5
164
100
AcDbEntity
8
0
100
AcDbLine
10
117.68961567826426
20
3.8228570000000097
30
0
11
117.68961500005202
21
21.177143000000722
31
0
0
LINE
5
165
100
AcDbEntity
8
0
100
AcDbLine
10
152.701831418149
20
21.089987371851766
30
0
11
153.56332307142904
21
11.243078860557352
31
0
0
LINE
5
166
100
AcDbEntity
8
0
100
AcDbLine
10
143.69178341814896
20
21.177143000001447
30
0
11
142.69558870879177
21
21.089987378907892
31
0
0
LINE
5
167
100
AcDbEntity
8
0
100
AcDbLine
10
117.68961500005202
20
21.177143000000722
30
0
11
115.05682300005202
21
21.177143000000722
31
0
0
LINE
5
168
100
AcDbEntity
8
0
100
AcDbLine
10
133.55110613070707
20
11.243084841307153
30
0
11
134.5473008394446
21
11.330240462346453
31
0
0
LINE
5
169
100
AcDbEntity
8
0
100
AcDbLine
10
133.6858097087931
20
21.177143000000875
30
0
11
132.68961500005202
21
21.089987378961254
31
0
0
LINE
5
170
100
AcDbEntity
8
0
100
AcDbLine
10
132.68961500005202
20
21.089987378961254
30
0
11
133.55110613070707
21
11.243084841307153
31
0
0
LINE
5
171
100
AcDbEntity
8
0
100
AcDbLine
10
154.55951786145681
20
11.330234488708621
30
0
11
153.69802620816847
21
21.177143000001465
31
0
0
LINE
5
172
100
AcDbEntity
8
0
100
AcDbLine
10
134.5473008394446
20
11.330240462346453
30
0
11
133.6858097087931
21
21.177143000000875
31
0
0
LINE
5
173
100
AcDbEntity
8
0
100
AcDbLine
10
144.55327481026893
20
11.330237473789399
30
0
11
143.69178341814896
21
21.177143000001447
31
0
0
LINE
5
174
100
AcDbEntity
8
0
100
AcDbLine
10
153.56332307142904
20
11.243078860557352
30
0
11
154.55951786145681
21
11.330234488708621
31
0
0
ENDSEC
0
SECTION
2
OBJECTS
0
DICTIONARY
5
C
100
AcDbDictionary
3
ACAD_GROUP
350
D
3
ACAD_MLINESTYLE
350
17
0
DICTIONARY
5
D
100
AcDbDictionary
0
DICTIONARY
5
1A
330
C
100
AcDbDictionary
0
DICTIONARY
5
17
100
AcDbDictionary
0
ENDSEC
0
EOF
