0
SECTION
2
HEADER
9
$INSUNITS
70
4
9
$ACADVER
1
AC1014
9
$HANDSEED
5
FFFF
0
ENDSEC
0
SECTION
2
TABLES
0
TABLE
2
VPORT
5
8
100
AcDbSymbolTable
0
ENDTAB
0
TABLE
2
LTYPE
5
5
100
AcDbSymbolTable
0
LTYPE
5
14
100
AcDbSymbolTableRecord
100
AcDbLinetypeTableRecord
2
BYBLOCK
70
0
0
LTYPE
5
15
100
AcDbSymbolTableRecord
100
AcDbLinetypeTableRecord
2
BYLAYER
70
0
0
ENDTAB
0
TABLE
2
LAYER
5
2
100
AcDbSymbolTable
70
2
0
LAYER
5
50
100
AcDbSymbolTableRecord
100
AcDbLayerTableRecord
2
0
70
0
6
CONTINUOUS
0
ENDTAB
0
TABLE
2
STYLE
5
3
100
AcDbSymbolTable
70
1
0
STYLE
5
11
100
AcDbSymbolTableRecord
100
AcDbTextStyleTableRecord
2
STANDARD
70
0
0
ENDTAB
0
TABLE
2
VIEW
5
6
100
AcDbSymbolTable
70
0
0
ENDTAB
0
TABLE
2
UCS
5
7
100
AcDbSymbolTable
70
0
0
ENDTAB
0
TABLE
2
APPID
5
9
100
AcDbSymbolTable
70
2
0
APPID
5
12
100
AcDbSymbolTableRecord
100
AcDbRegAppTableRecord
2
ACAD
70
0
0
ENDTAB
0
TABLE
2
DIMSTYLE
5
A
100
AcDbSymbolTable
70
1
0
ENDTAB
0
TABLE
2
BLOCK_RECORD
5
1
100
AcDbSymbolTable
70
1
0
BLOCK_RECORD
5
1F
100
AcDbSymbolTableRecord
100
AcDbBlockTableRecord
2
*MODEL_SPACE
0
BLOCK_RECORD
5
1B
100
AcDbSymbolTableRecord
100
AcDbBlockTableRecord
2
*PAPER_SPACE
0
ENDTAB
0
ENDSEC
0
SECTION
2
BLOCKS
0
BLOCK
5
20
100
AcDbEntity
100
AcDbBlockBegin
2
*MODEL_SPACE
0
ENDBLK
5
21
100
AcDbEntity
100
AcDbBlockEnd
0
BLOCK
5
1C
100
AcDbEntity
100
AcDbBlockBegin
2
*PAPER_SPACE
0
ENDBLK
5
1D
100
AcDbEntity
100
AcDbBlockEnd
0
ENDSEC
0
SECTION
2
ENTITIES
0
LWPOLYLINE
5
100
100
AcDbEntity
8
0
100
AcDbPolyline
90
80
70
1
43
0.0
10
-305.68822102620987
20
2.6090241078691179e-14
10
-299.99999982289086
20
-7.3586035764794389e-07
10
-297.00000000000011
20
-9.9290362113251021e-07
42
0.99999965428990856
10
-292
20
-7.3564724328449852e-07
10
-289.00000000000017
20
-9.9290362335297469e-07
42
0.99999965428990856
10
-283.99999999999994
20
-7.3564728103208739e-07
10
-281.00000000000017
20
-9.9290362335297469e-07
42
0.99999965428990856
10
-275.99999999999994
20
-7.3564720997781382e-07
10
-273
20
-9.9290362557334704e-07
42
0.99999965428990856
10
-268.00000000000006
20
-7.3564728269739726e-07
10
-265.00000000000011
20
-9.9290362557342074e-07
42
0.99999965428990856
10
-259.99999999999994
20
-7.3564721663915196e-07
10
-257.00000000000011
20
-9.9290362779386679e-07
42
0.99999965428990856
10
-251.99999999999991
20
-7.3564728547297949e-07
10
-249.00000000000009
20
-9.9290363001429441e-07
42
0.99999965428990856
10
-243.99999999999994
20
-7.3564725216628272e-07
10
-241.00000000000011
20
-9.9290363001431283e-07
42
0.99999965428990856
10
-235.99999999999991
20
-7.3564729213431764e-07
10
-233.00000000000011
20
-9.9290363223475888e-07
42
0.99999965428990856
10
-227.99999999999989
20
-7.3564721885959801e-07
10
-225.00000000000011
20
-9.9290363334498191e-07
42
0.99999965428990856
10
-219.99999999999989
20
-7.3564729324454066e-07
10
-217.00000000000011
20
-9.9290363445520493e-07
42
0.99999965428990856
10
-211.99999999999989
20
-7.3564722108004406e-07
10
-209.00000000000009
20
-9.9290363667565098e-07
42
0.99999965428990856
10
-203.99999999999989
20
-7.3564729435476369e-07
10
-201.00000000000009
20
-9.9290363667565098e-07
42
0.99999965428990856
10
-195.99999999999989
20
-7.3564722774138221e-07
10
-193.00000003212148
20
-9.9290365159575391e-07
42
0.99999965244824374
10
-187.99999982289094
20
-7.3758889071617639e-07
10
-185.00000000000045
20
-9.929037606029201e-07
42
0.99999980147315148
10
-179.99999999999937
20
2.6928694287768238e-10
10
-10.999999999999977
20
-6.3837823915946501e-14
42
0.41421356237308959
10
-9.9999999999999751
20
0.99999999999991052
10
-9.9999999999999556
20
1.849999999999941
42
-0.41421356237309481
10
-7.9999999999999556
20
3.8499999999999401
10
-2.0000000000000013
20
3.8499999999999406
42
-0.41421356237309503
10
-1.3877787807814457e-15
20
1.8499999999999428
10
1.3877787807814457e-15
20
-19.150000000000063
42
-0.41421356237309492
10
-1.9999999999999996
20
-21.150000000000059
10
-7.9999999999999707
20
-21.150000000000059
42
-0.41421356237309509
10
-9.9999999999999716
20
-19.150000000000059
10
-9.9999999999999698
20
-18.300000000000068
42
0.4142135623730977
10
-10.999999999999979
20
-17.300000000000068
10
-180.00000000000003
20
-17.300000000000022
42
0.99999980147315148
10
-184.99999999999974
20
-17.299999007365663
10
-187.99999982289069
20
-17.299999264139515
42
0.99999965276783187
10
-193.0000000321217
20
-17.299999006966825
10
-196.00000000000017
20
-17.299999264139565
42
0.99999965428990856
10
-200.99999999999977
20
-17.299999007309729
10
-204.00000000000017
20
-17.299999264139565
42
0.99999965428990856
10
-208.99999999999972
20
-17.299999007309694
10
-212.00000000000017
20
-17.299999264139565
42
0.99999965428990856
10
-216.99999999999977
20
-17.299999007309729
10
-220.00000000000017
20
-17.299999264139565
42
0.99999965428990856
10
-224.99999999999972
20
-17.299999007309694
10
-228.00000000000017
20
-17.299999264139565
42
0.99999965428990856
10
-232.9999999999998
20
-17.299999007309729
10
-236.0000000000002
20
-17.299999264139565
42
0.99999965428990856
10
-240.99999999999972
20
-17.299999007309694
10
-244.0000000000002
20
-17.299999264139565
42
0.99999965428990856
10
-248.9999999999998
20
-17.299999007309729
10
-252.0000000000002
20
-17.299999264139565
42
0.99999965428990856
10
-256.99999999999977
20
-17.299999007309694
10
-260.00000000000023
20
-17.299999264139565
42
0.99999965428990856
10
-264.99999999999983
20
-17.299999007309729
10
-268.00000000000023
20
-17.299999264139565
42
0.99999965428990856
10
-272.99999999999977
20
-17.299999007309694
10
-276.00000000000023
20
-17.299999264139565
42
0.99999965428990856
10
-280.99999999999983
20
-17.299999007309729
10
-284.00000000000023
20
-17.299999264139565
42
0.99999965428990856
10
-288.99999999999977
20
-17.299999007309694
10
-292.00000000000023
20
-17.299999264139565
42
0.99999965428990856
10
-296.99999999999983
20
-17.299999007309729
10
-299.9999998228908
20
-17.299999264139515
10
-305.68822102620993
20
-17.29999999999999
42
-0.20907317130935663
10
-307.89067799295822
20
-16.336954420113969
10
-313.11611151896926
20
-10.686954420114162
42
-0.39153700513682899
10
-313.11611151896943
20
-6.6130455798862631
10
-307.89067799295833
20
-0.96304557988614925
42
-0.20907317130937461
0
LINE
5
101
100
AcDbEntity
8
0
100
AcDbLine
10
-10.999999999999977
20
-6.3837823915946501e-14
30
0
11
-179.99999999999974
21
-6.0682391861918316e-14
31
0
0
LINE
5
102
100
AcDbEntity
8
0
100
AcDbLine
10
-10.99999999999997
20
-17.300000000000068
30
0
11
-180.00000000000003
21
-17.300000000000022
31
0
0
ARC
5
103
100
AcDbEntity
8
0
100
AcDbCircle
10
-182.5
20
-17.300000000000022
30
0
40
2.4999999999999645
210
0
220
0
230
1
100
AcDbArc
50
0
51
179.99997725049667
0
LINE
5
104
100
AcDbEntity
8
0
100
AcDbLine
10
-300.00000000000006
20
-17.300000000000026
30
0
11
-305.68822102620993
21
-17.299999999999994
31
0
0
LINE
5
105
100
AcDbEntity
8
0
100
AcDbLine
10
-299.99999999999994
20
-6.1988792359136676e-14
30
0
11
-305.68822102620987
21
2.6090241078691179e-14
31
0
0
ARC
5
106
100
AcDbEntity
8
0
100
AcDbCircle
10
-286.50000000000011
20
-4.8849813083506888e-14
30
0
40
2.5000000000004459
210
0
220
0
230
1
100
AcDbArc
50
180.0000227495033
51
359.99998313932144
0
ARC
5
107
100
AcDbEntity
8
0
100
AcDbCircle
10
-278.50000000000011
20
-4.8849813083506888e-14
30
0
40
2.5000000000004459
210
0
220
0
230
1
100
AcDbArc
50
180.0000227495033
51
359.99998313932144
0
ARC
5
108
100
AcDbEntity
8
0
100
AcDbCircle
10
-270.50000000000006
20
-5.1070259132757201e-14
30
0
40
2.5000000000004459
210
0
220
0
230
1
100
AcDbArc
50
180.0000227495033
51
359.99998313932144
0
ARC
5
109
100
AcDbEntity
8
0
100
AcDbCircle
10
-262.50000000000006
20
-5.3290705182007514e-14
30
0
40
2.5000000000004459
210
0
220
0
230
1
100
AcDbArc
50
180.0000227495033
51
359.99998313932144
0
ARC
5
110
100
AcDbEntity
8
0
100
AcDbCircle
10
-254.50000000000006
20
-5.3290705182007514e-14
30
0
40
2.5000000000004459
210
0
220
0
230
1
100
AcDbArc
50
180.0000227495033
51
359.99998313932144
0
ARC
5
111
100
AcDbEntity
8
0
100
AcDbCircle
10
-246.50000000000006
20
-5.5511151231257827e-14
30
0
40
2.5000000000004459
210
0
220
0
230
1
100
AcDbArc
50
180.0000227495033
51
359.99998313932144
0
ARC
5
112
100
AcDbEntity
8
0
100
AcDbCircle
10
-238.50000000000006
20
-5.773159728050814e-14
30
0
40
2.5000000000004459
210
0
220
0
230
1
100
AcDbArc
50
180.0000227495033
51
359.99998313932144
0
ARC
5
113
100
AcDbEntity
8
0
100
AcDbCircle
10
-230.50000000000006
20
-5.773159728050814e-14
30
0
40
2.5000000000004459
210
0
220
0
230
1
100
AcDbArc
50
180.0000227495033
51
359.99998313932144
0
ARC
5
114
100
AcDbEntity
8
0
100
AcDbCircle
10
-222.50000000000003
20
-5.9952043329758453e-14
30
0
40
2.5000000000004459
210
0
220
0
230
1
100
AcDbArc
50
180.0000227495033
51
359.99998313932144
0
ARC
5
115
100
AcDbEntity
8
0
100
AcDbCircle
10
-214.50000000000003
20
-5.9952043329758453e-14
30
0
40
2.5000000000004459
210
0
220
0
230
1
100
AcDbArc
50
180.0000227495033
51
359.99998313932144
0
ARC
5
116
100
AcDbEntity
8
0
100
AcDbCircle
10
-206.50000000000003
20
-6.2172489379008766e-14
30
0
40
2.5000000000004459
210
0
220
0
230
1
100
AcDbArc
50
180.0000227495033
51
359.99998313932144
0
ARC
5
117
100
AcDbEntity
8
0
100
AcDbCircle
10
-198.5
20
-6.4392935428259079e-14
30
0
40
2.5000000000004459
210
0
220
0
230
1
100
AcDbArc
50
180.0000227495033
51
359.99998313932144
0
ARC
5
118
100
AcDbEntity
8
0
100
AcDbCircle
10
-190.49999992750625
20
3.2339461021969425e-09
30
0
40
2.5000001046154665
210
0
220
0
230
1
100
AcDbArc
50
180.00002282946667
51
359.99998303158441
0
ARC
5
119
100
AcDbEntity
8
0
100
AcDbCircle
10
-182.5
20
-6.6613381477509392e-14
30
0
40
2.5000000000004459
210
0
220
0
230
1
100
AcDbArc
50
-179.99997725049667
51
0
0
ARC
5
120
100
AcDbEntity
8
0
100
AcDbCircle
10
-190.49999992750625
20
-17.300000003234032
30
0
40
2.500000104615661
210
0
220
-0
230
1
100
AcDbArc
50
1.6925403083538737e-05
51
179.99997717053333
0
ARC
5
121
100
AcDbEntity
8
0
100
AcDbCircle
10
-198.5
20
-17.300000000000022
30
0
40
2.4999999999999662
210
0
220
-0
230
1
100
AcDbArc
50
1.6860678551682349e-05
51
179.99997725049667
0
ARC
5
122
100
AcDbEntity
8
0
100
AcDbCircle
10
-206.50000000000003
20
-17.300000000000022
30
0
40
2.4999999999999662
210
0
220
-0
230
1
100
AcDbArc
50
1.6860678551682349e-05
51
179.99997725049667
0
ARC
5
123
100
AcDbEntity
8
0
100
AcDbCircle
10
-214.50000000000003
20
-17.300000000000022
30
0
40
2.4999999999999662
210
0
220
-0
230
1
100
AcDbArc
50
1.6860678551682349e-05
51
179.99997725049667
0
ARC
5
124
100
AcDbEntity
8
0
100
AcDbCircle
10
-222.50000000000003
20
-17.300000000000022
30
0
40
2.4999999999999662
210
0
220
-0
230
1
100
AcDbArc
50
1.6860678551682349e-05
51
179.99997725049667
0
ARC
5
125
100
AcDbEntity
8
0
100
AcDbCircle
10
-230.50000000000006
20
-17.300000000000022
30
0
40
2.4999999999999662
210
0
220
-0
230
1
100
AcDbArc
50
1.6860678551682349e-05
51
179.99997725049667
0
ARC
5
126
100
AcDbEntity
8
0
100
AcDbCircle
10
-238.50000000000006
20
-17.300000000000022
30
0
40
2.4999999999999662
210
0
220
-0
230
1
100
AcDbArc
50
1.6860678551682349e-05
51
179.99997725049667
0
ARC
5
127
100
AcDbEntity
8
0
100
AcDbCircle
10
-246.50000000000006
20
-17.300000000000022
30
0
40
2.4999999999999662
210
0
220
-0
230
1
100
AcDbArc
50
1.6860678551682349e-05
51
179.99997725049667
0
ARC
5
128
100
AcDbEntity
8
0
100
AcDbCircle
10
-254.50000000000006
20
-17.300000000000022
30
0
40
2.4999999999999662
210
0
220
-0
230
1
100
AcDbArc
50
1.6860678551682349e-05
51
179.99997725049667
0
ARC
5
129
100
AcDbEntity
8
0
100
AcDbCircle
10
-262.50000000000006
20
-17.300000000000022
30
0
40
2.4999999999999662
210
0
220
-0
230
1
100
AcDbArc
50
1.6860678551682349e-05
51
179.99997725049667
0
ARC
5
130
100
AcDbEntity
8
0
100
AcDbCircle
10
-270.50000000000006
20
-17.300000000000022
30
0
40
2.4999999999999662
210
0
220
-0
230
1
100
AcDbArc
50
1.6860678551682349e-05
51
179.99997725049667
0
ARC
5
131
100
AcDbEntity
8
0
100
AcDbCircle
10
-278.50000000000011
20
-17.300000000000022
30
0
40
2.4999999999999662
210
0
220
-0
230
1
100
AcDbArc
50
1.6860678551682349e-05
51
179.99997725049667
0
ARC
5
132
100
AcDbEntity
8
0
100
AcDbCircle
10
-286.50000000000011
20
-17.300000000000022
30
0
40
2.4999999999999662
210
0
220
-0
230
1
100
AcDbArc
50
1.6860678551682349e-05
51
179.99997725049667
0
ARC
5
133
100
AcDbEntity
8
0
100
AcDbCircle
10
-294.50000000000011
20
-17.300000000000022
30
0
40
2.4999999999999662
210
0
220
-0
230
1
100
AcDbArc
50
1.6860678551682349e-05
51
179.99997725049667
0
ARC
5
134
100
AcDbEntity
8
0
100
AcDbCircle
10
-294.50000000000011
20
-4.6629367034256575e-14
30
0
40
2.5000000000004459
210
0
220
0
230
1
100
AcDbArc
50
180.0000227495033
51
359.99998313932144
0
ARC
5
135
100
AcDbEntity
8
0
100
AcDbCircle
10
-1.9999999999999982
20
-19.150000000000059
30
0
40
1.9999999999999996
210
0
220
0
230
1
100
AcDbArc
50
269.99999999999994
51
360
0
LINE
5
136
100
AcDbEntity
8
0
100
AcDbLine
10
-1.9999999999999998
20
-21.150000000000059
30
0
11
-7.9999999999999707
21
-21.150000000000055
31
0
0
ARC
5
137
100
AcDbEntity
8
0
100
AcDbCircle
10
-7.9999999999999707
20
-19.150000000000059
30
0
40
1.9999999999999996
210
0
220
0
230
1
100
AcDbArc
50
180
51
270
0
LINE
5
138
100
AcDbEntity
8
0
100
AcDbLine
10
-9.9999999999999698
20
-19.150000000000059
30
0
11
-9.9999999999999698
21
-18.300000000000068
31
0
0
ARC
5
139
100
AcDbEntity
8
0
100
AcDbCircle
10
-10.99999999999997
20
-18.300000000000068
30
0
40
0.99999999999999978
210
-0
220
0
230
1
100
AcDbArc
50
0
51
90
0
ARC
5
140
100
AcDbEntity
8
0
100
AcDbCircle
10
-305.68822102620993
20
-14.299999999999994
30
0
40
2.9999999999999973
210
0
220
0
230
1
100
AcDbArc
50
222.76436310385304
51
270
0
LINE
5
141
100
AcDbEntity
8
0
100
AcDbLine
10
-307.89067799295822
20
-16.336954420113969
30
0
11
-313.11611151896921
21
-10.686954420114143
31
0
0
ARC
5
142
100
AcDbEntity
8
0
100
AcDbCircle
10
-310.91365455222092
20
-8.6500000000001354
30
0
40
3.0000000000000844
210
0
220
0
230
1
100
AcDbArc
50
137.23563689615136
51
222.7643631038535
0
LINE
5
143
100
AcDbEntity
8
0
100
AcDbLine
10
-307.89067799295833
20
-0.96304557988615103
30
0
11
-313.11611151896943
21
-6.6130455798862631
31
0
0
ARC
5
144
100
AcDbEntity
8
0
100
AcDbCircle
10
-305.68822102620987
20
-2.9999999999999742
30
0
40
3.0000000000000004
210
0
220
-0
230
1
100
AcDbArc
50
90
51
137.23563689615131
0
LINE
5
145
100
AcDbEntity
8
0
100
AcDbLine
10
0
20
1.849999999999941
30
0
11
1.3877787807814457e-15
21
-19.150000000000066
31
0
0
ARC
5
146
100
AcDbEntity
8
0
100
AcDbCircle
10
-10.999999999999975
20
0.99999999999993483
30
0
40
0.99999999999999867
210
0
220
0
230
1
100
AcDbArc
50
269.99999999999989
51
360
0
LINE
5
147
100
AcDbEntity
8
0
100
AcDbLine
10
-9.9999999999999538
20
1.8499999999999415
30
0
11
-9.9999999999999751
21
0.99999999999991052
31
0
0
ARC
5
148
100
AcDbEntity
8
0
100
AcDbCircle
10
-7.9999999999999547
20
1.8499999999999401
30
0
40
2
210
0
220
-0
230
1
100
AcDbArc
50
90
51
180
0
LINE
5
149
100
AcDbEntity
8
0
100
AcDbLine
10
-7.9999999999999547
20
3.8499999999999401
30
0
11
-2.0000000000000009
21
3.8499999999999401
31
0
0
ARC
5
150
100
AcDbEntity
8
0
100
AcDbCircle
10
-2.0000000000000013
20
1.8499999999999406
30
0
40
2.0000000000000013
210
0
220
-0
230
1
100
AcDbArc
50
0
51
89.999999999999986
0
LINE
5
151
100
AcDbEntity
8
0
100
AcDbLine
10
-281.00000000000034
20
-9.9290362274665855e-07
30
0
11
-283.99999999999989
21
-7.3586030991785912e-07
31
0
0
LINE
5
152
100
AcDbEntity
8
0
100
AcDbLine
10
-273.00000000000034
20
-9.9290362542969746e-07
30
0
11
-275.99999999999989
21
-7.3586032657120449e-07
31
0
0
LINE
5
153
100
AcDbEntity
8
0
100
AcDbLine
10
-265.00000000000034
20
-9.9290362542969746e-07
30
0
11
-268.00000000000006
21
-7.358603121382805e-07
31
0
0
LINE
5
154
100
AcDbEntity
8
0
100
AcDbLine
10
-257.00000000000034
20
-9.9290362718755065e-07
30
0
11
-259.99999999999989
21
-7.3586031435875122e-07
31
0
0
LINE
5
155
100
AcDbEntity
8
0
100
AcDbLine
10
-249.00000000000031
20
-9.9290362987058955e-07
30
0
11
-251.99999999999989
21
-7.3586031657919727e-07
31
0
0
LINE
5
156
100
AcDbEntity
8
0
100
AcDbLine
10
-241.00000000000028
20
-9.9290362987058955e-07
30
0
11
-243.99999999999991
21
-7.3586031657919103e-07
31
0
0
LINE
5
157
100
AcDbEntity
8
0
100
AcDbLine
10
-233.00000000000028
20
-9.9290363162844275e-07
30
0
11
-235.99999999999989
21
-7.3586031879964332e-07
31
0
0
LINE
5
158
100
AcDbEntity
8
0
100
AcDbLine
10
-225.00000000000028
20
-9.9290363375637014e-07
30
0
11
-227.99999999999986
21
-7.3586033434276567e-07
31
0
0
LINE
5
159
100
AcDbEntity
8
0
100
AcDbLine
10
-217.00000000000028
20
-9.9290363431148165e-07
30
0
11
-219.99999999999986
21
-7.3586032102008937e-07
31
0
0
LINE
5
160
100
AcDbEntity
8
0
100
AcDbLine
10
-209.00000000000028
20
-9.9290363606933485e-07
30
0
11
-211.99999999999986
21
-7.3586032324053542e-07
31
0
0
LINE
5
161
100
AcDbEntity
8
0
100
AcDbLine
10
-201.00000000000026
20
-9.9290363606933485e-07
30
0
11
-203.99999999999983
21
-7.3586032324053542e-07
31
0
0
LINE
5
162
100
AcDbEntity
8
0
100
AcDbLine
10
-193.00000003212151
20
-9.9290365155124805e-07
30
0
11
-195.99999999999983
21
-7.3586032546098147e-07
31
0
0
LINE
5
163
100
AcDbEntity
8
0
100
AcDbLine
10
-185.00000000000026
20
-9.9290364051022694e-07
30
0
11
-187.99999982289086
21
-7.3796324625378361e-07
31
0
0
LINE
5
164
100
AcDbEntity
8
0
100
AcDbLine
10
-184.99999999999974
20
-17.299999007096357
30
0
11
-187.99999982289069
21
-17.299999264139515
31
0
0
LINE
5
165
100
AcDbEntity
8
0
100
AcDbLine
10
-193.0000000321217
20
-17.299999007096343
30
0
11
-196.00000000000017
21
-17.299999264139565
31
0
0
LINE
5
166
100
AcDbEntity
8
0
100
AcDbLine
10
-200.99999999999977
20
-17.299999007096357
30
0
11
-204.00000000000017
21
-17.299999264139565
31
0
0
LINE
5
167
100
AcDbEntity
8
0
100
AcDbLine
10
-208.99999999999977
20
-17.299999007096357
30
0
11
-212.00000000000017
21
-17.299999264139565
31
0
0
LINE
5
168
100
AcDbEntity
8
0
100
AcDbLine
10
-216.99999999999977
20
-17.299999007096357
30
0
11
-220.00000000000017
21
-17.299999264139565
31
0
0
LINE
5
169
100
AcDbEntity
8
0
100
AcDbLine
10
-224.99999999999977
20
-17.299999007096357
30
0
11
-228.00000000000017
21
-17.299999264139565
31
0
0
LINE
5
170
100
AcDbEntity
8
0
100
AcDbLine
10
-232.9999999999998
20
-17.299999007096357
30
0
11
-236.0000000000002
21
-17.299999264139565
31
0
0
LINE
5
171
100
AcDbEntity
8
0
100
AcDbLine
10
-240.9999999999998
20
-17.299999007096357
30
0
11
-244.0000000000002
21
-17.299999264139565
31
0
0
LINE
5
172
100
AcDbEntity
8
0
100
AcDbLine
10
-248.9999999999998
20
-17.299999007096357
30
0
11
-252.0000000000002
21
-17.299999264139565
31
0
0
LINE
5
173
100
AcDbEntity
8
0
100
AcDbLine
10
-256.99999999999983
20
-17.299999007096357
30
0
11
-260.00000000000023
21
-17.299999264139565
31
0
0
LINE
5
174
100
AcDbEntity
8
0
100
AcDbLine
10
-264.99999999999983
20
-17.299999007096357
30
0
11
-268.00000000000023
21
-17.299999264139565
31
0
0
LINE
5
175
100
AcDbEntity
8
0
100
AcDbLine
10
-272.99999999999983
20
-17.299999007096357
30
0
11
-276.00000000000023
21
-17.299999264139565
31
0
0
LINE
5
176
100
AcDbEntity
8
0
100
AcDbLine
10
-280.99999999999983
20
-17.299999007096357
30
0
11
-284.00000000000023
21
-17.299999264139565
31
0
0
LINE
5
177
100
AcDbEntity
8
0
100
AcDbLine
10
-288.99999999999983
20
-17.299999007096357
30
0
11
-292.00000000000023
21
-17.299999264139565
31
0
0
LINE
5
178
100
AcDbEntity
8
0
100
AcDbLine
10
-296.99999999999983
20
-17.299999007096357
30
0
11
-300.00000000000006
21
-17.300000000000026
31
0
0
LINE
5
179
100
AcDbEntity
8
0
100
AcDbLine
10
-297.00000000000034
20
-9.929036205262125e-07
30
0
11
-299.99999999999994
21
-6.1988792359136676e-14
31
0
0
LINE
5
180
100
AcDbEntity
8
0
100
AcDbLine
10
-289.00000000000034
20
-9.9290362274665855e-07
30
0
11
-291.99999999999994
21
-7.3586030991785288e-07
31
0
0
ENDSEC
0
SECTION
2
OBJECTS
0
DICTIONARY
5
C
100
AcDbDictionary
3
ACAD_GROUP
350
D
3
ACAD_MLINESTYLE
350
17
0
DICTIONARY
5
D
100
AcDbDictionary
0
DICTIONARY
5
1A
330
C
100
AcDbDictionary
0
DICTIONARY
5
17
100
AcDbDictionary
0
ENDSEC
0
EOF
