  0
SECTION
  2
HEADER
  9
$ACADVER
  1
AC1014
  9
$HANDSEED
  5
FFFF
  9
$MEASUREMENT
 70
     1
  0
ENDSEC
  0
SECTION
  2
TABLES
  0
TABLE
  2
VPORT
  5
8
330
0
100
AcDbSymbolTable
 70
     4
  0
VPORT
  5
2E
330
8
100
AcDbSymbolTableRecord
100
AcDbViewportTableRecord
  2
*ACTIVE
 70
     0
 10
0.0
 20
0.0
 11
1.0
 21
1.0
 12
210.0
 22
148.5
 13
0.0
 23
0.0
 14
10.0
 24
10.0
 15
10.0
 25
10.0
 16
0.0
 26
0.0
 36
1.0
 17
0.0
 27
0.0
 37
0.0
 40
341.0
 41
1.24
 42
50.0
 43
0.0
 44
0.0
 50
0.0
 51
0.0
 71
     0
 72
   100
 73
     1
 74
     3
 75
     0
 76
     0
 77
     0
 78
     0
  0
ENDTAB
  0
TABLE
  2
LTYPE
  5
5
330
0
100
AcDbSymbolTable
 70
     1
  0
LTYPE
  5
14
330
5
100
AcDbSymbolTableRecord
100
AcDbLinetypeTableRecord
  2
BYBLOCK
 70
     0
  3

 72
    65
 73
     0
 40
0.0
  0
LTYPE
  5
15
330
5
100
AcDbSymbolTableRecord
100
AcDbLinetypeTableRecord
  2
BYLAYER
 70
     0
  3

 72
    65
 73
     0
 40
0.0
  0
LTYPE
  5
16
330
5
100
AcDbSymbolTableRecord
100
AcDbLinetypeTableRecord
  2
CONTINUOUS
 70
     0
  3
Solid line
 72
    65
 73
     0
 40
0.0
  0
ENDTAB
  0
TABLE
  2
LAYER
  5
2
100
AcDbSymbolTable
 70
1
  0
LAYER
  5
50
100
AcDbSymbolTableRecord
100
AcDbLayerTableRecord
  2
0
 70
0
  6
CONTINUOUS
  0
ENDTAB
  0
TABLE
  2
STYLE
  5
3
330
0
100
AcDbSymbolTable
 70
     1
  0
STYLE
  5
11
330
3
100
AcDbSymbolTableRecord
100
AcDbTextStyleTableRecord
  2
STANDARD
 70
     0
 40
0.0
 41
1.0
 50
0.0
 71
     0
 42
2.5
  3
txt
  4

  0
ENDTAB
  0
TABLE
  2
VIEW
  5
6
330
0
100
AcDbSymbolTable
 70
     0
  0
ENDTAB
  0
TABLE
  2
UCS
  5
7
330
0
100
AcDbSymbolTable
 70
     0
  0
ENDTAB
  0
TABLE
  2
APPID
  5
9
330
0
100
AcDbSymbolTable
 70
     2
  0
APPID
  5
12
330
9
100
AcDbSymbolTableRecord
100
AcDbRegAppTableRecord
  2
ACAD
 70
     0
  0
ENDTAB
  0
TABLE
  2
DIMSTYLE
  5
A
330
0
100
AcDbSymbolTable
 70
     1
  0
DIMSTYLE
105
27
330
A
100
AcDbSymbolTableRecord
100
AcDbDimStyleTableRecord
  2
ISO-25
 70
     0
  3

  4

  5

  6

  7

 40
1.0
 41
2.5
 42
0.625
 43
3.75
 44
1.25
 45
0.0
 46
0.0
 47
0.0
 48
0.0
140
2.5
141
2.5
142
0.0
143
0.03937007874016
144
1.0
145
0.0
146
1.0
147
0.625
 71
     0
 72
     0
 73
     0
 74
     0
 75
     0
 76
     0
 77
     1
 78
     8
170
     0
171
     3
172
     1
173
     0
174
     0
175
     0
176
     0
177
     0
178
     0
270
     2
271
     2
272
     2
273
     2
274
     3
340
11
275
     0
280
     0
281
     0
282
     0
283
     0
284
     8
285
     0
286
     0
287
     3
288
     0
  0
ENDTAB
  0
TABLE
  2
BLOCK_RECORD
  5
1
330
0
100
AcDbSymbolTable
 70
     1
  0
BLOCK_RECORD
  5
1F
330
1
100
AcDbSymbolTableRecord
100
AcDbBlockTableRecord
  2
*MODEL_SPACE
  0
BLOCK_RECORD
  5
1B
330
1
100
AcDbSymbolTableRecord
100
AcDbBlockTableRecord
  2
*PAPER_SPACE
  0
ENDTAB
  0
ENDSEC
  0
SECTION
  2
BLOCKS
  0
BLOCK
  5
20
330
1F
100
AcDbEntity
  8
0
100
AcDbBlockBegin
  2
*MODEL_SPACE
 70
     0
 10
0.0
 20
0.0
 30
0.0
  3
*MODEL_SPACE
  1

  0
ENDBLK
  5
21
330
1F
100
AcDbEntity
  8
0
100
AcDbBlockEnd
  0
BLOCK
  5
1C
330
1B
100
AcDbEntity
 67
     1
  8
0
100
AcDbBlockBegin
  2
*PAPER_SPACE
  1

  0
ENDBLK
  5
1D
330
1B
100
AcDbEntity
 67
     1
  8
0
100
AcDbBlockEnd
  0
ENDSEC
  0
SECTION
  2
ENTITIES
  0
LWPOLYLINE
  5
100
100
AcDbEntity
  8
0
 62
7
100
AcDbPolyline
 90
2
 70
0
 10
2034.883831
 20
651.898720
 30
0.0
 10
2046.151570
 20
651.898720
 30
0.0
  0
LWPOLYLINE
  5
101
100
AcDbEntity
  8
0
 62
7
100
AcDbPolyline
 90
3
 70
0
 10
2016.104332
 20
651.898720
 30
0.0
 10
1997.324735
 20
651.898720
 30
0.0
 10
1922.206642
 20
666.257023
 30
0.0
  0
LWPOLYLINE
  5
102
100
AcDbEntity
  8
0
 62
7
100
AcDbPolyline
 90
2
 70
0
 10
1478.189077
 20
666.257023
 30
0.0
 10
1922.206642
 20
666.257023
 30
0.0
  0
LWPOLYLINE
  5
103
100
AcDbEntity
  8
0
 62
7
100
AcDbPolyline
 90
6
 70
0
 10
1478.189077
 20
666.257023
 30
0.0
 10
1415.159153
 20
666.257023
 30
0.0
 10
1424.548922
 20
651.898720
 30
0.0
 10
1417.037103
 20
651.898720
 30
0.0
 10
1407.647344
 20
666.257023
 30
0.0
 10
739.095861
 20
666.257023
 30
0.0
  0
LWPOLYLINE
  5
104
100
AcDbEntity
  8
0
 62
7
100
AcDbPolyline
 90
2
 70
0
 10
1417.037103
 20
586.717635
 30
0.0
 10
1407.647344
 20
572.359332
 30
0.0
  0
LWPOLYLINE
  5
105
100
AcDbEntity
  8
0
 62
7
100
AcDbPolyline
 90
2
 70
0
 10
1424.548922
 20
586.717635
 30
0.0
 10
1417.037103
 20
586.717635
 30
0.0
  0
LWPOLYLINE
  5
106
100
AcDbEntity
  8
0
 62
7
100
AcDbPolyline
 90
2
 70
0
 10
1415.159153
 20
572.359332
 30
0.0
 10
1424.548922
 20
586.717635
 30
0.0
  0
LWPOLYLINE
  5
107
100
AcDbEntity
  8
0
 62
7
100
AcDbPolyline
 90
2
 70
0
 10
1415.159153
 20
572.359332
 30
0.0
 10
1478.189077
 20
572.359332
 30
0.0
  0
LWPOLYLINE
  5
108
100
AcDbEntity
  8
0
 62
7
100
AcDbPolyline
 90
2
 70
0
 10
1997.324735
 20
586.717635
 30
0.0
 10
1922.206642
 20
572.359332
 30
0.0
  0
SPLINE
  5
109
100
AcDbEntity
  8
0
 62
7
100
AcDbSpline
 70
0
 71
3
 72
13
 73
9
 74
7
 40
0.000000
 40
0.000000
 40
0.000000
 40
0.000000
 40
4.903292
 40
9.661468
 40
14.564760
 40
19.468052
 40
24.226229
 40
29.129521
 40
29.129521
 40
29.129521
 40
29.129521
 10
2016.104332
 20
651.898720
 30
0.0
 10
2016.365230
 20
650.246127
 30
0.0
 10
2016.879304
 20
646.989851
 30
0.0
 10
2020.613092
 20
643.408051
 30
0.0
 10
2025.494082
 20
642.081037
 30
0.0
 10
2030.375071
 20
643.408051
 30
0.0
 10
2034.108859
 20
646.989851
 30
0.0
 10
2034.622933
 20
650.246127
 30
0.0
 10
2034.883831
 20
651.898720
 30
0.0
 11
2016.104332
 21
651.898720
 31
0.0
 11
2017.392555
 21
647.167678
 31
0.0
 11
2020.760466
 21
643.806515
 31
0.0
 11
2025.494082
 21
642.527782
 31
0.0
 11
2030.227697
 21
643.806515
 31
0.0
 11
2033.595608
 21
647.167678
 31
0.0
 11
2034.883831
 21
651.898720
 31
0.0
  0
LWPOLYLINE
  5
10a
100
AcDbEntity
  8
0
 62
7
100
AcDbPolyline
 90
2
 70
0
 10
2016.104332
 20
586.717635
 30
0.0
 10
1997.324735
 20
586.717635
 30
0.0
  0
LWPOLYLINE
  5
10b
100
AcDbEntity
  8
0
 62
7
100
AcDbPolyline
 90
2
 70
0
 10
2034.883831
 20
586.717635
 30
0.0
 10
2046.151570
 20
586.717635
 30
0.0
  0
LWPOLYLINE
  5
10c
100
AcDbEntity
  8
0
 62
7
100
AcDbPolyline
 90
2
 70
0
 10
739.095861
 20
572.359332
 30
0.0
 10
1407.647344
 20
572.359332
 30
0.0
  0
LWPOLYLINE
  5
10d
100
AcDbEntity
  8
0
 62
7
100
AcDbPolyline
 90
2
 70
0
 10
1478.189077
 20
572.359332
 30
0.0
 10
1922.206642
 20
572.359332
 30
0.0
  0
LWPOLYLINE
  5
10e
100
AcDbEntity
  8
0
 62
7
100
AcDbPolyline
 90
3
 70
0
 10
1452.718229
 20
651.898720
 30
0.0
 10
1452.718229
 20
586.717635
 30
0.0
 10
1445.206410
 20
586.717635
 30
0.0
  0
LWPOLYLINE
  5
10f
100
AcDbEntity
  8
0
 62
7
100
AcDbPolyline
 90
2
 70
0
 10
1445.206410
 20
651.898720
 30
0.0
 10
1452.718229
 20
651.898720
 30
0.0
  0
LWPOLYLINE
  5
110
100
AcDbEntity
  8
0
 62
7
100
AcDbPolyline
 90
2
 70
0
 10
1445.206410
 20
586.717635
 30
0.0
 10
1445.206410
 20
651.898720
 30
0.0
  0
LWPOLYLINE
  5
111
100
AcDbEntity
  8
0
 62
7
100
AcDbPolyline
 90
3
 70
0
 10
1390.745756
 20
651.898720
 30
0.0
 10
1390.745756
 20
586.717635
 30
0.0
 10
1386.989846
 20
586.717635
 30
0.0
  0
LWPOLYLINE
  5
112
100
AcDbEntity
  8
0
 62
7
100
AcDbPolyline
 90
2
 70
0
 10
1386.989846
 20
651.898720
 30
0.0
 10
1390.745756
 20
651.898720
 30
0.0
  0
LWPOLYLINE
  5
113
100
AcDbEntity
  8
0
 62
7
100
AcDbPolyline
 90
2
 70
0
 10
1386.989846
 20
586.717635
 30
0.0
 10
1386.989846
 20
651.898720
 30
0.0
  0
LWPOLYLINE
  5
114
100
AcDbEntity
  8
0
 62
7
100
AcDbPolyline
 90
3
 70
0
 10
1319.607067
 20
623.701747
 30
0.0
 10
1316.371386
 20
586.717635
 30
0.0
 10
1312.629766
 20
587.044976
 30
0.0
  0
LWPOLYLINE
  5
115
100
AcDbEntity
  8
0
 62
7
100
AcDbPolyline
 90
2
 70
0
 10
1315.865447
 20
624.029088
 30
0.0
 10
1319.607067
 20
623.701747
 30
0.0
  0
LWPOLYLINE
  5
116
100
AcDbEntity
  8
0
 62
7
100
AcDbPolyline
 90
2
 70
0
 10
1312.629766
 20
587.044976
 30
0.0
 10
1315.865447
 20
624.029088
 30
0.0
  0
LWPOLYLINE
  5
117
100
AcDbEntity
  8
0
 62
7
100
AcDbPolyline
 90
3
 70
0
 10
1282.024548
 20
623.701647
 30
0.0
 10
1278.788857
 20
586.717635
 30
0.0
 10
1275.047247
 20
587.044976
 30
0.0
  0
LWPOLYLINE
  5
118
100
AcDbEntity
  8
0
 62
7
100
AcDbPolyline
 90
2
 70
0
 10
1278.282929
 20
624.028989
 30
0.0
 10
1282.024548
 20
623.701647
 30
0.0
  0
LWPOLYLINE
  5
119
100
AcDbEntity
  8
0
 62
7
100
AcDbPolyline
 90
2
 70
0
 10
1275.047247
 20
587.044976
 30
0.0
 10
1278.282929
 20
624.028989
 30
0.0
  0
LWPOLYLINE
  5
11a
100
AcDbEntity
  8
0
 62
7
100
AcDbPolyline
 90
3
 70
0
 10
1244.443033
 20
623.701647
 30
0.0
 10
1241.207352
 20
586.717635
 30
0.0
 10
1237.465742
 20
587.044976
 30
0.0
  0
LWPOLYLINE
  5
11b
100
AcDbEntity
  8
0
 62
7
100
AcDbPolyline
 90
2
 70
0
 10
1240.701423
 20
624.028989
 30
0.0
 10
1244.443033
 20
623.701647
 30
0.0
  0
LWPOLYLINE
  5
11c
100
AcDbEntity
  8
0
 62
7
100
AcDbPolyline
 90
2
 70
0
 10
1237.465742
 20
587.044976
 30
0.0
 10
1240.701423
 20
624.028989
 30
0.0
  0
LWPOLYLINE
  5
11d
100
AcDbEntity
  8
0
 62
7
100
AcDbPolyline
 90
3
 70
0
 10
1181.127138
 20
651.898720
 30
0.0
 10
1181.127128
 20
592.351504
 30
0.0
 10
1171.238605
 20
592.351504
 30
0.0
  0
LWPOLYLINE
  5
11e
100
AcDbEntity
  8
0
 62
7
100
AcDbPolyline
 90
2
 70
0
 10
1171.238605
 20
651.898720
 30
0.0
 10
1181.127138
 20
651.898720
 30
0.0
  0
SPLINE
  5
11f
100
AcDbEntity
  8
0
 62
7
100
AcDbSpline
 70
0
 71
3
 72
13
 73
9
 74
7
 40
0.000000
 40
0.000000
 40
0.000000
 40
0.000000
 40
4.903292
 40
9.661468
 40
14.564760
 40
19.468052
 40
24.226229
 40
29.129521
 40
29.129521
 40
29.129521
 40
29.129521
 10
2034.883831
 20
586.717635
 30
0.0
 10
2034.622933
 20
588.370228
 30
0.0
 10
2034.108859
 20
591.626504
 30
0.0
 10
2030.375071
 20
595.208304
 30
0.0
 10
2025.494082
 20
596.535318
 30
0.0
 10
2020.613092
 20
595.208304
 30
0.0
 10
2016.879304
 20
591.626504
 30
0.0
 10
2016.365230
 20
588.370228
 30
0.0
 10
2016.104332
 20
586.717635
 30
0.0
 11
2034.883831
 21
586.717635
 31
0.0
 11
2033.595608
 21
591.448676
 31
0.0
 11
2030.227697
 21
594.809840
 31
0.0
 11
2025.494082
 21
596.088573
 31
0.0
 11
2020.760466
 21
594.809840
 31
0.0
 11
2017.392555
 21
591.448676
 31
0.0
 11
2016.104332
 21
586.717635
 31
0.0
  0
LWPOLYLINE
  5
120
100
AcDbEntity
  8
0
 62
7
100
AcDbPolyline
 90
2
 70
0
 10
1171.238605
 20
592.351504
 30
0.0
 10
1171.238605
 20
651.898720
 30
0.0
  0
SPLINE
  5
121
100
AcDbEntity
  8
0
 62
7
100
AcDbSpline
 70
0
 71
3
 72
13
 73
9
 74
7
 40
0.000000
 40
0.000000
 40
0.000000
 40
0.000000
 40
4.903292
 40
9.661468
 40
14.564760
 40
19.468052
 40
24.226229
 40
29.129521
 40
29.129521
 40
29.129521
 40
29.129521
 10
2064.931068
 20
586.717635
 30
0.0
 10
2064.670170
 20
588.370228
 30
0.0
 10
2064.156096
 20
591.626504
 30
0.0
 10
2060.422308
 20
595.208304
 30
0.0
 10
2055.541319
 20
596.535318
 30
0.0
 10
2050.660329
 20
595.208304
 30
0.0
 10
2046.926541
 20
591.626504
 30
0.0
 10
2046.412467
 20
588.370228
 30
0.0
 10
2046.151570
 20
586.717635
 30
0.0
 11
2064.931068
 21
586.717635
 31
0.0
 11
2063.642845
 21
591.448676
 31
0.0
 11
2060.274934
 21
594.809840
 31
0.0
 11
2055.541319
 21
596.088573
 31
0.0
 11
2050.807703
 21
594.809840
 31
0.0
 11
2047.439793
 21
591.448676
 31
0.0
 11
2046.151570
 21
586.717635
 31
0.0
  0
LWPOLYLINE
  5
122
100
AcDbEntity
  8
0
 62
7
100
AcDbPolyline
 90
2
 70
0
 10
2064.931068
 20
651.898720
 30
0.0
 10
2076.198807
 20
651.898720
 30
0.0
  0
LWPOLYLINE
  5
123
100
AcDbEntity
  8
0
 62
7
100
AcDbPolyline
 90
2
 70
0
 10
2064.931068
 20
586.717635
 30
0.0
 10
2076.198807
 20
586.717635
 30
0.0
  0
SPLINE
  5
124
100
AcDbEntity
  8
0
 62
7
100
AcDbSpline
 70
0
 71
3
 72
13
 73
9
 74
7
 40
0.000000
 40
0.000000
 40
0.000000
 40
0.000000
 40
4.903292
 40
9.661468
 40
14.564760
 40
19.468052
 40
24.226229
 40
29.129521
 40
29.129521
 40
29.129521
 40
29.129521
 10
2046.151570
 20
651.898720
 30
0.0
 10
2046.412467
 20
650.246127
 30
0.0
 10
2046.926541
 20
646.989851
 30
0.0
 10
2050.660329
 20
643.408051
 30
0.0
 10
2055.541319
 20
642.081037
 30
0.0
 10
2060.422308
 20
643.408051
 30
0.0
 10
2064.156096
 20
646.989851
 30
0.0
 10
2064.670170
 20
650.246127
 30
0.0
 10
2064.931068
 20
651.898720
 30
0.0
 11
2046.151570
 21
651.898720
 31
0.0
 11
2047.439793
 21
647.167678
 31
0.0
 11
2050.807703
 21
643.806515
 31
0.0
 11
2055.541319
 21
642.527782
 31
0.0
 11
2060.274934
 21
643.806515
 31
0.0
 11
2063.642845
 21
647.167678
 31
0.0
 11
2064.931068
 21
651.898720
 31
0.0
  0
LWPOLYLINE
  5
125
100
AcDbEntity
  8
0
 62
7
100
AcDbPolyline
 90
2
 70
0
 10
2094.978305
 20
586.717635
 30
0.0
 10
2106.246044
 20
586.717635
 30
0.0
  0
SPLINE
  5
126
100
AcDbEntity
  8
0
 62
7
100
AcDbSpline
 70
0
 71
3
 72
13
 73
9
 74
7
 40
0.000000
 40
0.000000
 40
0.000000
 40
0.000000
 40
4.903292
 40
9.661468
 40
14.564760
 40
19.468052
 40
24.226229
 40
29.129521
 40
29.129521
 40
29.129521
 40
29.129521
 10
2094.978305
 20
586.717635
 30
0.0
 10
2094.717407
 20
588.370228
 30
0.0
 10
2094.203334
 20
591.626504
 30
0.0
 10
2090.469545
 20
595.208304
 30
0.0
 10
2085.588556
 20
596.535318
 30
0.0
 10
2080.707566
 20
595.208304
 30
0.0
 10
2076.973778
 20
591.626504
 30
0.0
 10
2076.459704
 20
588.370228
 30
0.0
 10
2076.198807
 20
586.717635
 30
0.0
 11
2094.978305
 21
586.717635
 31
0.0
 11
2093.690082
 21
591.448676
 31
0.0
 11
2090.322171
 21
594.809840
 31
0.0
 11
2085.588556
 21
596.088573
 31
0.0
 11
2080.854940
 21
594.809840
 31
0.0
 11
2077.487030
 21
591.448676
 31
0.0
 11
2076.198807
 21
586.717635
 31
0.0
  0
LWPOLYLINE
  5
127
100
AcDbEntity
  8
0
 62
7
100
AcDbPolyline
 90
2
 70
0
 10
2125.025641
 20
586.717635
 30
0.0
 10
2136.293380
 20
586.717635
 30
0.0
  0
SPLINE
  5
128
100
AcDbEntity
  8
0
 62
7
100
AcDbSpline
 70
0
 71
3
 72
16
 73
12
 74
10
 40
0.000000
 40
0.000000
 40
0.000000
 40
0.000000
 40
3.276703
 40
6.506511
 40
9.783214
 40
13.059917
 40
16.289725
 40
19.566428
 40
22.843130
 40
26.072939
 40
29.349641
 40
29.349641
 40
29.349641
 40
29.349641
 10
2125.025641
 20
586.717635
 30
0.0
 10
2124.913454
 20
587.815440
 30
0.0
 10
2124.690685
 20
589.995338
 30
0.0
 10
2122.962312
 20
592.876108
 30
0.0
 10
2120.431808
 20
595.017884
 30
0.0
 10
2117.297803
 20
596.153811
 30
0.0
 10
2113.973883
 20
596.153811
 30
0.0
 10
2110.839878
 20
595.017884
 30
0.0
 10
2108.309373
 20
592.876108
 30
0.0
 10
2106.581000
 20
589.995338
 30
0.0
 10
2106.358231
 20
587.815440
 30
0.0
 10
2106.246044
 20
586.717635
 30
0.0
 11
2125.025641
 21
586.717635
 31
0.0
 11
2124.454048
 21
589.944098
 31
0.0
 11
2122.839144
 21
592.741194
 31
0.0
 11
2120.330742
 21
594.849439
 31
0.0
 11
2117.250747
 21
595.967656
 31
0.0
 11
2114.020939
 21
595.967656
 31
0.0
 11
2110.940943
 21
594.849439
 31
0.0
 11
2108.432541
 21
592.741194
 31
0.0
 11
2106.817637
 21
589.944098
 31
0.0
 11
2106.246044
 21
586.717635
 31
0.0
  0
LWPOLYLINE
  5
129
100
AcDbEntity
  8
0
 62
7
100
AcDbPolyline
 90
2
 70
0
 10
2155.072879
 20
586.717635
 30
0.0
 10
2166.340617
 20
586.717635
 30
0.0
  0
SPLINE
  5
12a
100
AcDbEntity
  8
0
 62
7
100
AcDbSpline
 70
0
 71
3
 72
13
 73
9
 74
7
 40
0.000000
 40
0.000000
 40
0.000000
 40
0.000000
 40
4.903292
 40
9.661468
 40
14.564760
 40
19.468052
 40
24.226229
 40
29.129521
 40
29.129521
 40
29.129521
 40
29.129521
 10
2155.072879
 20
586.717635
 30
0.0
 10
2154.811981
 20
588.370228
 30
0.0
 10
2154.297907
 20
591.626504
 30
0.0
 10
2150.564119
 20
595.208304
 30
0.0
 10
2145.683129
 20
596.535318
 30
0.0
 10
2140.802140
 20
595.208304
 30
0.0
 10
2137.068352
 20
591.626504
 30
0.0
 10
2136.554278
 20
588.370228
 30
0.0
 10
2136.293380
 20
586.717635
 30
0.0
 11
2155.072879
 21
586.717635
 31
0.0
 11
2153.784656
 21
591.448676
 31
0.0
 11
2150.416745
 21
594.809840
 31
0.0
 11
2145.683129
 21
596.088573
 31
0.0
 11
2140.949514
 21
594.809840
 31
0.0
 11
2137.581603
 21
591.448676
 31
0.0
 11
2136.293380
 21
586.717635
 31
0.0
  0
LWPOLYLINE
  5
12b
100
AcDbEntity
  8
0
 62
7
100
AcDbPolyline
 90
2
 70
0
 10
2185.120116
 20
586.717635
 30
0.0
 10
2196.387854
 20
586.717635
 30
0.0
  0
SPLINE
  5
12c
100
AcDbEntity
  8
0
 62
7
100
AcDbSpline
 70
0
 71
3
 72
13
 73
9
 74
7
 40
0.000000
 40
0.000000
 40
0.000000
 40
0.000000
 40
4.903292
 40
9.661468
 40
14.564760
 40
19.468052
 40
24.226229
 40
29.129521
 40
29.129521
 40
29.129521
 40
29.129521
 10
2185.120116
 20
586.717635
 30
0.0
 10
2184.859218
 20
588.370228
 30
0.0
 10
2184.345144
 20
591.626504
 30
0.0
 10
2180.611356
 20
595.208304
 30
0.0
 10
2175.730366
 20
596.535318
 30
0.0
 10
2170.849377
 20
595.208304
 30
0.0
 10
2167.115589
 20
591.626504
 30
0.0
 10
2166.601515
 20
588.370228
 30
0.0
 10
2166.340617
 20
586.717635
 30
0.0
 11
2185.120116
 21
586.717635
 31
0.0
 11
2183.831893
 21
591.448676
 31
0.0
 11
2180.463982
 21
594.809840
 31
0.0
 11
2175.730366
 21
596.088573
 31
0.0
 11
2170.996751
 21
594.809840
 31
0.0
 11
2167.628840
 21
591.448676
 31
0.0
 11
2166.340617
 21
586.717635
 31
0.0
  0
LWPOLYLINE
  5
12d
100
AcDbEntity
  8
0
 62
7
100
AcDbPolyline
 90
2
 70
0
 10
2215.167353
 20
586.717635
 30
0.0
 10
2226.435092
 20
586.717635
 30
0.0
  0
SPLINE
  5
12e
100
AcDbEntity
  8
0
 62
7
100
AcDbSpline
 70
0
 71
3
 72
13
 73
9
 74
7
 40
0.000000
 40
0.000000
 40
0.000000
 40
0.000000
 40
4.903292
 40
9.661468
 40
14.564760
 40
19.468052
 40
24.226229
 40
29.129521
 40
29.129521
 40
29.129521
 40
29.129521
 10
2215.167353
 20
586.717635
 30
0.0
 10
2214.906455
 20
588.370228
 30
0.0
 10
2214.392381
 20
591.626504
 30
0.0
 10
2210.658593
 20
595.208304
 30
0.0
 10
2205.777604
 20
596.535318
 30
0.0
 10
2200.896614
 20
595.208304
 30
0.0
 10
2197.162826
 20
591.626504
 30
0.0
 10
2196.648752
 20
588.370228
 30
0.0
 10
2196.387854
 20
586.717635
 30
0.0
 11
2215.167353
 21
586.717635
 31
0.0
 11
2213.879130
 21
591.448676
 31
0.0
 11
2210.511219
 21
594.809840
 31
0.0
 11
2205.777604
 21
596.088573
 31
0.0
 11
2201.043988
 21
594.809840
 31
0.0
 11
2197.676077
 21
591.448676
 31
0.0
 11
2196.387854
 21
586.717635
 31
0.0
  0
LWPOLYLINE
  5
12f
100
AcDbEntity
  8
0
 62
7
100
AcDbPolyline
 90
2
 70
0
 10
2245.214689
 20
586.717635
 30
0.0
 10
2256.482329
 20
586.717635
 30
0.0
  0
SPLINE
  5
130
100
AcDbEntity
  8
0
 62
7
100
AcDbSpline
 70
0
 71
3
 72
16
 73
12
 74
10
 40
0.000000
 40
0.000000
 40
0.000000
 40
0.000000
 40
3.276703
 40
6.506511
 40
9.783214
 40
13.059917
 40
16.289725
 40
19.566428
 40
22.843130
 40
26.072939
 40
29.349641
 40
29.349641
 40
29.349641
 40
29.349641
 10
2245.214689
 20
586.717635
 30
0.0
 10
2245.102502
 20
587.815440
 30
0.0
 10
2244.879733
 20
589.995338
 30
0.0
 10
2243.151360
 20
592.876108
 30
0.0
 10
2240.620855
 20
595.017884
 30
0.0
 10
2237.486850
 20
596.153811
 30
0.0
 10
2234.162930
 20
596.153811
 30
0.0
 10
2231.028925
 20
595.017884
 30
0.0
 10
2228.498421
 20
592.876108
 30
0.0
 10
2226.770048
 20
589.995338
 30
0.0
 10
2226.547279
 20
587.815440
 30
0.0
 10
2226.435092
 20
586.717635
 30
0.0
 11
2245.214689
 21
586.717635
 31
0.0
 11
2244.643096
 21
589.944098
 31
0.0
 11
2243.028192
 21
592.741194
 31
0.0
 11
2240.519790
 21
594.849439
 31
0.0
 11
2237.439794
 21
595.967656
 31
0.0
 11
2234.209986
 21
595.967656
 31
0.0
 11
2231.129991
 21
594.849439
 31
0.0
 11
2228.621589
 21
592.741194
 31
0.0
 11
2227.006685
 21
589.944098
 31
0.0
 11
2226.435092
 21
586.717635
 31
0.0
  0
LWPOLYLINE
  5
131
100
AcDbEntity
  8
0
 62
7
100
AcDbPolyline
 90
2
 70
0
 10
2275.261926
 20
586.717635
 30
0.0
 10
2286.529665
 20
586.717635
 30
0.0
  0
SPLINE
  5
132
100
AcDbEntity
  8
0
 62
7
100
AcDbSpline
 70
0
 71
3
 72
13
 73
9
 74
7
 40
0.000000
 40
0.000000
 40
0.000000
 40
0.000000
 40
4.909542
 40
9.673468
 40
14.583009
 40
19.492551
 40
24.256477
 40
29.166018
 40
29.166018
 40
29.166018
 40
29.166018
 10
2275.261926
 20
586.717635
 30
0.0
 10
2275.003658
 20
588.372901
 30
0.0
 10
2274.494782
 20
591.634339
 30
0.0
 10
2270.759333
 20
595.224916
 30
0.0
 10
2265.872127
 20
596.555332
 30
0.0
 10
2260.984922
 20
595.224916
 30
0.0
 10
2257.249473
 20
591.634339
 30
0.0
 10
2256.740597
 20
588.372901
 30
0.0
 10
2256.482329
 20
586.717635
 30
0.0
 11
2275.261926
 21
586.717635
 31
0.0
 11
2273.979943
 21
591.456845
 31
0.0
 11
2270.611338
 21
594.825450
 31
0.0
 11
2265.872127
 21
596.107432
 31
0.0
 11
2261.132917
 21
594.825450
 31
0.0
 11
2257.764312
 21
591.456845
 31
0.0
 11
2256.482329
 21
586.717635
 31
0.0
  0
LWPOLYLINE
  5
133
100
AcDbEntity
  8
0
 62
7
100
AcDbPolyline
 90
2
 70
0
 10
2305.309163
 20
586.717635
 30
0.0
 10
2316.576902
 20
586.717635
 30
0.0
  0
SPLINE
  5
134
100
AcDbEntity
  8
0
 62
7
100
AcDbSpline
 70
0
 71
3
 72
13
 73
9
 74
7
 40
0.000000
 40
0.000000
 40
0.000000
 40
0.000000
 40
4.903292
 40
9.661468
 40
14.564760
 40
19.468052
 40
24.226229
 40
29.129521
 40
29.129521
 40
29.129521
 40
29.129521
 10
2305.309163
 20
586.717635
 30
0.0
 10
2305.048266
 20
588.370228
 30
0.0
 10
2304.534192
 20
591.626504
 30
0.0
 10
2300.800404
 20
595.208304
 30
0.0
 10
2295.919414
 20
596.535318
 30
0.0
 10
2291.038425
 20
595.208304
 30
0.0
 10
2287.304637
 20
591.626504
 30
0.0
 10
2286.790563
 20
588.370228
 30
0.0
 10
2286.529665
 20
586.717635
 30
0.0
 11
2305.309163
 21
586.717635
 31
0.0
 11
2304.020940
 21
591.448676
 31
0.0
 11
2300.653030
 21
594.809840
 31
0.0
 11
2295.919414
 21
596.088573
 31
0.0
 11
2291.185799
 21
594.809840
 31
0.0
 11
2287.817888
 21
591.448676
 31
0.0
 11
2286.529665
 21
586.717635
 31
0.0
  0
LWPOLYLINE
  5
135
100
AcDbEntity
  8
0
 62
7
100
AcDbPolyline
 90
2
 70
0
 10
2335.356401
 20
586.717635
 30
0.0
 10
2346.624139
 20
586.717635
 30
0.0
  0
SPLINE
  5
136
100
AcDbEntity
  8
0
 62
7
100
AcDbSpline
 70
0
 71
3
 72
13
 73
9
 74
7
 40
0.000000
 40
0.000000
 40
0.000000
 40
0.000000
 40
4.903292
 40
9.661468
 40
14.564760
 40
19.468052
 40
24.226229
 40
29.129521
 40
29.129521
 40
29.129521
 40
29.129521
 10
2335.356401
 20
586.717635
 30
0.0
 10
2335.095503
 20
588.370228
 30
0.0
 10
2334.581429
 20
591.626504
 30
0.0
 10
2330.847641
 20
595.208304
 30
0.0
 10
2325.966651
 20
596.535318
 30
0.0
 10
2321.085662
 20
595.208304
 30
0.0
 10
2317.351874
 20
591.626504
 30
0.0
 10
2316.837800
 20
588.370228
 30
0.0
 10
2316.576902
 20
586.717635
 30
0.0
 11
2335.356401
 21
586.717635
 31
0.0
 11
2334.068178
 21
591.448676
 31
0.0
 11
2330.700267
 21
594.809840
 31
0.0
 11
2325.966651
 21
596.088573
 31
0.0
 11
2321.233036
 21
594.809840
 31
0.0
 11
2317.865125
 21
591.448676
 31
0.0
 11
2316.576902
 21
586.717635
 31
0.0
  0
LWPOLYLINE
  5
137
100
AcDbEntity
  8
0
 62
7
100
AcDbPolyline
 90
2
 70
0
 10
2365.403638
 20
586.717635
 30
0.0
 10
2376.671376
 20
586.717635
 30
0.0
  0
SPLINE
  5
138
100
AcDbEntity
  8
0
 62
7
100
AcDbSpline
 70
0
 71
3
 72
13
 73
9
 74
7
 40
0.000000
 40
0.000000
 40
0.000000
 40
0.000000
 40
4.903292
 40
9.661468
 40
14.564760
 40
19.468052
 40
24.226229
 40
29.129521
 40
29.129521
 40
29.129521
 40
29.129521
 10
2365.403638
 20
586.717635
 30
0.0
 10
2365.142740
 20
588.370228
 30
0.0
 10
2364.628666
 20
591.626504
 30
0.0
 10
2360.894878
 20
595.208304
 30
0.0
 10
2356.013889
 20
596.535318
 30
0.0
 10
2351.132899
 20
595.208304
 30
0.0
 10
2347.399111
 20
591.626504
 30
0.0
 10
2346.885037
 20
588.370228
 30
0.0
 10
2346.624139
 20
586.717635
 30
0.0
 11
2365.403638
 21
586.717635
 31
0.0
 11
2364.115415
 21
591.448676
 31
0.0
 11
2360.747504
 21
594.809840
 31
0.0
 11
2356.013889
 21
596.088573
 31
0.0
 11
2351.280273
 21
594.809840
 31
0.0
 11
2347.912362
 21
591.448676
 31
0.0
 11
2346.624139
 21
586.717635
 31
0.0
  0
LWPOLYLINE
  5
139
100
AcDbEntity
  8
0
 62
7
100
AcDbPolyline
 90
2
 70
0
 10
2395.450974
 20
586.717635
 30
0.0
 10
2406.718614
 20
586.717635
 30
0.0
  0
SPLINE
  5
13a
100
AcDbEntity
  8
0
 62
7
100
AcDbSpline
 70
0
 71
3
 72
16
 73
12
 74
10
 40
0.000000
 40
0.000000
 40
0.000000
 40
0.000000
 40
3.276703
 40
6.506511
 40
9.783214
 40
13.059917
 40
16.289725
 40
19.566428
 40
22.843130
 40
26.072939
 40
29.349641
 40
29.349641
 40
29.349641
 40
29.349641
 10
2395.450974
 20
586.717635
 30
0.0
 10
2395.338787
 20
587.815440
 30
0.0
 10
2395.116018
 20
589.995338
 30
0.0
 10
2393.387645
 20
592.876108
 30
0.0
 10
2390.857140
 20
595.017884
 30
0.0
 10
2387.723135
 20
596.153811
 30
0.0
 10
2384.399215
 20
596.153811
 30
0.0
 10
2381.265210
 20
595.017884
 30
0.0
 10
2378.734706
 20
592.876108
 30
0.0
 10
2377.006333
 20
589.995338
 30
0.0
 10
2376.783564
 20
587.815440
 30
0.0
 10
2376.671376
 20
586.717635
 30
0.0
 11
2395.450974
 21
586.717635
 31
0.0
 11
2394.879381
 21
589.944098
 31
0.0
 11
2393.264477
 21
592.741194
 31
0.0
 11
2390.756075
 21
594.849439
 31
0.0
 11
2387.676079
 21
595.967656
 31
0.0
 11
2384.446271
 21
595.967656
 31
0.0
 11
2381.366276
 21
594.849439
 31
0.0
 11
2378.857874
 21
592.741194
 31
0.0
 11
2377.242969
 21
589.944098
 31
0.0
 11
2376.671376
 21
586.717635
 31
0.0
  0
SPLINE
  5
13b
100
AcDbEntity
  8
0
 62
7
100
AcDbSpline
 70
0
 71
3
 72
16
 73
12
 74
10
 40
0.000000
 40
0.000000
 40
0.000000
 40
0.000000
 40
3.276703
 40
6.506511
 40
9.783214
 40
13.059917
 40
16.289725
 40
19.566428
 40
22.843130
 40
26.072939
 40
29.349641
 40
29.349641
 40
29.349641
 40
29.349641
 10
2425.498211
 20
586.717635
 30
0.0
 10
2425.386024
 20
587.815440
 30
0.0
 10
2425.163255
 20
589.995338
 30
0.0
 10
2423.434882
 20
592.876108
 30
0.0
 10
2420.904377
 20
595.017884
 30
0.0
 10
2417.770372
 20
596.153811
 30
0.0
 10
2414.446452
 20
596.153811
 30
0.0
 10
2411.312447
 20
595.017884
 30
0.0
 10
2408.781943
 20
592.876108
 30
0.0
 10
2407.053570
 20
589.995338
 30
0.0
 10
2406.830801
 20
587.815440
 30
0.0
 10
2406.718614
 20
586.717635
 30
0.0
 11
2425.498211
 21
586.717635
 31
0.0
 11
2424.926618
 21
589.944098
 31
0.0
 11
2423.311714
 21
592.741194
 31
0.0
 11
2420.803312
 21
594.849439
 31
0.0
 11
2417.723316
 21
595.967656
 31
0.0
 11
2414.493508
 21
595.967656
 31
0.0
 11
2411.413513
 21
594.849439
 31
0.0
 11
2408.905111
 21
592.741194
 31
0.0
 11
2407.290207
 21
589.944098
 31
0.0
 11
2406.718614
 21
586.717635
 31
0.0
  0
LWPOLYLINE
  5
13c
100
AcDbEntity
  8
0
 62
7
100
AcDbPolyline
 90
2
 70
0
 10
2425.498211
 20
586.717635
 30
0.0
 10
2436.765950
 20
586.717635
 30
0.0
  0
SPLINE
  5
13d
100
AcDbEntity
  8
0
 62
7
100
AcDbSpline
 70
0
 71
3
 72
13
 73
9
 74
7
 40
0.000000
 40
0.000000
 40
0.000000
 40
0.000000
 40
4.903292
 40
9.661468
 40
14.564760
 40
19.468052
 40
24.226229
 40
29.129521
 40
29.129521
 40
29.129521
 40
29.129521
 10
2436.765950
 20
651.898720
 30
0.0
 10
2437.026848
 20
650.246127
 30
0.0
 10
2437.540921
 20
646.989851
 30
0.0
 10
2441.274710
 20
643.408051
 30
0.0
 10
2446.155699
 20
642.081037
 30
0.0
 10
2451.036689
 20
643.408051
 30
0.0
 10
2454.770477
 20
646.989851
 30
0.0
 10
2455.284551
 20
650.246127
 30
0.0
 10
2455.545448
 20
651.898720
 30
0.0
 11
2436.765950
 21
651.898720
 31
0.0
 11
2438.054173
 21
647.167678
 31
0.0
 11
2441.422084
 21
643.806515
 31
0.0
 11
2446.155699
 21
642.527782
 31
0.0
 11
2450.889315
 21
643.806515
 31
0.0
 11
2454.257225
 21
647.167678
 31
0.0
 11
2455.545448
 21
651.898720
 31
0.0
  0
LWPOLYLINE
  5
13e
100
AcDbEntity
  8
0
 62
7
100
AcDbPolyline
 90
3
 70
0
 10
2455.545448
 20
651.898720
 30
0.0
 10
2466.813187
 20
651.898720
 30
0.0
 10
2489.828249
 20
651.898720
 30
0.0
  0
SPLINE
  5
13f
100
AcDbEntity
  8
0
 62
7
100
AcDbSpline
 70
0
 71
3
 72
10
 73
6
 74
4
 40
0.000000
 40
0.000000
 40
0.000000
 40
0.000000
 40
3.222270
 40
6.412930
 40
9.635200
 40
9.635200
 40
9.635200
 40
9.635200
 10
2498.352938
 20
647.999243
 30
0.0
 10
2497.580147
 20
648.752391
 30
0.0
 10
2496.042145
 20
650.251299
 30
0.0
 10
2493.043147
 20
651.623141
 30
0.0
 10
2490.903397
 20
651.806559
 30
0.0
 10
2489.828249
 20
651.898720
 30
0.0
 11
2498.352938
 21
647.999243
 31
0.0
 11
2495.918920
 21
650.110778
 31
0.0
 11
2493.017415
 21
651.438023
 31
0.0
 11
2489.828249
 21
651.898720
 31
0.0
  0
LWPOLYLINE
  5
140
100
AcDbEntity
  8
0
 62
7
100
AcDbPolyline
 90
2
 70
0
 10
2516.783133
 20
626.676439
 30
0.0
 10
2498.352938
 20
647.999243
 30
0.0
  0
SPLINE
  5
141
100
AcDbEntity
  8
0
 62
7
100
AcDbSpline
 70
0
 71
3
 72
10
 73
6
 74
4
 40
0.000000
 40
0.000000
 40
0.000000
 40
0.000000
 40
5.348940
 40
10.563684
 40
15.912624
 40
15.912624
 40
15.912624
 40
15.912624
 10
2516.783133
 20
611.939915
 30
0.0
 10
2517.760919
 20
613.460989
 30
0.0
 10
2519.691960
 20
616.464975
 30
0.0
 10
2519.691960
 20
622.151380
 30
0.0
 10
2517.760919
 20
625.155366
 30
0.0
 10
2516.783133
 20
626.676439
 30
0.0
 11
2516.783133
 21
611.939915
 31
0.0
 11
2519.221387
 21
616.700806
 31
0.0
 11
2519.221387
 21
621.915549
 31
0.0
 11
2516.783133
 21
626.676439
 31
0.0
  0
LWPOLYLINE
  5
142
100
AcDbEntity
  8
0
 62
7
100
AcDbPolyline
 90
2
 70
0
 10
2516.783133
 20
611.939915
 30
0.0
 10
2498.352938
 20
590.617112
 30
0.0
  0
LWPOLYLINE
  5
143
100
AcDbEntity
  8
0
 62
7
100
AcDbPolyline
 90
2
 70
0
 10
2466.813187
 20
586.717635
 30
0.0
 10
2489.828249
 20
586.717635
 30
0.0
  0
SPLINE
  5
144
100
AcDbEntity
  8
0
 62
7
100
AcDbSpline
 70
0
 71
3
 72
10
 73
6
 74
4
 40
0.000000
 40
0.000000
 40
0.000000
 40
0.000000
 40
3.222270
 40
6.412930
 40
9.635200
 40
9.635200
 40
9.635200
 40
9.635200
 10
2489.828249
 20
586.717635
 30
0.0
 10
2490.903397
 20
586.809796
 30
0.0
 10
2493.043147
 20
586.993214
 30
0.0
 10
2496.042145
 20
588.365056
 30
0.0
 10
2497.580147
 20
589.863964
 30
0.0
 10
2498.352938
 20
590.617112
 30
0.0
 11
2489.828249
 21
586.717635
 31
0.0
 11
2493.017415
 21
587.178332
 31
0.0
 11
2495.918920
 21
588.505577
 31
0.0
 11
2498.352938
 21
590.617112
 31
0.0
  0
LWPOLYLINE
  5
145
100
AcDbEntity
  8
0
 62
7
100
AcDbPolyline
 90
2
 70
0
 10
2455.545448
 20
586.717635
 30
0.0
 10
2466.813187
 20
586.717635
 30
0.0
  0
SPLINE
  5
146
100
AcDbEntity
  8
0
 62
7
100
AcDbSpline
 70
0
 71
3
 72
13
 73
9
 74
7
 40
0.000000
 40
0.000000
 40
0.000000
 40
0.000000
 40
4.903292
 40
9.661468
 40
14.564760
 40
19.468052
 40
24.226229
 40
29.129521
 40
29.129521
 40
29.129521
 40
29.129521
 10
2455.545448
 20
586.717635
 30
0.0
 10
2455.284551
 20
588.370228
 30
0.0
 10
2454.770477
 20
591.626504
 30
0.0
 10
2451.036689
 20
595.208304
 30
0.0
 10
2446.155699
 20
596.535318
 30
0.0
 10
2441.274710
 20
595.208304
 30
0.0
 10
2437.540921
 20
591.626504
 30
0.0
 10
2437.026848
 20
588.370228
 30
0.0
 10
2436.765950
 20
586.717635
 30
0.0
 11
2455.545448
 21
586.717635
 31
0.0
 11
2454.257225
 21
591.448676
 31
0.0
 11
2450.889315
 21
594.809840
 31
0.0
 11
2446.155699
 21
596.088573
 31
0.0
 11
2441.422084
 21
594.809840
 31
0.0
 11
2438.054173
 21
591.448676
 31
0.0
 11
2436.765950
 21
586.717635
 31
0.0
  0
LWPOLYLINE
  5
147
100
AcDbEntity
  8
0
 62
7
100
AcDbPolyline
 90
2
 70
0
 10
2425.498211
 20
651.898720
 30
0.0
 10
2436.765950
 20
651.898720
 30
0.0
  0
SPLINE
  5
148
100
AcDbEntity
  8
0
 62
7
100
AcDbSpline
 70
0
 71
3
 72
16
 73
12
 74
10
 40
0.000000
 40
0.000000
 40
0.000000
 40
0.000000
 40
3.276703
 40
6.506511
 40
9.783214
 40
13.059917
 40
16.289725
 40
19.566428
 40
22.843130
 40
26.072939
 40
29.349641
 40
29.349641
 40
29.349641
 40
29.349641
 10
2406.718614
 20
651.898720
 30
0.0
 10
2406.830801
 20
650.800915
 30
0.0
 10
2407.053570
 20
648.621017
 30
0.0
 10
2408.781943
 20
645.740247
 30
0.0
 10
2411.312447
 20
643.598470
 30
0.0
 10
2414.446452
 20
642.462544
 30
0.0
 10
2417.770372
 20
642.462544
 30
0.0
 10
2420.904377
 20
643.598470
 30
0.0
 10
2423.434882
 20
645.740247
 30
0.0
 10
2425.163255
 20
648.621017
 30
0.0
 10
2425.386024
 20
650.800915
 30
0.0
 10
2425.498211
 20
651.898720
 30
0.0
 11
2406.718614
 21
651.898720
 31
0.0
 11
2407.290207
 21
648.672257
 31
0.0
 11
2408.905111
 21
645.875161
 31
0.0
 11
2411.413513
 21
643.766916
 31
0.0
 11
2414.493508
 21
642.648698
 31
0.0
 11
2417.723316
 21
642.648698
 31
0.0
 11
2420.803312
 21
643.766916
 31
0.0
 11
2423.311714
 21
645.875161
 31
0.0
 11
2424.926618
 21
648.672257
 31
0.0
 11
2425.498211
 21
651.898720
 31
0.0
  0
LWPOLYLINE
  5
149
100
AcDbEntity
  8
0
 62
7
100
AcDbPolyline
 90
2
 70
0
 10
2395.450974
 20
651.898720
 30
0.0
 10
2406.718614
 20
651.898720
 30
0.0
  0
SPLINE
  5
14a
100
AcDbEntity
  8
0
 62
7
100
AcDbSpline
 70
0
 71
3
 72
16
 73
12
 74
10
 40
0.000000
 40
0.000000
 40
0.000000
 40
0.000000
 40
3.276703
 40
6.506511
 40
9.783214
 40
13.059917
 40
16.289725
 40
19.566428
 40
22.843130
 40
26.072939
 40
29.349641
 40
29.349641
 40
29.349641
 40
29.349641
 10
2376.671376
 20
651.898720
 30
0.0
 10
2376.783564
 20
650.800915
 30
0.0
 10
2377.006333
 20
648.621017
 30
0.0
 10
2378.734706
 20
645.740247
 30
0.0
 10
2381.265210
 20
643.598470
 30
0.0
 10
2384.399215
 20
642.462544
 30
0.0
 10
2387.723135
 20
642.462544
 30
0.0
 10
2390.857140
 20
643.598470
 30
0.0
 10
2393.387645
 20
645.740247
 30
0.0
 10
2395.116018
 20
648.621017
 30
0.0
 10
2395.338787
 20
650.800915
 30
0.0
 10
2395.450974
 20
651.898720
 30
0.0
 11
2376.671376
 21
651.898720
 31
0.0
 11
2377.242969
 21
648.672257
 31
0.0
 11
2378.857874
 21
645.875161
 31
0.0
 11
2381.366276
 21
643.766916
 31
0.0
 11
2384.446271
 21
642.648698
 31
0.0
 11
2387.676079
 21
642.648698
 31
0.0
 11
2390.756075
 21
643.766916
 31
0.0
 11
2393.264477
 21
645.875161
 31
0.0
 11
2394.879381
 21
648.672257
 31
0.0
 11
2395.450974
 21
651.898720
 31
0.0
  0
LWPOLYLINE
  5
14b
100
AcDbEntity
  8
0
 62
7
100
AcDbPolyline
 90
2
 70
0
 10
2365.403638
 20
651.898720
 30
0.0
 10
2376.671376
 20
651.898720
 30
0.0
  0
SPLINE
  5
14c
100
AcDbEntity
  8
0
 62
7
100
AcDbSpline
 70
0
 71
3
 72
13
 73
9
 74
7
 40
0.000000
 40
0.000000
 40
0.000000
 40
0.000000
 40
4.903292
 40
9.661468
 40
14.564760
 40
19.468052
 40
24.226229
 40
29.129521
 40
29.129521
 40
29.129521
 40
29.129521
 10
2346.624139
 20
651.898720
 30
0.0
 10
2346.885037
 20
650.246127
 30
0.0
 10
2347.399111
 20
646.989851
 30
0.0
 10
2351.132899
 20
643.408051
 30
0.0
 10
2356.013889
 20
642.081037
 30
0.0
 10
2360.894878
 20
643.408051
 30
0.0
 10
2364.628666
 20
646.989851
 30
0.0
 10
2365.142740
 20
650.246127
 30
0.0
 10
2365.403638
 20
651.898720
 30
0.0
 11
2346.624139
 21
651.898720
 31
0.0
 11
2347.912362
 21
647.167678
 31
0.0
 11
2351.280273
 21
643.806515
 31
0.0
 11
2356.013889
 21
642.527782
 31
0.0
 11
2360.747504
 21
643.806515
 31
0.0
 11
2364.115415
 21
647.167678
 31
0.0
 11
2365.403638
 21
651.898720
 31
0.0
  0
LWPOLYLINE
  5
14d
100
AcDbEntity
  8
0
 62
7
100
AcDbPolyline
 90
2
 70
0
 10
2335.356401
 20
651.898720
 30
0.0
 10
2346.624139
 20
651.898720
 30
0.0
  0
SPLINE
  5
14e
100
AcDbEntity
  8
0
 62
7
100
AcDbSpline
 70
0
 71
3
 72
13
 73
9
 74
7
 40
0.000000
 40
0.000000
 40
0.000000
 40
0.000000
 40
4.903292
 40
9.661468
 40
14.564760
 40
19.468052
 40
24.226229
 40
29.129521
 40
29.129521
 40
29.129521
 40
29.129521
 10
2316.576902
 20
651.898720
 30
0.0
 10
2316.837800
 20
650.246127
 30
0.0
 10
2317.351874
 20
646.989851
 30
0.0
 10
2321.085662
 20
643.408051
 30
0.0
 10
2325.966651
 20
642.081037
 30
0.0
 10
2330.847641
 20
643.408051
 30
0.0
 10
2334.581429
 20
646.989851
 30
0.0
 10
2335.095503
 20
650.246127
 30
0.0
 10
2335.356401
 20
651.898720
 30
0.0
 11
2316.576902
 21
651.898720
 31
0.0
 11
2317.865125
 21
647.167678
 31
0.0
 11
2321.233036
 21
643.806515
 31
0.0
 11
2325.966651
 21
642.527782
 31
0.0
 11
2330.700267
 21
643.806515
 31
0.0
 11
2334.068178
 21
647.167678
 31
0.0
 11
2335.356401
 21
651.898720
 31
0.0
  0
LWPOLYLINE
  5
14f
100
AcDbEntity
  8
0
 62
7
100
AcDbPolyline
 90
2
 70
0
 10
2305.309163
 20
651.898720
 30
0.0
 10
2316.576902
 20
651.898720
 30
0.0
  0
SPLINE
  5
150
100
AcDbEntity
  8
0
 62
7
100
AcDbSpline
 70
0
 71
3
 72
13
 73
9
 74
7
 40
0.000000
 40
0.000000
 40
0.000000
 40
0.000000
 40
4.903292
 40
9.661468
 40
14.564760
 40
19.468052
 40
24.226229
 40
29.129521
 40
29.129521
 40
29.129521
 40
29.129521
 10
2286.529665
 20
651.898720
 30
0.0
 10
2286.790563
 20
650.246127
 30
0.0
 10
2287.304637
 20
646.989851
 30
0.0
 10
2291.038425
 20
643.408051
 30
0.0
 10
2295.919414
 20
642.081037
 30
0.0
 10
2300.800404
 20
643.408051
 30
0.0
 10
2304.534192
 20
646.989851
 30
0.0
 10
2305.048266
 20
650.246127
 30
0.0
 10
2305.309163
 20
651.898720
 30
0.0
 11
2286.529665
 21
651.898720
 31
0.0
 11
2287.817888
 21
647.167678
 31
0.0
 11
2291.185799
 21
643.806515
 31
0.0
 11
2295.919414
 21
642.527782
 31
0.0
 11
2300.653030
 21
643.806515
 31
0.0
 11
2304.020940
 21
647.167678
 31
0.0
 11
2305.309163
 21
651.898720
 31
0.0
  0
LWPOLYLINE
  5
151
100
AcDbEntity
  8
0
 62
7
100
AcDbPolyline
 90
2
 70
0
 10
2275.261926
 20
651.898720
 30
0.0
 10
2286.529665
 20
651.898720
 30
0.0
  0
SPLINE
  5
152
100
AcDbEntity
  8
0
 62
7
100
AcDbSpline
 70
0
 71
3
 72
13
 73
9
 74
7
 40
0.000000
 40
0.000000
 40
0.000000
 40
0.000000
 40
4.909542
 40
9.673468
 40
14.583009
 40
19.492551
 40
24.256477
 40
29.166018
 40
29.166018
 40
29.166018
 40
29.166018
 10
2256.482329
 20
651.898720
 30
0.0
 10
2256.740597
 20
650.243454
 30
0.0
 10
2257.249473
 20
646.982016
 30
0.0
 10
2260.984922
 20
643.391439
 30
0.0
 10
2265.872127
 20
642.061022
 30
0.0
 10
2270.759333
 20
643.391439
 30
0.0
 10
2274.494782
 20
646.982016
 30
0.0
 10
2275.003658
 20
650.243454
 30
0.0
 10
2275.261926
 20
651.898720
 30
0.0
 11
2256.482329
 21
651.898720
 31
0.0
 11
2257.764312
 21
647.159509
 31
0.0
 11
2261.132917
 21
643.790905
 31
0.0
 11
2265.872127
 21
642.508923
 31
0.0
 11
2270.611338
 21
643.790905
 31
0.0
 11
2273.979943
 21
647.159509
 31
0.0
 11
2275.261926
 21
651.898720
 31
0.0
  0
LWPOLYLINE
  5
153
100
AcDbEntity
  8
0
 62
7
100
AcDbPolyline
 90
2
 70
0
 10
2245.214689
 20
651.898720
 30
0.0
 10
2256.482329
 20
651.898720
 30
0.0
  0
SPLINE
  5
154
100
AcDbEntity
  8
0
 62
7
100
AcDbSpline
 70
0
 71
3
 72
16
 73
12
 74
10
 40
0.000000
 40
0.000000
 40
0.000000
 40
0.000000
 40
3.276703
 40
6.506511
 40
9.783214
 40
13.059917
 40
16.289725
 40
19.566428
 40
22.843130
 40
26.072939
 40
29.349641
 40
29.349641
 40
29.349641
 40
29.349641
 10
2226.435092
 20
651.898720
 30
0.0
 10
2226.547279
 20
650.800915
 30
0.0
 10
2226.770048
 20
648.621017
 30
0.0
 10
2228.498421
 20
645.740247
 30
0.0
 10
2231.028925
 20
643.598470
 30
0.0
 10
2234.162930
 20
642.462544
 30
0.0
 10
2237.486850
 20
642.462544
 30
0.0
 10
2240.620855
 20
643.598470
 30
0.0
 10
2243.151360
 20
645.740247
 30
0.0
 10
2244.879733
 20
648.621017
 30
0.0
 10
2245.102502
 20
650.800915
 30
0.0
 10
2245.214689
 20
651.898720
 30
0.0
 11
2226.435092
 21
651.898720
 31
0.0
 11
2227.006685
 21
648.672257
 31
0.0
 11
2228.621589
 21
645.875161
 31
0.0
 11
2231.129991
 21
643.766916
 31
0.0
 11
2234.209986
 21
642.648698
 31
0.0
 11
2237.439794
 21
642.648698
 31
0.0
 11
2240.519790
 21
643.766916
 31
0.0
 11
2243.028192
 21
645.875161
 31
0.0
 11
2244.643096
 21
648.672257
 31
0.0
 11
2245.214689
 21
651.898720
 31
0.0
  0
LWPOLYLINE
  5
155
100
AcDbEntity
  8
0
 62
7
100
AcDbPolyline
 90
2
 70
0
 10
2215.167353
 20
651.898720
 30
0.0
 10
2226.435092
 20
651.898720
 30
0.0
  0
SPLINE
  5
156
100
AcDbEntity
  8
0
 62
7
100
AcDbSpline
 70
0
 71
3
 72
13
 73
9
 74
7
 40
0.000000
 40
0.000000
 40
0.000000
 40
0.000000
 40
4.903292
 40
9.661468
 40
14.564760
 40
19.468052
 40
24.226229
 40
29.129521
 40
29.129521
 40
29.129521
 40
29.129521
 10
2196.387854
 20
651.898720
 30
0.0
 10
2196.648752
 20
650.246127
 30
0.0
 10
2197.162826
 20
646.989851
 30
0.0
 10
2200.896614
 20
643.408051
 30
0.0
 10
2205.777604
 20
642.081037
 30
0.0
 10
2210.658593
 20
643.408051
 30
0.0
 10
2214.392381
 20
646.989851
 30
0.0
 10
2214.906455
 20
650.246127
 30
0.0
 10
2215.167353
 20
651.898720
 30
0.0
 11
2196.387854
 21
651.898720
 31
0.0
 11
2197.676077
 21
647.167678
 31
0.0
 11
2201.043988
 21
643.806515
 31
0.0
 11
2205.777604
 21
642.527782
 31
0.0
 11
2210.511219
 21
643.806515
 31
0.0
 11
2213.879130
 21
647.167678
 31
0.0
 11
2215.167353
 21
651.898720
 31
0.0
  0
LWPOLYLINE
  5
157
100
AcDbEntity
  8
0
 62
7
100
AcDbPolyline
 90
2
 70
0
 10
2185.120116
 20
651.898720
 30
0.0
 10
2196.387854
 20
651.898720
 30
0.0
  0
SPLINE
  5
158
100
AcDbEntity
  8
0
 62
7
100
AcDbSpline
 70
0
 71
3
 72
13
 73
9
 74
7
 40
0.000000
 40
0.000000
 40
0.000000
 40
0.000000
 40
4.903292
 40
9.661468
 40
14.564760
 40
19.468052
 40
24.226229
 40
29.129521
 40
29.129521
 40
29.129521
 40
29.129521
 10
2166.340617
 20
651.898720
 30
0.0
 10
2166.601515
 20
650.246127
 30
0.0
 10
2167.115589
 20
646.989851
 30
0.0
 10
2170.849377
 20
643.408051
 30
0.0
 10
2175.730366
 20
642.081037
 30
0.0
 10
2180.611356
 20
643.408051
 30
0.0
 10
2184.345144
 20
646.989851
 30
0.0
 10
2184.859218
 20
650.246127
 30
0.0
 10
2185.120116
 20
651.898720
 30
0.0
 11
2166.340617
 21
651.898720
 31
0.0
 11
2167.628840
 21
647.167678
 31
0.0
 11
2170.996751
 21
643.806515
 31
0.0
 11
2175.730366
 21
642.527782
 31
0.0
 11
2180.463982
 21
643.806515
 31
0.0
 11
2183.831893
 21
647.167678
 31
0.0
 11
2185.120116
 21
651.898720
 31
0.0
  0
LWPOLYLINE
  5
159
100
AcDbEntity
  8
0
 62
7
100
AcDbPolyline
 90
2
 70
0
 10
2155.072879
 20
651.898720
 30
0.0
 10
2166.340617
 20
651.898720
 30
0.0
  0
SPLINE
  5
15a
100
AcDbEntity
  8
0
 62
7
100
AcDbSpline
 70
0
 71
3
 72
13
 73
9
 74
7
 40
0.000000
 40
0.000000
 40
0.000000
 40
0.000000
 40
4.903292
 40
9.661468
 40
14.564760
 40
19.468052
 40
24.226229
 40
29.129521
 40
29.129521
 40
29.129521
 40
29.129521
 10
2136.293380
 20
651.898720
 30
0.0
 10
2136.554278
 20
650.246127
 30
0.0
 10
2137.068352
 20
646.989851
 30
0.0
 10
2140.802140
 20
643.408051
 30
0.0
 10
2145.683129
 20
642.081037
 30
0.0
 10
2150.564119
 20
643.408051
 30
0.0
 10
2154.297907
 20
646.989851
 30
0.0
 10
2154.811981
 20
650.246127
 30
0.0
 10
2155.072879
 20
651.898720
 30
0.0
 11
2136.293380
 21
651.898720
 31
0.0
 11
2137.581603
 21
647.167678
 31
0.0
 11
2140.949514
 21
643.806515
 31
0.0
 11
2145.683129
 21
642.527782
 31
0.0
 11
2150.416745
 21
643.806515
 31
0.0
 11
2153.784656
 21
647.167678
 31
0.0
 11
2155.072879
 21
651.898720
 31
0.0
  0
LWPOLYLINE
  5
15b
100
AcDbEntity
  8
0
 62
7
100
AcDbPolyline
 90
2
 70
0
 10
2125.025641
 20
651.898720
 30
0.0
 10
2136.293380
 20
651.898720
 30
0.0
  0
SPLINE
  5
15c
100
AcDbEntity
  8
0
 62
7
100
AcDbSpline
 70
0
 71
3
 72
16
 73
12
 74
10
 40
0.000000
 40
0.000000
 40
0.000000
 40
0.000000
 40
3.276703
 40
6.506511
 40
9.783214
 40
13.059917
 40
16.289725
 40
19.566428
 40
22.843130
 40
26.072939
 40
29.349641
 40
29.349641
 40
29.349641
 40
29.349641
 10
2106.246044
 20
651.898720
 30
0.0
 10
2106.358231
 20
650.800915
 30
0.0
 10
2106.581000
 20
648.621017
 30
0.0
 10
2108.309373
 20
645.740247
 30
0.0
 10
2110.839878
 20
643.598470
 30
0.0
 10
2113.973883
 20
642.462544
 30
0.0
 10
2117.297803
 20
642.462544
 30
0.0
 10
2120.431808
 20
643.598470
 30
0.0
 10
2122.962312
 20
645.740247
 30
0.0
 10
2124.690685
 20
648.621017
 30
0.0
 10
2124.913454
 20
650.800915
 30
0.0
 10
2125.025641
 20
651.898720
 30
0.0
 11
2106.246044
 21
651.898720
 31
0.0
 11
2106.817637
 21
648.672257
 31
0.0
 11
2108.432541
 21
645.875161
 31
0.0
 11
2110.940943
 21
643.766916
 31
0.0
 11
2114.020939
 21
642.648698
 31
0.0
 11
2117.250747
 21
642.648698
 31
0.0
 11
2120.330742
 21
643.766916
 31
0.0
 11
2122.839144
 21
645.875161
 31
0.0
 11
2124.454048
 21
648.672257
 31
0.0
 11
2125.025641
 21
651.898720
 31
0.0
  0
LWPOLYLINE
  5
15d
100
AcDbEntity
  8
0
 62
7
100
AcDbPolyline
 90
2
 70
0
 10
2094.978305
 20
651.898720
 30
0.0
 10
2106.246044
 20
651.898720
 30
0.0
  0
LWPOLYLINE
  5
15e
100
AcDbEntity
  8
0
 62
7
100
AcDbPolyline
 90
2
 70
0
 10
739.095861
 20
572.359332
 30
0.0
 10
70.544378
 20
572.359332
 30
0.0
  0
LWPOLYLINE
  5
15f
100
AcDbEntity
  8
0
 62
7
100
AcDbPolyline
 90
2
 70
0
 10
70.544378
 20
666.257023
 30
0.0
 10
739.095861
 20
666.257023
 30
0.0
  0
LWPOLYLINE
  5
160
100
AcDbEntity
  8
0
 62
7
100
AcDbPolyline
 90
2
 70
0
 10
63.032569
 20
572.359332
 30
0.0
 10
21.717593
 20
572.359332
 30
0.0
  0
LWPOLYLINE
  5
161
100
AcDbEntity
  8
0
 62
7
100
AcDbPolyline
 90
2
 70
0
 10
61.154619
 20
586.717635
 30
0.0
 10
70.544378
 20
572.359332
 30
0.0
  0
LWPOLYLINE
  5
162
100
AcDbEntity
  8
0
 62
7
100
AcDbPolyline
 90
3
 70
0
 10
63.032569
 20
572.359332
 30
0.0
 10
53.642800
 20
586.717635
 30
0.0
 10
61.154619
 20
586.717635
 30
0.0
  0
LWPOLYLINE
  5
163
100
AcDbEntity
  8
0
 62
7
100
AcDbPolyline
 90
5
 70
0
 10
21.717593
 20
666.257023
 30
0.0
 10
63.032569
 20
666.257023
 30
0.0
 10
53.642800
 20
651.898720
 30
0.0
 10
61.154619
 20
651.898720
 30
0.0
 10
70.544378
 20
666.257023
 30
0.0
  0
LWPOLYLINE
  5
164
100
AcDbEntity
  8
0
 62
7
100
AcDbPolyline
 90
2
 70
0
 10
25.473493
 20
651.898720
 30
0.0
 10
25.473493
 20
586.717635
 30
0.0
  0
LWPOLYLINE
  5
165
100
AcDbEntity
  8
0
 62
7
100
AcDbPolyline
 90
3
 70
0
 10
32.985312
 20
586.717635
 30
0.0
 10
32.985312
 20
651.898720
 30
0.0
 10
25.473493
 20
651.898720
 30
0.0
  0
LWPOLYLINE
  5
166
100
AcDbEntity
  8
0
 62
7
100
AcDbPolyline
 90
2
 70
0
 10
25.473493
 20
586.717635
 30
0.0
 10
32.985312
 20
586.717635
 30
0.0
  0
LWPOLYLINE
  5
167
100
AcDbEntity
  8
0
 62
7
100
AcDbPolyline
 90
2
 70
0
 10
91.201876
 20
586.717635
 30
0.0
 10
91.201876
 20
651.898720
 30
0.0
  0
LWPOLYLINE
  5
168
100
AcDbEntity
  8
0
 62
7
100
AcDbPolyline
 90
3
 70
0
 10
87.445967
 20
651.898720
 30
0.0
 10
87.445967
 20
586.717635
 30
0.0
 10
91.201876
 20
586.717635
 30
0.0
  0
LWPOLYLINE
  5
169
100
AcDbEntity
  8
0
 62
7
100
AcDbPolyline
 90
2
 70
0
 10
91.201876
 20
651.898720
 30
0.0
 10
87.445967
 20
651.898720
 30
0.0
  0
LWPOLYLINE
  5
16a
100
AcDbEntity
  8
0
 62
7
100
AcDbPolyline
 90
2
 70
0
 10
165.561956
 20
587.044976
 30
0.0
 10
162.326275
 20
624.029088
 30
0.0
  0
LWPOLYLINE
  5
16b
100
AcDbEntity
  8
0
 62
7
100
AcDbPolyline
 90
3
 70
0
 10
158.584655
 20
623.701747
 30
0.0
 10
161.820337
 20
586.717635
 30
0.0
 10
165.561956
 20
587.044976
 30
0.0
  0
LWPOLYLINE
  5
16c
100
AcDbEntity
  8
0
 62
7
100
AcDbPolyline
 90
2
 70
0
 10
162.326275
 20
624.029088
 30
0.0
 10
158.584655
 20
623.701747
 30
0.0
  0
LWPOLYLINE
  5
16d
100
AcDbEntity
  8
0
 62
7
100
AcDbPolyline
 90
2
 70
0
 10
203.144475
 20
587.044976
 30
0.0
 10
199.908794
 20
624.028989
 30
0.0
  0
LWPOLYLINE
  5
16e
100
AcDbEntity
  8
0
 62
7
100
AcDbPolyline
 90
2
 70
0
 10
196.167174
 20
623.701647
 30
0.0
 10
199.402865
 20
586.717635
 30
0.0
  0
LWPOLYLINE
  5
16f
100
AcDbEntity
  8
0
 62
7
100
AcDbPolyline
 90
2
 70
0
 10
199.908794
 20
624.028989
 30
0.0
 10
196.167174
 20
623.701647
 30
0.0
  0
LWPOLYLINE
  5
170
100
AcDbEntity
  8
0
 62
7
100
AcDbPolyline
 90
2
 70
0
 10
199.402865
 20
586.717635
 30
0.0
 10
203.144475
 20
587.044976
 30
0.0
  0
LWPOLYLINE
  5
171
100
AcDbEntity
  8
0
 62
7
100
AcDbPolyline
 90
3
 70
0
 10
236.984370
 20
586.717635
 30
0.0
 10
240.725980
 20
587.044976
 30
0.0
 10
237.490299
 20
624.028989
 30
0.0
  0
LWPOLYLINE
  5
172
100
AcDbEntity
  8
0
 62
7
100
AcDbPolyline
 90
2
 70
0
 10
233.748689
 20
623.701647
 30
0.0
 10
236.984370
 20
586.717635
 30
0.0
  0
LWPOLYLINE
  5
173
100
AcDbEntity
  8
0
 62
7
100
AcDbPolyline
 90
2
 70
0
 10
237.490299
 20
624.028989
 30
0.0
 10
233.748689
 20
623.701647
 30
0.0
  0
LWPOLYLINE
  5
174
100
AcDbEntity
  8
0
 62
7
100
AcDbPolyline
 90
2
 70
0
 10
306.953117
 20
592.351504
 30
0.0
 10
306.953117
 20
651.898720
 30
0.0
  0
LWPOLYLINE
  5
175
100
AcDbEntity
  8
0
 62
7
100
AcDbPolyline
 90
2
 70
0
 10
297.064594
 20
592.351504
 30
0.0
 10
306.953117
 20
592.351504
 30
0.0
  0
LWPOLYLINE
  5
176
100
AcDbEntity
  8
0
 62
7
100
AcDbPolyline
 90
2
 70
0
 10
297.064584
 20
651.898720
 30
0.0
 10
297.064594
 20
592.351504
 30
0.0
  0
LWPOLYLINE
  5
177
100
AcDbEntity
  8
0
 62
7
100
AcDbPolyline
 90
2
 70
0
 10
306.953117
 20
651.898720
 30
0.0
 10
297.064584
 20
651.898720
 30
0.0
  0
SPLINE
  5
178
100
AcDbEntity
  8
0
 62
7
100
AcDbSpline
 70
0
 71
3
 72
13
 73
9
 74
7
 40
0.000000
 40
0.000000
 40
0.000000
 40
0.000000
 40
4.903292
 40
9.661468
 40
14.564760
 40
19.468052
 40
24.226229
 40
29.129521
 40
29.129521
 40
29.129521
 40
29.129521
 10
2076.198807
 20
651.898720
 30
0.0
 10
2076.459704
 20
650.246127
 30
0.0
 10
2076.973778
 20
646.989851
 30
0.0
 10
2080.707566
 20
643.408051
 30
0.0
 10
2085.588556
 20
642.081037
 30
0.0
 10
2090.469545
 20
643.408051
 30
0.0
 10
2094.203334
 20
646.989851
 30
0.0
 10
2094.717407
 20
650.246127
 30
0.0
 10
2094.978305
 20
651.898720
 30
0.0
 11
2076.198807
 21
651.898720
 31
0.0
 11
2077.487030
 21
647.167678
 31
0.0
 11
2080.854940
 21
643.806515
 31
0.0
 11
2085.588556
 21
642.527782
 31
0.0
 11
2090.322171
 21
643.806515
 31
0.0
 11
2093.690082
 21
647.167678
 31
0.0
 11
2094.978305
 21
651.898720
 31
0.0
  0
SPLINE
  5
179
100
AcDbEntity
  8
0
 62
7
100
AcDbSpline
 70
0
 71
3
 72
10
 73
6
 74
4
 40
0.000000
 40
0.000000
 40
0.000000
 40
0.000000
 40
7.855238
 40
15.477492
 40
23.332730
 40
23.332730
 40
23.332730
 40
23.332730
 10
6.693965
 20
587.382951
 30
0.0
 10
7.107193
 20
584.750424
 30
0.0
 10
7.921395
 20
579.563451
 30
0.0
 10
13.898093
 20
573.586757
 30
0.0
 10
19.085067
 20
572.772559
 30
0.0
 10
21.717593
 20
572.359332
 30
0.0
 11
6.693965
 21
587.382951
 31
0.0
 11
8.745134
 21
579.800242
 31
0.0
 11
14.134883
 21
574.410496
 31
0.0
 11
21.717593
 21
572.359332
 31
0.0
  0
LWPOLYLINE
  5
17a
100
AcDbEntity
  8
0
 62
7
100
AcDbPolyline
 90
2
 70
0
 10
6.693965
 20
587.382951
 30
0.0
 10
6.693965
 20
651.233404
 30
0.0
  0
LWPOLYLINE
  5
17b
100
AcDbEntity
  8
0
 62
7
100
AcDbPolyline
 90
4
 70
1
 10
1486.824553
 20
555.881003
 30
0.0
 10
1673.685728
 20
555.881003
 30
0.0
 10
1673.685728
 20
519.256221
 30
0.0
 10
1486.824553
 20
519.256221
 30
0.0
  0
LWPOLYLINE
  5
17c
100
AcDbEntity
  8
0
 62
7
100
AcDbPolyline
 90
14
 70
0
 10
177.024342
 20
572.361895
 30
0.0
 10
23.032148
 20
566.073542
 30
0.0
 10
23.032148
 20
551.049923
 30
0.0
 10
19.276238
 20
551.049923
 30
0.0
 10
19.276238
 20
558.561683
 30
0.0
 10
0.496710
 20
547.294044
 30
0.0
 10
0.496700
 20
524.758566
 30
0.0
 10
19.276238
 20
513.490827
 30
0.0
 10
19.276238
 20
521.002686
 30
0.0
 10
23.032148
 20
521.002686
 30
0.0
 10
23.032148
 20
512.364113
 30
0.0
 10
120.685738
 20
516.351835
 30
0.0
 10
177.024342
 20
489.731944
 30
0.0
 10
732.898606
 20
489.731944
 30
0.0
  0
SPLINE
  5
17d
100
AcDbEntity
  8
0
 62
7
100
AcDbSpline
 70
0
 71
3
 72
10
 73
6
 74
4
 40
0.000000
 40
0.000000
 40
0.000000
 40
0.000000
 40
7.855238
 40
15.477492
 40
23.332730
 40
23.332730
 40
23.332730
 40
23.332730
 10
21.717593
 20
666.257023
 30
0.0
 10
19.085067
 20
665.843796
 30
0.0
 10
13.898093
 20
665.029598
 30
0.0
 10
7.921395
 20
659.052903
 30
0.0
 10
7.107193
 20
653.865930
 30
0.0
 10
6.693965
 20
651.233404
 30
0.0
 11
21.717593
 21
666.257023
 31
0.0
 11
14.134883
 21
664.205859
 31
0.0
 11
8.745134
 21
658.816113
 31
0.0
 11
6.693965
 21
651.233404
 31
0.0
  0
SPLINE
  5
17e
100
AcDbEntity
  8
0
 62
7
100
AcDbSpline
 70
0
 71
3
 72
25
 73
21
 74
19
 40
0.000000
 40
0.000000
 40
0.000000
 40
0.000000
 40
0.698070
 40
1.395464
 40
2.092142
 40
3.056310
 40
4.022203
 40
4.989743
 40
6.555701
 40
8.121256
 40
9.681435
 40
12.333166
 40
15.000748
 40
17.705459
 40
20.919014
 40
24.088857
 40
27.183458
 40
29.513664
 40
31.887930
 40
34.297346
 40
34.297346
 40
34.297346
 40
34.297346
 10
576.034344
 20
526.117122
 30
0.0
 10
575.901918
 20
526.308456
 30
0.0
 10
575.637195
 20
526.690939
 30
0.0
 10
575.250733
 20
527.271536
 30
0.0
 10
574.839031
 20
527.941506
 30
0.0
 10
574.429652
 20
528.716461
 30
0.0
 10
574.039757
 20
529.600956
 30
0.0
 10
573.641104
 20
530.697977
 30
0.0
 10
573.280846
 20
532.018423
 30
0.0
 10
573.013255
 20
533.561429
 30
0.0
 10
572.853808
 20
535.483043
 30
0.0
 10
572.930978
 20
537.782047
 30
0.0
 10
573.314146
 20
540.432469
 30
0.0
 10
573.918181
 20
543.230656
 30
0.0
 10
574.655639
 20
546.170766
 30
0.0
 10
575.720398
 20
549.153366
 30
0.0
 10
577.144276
 20
551.668787
 30
0.0
 10
578.901390
 20
553.601543
 30
0.0
 10
580.701140
 20
555.149234
 30
0.0
 10
581.968728
 20
556.116837
 30
0.0
 10
582.607178
 20
556.604193
 30
0.0
 11
576.034344
 21
526.117122
 31
0.0
 11
575.638807
 21
526.692320
 31
0.0
 11
575.254139
 21
527.274032
 31
0.0
 11
574.891203
 21
527.868707
 31
0.0
 11
574.440176
 21
528.720877
 31
0.0
 11
574.049937
 21
529.604428
 31
0.0
 11
573.718895
 21
530.513574
 31
0.0
 11
573.304971
 21
532.023835
 31
0.0
 11
573.036031
 21
533.566117
 31
0.0
 11
572.906365
 21
535.120899
 31
0.0
 11
572.979097
 21
537.771633
 31
0.0
 11
573.342308
 21
540.414372
 31
0.0
 11
573.895723
 21
543.061859
 31
0.0
 11
574.709652
 21
546.170631
 31
0.0
 11
575.814390
 21
549.141735
 31
0.0
 11
577.376175
 21
551.813323
 31
0.0
 11
578.923426
 21
553.555698
 31
0.0
 11
580.706377
 21
555.123572
 31
0.0
 11
582.607178
 21
556.604193
 31
0.0
  0
SPLINE
  5
17f
100
AcDbEntity
  8
0
 62
7
100
AcDbSpline
 70
0
 71
3
 72
25
 73
21
 74
19
 40
0.000000
 40
0.000000
 40
0.000000
 40
0.000000
 40
2.409418
 40
4.783686
 40
7.113889
 40
10.208489
 40
13.378332
 40
16.591888
 40
19.296599
 40
21.964181
 40
24.615912
 40
26.176090
 40
27.741646
 40
29.307605
 40
30.275145
 40
31.241038
 40
32.205206
 40
32.901884
 40
33.599278
 40
34.297348
 40
34.297348
 40
34.297348
 40
34.297348
 10
582.607178
 20
556.604193
 30
0.0
 10
583.245630
 20
556.116837
 30
0.0
 10
584.513218
 20
555.149233
 30
0.0
 10
586.312971
 20
553.601545
 30
0.0
 10
588.070080
 20
551.668785
 30
0.0
 10
589.493959
 20
549.153367
 30
0.0
 10
590.558717
 20
546.170766
 30
0.0
 10
591.296176
 20
543.230656
 30
0.0
 10
591.900210
 20
540.432469
 30
0.0
 10
592.283380
 20
537.782047
 30
0.0
 10
592.360542
 20
535.483044
 30
0.0
 10
592.201115
 20
533.561428
 30
0.0
 10
591.933514
 20
532.018423
 30
0.0
 10
591.573252
 20
530.697977
 30
0.0
 10
591.174600
 20
529.600955
 30
0.0
 10
590.784705
 20
528.716461
 30
0.0
 10
590.375325
 20
527.941506
 30
0.0
 10
589.963624
 20
527.271536
 30
0.0
 10
589.577161
 20
526.690939
 30
0.0
 10
589.312438
 20
526.308456
 30
0.0
 10
589.180013
 20
526.117122
 30
0.0
 11
582.607178
 21
556.604193
 31
0.0
 11
584.507981
 21
555.123572
 31
0.0
 11
586.290935
 21
553.555698
 31
0.0
 11
587.838181
 21
551.813323
 31
0.0
 11
589.399967
 21
549.141735
 31
0.0
 11
590.504704
 21
546.170631
 31
0.0
 11
591.318633
 21
543.061859
 31
0.0
 11
591.872048
 21
540.414372
 31
0.0
 11
592.235260
 21
537.771633
 31
0.0
 11
592.307991
 21
535.120899
 31
0.0
 11
592.178335
 21
533.566117
 31
0.0
 11
591.909390
 21
532.023835
 31
0.0
 11
591.495461
 21
530.513574
 31
0.0
 11
591.164420
 21
529.604428
 31
0.0
 11
590.774180
 21
528.720877
 31
0.0
 11
590.323154
 21
527.868707
 31
0.0
 11
589.960218
 21
527.274032
 31
0.0
 11
589.575550
 21
526.692320
 31
0.0
 11
589.180013
 21
526.117122
 31
0.0
  0
SPLINE
  5
180
100
AcDbEntity
  8
0
 62
7
100
AcDbSpline
 70
0
 71
3
 72
25
 73
21
 74
19
 40
0.000000
 40
0.000000
 40
0.000000
 40
0.000000
 40
0.697854
 40
1.395189
 40
2.092192
 40
3.057293
 40
4.023616
 40
4.990067
 40
6.551837
 40
8.115739
 40
9.678935
 40
12.993875
 40
16.315577
 40
19.670218
 40
24.164512
 40
28.613711
 40
32.969508
 40
36.324597
 40
39.738119
 40
43.198314
 40
43.198314
 40
43.198314
 40
43.198314
 10
284.670163
 20
531.035889
 30
0.0
 10
284.477948
 20
531.166905
 30
0.0
 10
284.093662
 20
531.428841
 30
0.0
 10
283.510443
 20
531.811361
 30
0.0
 10
282.837647
 20
532.219169
 30
0.0
 10
282.060363
 20
532.625289
 30
0.0
 10
281.173698
 20
533.010552
 30
0.0
 10
280.074614
 20
533.399153
 30
0.0
 10
278.750214
 20
533.736332
 30
0.0
 10
277.205084
 20
533.982333
 30
0.0
 10
275.064591
 20
534.168707
 30
0.0
 10
272.326663
 20
534.181097
 30
0.0
 10
269.003481
 20
533.938127
 30
0.0
 10
265.303515
 20
533.519580
 30
0.0
 10
261.231114
 20
533.042760
 30
0.0
 10
256.871192
 20
532.204262
 30
0.0
 10
253.024124
 20
530.833149
 30
0.0
 10
249.854883
 20
528.876399
 30
0.0
 10
247.182452
 20
526.753864
 30
0.0
 10
245.471050
 20
525.230153
 30
0.0
 10
244.609538
 20
524.463124
 30
0.0
 11
284.670163
 21
531.035889
 31
0.0
 11
284.092359
 21
531.427224
 31
0.0
 11
283.508121
 21
531.807937
 31
0.0
 11
282.911006
 21
532.167473
 31
0.0
 11
282.055782
 21
532.614701
 31
0.0
 11
281.169609
 21
533.000029
 31
0.0
 11
280.258477
 21
533.322310
 31
0.0
 11
278.746311
 21
533.712799
 31
0.0
 11
277.202710
 21
533.963964
 31
0.0
 11
275.645826
 21
534.104292
 31
0.0
 11
272.331061
 21
534.138319
 31
0.0
 11
269.016726
 21
533.917195
 31
0.0
 11
265.681112
 21
533.560413
 31
0.0
 11
261.223653
 21
532.986183
 31
0.0
 11
256.866342
 21
532.086622
 31
0.0
 11
252.784984
 21
530.564951
 31
0.0
 11
249.910821
 21
528.834110
 31
0.0
 11
247.215475
 21
526.739534
 31
0.0
 11
244.609538
 21
524.463124
 31
0.0
  0
LWPOLYLINE
  5
181
100
AcDbEntity
  8
0
 62
7
100
AcDbPolyline
 90
2
 70
0
 10
732.898606
 20
572.361895
 30
0.0
 10
177.024342
 20
572.361895
 30
0.0
  0
SPLINE
  5
182
100
AcDbEntity
  8
0
 62
7
100
AcDbSpline
 70
0
 71
3
 72
25
 73
21
 74
19
 40
0.000000
 40
0.000000
 40
0.000000
 40
0.000000
 40
3.460226
 40
6.873751
 40
10.228865
 40
14.584639
 40
19.033838
 40
23.528140
 40
26.882781
 40
30.204484
 40
33.519423
 40
35.082621
 40
36.646531
 40
38.208308
 40
39.174757
 40
40.141070
 40
41.106139
 40
41.803153
 40
42.500500
 40
43.198329
 40
43.198329
 40
43.198329
 40
43.198329
 10
244.609538
 20
524.463124
 30
0.0
 10
245.471047
 20
523.696076
 30
0.0
 10
247.182436
 20
522.172332
 30
0.0
 10
249.854899
 20
520.049811
 30
0.0
 10
253.024093
 20
518.092975
 30
0.0
 10
256.871210
 20
516.721973
 30
0.0
 10
261.231116
 20
515.883472
 30
0.0
 10
265.303510
 20
515.406553
 30
0.0
 10
269.003481
 20
514.988025
 30
0.0
 10
272.326663
 20
514.745056
 30
0.0
 10
275.064593
 20
514.757430
 30
0.0
 10
277.205087
 20
514.943836
 30
0.0
 10
278.750214
 20
515.189895
 30
0.0
 10
280.074611
 20
515.527099
 30
0.0
 10
281.173695
 20
515.915692
 30
0.0
 10
282.060348
 20
516.300942
 30
0.0
 10
282.837670
 20
516.706969
 30
0.0
 10
283.510443
 20
517.114811
 30
0.0
 10
284.093644
 20
517.497357
 30
0.0
 10
284.477946
 20
517.759262
 30
0.0
 10
284.670163
 20
517.890260
 30
0.0
 11
244.609538
 21
524.463124
 31
0.0
 11
247.215475
 21
522.186666
 31
0.0
 11
249.910821
 21
520.092087
 31
0.0
 11
252.784984
 21
518.361198
 31
0.0
 11
256.866342
 21
516.839593
 31
0.0
 11
261.223653
 21
515.940032
 31
0.0
 11
265.681112
 21
515.365736
 31
0.0
 11
269.016726
 21
515.008954
 31
0.0
 11
272.331061
 21
514.787830
 31
0.0
 11
275.645826
 21
514.821857
 31
0.0
 11
277.202710
 21
514.962211
 31
0.0
 11
278.746311
 21
515.213424
 31
0.0
 11
280.258477
 21
515.603938
 31
0.0
 11
281.169609
 21
515.926215
 31
0.0
 11
282.055782
 21
516.311518
 31
0.0
 11
282.911006
 21
516.758676
 31
0.0
 11
283.508121
 21
517.118234
 31
0.0
 11
284.092359
 21
517.498969
 31
0.0
 11
284.670163
 21
517.890260
 31
0.0
  0
LWPOLYLINE
  5
183
100
AcDbEntity
  8
0
 62
7
100
AcDbPolyline
 90
2
 70
0
 10
170.758239
 20
551.847508
 30
0.0
 10
191.218607
 20
551.847508
 30
0.0
  0
SPLINE
  5
184
100
AcDbEntity
  8
0
 62
7
100
AcDbSpline
 70
0
 71
3
 72
16
 73
12
 74
10
 40
0.000000
 40
0.000000
 40
0.000000
 40
0.000000
 40
1.060433
 40
2.107976
 40
3.146710
 40
4.167728
 40
5.198444
 40
6.219467
 40
7.258232
 40
8.305778
 40
9.366167
 40
9.366167
 40
9.366167
 40
9.366167
 10
191.218607
 20
551.847508
 30
0.0
 10
191.568271
 20
551.795534
 30
0.0
 10
192.263350
 20
551.692220
 30
0.0
 10
193.289058
 20
551.464484
 30
0.0
 10
194.261478
 20
551.089005
 30
0.0
 10
195.125935
 20
550.514621
 30
0.0
 10
195.859089
 20
549.791234
 30
0.0
 10
196.445032
 20
548.934550
 30
0.0
 10
196.833443
 20
547.967206
 30
0.0
 10
197.074879
 20
546.944642
 30
0.0
 10
197.187480
 20
546.251021
 30
0.0
 10
197.244123
 20
545.902097
 30
0.0
 11
191.218607
 21
551.847508
 31
0.0
 11
192.265586
 21
551.679126
 31
0.0
 11
193.285084
 21
551.438355
 31
0.0
 11
194.249615
 21
551.052805
 31
0.0
 11
195.102329
 21
550.491241
 31
0.0
 11
195.836028
 21
549.767319
 31
0.0
 11
196.408975
 21
548.922204
 31
0.0
 11
196.807380
 21
547.962878
 31
0.0
 11
197.061759
 21
546.946687
 31
0.0
 11
197.244123
 21
545.902097
 31
0.0
  0
LWPOLYLINE
  5
185
100
AcDbEntity
  8
0
 62
7
100
AcDbPolyline
 90
2
 70
0
 10
197.244123
 20
545.902097
 30
0.0
 10
197.244123
 20
527.250296
 30
0.0
  0
SPLINE
  5
186
100
AcDbEntity
  8
0
 62
7
100
AcDbSpline
 70
0
 71
3
 72
16
 73
12
 74
10
 40
0.000000
 40
0.000000
 40
0.000000
 40
0.000000
 40
1.060454
 40
2.108000
 40
3.146704
 40
4.167748
 40
5.198498
 40
6.219530
 40
7.258264
 40
8.305807
 40
9.366240
 40
9.366240
 40
9.366240
 40
9.366240
 10
197.244123
 20
527.250296
 30
0.0
 10
197.187480
 20
526.901350
 30
0.0
 10
197.074884
 20
526.207707
 30
0.0
 10
196.833458
 20
525.185136
 30
0.0
 10
196.445008
 20
524.217824
 30
0.0
 10
195.859085
 20
523.361133
 30
0.0
 10
195.125943
 20
522.637702
 30
0.0
 10
194.261485
 20
522.063286
 30
0.0
 10
193.289057
 20
521.687811
 30
0.0
 10
192.263350
 20
521.460074
 30
0.0
 10
191.568271
 20
521.356760
 30
0.0
 10
191.218607
 20
521.304787
 30
0.0
 11
197.244123
 21
527.250296
 31
0.0
 11
197.061759
 21
526.205640
 31
0.0
 11
196.807380
 21
525.189449
 31
0.0
 11
196.408975
 21
524.230189
 31
0.0
 11
195.836028
 21
523.385048
 31
0.0
 11
195.102329
 21
522.661079
 31
0.0
 11
194.249615
 21
522.099489
 31
0.0
 11
193.285084
 21
521.713939
 31
0.0
 11
192.265586
 21
521.473168
 31
0.0
 11
191.218607
 21
521.304787
 31
0.0
  0
SPLINE
  5
187
100
AcDbEntity
  8
0
 62
7
100
AcDbSpline
 70
0
 71
3
 72
25
 73
21
 74
19
 40
0.000000
 40
0.000000
 40
0.000000
 40
0.000000
 40
2.409418
 40
4.783686
 40
7.113889
 40
10.208489
 40
13.378332
 40
16.591888
 40
19.296599
 40
21.964181
 40
24.615912
 40
26.176090
 40
27.741646
 40
29.307605
 40
30.275145
 40
31.241038
 40
32.205206
 40
32.901884
 40
33.599278
 40
34.297348
 40
34.297348
 40
34.297348
 40
34.297348
 10
883.190035
 20
556.604193
 30
0.0
 10
882.551583
 20
556.116837
 30
0.0
 10
881.283995
 20
555.149233
 30
0.0
 10
879.484241
 20
553.601545
 30
0.0
 10
877.727133
 20
551.668785
 30
0.0
 10
876.303253
 20
549.153367
 30
0.0
 10
875.238495
 20
546.170766
 30
0.0
 10
874.501037
 20
543.230656
 30
0.0
 10
873.897003
 20
540.432469
 30
0.0
 10
873.513832
 20
537.782047
 30
0.0
 10
873.436671
 20
535.483044
 30
0.0
 10
873.596098
 20
533.561428
 30
0.0
 10
873.863699
 20
532.018423
 30
0.0
 10
874.223961
 20
530.697977
 30
0.0
 10
874.622613
 20
529.600955
 30
0.0
 10
875.012508
 20
528.716461
 30
0.0
 10
875.421888
 20
527.941506
 30
0.0
 10
875.833589
 20
527.271536
 30
0.0
 10
876.220051
 20
526.690939
 30
0.0
 10
876.484775
 20
526.308456
 30
0.0
 10
876.617200
 20
526.117122
 30
0.0
 11
883.190035
 21
556.604193
 31
0.0
 11
881.289231
 21
555.123572
 31
0.0
 11
879.506278
 21
553.555698
 31
0.0
 11
877.959032
 21
551.813323
 31
0.0
 11
876.397246
 21
549.141735
 31
0.0
 11
875.292508
 21
546.170631
 31
0.0
 11
874.478580
 21
543.061859
 31
0.0
 11
873.925164
 21
540.414372
 31
0.0
 11
873.561953
 21
537.771633
 31
0.0
 11
873.489222
 21
535.120899
 31
0.0
 11
873.618878
 21
533.566117
 31
0.0
 11
873.887823
 21
532.023835
 31
0.0
 11
874.301752
 21
530.513574
 31
0.0
 11
874.632793
 21
529.604428
 31
0.0
 11
875.023033
 21
528.720877
 31
0.0
 11
875.474059
 21
527.868707
 31
0.0
 11
875.836995
 21
527.274032
 31
0.0
 11
876.221663
 21
526.692320
 31
0.0
 11
876.617200
 21
526.117122
 31
0.0
  0
SPLINE
  5
188
100
AcDbEntity
  8
0
 62
7
100
AcDbSpline
 70
0
 71
3
 72
25
 73
21
 74
19
 40
0.000000
 40
0.000000
 40
0.000000
 40
0.000000
 40
0.698070
 40
1.395464
 40
2.092142
 40
3.056310
 40
4.022203
 40
4.989743
 40
6.555701
 40
8.121256
 40
9.681435
 40
12.333166
 40
15.000748
 40
17.705459
 40
20.919014
 40
24.088857
 40
27.183458
 40
29.513664
 40
31.887930
 40
34.297346
 40
34.297346
 40
34.297346
 40
34.297346
 10
889.762869
 20
526.117122
 30
0.0
 10
889.895295
 20
526.308456
 30
0.0
 10
890.160018
 20
526.690939
 30
0.0
 10
890.546480
 20
527.271536
 30
0.0
 10
890.958182
 20
527.941506
 30
0.0
 10
891.367561
 20
528.716461
 30
0.0
 10
891.757456
 20
529.600956
 30
0.0
 10
892.156108
 20
530.697977
 30
0.0
 10
892.516367
 20
532.018423
 30
0.0
 10
892.783958
 20
533.561429
 30
0.0
 10
892.943404
 20
535.483043
 30
0.0
 10
892.866235
 20
537.782047
 30
0.0
 10
892.483067
 20
540.432469
 30
0.0
 10
891.879032
 20
543.230656
 30
0.0
 10
891.141574
 20
546.170766
 30
0.0
 10
890.076815
 20
549.153366
 30
0.0
 10
888.652937
 20
551.668787
 30
0.0
 10
886.895823
 20
553.601543
 30
0.0
 10
885.096072
 20
555.149234
 30
0.0
 10
883.828485
 20
556.116837
 30
0.0
 10
883.190035
 20
556.604193
 30
0.0
 11
889.762869
 21
526.117122
 31
0.0
 11
890.158406
 21
526.692320
 31
0.0
 11
890.543074
 21
527.274032
 31
0.0
 11
890.906010
 21
527.868707
 31
0.0
 11
891.357036
 21
528.720877
 31
0.0
 11
891.747276
 21
529.604428
 31
0.0
 11
892.078317
 21
530.513574
 31
0.0
 11
892.492242
 21
532.023835
 31
0.0
 11
892.761182
 21
533.566117
 31
0.0
 11
892.890847
 21
535.120899
 31
0.0
 11
892.818116
 21
537.771633
 31
0.0
 11
892.454905
 21
540.414372
 31
0.0
 11
891.901489
 21
543.061859
 31
0.0
 11
891.087561
 21
546.170631
 31
0.0
 11
889.982823
 21
549.141735
 31
0.0
 11
888.421037
 21
551.813323
 31
0.0
 11
886.873786
 21
553.555698
 31
0.0
 11
885.090835
 21
555.123572
 31
0.0
 11
883.190035
 21
556.604193
 31
0.0
  0
SPLINE
  5
189
100
AcDbEntity
  8
0
 62
7
100
AcDbSpline
 70
0
 71
3
 72
25
 73
21
 74
19
 40
0.000000
 40
0.000000
 40
0.000000
 40
0.000000
 40
3.460226
 40
6.873751
 40
10.228865
 40
14.584639
 40
19.033838
 40
23.528140
 40
26.882781
 40
30.204484
 40
33.519423
 40
35.082621
 40
36.646531
 40
38.208308
 40
39.174757
 40
40.141070
 40
41.106139
 40
41.803153
 40
42.500500
 40
43.198329
 40
43.198329
 40
43.198329
 40
43.198329
 10
1221.187674
 20
524.463124
 30
0.0
 10
1220.326166
 20
523.696076
 30
0.0
 10
1218.614776
 20
522.172332
 30
0.0
 10
1215.942314
 20
520.049811
 30
0.0
 10
1212.773119
 20
518.092975
 30
0.0
 10
1208.926003
 20
516.721973
 30
0.0
 10
1204.566096
 20
515.883472
 30
0.0
 10
1200.493702
 20
515.406553
 30
0.0
 10
1196.793732
 20
514.988025
 30
0.0
 10
1193.470550
 20
514.745056
 30
0.0
 10
1190.732620
 20
514.757430
 30
0.0
 10
1188.592126
 20
514.943836
 30
0.0
 10
1187.046999
 20
515.189895
 30
0.0
 10
1185.722602
 20
515.527099
 30
0.0
 10
1184.623518
 20
515.915692
 30
0.0
 10
1183.736865
 20
516.300942
 30
0.0
 10
1182.959543
 20
516.706969
 30
0.0
 10
1182.286770
 20
517.114811
 30
0.0
 10
1181.703568
 20
517.497357
 30
0.0
 10
1181.319267
 20
517.759262
 30
0.0
 10
1181.127050
 20
517.890260
 30
0.0
 11
1221.187674
 21
524.463124
 31
0.0
 11
1218.581738
 21
522.186666
 31
0.0
 11
1215.886392
 21
520.092087
 31
0.0
 11
1213.012229
 21
518.361198
 31
0.0
 11
1208.930871
 21
516.839593
 31
0.0
 11
1204.573560
 21
515.940032
 31
0.0
 11
1200.116101
 21
515.365736
 31
0.0
 11
1196.780487
 21
515.008954
 31
0.0
 11
1193.466152
 21
514.787830
 31
0.0
 11
1190.151387
 21
514.821857
 31
0.0
 11
1188.594503
 21
514.962211
 31
0.0
 11
1187.050901
 21
515.213424
 31
0.0
 11
1185.538736
 21
515.603938
 31
0.0
 11
1184.627604
 21
515.926215
 31
0.0
 11
1183.741430
 21
516.311518
 31
0.0
 11
1182.886207
 21
516.758676
 31
0.0
 11
1182.289092
 21
517.118234
 31
0.0
 11
1181.704853
 21
517.498969
 31
0.0
 11
1181.127050
 21
517.890260
 31
0.0
  0
LWPOLYLINE
  5
18a
100
AcDbEntity
  8
0
 62
7
100
AcDbPolyline
 90
2
 70
0
 10
191.218607
 20
521.304787
 30
0.0
 10
170.758239
 20
521.304787
 30
0.0
  0
LWPOLYLINE
  5
18b
100
AcDbEntity
  8
0
 62
7
100
AcDbPolyline
 90
2
 70
0
 10
1288.772870
 20
489.731944
 30
0.0
 10
732.898606
 20
489.731944
 30
0.0
  0
SPLINE
  5
18c
100
AcDbEntity
  8
0
 62
7
100
AcDbSpline
 70
0
 71
3
 72
25
 73
21
 74
19
 40
0.000000
 40
0.000000
 40
0.000000
 40
0.000000
 40
0.697854
 40
1.395189
 40
2.092192
 40
3.057293
 40
4.023616
 40
4.990067
 40
6.551837
 40
8.115739
 40
9.678935
 40
12.993875
 40
16.315577
 40
19.670218
 40
24.164512
 40
28.613711
 40
32.969508
 40
36.324597
 40
39.738119
 40
43.198314
 40
43.198314
 40
43.198314
 40
43.198314
 10
1181.127050
 20
531.035889
 30
0.0
 10
1181.319264
 20
531.166905
 30
0.0
 10
1181.703551
 20
531.428841
 30
0.0
 10
1182.286770
 20
531.811361
 30
0.0
 10
1182.959566
 20
532.219169
 30
0.0
 10
1183.736849
 20
532.625289
 30
0.0
 10
1184.623515
 20
533.010552
 30
0.0
 10
1185.722598
 20
533.399153
 30
0.0
 10
1187.046999
 20
533.736332
 30
0.0
 10
1188.592129
 20
533.982333
 30
0.0
 10
1190.732621
 20
534.168707
 30
0.0
 10
1193.470550
 20
534.181097
 30
0.0
 10
1196.793732
 20
533.938127
 30
0.0
 10
1200.493698
 20
533.519580
 30
0.0
 10
1204.566099
 20
533.042760
 30
0.0
 10
1208.926021
 20
532.204262
 30
0.0
 10
1212.773089
 20
530.833149
 30
0.0
 10
1215.942330
 20
528.876399
 30
0.0
 10
1218.614761
 20
526.753864
 30
0.0
 10
1220.326163
 20
525.230153
 30
0.0
 10
1221.187674
 20
524.463124
 30
0.0
 11
1181.127050
 21
531.035889
 31
0.0
 11
1181.704853
 21
531.427224
 31
0.0
 11
1182.289092
 21
531.807937
 31
0.0
 11
1182.886207
 21
532.167473
 31
0.0
 11
1183.741430
 21
532.614701
 31
0.0
 11
1184.627604
 21
533.000029
 31
0.0
 11
1185.538736
 21
533.322310
 31
0.0
 11
1187.050901
 21
533.712799
 31
0.0
 11
1188.594503
 21
533.963964
 31
0.0
 11
1190.151387
 21
534.104292
 31
0.0
 11
1193.466152
 21
534.138319
 31
0.0
 11
1196.780487
 21
533.917195
 31
0.0
 11
1200.116101
 21
533.560413
 31
0.0
 11
1204.573560
 21
532.986183
 31
0.0
 11
1208.930871
 21
532.086622
 31
0.0
 11
1213.012229
 21
530.564951
 31
0.0
 11
1215.886392
 21
528.834110
 31
0.0
 11
1218.581738
 21
526.739534
 31
0.0
 11
1221.187674
 21
524.463124
 31
0.0
  0
LWPOLYLINE
  5
18d
100
AcDbEntity
  8
0
 62
7
100
AcDbPolyline
 90
2
 70
0
 10
1268.553090
 20
545.902097
 30
0.0
 10
1268.553090
 20
527.250296
 30
0.0
  0
LWPOLYLINE
  5
18e
100
AcDbEntity
  8
0
 62
7
100
AcDbPolyline
 90
2
 70
0
 10
1295.038974
 20
551.847508
 30
0.0
 10
1274.578606
 20
551.847508
 30
0.0
  0
SPLINE
  5
18f
100
AcDbEntity
  8
0
 62
7
100
AcDbSpline
 70
0
 71
3
 72
16
 73
12
 74
10
 40
0.000000
 40
0.000000
 40
0.000000
 40
0.000000
 40
1.060433
 40
2.107976
 40
3.146710
 40
4.167728
 40
5.198444
 40
6.219467
 40
7.258232
 40
8.305778
 40
9.366167
 40
9.366167
 40
9.366167
 40
9.366167
 10
1274.578606
 20
551.847508
 30
0.0
 10
1274.228942
 20
551.795534
 30
0.0
 10
1273.533863
 20
551.692220
 30
0.0
 10
1272.508155
 20
551.464484
 30
0.0
 10
1271.535735
 20
551.089005
 30
0.0
 10
1270.671278
 20
550.514621
 30
0.0
 10
1269.938124
 20
549.791234
 30
0.0
 10
1269.352181
 20
548.934550
 30
0.0
 10
1268.963769
 20
547.967206
 30
0.0
 10
1268.722334
 20
546.944642
 30
0.0
 10
1268.609733
 20
546.251021
 30
0.0
 10
1268.553090
 20
545.902097
 30
0.0
 11
1274.578606
 21
551.847508
 31
0.0
 11
1273.531627
 21
551.679126
 31
0.0
 11
1272.512129
 21
551.438355
 31
0.0
 11
1271.547598
 21
551.052805
 31
0.0
 11
1270.694883
 21
550.491241
 31
0.0
 11
1269.961185
 21
549.767319
 31
0.0
 11
1269.388238
 21
548.922204
 31
0.0
 11
1268.989833
 21
547.962878
 31
0.0
 11
1268.735453
 21
546.946687
 31
0.0
 11
1268.553090
 21
545.902097
 31
0.0
  0
LWPOLYLINE
  5
190
100
AcDbEntity
  8
0
 62
7
100
AcDbPolyline
 90
2
 70
0
 10
1274.578606
 20
521.304787
 30
0.0
 10
1295.038974
 20
521.304787
 30
0.0
  0
LWPOLYLINE
  5
191
100
AcDbEntity
  8
0
 62
7
100
AcDbPolyline
 90
2
 70
0
 10
1446.520975
 20
521.002686
 30
0.0
 10
1442.765065
 20
521.002686
 30
0.0
  0
LWPOLYLINE
  5
192
100
AcDbEntity
  8
0
 62
7
100
AcDbPolyline
 90
4
 70
0
 10
1442.765065
 20
566.073542
 30
0.0
 10
1442.765065
 20
551.049923
 30
0.0
 10
1446.520975
 20
551.049923
 30
0.0
 10
1446.520975
 20
558.561683
 30
0.0
  0
LWPOLYLINE
  5
193
100
AcDbEntity
  8
0
 62
7
100
AcDbPolyline
 90
2
 70
0
 10
1465.300513
 20
524.758566
 30
0.0
 10
1446.520975
 20
513.490827
 30
0.0
  0
LWPOLYLINE
  5
194
100
AcDbEntity
  8
0
 62
7
100
AcDbPolyline
 90
2
 70
0
 10
1465.300503
 20
547.294044
 30
0.0
 10
1465.300513
 20
524.758566
 30
0.0
  0
LWPOLYLINE
  5
195
100
AcDbEntity
  8
0
 62
7
100
AcDbPolyline
 90
2
 70
0
 10
1442.765065
 20
521.002686
 30
0.0
 10
1442.765065
 20
512.364113
 30
0.0
  0
LWPOLYLINE
  5
196
100
AcDbEntity
  8
0
 62
7
100
AcDbPolyline
 90
2
 70
0
 10
1446.520975
 20
558.561683
 30
0.0
 10
1465.300503
 20
547.294044
 30
0.0
  0
LWPOLYLINE
  5
197
100
AcDbEntity
  8
0
 62
7
100
AcDbPolyline
 90
2
 70
0
 10
1446.520975
 20
513.490827
 30
0.0
 10
1446.520975
 20
521.002686
 30
0.0
  0
LWPOLYLINE
  5
198
100
AcDbEntity
  8
0
 62
7
100
AcDbPolyline
 90
3
 70
0
 10
1442.765065
 20
512.364113
 30
0.0
 10
1345.111475
 20
516.351835
 30
0.0
 10
1288.772870
 20
489.731944
 30
0.0
  0
LWPOLYLINE
  5
199
100
AcDbEntity
  8
0
 62
7
100
AcDbPolyline
 90
2
 70
0
 10
1288.772870
 20
572.361895
 30
0.0
 10
1442.765065
 20
566.073542
 30
0.0
  0
SPLINE
  5
19a
100
AcDbEntity
  8
0
 62
7
100
AcDbSpline
 70
0
 71
3
 72
16
 73
12
 74
10
 40
0.000000
 40
0.000000
 40
0.000000
 40
0.000000
 40
1.060454
 40
2.108000
 40
3.146704
 40
4.167748
 40
5.198498
 40
6.219530
 40
7.258264
 40
8.305807
 40
9.366240
 40
9.366240
 40
9.366240
 40
9.366240
 10
1268.553090
 20
527.250296
 30
0.0
 10
1268.609733
 20
526.901350
 30
0.0
 10
1268.722329
 20
526.207707
 30
0.0
 10
1268.963755
 20
525.185136
 30
0.0
 10
1269.352205
 20
524.217824
 30
0.0
 10
1269.938127
 20
523.361133
 30
0.0
 10
1270.671270
 20
522.637702
 30
0.0
 10
1271.535728
 20
522.063286
 30
0.0
 10
1272.508155
 20
521.687811
 30
0.0
 10
1273.533863
 20
521.460074
 30
0.0
 10
1274.228942
 20
521.356760
 30
0.0
 10
1274.578606
 20
521.304787
 30
0.0
 11
1268.553090
 21
527.250296
 31
0.0
 11
1268.735453
 21
526.205640
 31
0.0
 11
1268.989833
 21
525.189449
 31
0.0
 11
1269.388238
 21
524.230189
 31
0.0
 11
1269.961185
 21
523.385048
 31
0.0
 11
1270.694883
 21
522.661079
 31
0.0
 11
1271.547598
 21
522.099489
 31
0.0
 11
1272.512129
 21
521.713939
 31
0.0
 11
1273.531627
 21
521.473168
 31
0.0
 11
1274.578606
 21
521.304787
 31
0.0
  0
LWPOLYLINE
  5
19b
100
AcDbEntity
  8
0
 62
7
100
AcDbPolyline
 90
2
 70
0
 10
732.898606
 20
572.361895
 30
0.0
 10
1288.772870
 20
572.361895
 30
0.0
  0
ENDSEC
  0
SECTION
  2
OBJECTS
  0
DICTIONARY
  5
C
330
0
100
AcDbDictionary
  3
ACAD_GROUP
350
D
  3
ACAD_MLINESTYLE
350
17
  0
DICTIONARY
  5
D
330
C
100
AcDbDictionary
  0
DICTIONARY
  5
1A
330
C
100
AcDbDictionary
  0
DICTIONARY
  5
17
330
C
100
AcDbDictionary
  3
STANDARD
350
18
  0
DICTIONARY
  5
19
330
C
100
AcDbDictionary
  0
ENDSEC
  0
EOF
