<?xml version="1.0" encoding="UTF-8" standalone="no"?>
<svg
   xmlns:dc="http://purl.org/dc/elements/1.1/"
   xmlns:cc="http://creativecommons.org/ns#"
   xmlns:rdf="http://www.w3.org/1999/02/22-rdf-syntax-ns#"
   xmlns:svg="http://www.w3.org/2000/svg"
   xmlns="http://www.w3.org/2000/svg"
   id="svg2"
   version="1.1"
   viewBox="0 0 670.94807 47.264584"
   height="47.264584mm"
   width="670.94806mm">
  <metadata
     id="metadata24">
    <rdf:RDF>
      <cc:Work
         rdf:about="">
        <dc:format>image/svg+xml</dc:format>
        <dc:type
           rdf:resource="http://purl.org/dc/dcmitype/StillImage" />
        <dc:title></dc:title>
      </cc:Work>
    </rdf:RDF>
  </metadata>
  <defs
     id="defs22">
    <marker
       id="DistanceX"
       orient="auto"
       refX="0"
       refY="0"
       style="overflow:visible">
      <path
         d="M 3,-3 -3,3 M 0,-5 V 5"
         style="stroke:#000000;stroke-width:0.5"
         id="path85" />
    </marker>
    <pattern
       id="Hatch"
       patternUnits="userSpaceOnUse"
       width="8"
       height="8"
       x="0"
       y="0">
      <path
         d="M8 4 l-4,4"
         stroke="#000000"
         stroke-width="0.25"
         linecap="square"
         id="path88" />
      <path
         d="M6 2 l-4,4"
         stroke="#000000"
         stroke-width="0.25"
         linecap="square"
         id="path90" />
      <path
         d="M4 0 l-4,4"
         stroke="#000000"
         stroke-width="0.25"
         linecap="square"
         id="path92" />
    </pattern>
    <symbol
       id="*MODEL_SPACE" />
    <symbol
       id="*PAPER_SPACE" />
    <marker
       id="DistanceX-7"
       orient="auto"
       refX="0"
       refY="0"
       style="overflow:visible">
      <path
         d="M 3,-3 -3,3 M 0,-5 V 5"
         style="stroke:#000000;stroke-width:0.5"
         id="path1072" />
    </marker>
    <pattern
       id="Hatch-1"
       patternUnits="userSpaceOnUse"
       width="8"
       height="8"
       x="0"
       y="0">
      <path
         d="M8 4 l-4,4"
         stroke="#000000"
         stroke-width="0.25"
         linecap="square"
         id="path1075" />
      <path
         d="M6 2 l-4,4"
         stroke="#000000"
         stroke-width="0.25"
         linecap="square"
         id="path1077" />
      <path
         d="M4 0 l-4,4"
         stroke="#000000"
         stroke-width="0.25"
         linecap="square"
         id="path1079" />
    </pattern>
    <symbol
       id="*MODEL_SPACE-3" />
    <symbol
       id="*PAPER_SPACE-8" />
    <marker
       id="DistanceX-4"
       orient="auto"
       refX="0"
       refY="0"
       style="overflow:visible">
      <path
         d="M 3,-3 -3,3 M 0,-5 V 5"
         style="stroke:#000000;stroke-width:0.5"
         id="path10492" />
    </marker>
    <pattern
       id="Hatch-3"
       patternUnits="userSpaceOnUse"
       width="8"
       height="8"
       x="0"
       y="0">
      <path
         d="M8 4 l-4,4"
         stroke="#000000"
         stroke-width="0.25"
         linecap="square"
         id="path10495" />
      <path
         d="M6 2 l-4,4"
         stroke="#000000"
         stroke-width="0.25"
         linecap="square"
         id="path10497" />
      <path
         d="M4 0 l-4,4"
         stroke="#000000"
         stroke-width="0.25"
         linecap="square"
         id="path10499" />
    </pattern>
    <symbol
       id="*MODEL_SPACE-8" />
    <symbol
       id="*PAPER_SPACE-4" />
    <marker
       id="DistanceX-9"
       orient="auto"
       refX="0"
       refY="0"
       style="overflow:visible">
      <path
         d="M 3,-3 -3,3 M 0,-5 V 5"
         style="stroke:#000000;stroke-width:0.5"
         id="path11002" />
    </marker>
    <pattern
       id="Hatch-37"
       patternUnits="userSpaceOnUse"
       width="8"
       height="8"
       x="0"
       y="0">
      <path
         d="M8 4 l-4,4"
         stroke="#000000"
         stroke-width="0.25"
         linecap="square"
         id="path11005" />
      <path
         d="M6 2 l-4,4"
         stroke="#000000"
         stroke-width="0.25"
         linecap="square"
         id="path11007" />
      <path
         d="M4 0 l-4,4"
         stroke="#000000"
         stroke-width="0.25"
         linecap="square"
         id="path11009" />
    </pattern>
    <symbol
       id="*MODEL_SPACE-5" />
    <symbol
       id="*PAPER_SPACE-7" />
    <marker
       id="DistanceX-75"
       orient="auto"
       refX="0"
       refY="0"
       style="overflow:visible">
      <path
         d="M 3,-3 -3,3 M 0,-5 V 5"
         style="stroke:#000000;stroke-width:0.5"
         id="path11574" />
    </marker>
    <pattern
       id="Hatch-6"
       patternUnits="userSpaceOnUse"
       width="8"
       height="8"
       x="0"
       y="0">
      <path
         d="M8 4 l-4,4"
         stroke="#000000"
         stroke-width="0.25"
         linecap="square"
         id="path11577" />
      <path
         d="M6 2 l-4,4"
         stroke="#000000"
         stroke-width="0.25"
         linecap="square"
         id="path11579" />
      <path
         d="M4 0 l-4,4"
         stroke="#000000"
         stroke-width="0.25"
         linecap="square"
         id="path11581" />
    </pattern>
    <symbol
       id="*MODEL_SPACE-53" />
    <symbol
       id="*PAPER_SPACE-0" />
  </defs>
  <g
     transform="matrix(1,0,0,-1,326.19148,165.57408)"
     id="Sketch">
    <title
       id="title18">b'Sketch'</title>
  </g>
  <g
     id="Sketch001"
     transform="matrix(1,0,0,-1,383.90253,90.486725)">
    <title
       id="title4187">b'support_visiere'</title>
  </g>
  <g
     transform="translate(122.06524,105.4245)"
     id="g4359" />
  <g
     transform="translate(124.37751,161.07408)"
     id="g4161" />
  <g
     transform="translate(7.9164039e-7,-1.4135781)"
     id="g12000">
    <g
       id="g11310"
       transform="matrix(-0.26458333,0,0,-0.26458333,196.78154,298.54587)">
      <path
         id="path11016"
         style="fill:none;stroke:#000000"
         d="m -1303.937,1108.0711 h -11.3386" />
      <path
         id="path11018"
         style="fill:none;stroke:#000000"
         d="m -1285.0394,1108.0711 a 9.448819,9.448819 0 0 0 -18.8976,0" />
      <path
         id="path11020"
         style="fill:none;stroke:#000000"
         d="m -1285.0394,1108.0711 h 18.8977" />
      <path
         id="path11022"
         style="fill:none;stroke:#000000"
         d="m -1266.1417,1108.0711 75.5905,14.4486" />
      <path
         id="path11024"
         style="fill:none;stroke:#000000"
         d="M -743.74127,1122.5197 H -1190.5512" />
      <path
         id="path11026"
         style="fill:none;stroke:#000000"
         d="m -743.74127,1122.5197 h 63.42631" />
      <path
         id="path11028"
         style="fill:none;stroke:#000000"
         d="m -680.31496,1122.5197 -9.44882,-14.4486" />
      <path
         id="path11030"
         style="fill:none;stroke:#000000"
         d="m -689.76378,1108.0711 h 7.55906" />
      <path
         id="path11032"
         style="fill:none;stroke:#000000"
         d="m -682.20472,1108.0711 9.44881,14.4486" />
      <path
         id="path11034"
         style="fill:none;stroke:#000000"
         d="M -672.75591,1122.5197 H 0" />
      <path
         id="path11036"
         style="fill:none;stroke:#000000"
         d="m -682.20472,1042.4801 9.44881,-14.4486" />
      <path
         id="path11038"
         style="fill:none;stroke:#000000"
         d="m -689.76378,1042.4801 h 7.55906" />
      <path
         id="path11040"
         style="fill:none;stroke:#000000"
         d="m -680.31496,1028.0315 -9.44882,14.4486" />
      <path
         id="path11042"
         style="fill:none;stroke:#000000"
         d="m -680.31496,1028.0315 h -63.42631" />
      <path
         id="path11044"
         style="fill:none;stroke:#000000"
         d="m -1266.1417,1042.4801 75.5905,-14.4486" />
      <path
         id="path11046"
         style="fill:none;stroke:#000000"
         d="m -1285.0394,1042.4801 h 18.8977" />
      <path
         id="path11048"
         style="fill:none;stroke:#000000"
         d="m -1303.937,1042.4801 a 9.448819,9.448819 0 0 0 18.8976,0" />
      <path
         id="path11050"
         style="fill:none;stroke:#000000"
         d="m -1303.937,1042.4801 h -11.3386" />
      <path
         id="path11052"
         style="fill:none;stroke:#000000"
         d="M 0,1028.0315 H -672.75591" />
      <path
         id="path11054"
         style="fill:none;stroke:#000000"
         d="M -743.74127,1028.0315 H -1190.5512" />
      <path
         id="path11056"
         style="fill:none;stroke:#000000"
         d="m -718.11024,1108.0711 v -65.591" />
      <path
         id="path11058"
         style="fill:none;stroke:#000000"
         d="m -718.11024,1042.4801 h 7.55906" />
      <path
         id="path11060"
         style="fill:none;stroke:#000000"
         d="m -710.55118,1108.0711 h -7.55906" />
      <path
         id="path11062"
         style="fill:none;stroke:#000000"
         d="m -710.55118,1042.4801 v 65.591" />
      <path
         id="path11064"
         style="fill:none;stroke:#000000"
         d="m -655.74803,1108.0711 v -65.591" />
      <path
         id="path11066"
         style="fill:none;stroke:#000000"
         d="m -655.74803,1042.4801 h 3.77953" />
      <path
         id="path11068"
         style="fill:none;stroke:#000000"
         d="m -651.9685,1108.0711 h -3.77953" />
      <path
         id="path11070"
         style="fill:none;stroke:#000000"
         d="m -651.9685,1042.4801 v 65.591" />
      <path
         id="path11072"
         style="fill:none;stroke:#000000"
         d="m -584.16196,1079.6968 3.25603,-37.2167" />
      <path
         id="path11074"
         style="fill:none;stroke:#000000"
         d="m -580.90593,1042.4801 3.76515,0.3294" />
      <path
         id="path11076"
         style="fill:none;stroke:#000000"
         d="m -580.39681,1080.0262 -3.76515,-0.3294" />
      <path
         id="path11078"
         style="fill:none;stroke:#000000"
         d="m -577.14078,1042.8095 -3.25603,37.2167" />
      <path
         id="path11080"
         style="fill:none;stroke:#000000"
         d="m -546.34309,1079.6967 3.25604,-37.2166" />
      <path
         id="path11082"
         style="fill:none;stroke:#000000"
         d="m -543.08705,1042.4801 3.76514,0.3294" />
      <path
         id="path11084"
         style="fill:none;stroke:#000000"
         d="m -542.57794,1080.0261 -3.76515,-0.3294" />
      <path
         id="path11086"
         style="fill:none;stroke:#000000"
         d="m -539.32191,1042.8095 -3.25603,37.2166" />
      <path
         id="path11088"
         style="fill:none;stroke:#000000"
         d="m -508.52523,1079.6967 3.25603,-37.2166" />
      <path
         id="path11090"
         style="fill:none;stroke:#000000"
         d="m -505.2692,1042.4801 3.76514,0.3294" />
      <path
         id="path11092"
         style="fill:none;stroke:#000000"
         d="m -504.76009,1080.0261 -3.76514,-0.3294" />
      <path
         id="path11094"
         style="fill:none;stroke:#000000"
         d="m -501.50406,1042.8095 -3.25603,37.2166" />
      <path
         id="path11096"
         style="fill:none;stroke:#000000"
         d="m -444.81115,1108.0711 10e-6,-59.9217" />
      <path
         id="path11098"
         style="fill:none;stroke:#000000"
         d="m -444.81114,1048.1494 h 9.95071" />
      <path
         id="path11100"
         style="fill:none;stroke:#000000"
         d="m -434.86043,1108.0711 h -9.95072" />
      <path
         id="path11102"
         style="fill:none;stroke:#000000"
         d="m -434.86043,1048.1494 v 59.9217" />
      <path
         id="path11104"
         style="fill:none;stroke:#000000"
         d="m -1334.1732,1042.4801 a 9.448819,9.448819 0 0 0 18.8976,0" />
      <path
         id="path11106"
         style="fill:none;stroke:#000000"
         d="m -1334.1732,1108.0711 h -11.3386" />
      <path
         id="path11108"
         style="fill:none;stroke:#000000"
         d="m -1315.2756,1108.0711 a 9.448819,9.448819 0 0 0 -18.8976,0" />
      <path
         id="path11110"
         style="fill:none;stroke:#000000"
         d="m -1334.1732,1042.4801 h -11.3386" />
      <path
         id="path11112"
         style="fill:none;stroke:#000000"
         d="m -1364.4094,1042.4801 h -11.3386" />
      <path
         id="path11114"
         style="fill:none;stroke:#000000"
         d="m -1364.4094,1042.4801 a 9.448819,9.448819 0 0 0 18.8976,0" />
      <path
         id="path11116"
         style="fill:none;stroke:#000000"
         d="m -1394.6457,1042.4801 h -11.3386" />
      <path
         id="path11118"
         style="fill:none;stroke:#000000"
         d="m -1394.6457,1042.4801 a 9.44885,9.44885 0 0 0 18.8977,0" />
      <path
         id="path11120"
         style="fill:none;stroke:#000000"
         d="m -1424.8819,1042.4801 h -11.3386" />
      <path
         id="path11122"
         style="fill:none;stroke:#000000"
         d="m -1424.8819,1042.4801 a 9.448819,9.448819 0 0 0 18.8976,0" />
      <path
         id="path11124"
         style="fill:none;stroke:#000000"
         d="m -1455.1181,1042.4801 h -11.3386" />
      <path
         id="path11126"
         style="fill:none;stroke:#000000"
         d="m -1455.1181,1042.4801 a 9.448819,9.448819 0 0 0 18.8976,0" />
      <path
         id="path11128"
         style="fill:none;stroke:#000000"
         d="m -1485.3543,1042.4801 h -11.3386" />
      <path
         id="path11130"
         style="fill:none;stroke:#000000"
         d="m -1485.3543,1042.4801 a 9.448819,9.448819 0 0 0 18.8976,0" />
      <path
         id="path11132"
         style="fill:none;stroke:#000000"
         d="m -1515.5906,1042.4801 h -11.3385" />
      <path
         id="path11134"
         style="fill:none;stroke:#000000"
         d="m -1515.5906,1042.4801 a 9.44885,9.44885 0 0 0 18.8977,0" />
      <path
         id="path11136"
         style="fill:none;stroke:#000000"
         d="m -1545.8268,1042.4801 h -11.3386" />
      <path
         id="path11138"
         style="fill:none;stroke:#000000"
         d="m -1545.8268,1042.4801 a 9.44885,9.44885 0 0 0 18.8977,0" />
      <path
         id="path11140"
         style="fill:none;stroke:#000000"
         d="m -1576.063,1042.4801 h -11.3386" />
      <path
         id="path11142"
         style="fill:none;stroke:#000000"
         d="m -1576.063,1042.4801 a 9.448819,9.448819 0 0 0 18.8976,0" />
      <path
         id="path11144"
         style="fill:none;stroke:#000000"
         d="m -1606.2992,1042.4801 h -11.3386" />
      <path
         id="path11146"
         style="fill:none;stroke:#000000"
         d="m -1606.2992,1042.4801 a 9.448819,9.448819 0 0 0 18.8976,0" />
      <path
         id="path11148"
         style="fill:none;stroke:#000000"
         d="m -1636.5354,1042.4801 h -11.3386" />
      <path
         id="path11150"
         style="fill:none;stroke:#000000"
         d="m -1636.5354,1042.4801 a 9.448819,9.448819 0 0 0 18.8976,0" />
      <path
         id="path11152"
         style="fill:none;stroke:#000000"
         d="m -1666.7717,1042.4801 h -11.3385" />
      <path
         id="path11154"
         style="fill:none;stroke:#000000"
         d="m -1666.7717,1042.4801 a 9.44885,9.44885 0 0 0 18.8977,0" />
      <path
         id="path11156"
         style="fill:none;stroke:#000000"
         d="m -1697.0079,1042.4801 h -11.3386" />
      <path
         id="path11158"
         style="fill:none;stroke:#000000"
         d="m -1697.0079,1042.4801 a 9.44885,9.44885 0 0 0 18.8977,0" />
      <path
         id="path11160"
         style="fill:none;stroke:#000000"
         d="m -1708.3465,1108.0711 a 9.448819,9.448819 0 0 0 -18.8976,0" />
      <path
         id="path11162"
         style="fill:none;stroke:#000000"
         d="m -1727.2441,1108.0711 h -11.3386" />
      <path
         id="path11164"
         style="fill:none;stroke:#000000"
         d="m -1738.5827,1108.0711 h -23.1598" />
      <path
         id="path11166"
         style="fill:none;stroke:#000000"
         d="m -1770.3208,1104.1471 a 11.338583,11.338583 0 0 0 8.5783,3.924" />
      <path
         id="path11168"
         style="fill:none;stroke:#000000"
         d="m -1788.8669,1082.6902 18.5461,21.4569" />
      <path
         id="path11170"
         style="fill:none;stroke:#000000"
         d="m -1788.8669,1067.861 a 11.338583,11.338583 0 0 0 0,14.8292" />
      <path
         id="path11172"
         style="fill:none;stroke:#000000"
         d="m -1788.8669,1067.861 18.5461,-21.4569" />
      <path
         id="path11174"
         style="fill:none;stroke:#000000"
         d="m -1761.7425,1042.4801 a 11.338583,11.338583 0 0 0 -8.5783,3.924" />
      <path
         id="path11176"
         style="fill:none;stroke:#000000"
         d="m -1738.5827,1042.4801 h -23.1598" />
      <path
         id="path11178"
         style="fill:none;stroke:#000000"
         d="m -1727.2441,1042.4801 h -11.3386" />
      <path
         id="path11180"
         style="fill:none;stroke:#000000"
         d="m -1727.2441,1042.4801 a 9.448819,9.448819 0 0 0 18.8976,0" />
      <path
         id="path11182"
         style="fill:none;stroke:#000000"
         d="m -1697.0079,1108.0711 h -11.3386" />
      <path
         id="path11184"
         style="fill:none;stroke:#000000"
         d="m -1678.1102,1108.0711 a 9.44885,9.44885 0 0 0 -18.8977,0" />
      <path
         id="path11186"
         style="fill:none;stroke:#000000"
         d="m -1666.7717,1108.0711 h -11.3385" />
      <path
         id="path11188"
         style="fill:none;stroke:#000000"
         d="m -1647.874,1108.0711 a 9.44885,9.44885 0 0 0 -18.8977,0" />
      <path
         id="path11190"
         style="fill:none;stroke:#000000"
         d="m -1636.5354,1108.0711 h -11.3386" />
      <path
         id="path11192"
         style="fill:none;stroke:#000000"
         d="m -1617.6378,1108.0711 a 9.448819,9.448819 0 0 0 -18.8976,0" />
      <path
         id="path11194"
         style="fill:none;stroke:#000000"
         d="m -1606.2992,1108.0711 h -11.3386" />
      <path
         id="path11196"
         style="fill:none;stroke:#000000"
         d="m -1587.4016,1108.0711 a 9.448819,9.448819 0 0 0 -18.8976,0" />
      <path
         id="path11198"
         style="fill:none;stroke:#000000"
         d="m -1576.063,1108.0711 h -11.3386" />
      <path
         id="path11200"
         style="fill:none;stroke:#000000"
         d="m -1557.1654,1108.0711 a 9.448819,9.448819 0 0 0 -18.8976,0" />
      <path
         id="path11202"
         style="fill:none;stroke:#000000"
         d="m -1545.8268,1108.0711 h -11.3386" />
      <path
         id="path11204"
         style="fill:none;stroke:#000000"
         d="m -1526.9291,1108.0711 a 9.44885,9.44885 0 0 0 -18.8977,0" />
      <path
         id="path11206"
         style="fill:none;stroke:#000000"
         d="m -1515.5906,1108.0711 h -11.3385" />
      <path
         id="path11208"
         style="fill:none;stroke:#000000"
         d="m -1496.6929,1108.0711 a 9.44885,9.44885 0 0 0 -18.8977,0" />
      <path
         id="path11210"
         style="fill:none;stroke:#000000"
         d="m -1485.3543,1108.0711 h -11.3386" />
      <path
         id="path11212"
         style="fill:none;stroke:#000000"
         d="m -1466.4567,1108.0711 a 9.448819,9.448819 0 0 0 -18.8976,0" />
      <path
         id="path11214"
         style="fill:none;stroke:#000000"
         d="m -1455.1181,1108.0711 h -11.3386" />
      <path
         id="path11216"
         style="fill:none;stroke:#000000"
         d="m -1436.2205,1108.0711 a 9.448819,9.448819 0 0 0 -18.8976,0" />
      <path
         id="path11218"
         style="fill:none;stroke:#000000"
         d="m -1424.8819,1108.0711 h -11.3386" />
      <path
         id="path11220"
         style="fill:none;stroke:#000000"
         d="m -1405.9843,1108.0711 a 9.448819,9.448819 0 0 0 -18.8976,0" />
      <path
         id="path11222"
         style="fill:none;stroke:#000000"
         d="m -1394.6457,1108.0711 h -11.3386" />
      <path
         id="path11224"
         style="fill:none;stroke:#000000"
         d="m -1375.748,1108.0711 a 9.44885,9.44885 0 0 0 -18.8977,0" />
      <path
         id="path11226"
         style="fill:none;stroke:#000000"
         d="m -1364.4094,1108.0711 h -11.3386" />
      <path
         id="path11228"
         style="fill:none;stroke:#000000"
         d="m -1345.5118,1108.0711 a 9.448819,9.448819 0 0 0 -18.8976,0" />
      <path
         id="path11232"
         style="fill:none;stroke:#000000"
         d="M 0,1028.0315 H 672.75591" />
      <path
         id="path11234"
         style="fill:none;stroke:#000000"
         d="M 672.75591,1122.5197 H 0" />
      <path
         id="path11236"
         style="fill:none;stroke:#000000;stroke-width:0.809618"
         d="m 680.31496,1028.0315 h 41.5748" />
      <path
         id="path11238"
         style="fill:none;stroke:#000000"
         d="m 682.20472,1042.4801 -9.44881,-14.4486" />
      <path
         id="path11240"
         style="fill:none;stroke:#000000"
         d="m 680.31496,1028.0315 9.44882,14.4486" />
      <path
         id="path11242"
         style="fill:none;stroke:#000000"
         d="m 689.76378,1042.4801 h -7.55906" />
      <path
         id="path11244"
         style="fill:none;stroke:#000000;stroke-width:0.809618"
         d="m 721.88976,1122.5197 h -41.5748" />
      <path
         id="path11246"
         style="fill:none;stroke:#000000"
         d="m 680.31496,1122.5197 9.44882,-14.4486" />
      <path
         id="path11248"
         style="fill:none;stroke:#000000"
         d="m 689.76378,1108.0711 h -7.55906" />
      <path
         id="path11250"
         style="fill:none;stroke:#000000"
         d="m 682.20472,1108.0711 -9.44881,14.4486" />
      <path
         id="path11252"
         style="fill:none;stroke:#000000"
         d="m 718.11024,1108.0711 v -65.591" />
      <path
         id="path11254"
         style="fill:none;stroke:#000000"
         d="m 710.55118,1042.4801 v 65.591" />
      <path
         id="path11256"
         style="fill:none;stroke:#000000"
         d="m 710.55118,1108.0711 h 7.55906" />
      <path
         id="path11258"
         style="fill:none;stroke:#000000"
         d="m 718.11024,1042.4801 h -7.55906" />
      <path
         id="path11260"
         style="fill:none;stroke:#000000"
         d="m 651.9685,1042.4801 v 65.591" />
      <path
         id="path11262"
         style="fill:none;stroke:#000000"
         d="m 655.74803,1108.0711 v -65.591" />
      <path
         id="path11264"
         style="fill:none;stroke:#000000"
         d="M 655.74803,1042.4801 H 651.9685" />
      <path
         id="path11266"
         style="fill:none;stroke:#000000"
         d="m 651.9685,1108.0711 h 3.77953" />
      <path
         id="path11268"
         style="fill:none;stroke:#000000"
         d="m 577.14078,1042.8095 3.25603,37.2167" />
      <path
         id="path11270"
         style="fill:none;stroke:#000000"
         d="m 584.16196,1079.6968 -3.25603,-37.2167" />
      <path
         id="path11272"
         style="fill:none;stroke:#000000"
         d="m 580.90593,1042.4801 -3.76515,0.3294" />
      <path
         id="path11274"
         style="fill:none;stroke:#000000"
         d="m 580.39681,1080.0262 3.76515,-0.3294" />
      <path
         id="path11276"
         style="fill:none;stroke:#000000"
         d="m 539.32191,1042.8095 3.25603,37.2166" />
      <path
         id="path11278"
         style="fill:none;stroke:#000000"
         d="m 546.34309,1079.6967 -3.25604,-37.2166" />
      <path
         id="path11280"
         style="fill:none;stroke:#000000"
         d="m 542.57794,1080.0261 3.76515,-0.3294" />
      <path
         id="path11282"
         style="fill:none;stroke:#000000"
         d="m 543.08705,1042.4801 -3.76514,0.3294" />
      <path
         id="path11284"
         style="fill:none;stroke:#000000"
         d="m 505.2692,1042.4801 -3.76514,0.3294" />
      <path
         id="path11286"
         style="fill:none;stroke:#000000"
         d="m 501.50406,1042.8095 3.25603,37.2166" />
      <path
         id="path11288"
         style="fill:none;stroke:#000000"
         d="m 508.52523,1079.6967 -3.25603,-37.2166" />
      <path
         id="path11290"
         style="fill:none;stroke:#000000"
         d="m 504.76009,1080.0261 3.76514,-0.3294" />
      <path
         id="path11292"
         style="fill:none;stroke:#000000"
         d="m 434.86043,1048.1494 v 59.9217" />
      <path
         id="path11294"
         style="fill:none;stroke:#000000"
         d="m 444.81114,1048.1494 h -9.95071" />
      <path
         id="path11296"
         style="fill:none;stroke:#000000"
         d="m 444.81115,1108.0711 -10e-6,-59.9217" />
      <path
         id="path11298"
         style="fill:none;stroke:#000000"
         d="m 434.86043,1108.0711 h 9.95072" />
      <path
         id="path11302"
         style="fill:none;stroke:#000000"
         d="m 737.00787,1043.1496 v 64.252" />
      <path
         id="path11306"
         style="fill:none;stroke:#000000"
         d="m 737.00787,1043.1496 a 15.11811,15.11811 0 0 0 -15.11811,-15.1181" />
      <path
         id="path11308"
         style="fill:none;stroke:#000000"
         d="m 721.88976,1122.5197 a 15.11811,15.11811 0 0 0 15.11811,-15.1181" />
      <g
         id="g13868"
         transform="matrix(-3.7795276,0,0,-3.7795276,-1394.2946,1644.2942)">
        <rect
           y="167.43893"
           x="-169.82507"
           height="9.7512417"
           width="49.751244"
           id="rect13018"
           style="fill:none;stroke:#000000;stroke-width:0.248758;stroke-miterlimit:4;stroke-dasharray:none" />
        <text
           id="text13863"
           y="176.15927"
           x="-162.0078"
           style="font-style:normal;font-weight:normal;font-size:10.5833px;line-height:1.25;font-family:sans-serif;fill:#000000;fill-opacity:1;stroke:none;stroke-width:0.264583"
           xml:space="preserve"><tspan
             style="stroke-width:0.264583"
             y="176.15927"
             x="-162.0078"
             id="tspan13861">50mm</tspan></text>
      </g>
    </g>
    <g
       id="g11680"
       transform="matrix(0.26458333,0,0,0.26458333,195.13229,-248.45413)">
      <path
         id="path11588"
         style="fill:none;stroke:#000000"
         d="m -559.37008,1039.3701 -154.96063,6.3279" />
      <path
         id="path11590"
         style="fill:none;stroke:#000000"
         d="m -714.33071,1045.698 v 15.1181" />
      <path
         id="path11592"
         style="fill:none;stroke:#000000"
         d="m -714.33071,1060.8161 h -3.77953" />
      <path
         id="path11594"
         style="fill:none;stroke:#000000"
         d="m -718.11024,1060.8161 v -7.559" />
      <path
         id="path11596"
         style="fill:none;stroke:#000000"
         d="m -718.11024,1053.2571 -18.89763,11.3385" />
      <path
         id="path11598"
         style="fill:none;stroke:#000000"
         d="m -737.00787,1064.5956 -10e-6,22.6772" />
      <path
         id="path11600"
         style="fill:none;stroke:#000000"
         d="m -737.00788,1087.2728 18.89764,11.3386" />
      <path
         id="path11602"
         style="fill:none;stroke:#000000"
         d="m -718.11024,1098.6114 v -7.5591" />
      <path
         id="path11604"
         style="fill:none;stroke:#000000"
         d="m -718.11024,1091.0523 h 3.77953" />
      <path
         id="path11606"
         style="fill:none;stroke:#000000"
         d="m -714.33071,1091.0523 v 8.6929" />
      <path
         id="path11608"
         style="fill:none;stroke:#000000"
         d="m -714.33071,1099.7452 98.26772,-4.0128" />
      <path
         id="path11610"
         style="fill:none;stroke:#000000"
         d="m -616.06299,1095.7324 56.69291,26.7873" />
      <path
         id="path11612"
         style="fill:none;stroke:#000000"
         d="M -559.37008,1122.5197 H 0" />
      <path
         id="path11614"
         style="fill:none;stroke:#000000"
         d="M 0,1039.3701 H -559.37008" />
      <path
         id="path11616"
         style="fill:none;stroke:#000000"
         d="m -157.85076,1085.9057 c -0.39985,-0.5777 -0.79969,-1.1555 -1.15033,-1.7626 -0.48498,-0.8398 -0.87581,-1.7357 -1.17968,-2.6615 -0.49139,-1.4971 -0.75532,-3.072 -0.81764,-4.6363 -0.1066,-2.6757 0.37662,-5.3201 0.99558,-7.9909 0.72849,-3.1433 1.64501,-6.3231 3.50234,-8.8065 1.39886,-1.8704 3.33138,-3.3457 5.2639,-4.821" />
      <path
         id="path11618"
         style="fill:none;stroke:#000000"
         d="m -151.23659,1055.2269 c 1.93252,1.4753 3.86505,2.9506 5.2639,4.821 1.85733,2.4834 2.77385,5.6632 3.50234,8.8065 0.61896,2.6708 1.10218,5.3152 0.99558,7.9909 -0.0623,1.5643 -0.32625,3.1392 -0.81764,4.6363 -0.30387,0.9258 -0.6947,1.8217 -1.17968,2.6615 -0.35064,0.6071 -0.75048,1.1849 -1.15033,1.7626" />
      <path
         id="path11620"
         style="fill:none;stroke:#000000"
         d="m -451.04729,1080.956 c -0.58036,-0.3956 -1.16071,-0.7911 -1.77022,-1.1387 -0.84302,-0.4808 -1.7418,-0.8699 -2.66921,-1.1621 -1.49977,-0.4726 -3.07439,-0.6919 -4.64166,-0.7869 -3.34311,-0.2027 -6.6528,0.1601 -10.02738,0.5473 -4.47691,0.5137 -9.06802,1.0705 -12.97723,3.0143 -3.0122,1.4977 -5.61953,3.819 -8.22686,6.1402" />
      <path
         id="path11622"
         style="fill:none;stroke:#000000"
         d="m -491.35985,1087.5701 c 2.60733,2.3213 5.21466,4.6425 8.22686,6.1403 3.90921,1.9437 8.50032,2.5005 12.97723,3.0143 3.37458,0.3872 6.68427,0.75 10.02738,0.5473 1.56727,-0.095 3.14189,-0.3144 4.64166,-0.787 0.92741,-0.2922 1.82619,-0.6813 2.66921,-1.162 0.60951,-0.3476 1.18986,-0.7432 1.77022,-1.1387" />
      <path
         id="path11624"
         style="fill:none;stroke:#000000"
         d="m -565.67559,1060.0135 h 20.58904" />
      <path
         id="path11626"
         style="fill:none;stroke:#000000"
         d="m -545.08655,1060.0135 c 1.05817,0.1573 2.11635,0.3146 3.05007,0.7997 0.90396,0.4696 1.69127,1.2464 2.17294,2.144 0.49753,0.9272 0.66897,1.9832 0.8404,3.0391" />
      <path
         id="path11628"
         style="fill:none;stroke:#000000"
         d="m -539.02314,1065.9963 v 18.7691" />
      <path
         id="path11630"
         style="fill:none;stroke:#000000"
         d="m -539.02314,1084.7654 c -0.17143,1.056 -0.34287,2.112 -0.8404,3.0391 -0.48167,0.8976 -1.26898,1.6745 -2.17294,2.1441 -0.93372,0.4851 -1.9919,0.6424 -3.05007,0.7997" />
      <path
         id="path11632"
         style="fill:none;stroke:#000000"
         d="m -545.08655,1090.7483 h -20.58904" />
      <path
         id="path11634"
         style="fill:none;stroke:#000000"
         d="m 151.23659,1055.2269 c -1.93252,1.4753 -3.86505,2.9506 -5.2639,4.821 -1.85733,2.4834 -2.77385,5.6632 -3.50234,8.8065 -0.61896,2.6708 -1.10218,5.3152 -0.99558,7.9909 0.0623,1.5643 0.32625,3.1392 0.81764,4.6363 0.30387,0.9258 0.6947,1.8217 1.17968,2.6615 0.35064,0.6071 0.75048,1.1849 1.15033,1.7626" />
      <path
         id="path11636"
         style="fill:none;stroke:#000000"
         d="m 157.85076,1085.9057 c 0.39985,-0.5777 0.79969,-1.1555 1.15033,-1.7626 0.48498,-0.8398 0.87581,-1.7357 1.17968,-2.6615 0.49139,-1.4971 0.75532,-3.072 0.81764,-4.6363 0.1066,-2.6757 -0.37662,-5.3201 -0.99558,-7.9909 -0.72849,-3.1433 -1.64501,-6.3231 -3.50234,-8.8065 -1.39886,-1.8704 -3.33138,-3.3457 -5.2639,-4.821" />
      <path
         id="path11638"
         style="fill:none;stroke:#000000"
         d="m 491.35985,1087.5701 c -2.60733,2.3213 -5.21466,4.6425 -8.22686,6.1403 -3.90921,1.9437 -8.50032,2.5005 -12.97723,3.0143 -3.37458,0.3872 -6.68427,0.75 -10.02738,0.5473 -1.56727,-0.095 -3.14189,-0.3144 -4.64166,-0.787 -0.92741,-0.2922 -1.82619,-0.6813 -2.66921,-1.162 -0.60951,-0.3476 -1.18986,-0.7432 -1.77022,-1.1387" />
      <path
         id="path11640"
         style="fill:none;stroke:#000000"
         d="m 451.04729,1080.956 c 0.58036,-0.3956 1.16071,-0.7911 1.77022,-1.1387 0.84302,-0.4808 1.7418,-0.8699 2.66921,-1.1621 1.49977,-0.4726 3.07439,-0.6919 4.64166,-0.7869 3.34311,-0.2027 6.6528,0.1601 10.02738,0.5473 4.47691,0.5137 9.06802,1.0705 12.97723,3.0143 3.0122,1.4977 5.61953,3.819 8.22686,6.1402" />
      <path
         id="path11642"
         style="fill:none;stroke:#000000"
         d="M 559.37008,1122.5197 H 0" />
      <path
         id="path11644"
         style="fill:none;stroke:#000000"
         d="m 539.02314,1065.9963 v 18.7691" />
      <path
         id="path11646"
         style="fill:none;stroke:#000000"
         d="m 545.08655,1060.0135 c -1.05817,0.1573 -2.11635,0.3146 -3.05007,0.7997 -0.90396,0.4696 -1.69127,1.2464 -2.17294,2.144 -0.49753,0.9272 -0.66897,1.9832 -0.8404,3.0391" />
      <path
         id="path11648"
         style="fill:none;stroke:#000000"
         d="M 565.67559,1060.0135 H 545.08655" />
      <path
         id="path11650"
         style="fill:none;stroke:#000000"
         d="m 545.08655,1090.7483 h 20.58904" />
      <path
         id="path11652"
         style="fill:none;stroke:#000000"
         d="m 539.02314,1084.7654 c 0.17143,1.056 0.34287,2.112 0.8404,3.0391 0.48167,0.8976 1.26898,1.6745 2.17294,2.1441 0.93372,0.4851 1.9919,0.6424 3.05007,0.7997" />
      <path
         id="path11654"
         style="fill:none;stroke:#000000"
         d="m 718.11024,1091.0523 h -3.77953" />
      <path
         id="path11656"
         style="fill:none;stroke:#000000"
         d="m 714.33071,1045.698 v 15.1181" />
      <path
         id="path11658"
         style="fill:none;stroke:#000000"
         d="m 714.33071,1060.8161 h 3.77953" />
      <path
         id="path11660"
         style="fill:none;stroke:#000000"
         d="m 718.11024,1060.8161 v -7.559" />
      <path
         id="path11662"
         style="fill:none;stroke:#000000"
         d="m 737.00788,1087.2728 -18.89764,11.3386" />
      <path
         id="path11664"
         style="fill:none;stroke:#000000"
         d="m 737.00787,1064.5956 10e-6,22.6772" />
      <path
         id="path11666"
         style="fill:none;stroke:#000000"
         d="m 714.33071,1091.0523 v 8.6929" />
      <path
         id="path11668"
         style="fill:none;stroke:#000000"
         d="m 718.11024,1053.2571 18.89763,11.3385" />
      <path
         id="path11670"
         style="fill:none;stroke:#000000"
         d="m 718.11024,1098.6114 v -7.5591" />
      <path
         id="path11672"
         style="fill:none;stroke:#000000"
         d="m 714.33071,1099.7452 -98.26772,-4.0128" />
      <path
         id="path11674"
         style="fill:none;stroke:#000000"
         d="m 616.06299,1095.7324 -56.69291,26.7873" />
      <path
         id="path11676"
         style="fill:none;stroke:#000000"
         d="m 559.37008,1039.3701 154.96063,6.3279" />
      <path
         id="path11678"
         style="fill:none;stroke:#000000"
         d="M 0,1039.3701 H 559.37008" />
    </g>
  </g>
</svg>
