  0
SECTION
  2
HEADER
  9
$ACADVER
  1
AC1014
  9
$HANDSEED
  5
FFFF
  9
$MEASUREMENT
 70
     1
  0
ENDSEC
  0
SECTION
  2
TABLES
  0
TABLE
  2
VPORT
  5
8
330
0
100
AcDbSymbolTable
 70
     4
  0
VPORT
  5
2E
330
8
100
AcDbSymbolTableRecord
100
AcDbViewportTableRecord
  2
*ACTIVE
 70
     0
 10
0.0
 20
0.0
 11
1.0
 21
1.0
 12
210.0
 22
148.5
 13
0.0
 23
0.0
 14
10.0
 24
10.0
 15
10.0
 25
10.0
 16
0.0
 26
0.0
 36
1.0
 17
0.0
 27
0.0
 37
0.0
 40
341.0
 41
1.24
 42
50.0
 43
0.0
 44
0.0
 50
0.0
 51
0.0
 71
     0
 72
   100
 73
     1
 74
     3
 75
     0
 76
     0
 77
     0
 78
     0
  0
ENDTAB
  0
TABLE
  2
LTYPE
  5
5
330
0
100
AcDbSymbolTable
 70
     1
  0
LTYPE
  5
14
330
5
100
AcDbSymbolTableRecord
100
AcDbLinetypeTableRecord
  2
BYBLOCK
 70
     0
  3

 72
    65
 73
     0
 40
0.0
  0
LTYPE
  5
15
330
5
100
AcDbSymbolTableRecord
100
AcDbLinetypeTableRecord
  2
BYLAYER
 70
     0
  3

 72
    65
 73
     0
 40
0.0
  0
LTYPE
  5
16
330
5
100
AcDbSymbolTableRecord
100
AcDbLinetypeTableRecord
  2
CONTINUOUS
 70
     0
  3
Solid line
 72
    65
 73
     0
 40
0.0
  0
ENDTAB
  0
TABLE
  2
LAYER
  5
2
100
AcDbSymbolTable
 70
2
  0
LAYER
  5
50
100
AcDbSymbolTableRecord
100
AcDbLayerTableRecord
  2
0
 70
0
  6
CONTINUOUS
  0
LAYER
  5
51
100
AcDbSymbolTableRecord
100
AcDbLayerTableRecord
  2
Calque_1
 70
0
  6
CONTINUOUS
  0
ENDTAB
  0
TABLE
  2
STYLE
  5
3
330
0
100
AcDbSymbolTable
 70
     1
  0
STYLE
  5
11
330
3
100
AcDbSymbolTableRecord
100
AcDbTextStyleTableRecord
  2
STANDARD
 70
     0
 40
0.0
 41
1.0
 50
0.0
 71
     0
 42
2.5
  3
txt
  4

  0
ENDTAB
  0
TABLE
  2
VIEW
  5
6
330
0
100
AcDbSymbolTable
 70
     0
  0
ENDTAB
  0
TABLE
  2
UCS
  5
7
330
0
100
AcDbSymbolTable
 70
     0
  0
ENDTAB
  0
TABLE
  2
APPID
  5
9
330
0
100
AcDbSymbolTable
 70
     2
  0
APPID
  5
12
330
9
100
AcDbSymbolTableRecord
100
AcDbRegAppTableRecord
  2
ACAD
 70
     0
  0
ENDTAB
  0
TABLE
  2
DIMSTYLE
  5
A
330
0
100
AcDbSymbolTable
 70
     1
  0
DIMSTYLE
105
27
330
A
100
AcDbSymbolTableRecord
100
AcDbDimStyleTableRecord
  2
ISO-25
 70
     0
  3

  4

  5

  6

  7

 40
1.0
 41
2.5
 42
0.625
 43
3.75
 44
1.25
 45
0.0
 46
0.0
 47
0.0
 48
0.0
140
2.5
141
2.5
142
0.0
143
0.03937007874016
144
1.0
145
0.0
146
1.0
147
0.625
 71
     0
 72
     0
 73
     0
 74
     0
 75
     0
 76
     0
 77
     1
 78
     8
170
     0
171
     3
172
     1
173
     0
174
     0
175
     0
176
     0
177
     0
178
     0
270
     2
271
     2
272
     2
273
     2
274
     3
340
11
275
     0
280
     0
281
     0
282
     0
283
     0
284
     8
285
     0
286
     0
287
     3
288
     0
  0
ENDTAB
  0
TABLE
  2
BLOCK_RECORD
  5
1
330
0
100
AcDbSymbolTable
 70
     1
  0
BLOCK_RECORD
  5
1F
330
1
100
AcDbSymbolTableRecord
100
AcDbBlockTableRecord
  2
*MODEL_SPACE
  0
BLOCK_RECORD
  5
1B
330
1
100
AcDbSymbolTableRecord
100
AcDbBlockTableRecord
  2
*PAPER_SPACE
  0
ENDTAB
  0
ENDSEC
  0
SECTION
  2
BLOCKS
  0
BLOCK
  5
20
330
1F
100
AcDbEntity
  8
0
100
AcDbBlockBegin
  2
*MODEL_SPACE
 70
     0
 10
0.0
 20
0.0
 30
0.0
  3
*MODEL_SPACE
  1

  0
ENDBLK
  5
21
330
1F
100
AcDbEntity
  8
0
100
AcDbBlockEnd
  0
BLOCK
  5
1C
330
1B
100
AcDbEntity
 67
     1
  8
0
100
AcDbBlockBegin
  2
*PAPER_SPACE
  1

  0
ENDBLK
  5
1D
330
1B
100
AcDbEntity
 67
     1
  8
0
100
AcDbBlockEnd
  0
ENDSEC
  0
SECTION
  2
ENTITIES
  0
LWPOLYLINE
  5
100
100
AcDbEntity
  8
Calque_1
 62
7
100
AcDbPolyline
 90
14
 70
0
 10
1255.746953
 20
580.444830
 30
0.0
 10
1100.753477
 20
574.115589
 30
0.0
 10
1100.753477
 20
558.994285
 30
0.0
 10
1096.973146
 20
558.994285
 30
0.0
 10
1096.973146
 20
566.554887
 30
0.0
 10
1078.071510
 20
555.213983
 30
0.0
 10
1078.071500
 20
532.531977
 30
0.0
 10
1096.973146
 20
521.190973
 30
0.0
 10
1096.973146
 20
528.751676
 30
0.0
 10
1100.753477
 20
528.751676
 30
0.0
 10
1100.753477
 20
520.056933
 30
0.0
 10
1199.042026
 20
524.070584
 30
0.0
 10
1255.746953
 20
497.277606
 30
0.0
 10
1815.235599
 20
497.277606
 30
0.0
  0
SPLINE
  5
101
100
AcDbEntity
  8
Calque_1
 62
7
100
AcDbSpline
 70
8
 71
3
 72
8
 73
4
 74
0
 40
0
 40
0
 40
0
 40
0
 40
1
 40
1
 40
1
 40
1
 10
1657.351380
 20
533.899366
 30
0.0
 10
1656.951445
 20
534.477189
 30
0.0
 10
1656.551521
 20
535.055111
 30
0.0
 10
1656.200806
 20
535.662340
 30
0.0
  0
SPLINE
  5
102
100
AcDbEntity
  8
Calque_1
 62
7
100
AcDbSpline
 70
8
 71
3
 72
8
 73
4
 74
0
 40
0
 40
0
 40
0
 40
0
 40
1
 40
1
 40
1
 40
1
 10
1656.200806
 20
535.662340
 30
0.0
 10
1655.715724
 20
536.502318
 30
0.0
 10
1655.324811
 20
537.398408
 30
0.0
 10
1655.020876
 20
538.324404
 30
0.0
  0
SPLINE
  5
103
100
AcDbEntity
  8
Calque_1
 62
7
100
AcDbSpline
 70
8
 71
3
 72
8
 73
4
 74
0
 40
0
 40
0
 40
0
 40
0
 40
1
 40
1
 40
1
 40
1
 10
1655.020876
 20
538.324404
 30
0.0
 10
1654.529382
 20
539.821822
 30
0.0
 10
1654.265396
 20
541.397055
 30
0.0
 10
1654.203063
 20
542.961687
 30
0.0
  0
SPLINE
  5
104
100
AcDbEntity
  8
Calque_1
 62
7
100
AcDbSpline
 70
8
 71
3
 72
8
 73
4
 74
0
 40
0
 40
0
 40
0
 40
0
 40
1
 40
1
 40
1
 40
1
 10
1654.203063
 20
542.961687
 30
0.0
 10
1654.096440
 20
545.637954
 30
0.0
 10
1654.579763
 20
548.282915
 30
0.0
 10
1655.198854
 20
550.954281
 30
0.0
  0
SPLINE
  5
105
100
AcDbEntity
  8
Calque_1
 62
7
100
AcDbSpline
 70
8
 71
3
 72
8
 73
4
 74
0
 40
0
 40
0
 40
0
 40
0
 40
1
 40
1
 40
1
 40
1
 10
1655.198854
 20
550.954281
 30
0.0
 10
1655.927498
 20
554.098247
 30
0.0
 10
1656.844213
 20
557.278721
 30
0.0
 10
1658.701936
 20
559.762647
 30
0.0
  0
SPLINE
  5
106
100
AcDbEntity
  8
Calque_1
 62
7
100
AcDbSpline
 70
8
 71
3
 72
8
 73
4
 74
0
 40
0
 40
0
 40
0
 40
0
 40
1
 40
1
 40
1
 40
1
 10
1658.701936
 20
559.762647
 30
0.0
 10
1660.101093
 20
561.633444
 30
0.0
 10
1662.034022
 20
563.109057
 30
0.0
 10
1663.966952
 20
564.584669
 30
0.0
  0
SPLINE
  5
107
100
AcDbEntity
  8
Calque_1
 62
7
100
AcDbSpline
 70
8
 71
3
 72
8
 73
4
 74
0
 40
0
 40
0
 40
0
 40
0
 40
1
 40
1
 40
1
 40
1
 10
1663.966952
 20
564.584669
 30
0.0
 10
1665.899882
 20
563.109057
 30
0.0
 10
1667.832821
 20
561.633444
 30
0.0
 10
1669.231968
 20
559.762647
 30
0.0
  0
SPLINE
  5
108
100
AcDbEntity
  8
Calque_1
 62
7
100
AcDbSpline
 70
8
 71
3
 72
8
 73
4
 74
0
 40
0
 40
0
 40
0
 40
0
 40
1
 40
1
 40
1
 40
1
 10
1669.231968
 20
559.762647
 30
0.0
 10
1671.089692
 20
557.278721
 30
0.0
 10
1672.006406
 20
554.098247
 30
0.0
 10
1672.735050
 20
550.954281
 30
0.0
  0
SPLINE
  5
109
100
AcDbEntity
  8
Calque_1
 62
7
100
AcDbSpline
 70
8
 71
3
 72
8
 73
4
 74
0
 40
0
 40
0
 40
0
 40
0
 40
1
 40
1
 40
1
 40
1
 10
1672.735050
 20
550.954281
 30
0.0
 10
1673.354141
 20
548.282915
 30
0.0
 10
1673.837464
 20
545.637954
 30
0.0
 10
1673.730841
 20
542.961687
 30
0.0
  0
SPLINE
  5
10a
100
AcDbEntity
  8
Calque_1
 62
7
100
AcDbSpline
 70
8
 71
3
 72
8
 73
4
 74
0
 40
0
 40
0
 40
0
 40
0
 40
1
 40
1
 40
1
 40
1
 10
1673.730841
 20
542.961687
 30
0.0
 10
1673.668528
 20
541.397055
 30
0.0
 10
1673.404522
 20
539.821822
 30
0.0
 10
1672.913028
 20
538.324404
 30
0.0
  0
SPLINE
  5
10b
100
AcDbEntity
  8
Calque_1
 62
7
100
AcDbSpline
 70
8
 71
3
 72
8
 73
4
 74
0
 40
0
 40
0
 40
0
 40
0
 40
1
 40
1
 40
1
 40
1
 10
1672.913028
 20
538.324404
 30
0.0
 10
1672.609094
 20
537.398408
 30
0.0
 10
1672.218181
 20
536.502318
 30
0.0
 10
1671.733098
 20
535.662340
 30
0.0
  0
SPLINE
  5
10c
100
AcDbEntity
  8
Calque_1
 62
7
100
AcDbSpline
 70
8
 71
3
 72
8
 73
4
 74
0
 40
0
 40
0
 40
0
 40
0
 40
1
 40
1
 40
1
 40
1
 10
1671.733098
 20
535.662340
 30
0.0
 10
1671.382384
 20
535.055111
 30
0.0
 10
1670.982459
 20
534.477189
 30
0.0
 10
1670.582524
 20
533.899366
 30
0.0
  0
SPLINE
  5
10d
100
AcDbEntity
  8
Calque_1
 62
7
100
AcDbSpline
 70
8
 71
3
 72
8
 73
4
 74
0
 40
0
 40
0
 40
0
 40
0
 40
1
 40
1
 40
1
 40
1
 10
1364.092703
 20
538.850116
 30
0.0
 10
1363.512220
 20
539.245799
 30
0.0
 10
1362.931747
 20
539.641383
 30
0.0
 10
1362.322108
 20
539.989057
 30
0.0
  0
SPLINE
  5
10e
100
AcDbEntity
  8
Calque_1
 62
7
100
AcDbSpline
 70
8
 71
3
 72
8
 73
4
 74
0
 40
0
 40
0
 40
0
 40
0
 40
1
 40
1
 40
1
 40
1
 10
1362.322108
 20
539.989057
 30
0.0
 10
1361.478909
 20
540.469959
 30
0.0
 10
1360.579939
 20
540.859141
 30
0.0
 10
1359.652332
 20
541.151403
 30
0.0
  0
SPLINE
  5
10f
100
AcDbEntity
  8
Calque_1
 62
7
100
AcDbSpline
 70
8
 71
3
 72
8
 73
4
 74
0
 40
0
 40
0
 40
0
 40
0
 40
1
 40
1
 40
1
 40
1
 10
1359.652332
 20
541.151403
 30
0.0
 10
1358.152244
 20
541.624103
 30
0.0
 10
1356.577290
 20
541.843450
 30
0.0
 10
1355.009688
 20
541.938470
 30
0.0
  0
SPLINE
  5
110
100
AcDbEntity
  8
Calque_1
 62
7
100
AcDbSpline
 70
8
 71
3
 72
8
 73
4
 74
0
 40
0
 40
0
 40
0
 40
0
 40
1
 40
1
 40
1
 40
1
 10
1355.009688
 20
541.938470
 30
0.0
 10
1351.665870
 20
542.141213
 30
0.0
 10
1348.355478
 20
541.778336
 30
0.0
 10
1344.980183
 20
541.391054
 30
0.0
  0
SPLINE
  5
111
100
AcDbEntity
  8
Calque_1
 62
7
100
AcDbSpline
 70
8
 71
3
 72
8
 73
4
 74
0
 40
0
 40
0
 40
0
 40
0
 40
1
 40
1
 40
1
 40
1
 10
1344.980183
 20
541.391054
 30
0.0
 10
1340.502324
 20
540.877245
 30
0.0
 10
1335.910241
 20
540.320327
 30
0.0
 10
1332.000202
 20
538.376115
 30
0.0
  0
SPLINE
  5
112
100
AcDbEntity
  8
Calque_1
 62
7
100
AcDbSpline
 70
8
 71
3
 72
8
 73
4
 74
0
 40
0
 40
0
 40
0
 40
0
 40
1
 40
1
 40
1
 40
1
 10
1332.000202
 20
538.376115
 30
0.0
 10
1328.987364
 20
536.878098
 30
0.0
 10
1326.379481
 20
534.556306
 30
0.0
 10
1323.771598
 20
532.234614
 30
0.0
  0
SPLINE
  5
113
100
AcDbEntity
  8
Calque_1
 62
7
100
AcDbSpline
 70
8
 71
3
 72
8
 73
4
 74
0
 40
0
 40
0
 40
0
 40
0
 40
1
 40
1
 40
1
 40
1
 10
1323.771598
 20
532.234614
 30
0.0
 10
1326.379481
 20
529.912822
 30
0.0
 10
1328.987364
 20
527.591130
 30
0.0
 10
1332.000202
 20
526.093012
 30
0.0
  0
SPLINE
  5
114
100
AcDbEntity
  8
Calque_1
 62
7
100
AcDbSpline
 70
8
 71
3
 72
8
 73
4
 74
0
 40
0
 40
0
 40
0
 40
0
 40
1
 40
1
 40
1
 40
1
 10
1332.000202
 20
526.093012
 30
0.0
 10
1335.910241
 20
524.148900
 30
0.0
 10
1340.502324
 20
523.591982
 30
0.0
 10
1344.980183
 20
523.078073
 30
0.0
  0
SPLINE
  5
115
100
AcDbEntity
  8
Calque_1
 62
7
100
AcDbSpline
 70
8
 71
3
 72
8
 73
4
 74
0
 40
0
 40
0
 40
0
 40
0
 40
1
 40
1
 40
1
 40
1
 10
1344.980183
 20
523.078073
 30
0.0
 10
1348.355478
 20
522.690791
 30
0.0
 10
1351.665870
 20
522.327914
 30
0.0
 10
1355.009688
 20
522.530657
 30
0.0
  0
SPLINE
  5
116
100
AcDbEntity
  8
Calque_1
 62
7
100
AcDbSpline
 70
8
 71
3
 72
8
 73
4
 74
0
 40
0
 40
0
 40
0
 40
0
 40
1
 40
1
 40
1
 40
1
 10
1355.009688
 20
522.530657
 30
0.0
 10
1356.577290
 20
522.625677
 30
0.0
 10
1358.152244
 20
522.845124
 30
0.0
 10
1359.652332
 20
523.317824
 30
0.0
  0
SPLINE
  5
117
100
AcDbEntity
  8
Calque_1
 62
7
100
AcDbSpline
 70
8
 71
3
 72
8
 73
4
 74
0
 40
0
 40
0
 40
0
 40
0
 40
1
 40
1
 40
1
 40
1
 10
1359.652332
 20
523.317824
 30
0.0
 10
1360.579939
 20
523.610086
 30
0.0
 10
1361.478909
 20
523.999268
 30
0.0
 10
1362.322108
 20
524.480070
 30
0.0
  0
SPLINE
  5
118
100
AcDbEntity
  8
Calque_1
 62
7
100
AcDbSpline
 70
8
 71
3
 72
8
 73
4
 74
0
 40
0
 40
0
 40
0
 40
0
 40
1
 40
1
 40
1
 40
1
 10
1362.322108
 20
524.480070
 30
0.0
 10
1362.931747
 20
524.827744
 30
0.0
 10
1363.512220
 20
525.223428
 30
0.0
 10
1364.092703
 20
525.619012
 30
0.0
  0
LWPOLYLINE
  5
119
100
AcDbEntity
  8
Calque_1
 62
7
100
AcDbPolyline
 90
2
 70
0
 10
1815.235599
 20
580.444830
 30
0.0
 10
1255.746953
 20
580.444830
 30
0.0
  0
SPLINE
  5
11a
100
AcDbEntity
  8
Calque_1
 62
7
100
AcDbSpline
 70
8
 71
3
 72
8
 73
4
 74
0
 40
0
 40
0
 40
0
 40
0
 40
1
 40
1
 40
1
 40
1
 10
1270.033510
 20
559.797055
 30
0.0
 10
1271.091905
 20
559.639721
 30
0.0
 10
1272.150309
 20
559.482388
 30
0.0
 10
1273.084227
 20
558.997185
 30
0.0
  0
SPLINE
  5
11b
100
AcDbEntity
  8
Calque_1
 62
7
100
AcDbSpline
 70
8
 71
3
 72
8
 73
4
 74
0
 40
0
 40
0
 40
0
 40
0
 40
1
 40
1
 40
1
 40
1
 10
1273.084227
 20
558.997185
 30
0.0
 10
1273.988378
 20
558.527486
 30
0.0
 10
1274.775855
 20
557.750521
 30
0.0
 10
1275.257627
 20
556.852731
 30
0.0
  0
SPLINE
  5
11c
100
AcDbEntity
  8
Calque_1
 62
7
100
AcDbSpline
 70
8
 71
3
 72
8
 73
4
 74
0
 40
0
 40
0
 40
0
 40
0
 40
1
 40
1
 40
1
 40
1
 10
1275.257627
 20
556.852731
 30
0.0
 10
1275.755263
 20
555.925334
 30
0.0
 10
1275.926739
 20
554.869110
 30
0.0
 10
1276.098205
 20
553.812987
 30
0.0
  0
LWPOLYLINE
  5
11d
100
AcDbEntity
  8
Calque_1
 62
7
100
AcDbPolyline
 90
2
 70
0
 10
1249.440106
 20
559.797055
 30
0.0
 10
1270.033510
 20
559.797055
 30
0.0
  0
SPLINE
  5
11e
100
AcDbEntity
  8
Calque_1
 62
7
100
AcDbSpline
 70
8
 71
3
 72
8
 73
4
 74
0
 40
0
 40
0
 40
0
 40
0
 40
1
 40
1
 40
1
 40
1
 10
1276.098205
 20
535.039908
 30
0.0
 10
1275.926739
 20
533.983684
 30
0.0
 10
1275.755263
 20
532.927460
 30
0.0
 10
1275.257627
 20
532.000164
 30
0.0
  0
SPLINE
  5
11f
100
AcDbEntity
  8
Calque_1
 62
7
100
AcDbSpline
 70
8
 71
3
 72
8
 73
4
 74
0
 40
0
 40
0
 40
0
 40
0
 40
1
 40
1
 40
1
 40
1
 10
1275.257627
 20
532.000164
 30
0.0
 10
1274.775855
 20
531.102374
 30
0.0
 10
1273.988378
 20
530.325309
 30
0.0
 10
1273.084227
 20
529.855609
 30
0.0
  0
SPLINE
  5
120
100
AcDbEntity
  8
Calque_1
 62
7
100
AcDbSpline
 70
8
 71
3
 72
8
 73
4
 74
0
 40
0
 40
0
 40
0
 40
0
 40
1
 40
1
 40
1
 40
1
 10
1273.084227
 20
529.855609
 30
0.0
 10
1272.150309
 20
529.370407
 30
0.0
 10
1271.091905
 20
529.213073
 30
0.0
 10
1270.033510
 20
529.055740
 30
0.0
  0
LWPOLYLINE
  5
121
100
AcDbEntity
  8
Calque_1
 62
7
100
AcDbPolyline
 90
2
 70
0
 10
1276.098205
 20
553.812987
 30
0.0
 10
1276.098205
 20
535.039908
 30
0.0
  0
SPLINE
  5
122
100
AcDbEntity
  8
Calque_1
 62
7
100
AcDbSpline
 70
8
 71
3
 72
8
 73
4
 74
0
 40
0
 40
0
 40
0
 40
0
 40
1
 40
1
 40
1
 40
1
 10
1966.504245
 20
564.584669
 30
0.0
 10
1964.571316
 20
563.109057
 30
0.0
 10
1962.638376
 20
561.633444
 30
0.0
 10
1961.239230
 20
559.762647
 30
0.0
  0
SPLINE
  5
123
100
AcDbEntity
  8
Calque_1
 62
7
100
AcDbSpline
 70
8
 71
3
 72
8
 73
4
 74
0
 40
0
 40
0
 40
0
 40
0
 40
1
 40
1
 40
1
 40
1
 10
1961.239230
 20
559.762647
 30
0.0
 10
1959.381506
 20
557.278721
 30
0.0
 10
1958.464792
 20
554.098247
 30
0.0
 10
1957.736147
 20
550.954281
 30
0.0
  0
SPLINE
  5
124
100
AcDbEntity
  8
Calque_1
 62
7
100
AcDbSpline
 70
8
 71
3
 72
8
 73
4
 74
0
 40
0
 40
0
 40
0
 40
0
 40
1
 40
1
 40
1
 40
1
 10
1957.736147
 20
550.954281
 30
0.0
 10
1957.117056
 20
548.282915
 30
0.0
 10
1956.633734
 20
545.637954
 30
0.0
 10
1956.740356
 20
542.961687
 30
0.0
  0
SPLINE
  5
125
100
AcDbEntity
  8
Calque_1
 62
7
100
AcDbSpline
 70
8
 71
3
 72
8
 73
4
 74
0
 40
0
 40
0
 40
0
 40
0
 40
1
 40
1
 40
1
 40
1
 10
1956.740356
 20
542.961687
 30
0.0
 10
1956.802669
 20
541.397055
 30
0.0
 10
1957.066675
 20
539.821822
 30
0.0
 10
1957.558170
 20
538.324404
 30
0.0
  0
SPLINE
  5
126
100
AcDbEntity
  8
Calque_1
 62
7
100
AcDbSpline
 70
8
 71
3
 72
8
 73
4
 74
0
 40
0
 40
0
 40
0
 40
0
 40
1
 40
1
 40
1
 40
1
 10
1957.558170
 20
538.324404
 30
0.0
 10
1957.862104
 20
537.398408
 30
0.0
 10
1958.253017
 20
536.502318
 30
0.0
 10
1958.738100
 20
535.662340
 30
0.0
  0
SPLINE
  5
127
100
AcDbEntity
  8
Calque_1
 62
7
100
AcDbSpline
 70
8
 71
3
 72
8
 73
4
 74
0
 40
0
 40
0
 40
0
 40
0
 40
1
 40
1
 40
1
 40
1
 10
1958.738100
 20
535.662340
 30
0.0
 10
1959.088814
 20
535.055111
 30
0.0
 10
1959.488739
 20
534.477189
 30
0.0
 10
1959.888673
 20
533.899366
 30
0.0
  0
SPLINE
  5
128
100
AcDbEntity
  8
Calque_1
 62
7
100
AcDbSpline
 70
8
 71
3
 72
8
 73
4
 74
0
 40
0
 40
0
 40
0
 40
0
 40
1
 40
1
 40
1
 40
1
 10
1973.119817
 20
533.899366
 30
0.0
 10
1973.519752
 20
534.477189
 30
0.0
 10
1973.919677
 20
535.055111
 30
0.0
 10
1974.270391
 20
535.662340
 30
0.0
  0
SPLINE
  5
129
100
AcDbEntity
  8
Calque_1
 62
7
100
AcDbSpline
 70
8
 71
3
 72
8
 73
4
 74
0
 40
0
 40
0
 40
0
 40
0
 40
1
 40
1
 40
1
 40
1
 10
1974.270391
 20
535.662340
 30
0.0
 10
1974.755474
 20
536.502318
 30
0.0
 10
1975.146387
 20
537.398408
 30
0.0
 10
1975.450321
 20
538.324404
 30
0.0
  0
SPLINE
  5
12a
100
AcDbEntity
  8
Calque_1
 62
7
100
AcDbSpline
 70
8
 71
3
 72
8
 73
4
 74
0
 40
0
 40
0
 40
0
 40
0
 40
1
 40
1
 40
1
 40
1
 10
1975.450321
 20
538.324404
 30
0.0
 10
1975.941815
 20
539.821822
 30
0.0
 10
1976.205801
 20
541.397055
 30
0.0
 10
1976.268135
 20
542.961687
 30
0.0
  0
SPLINE
  5
12b
100
AcDbEntity
  8
Calque_1
 62
7
100
AcDbSpline
 70
8
 71
3
 72
8
 73
4
 74
0
 40
0
 40
0
 40
0
 40
0
 40
1
 40
1
 40
1
 40
1
 10
1976.268135
 20
542.961687
 30
0.0
 10
1976.374757
 20
545.637954
 30
0.0
 10
1975.891435
 20
548.282915
 30
0.0
 10
1975.272344
 20
550.954281
 30
0.0
  0
SPLINE
  5
12c
100
AcDbEntity
  8
Calque_1
 62
7
100
AcDbSpline
 70
8
 71
3
 72
8
 73
4
 74
0
 40
0
 40
0
 40
0
 40
0
 40
1
 40
1
 40
1
 40
1
 10
1975.272344
 20
550.954281
 30
0.0
 10
1974.543699
 20
554.098247
 30
0.0
 10
1973.626985
 20
557.278721
 30
0.0
 10
1971.769261
 20
559.762647
 30
0.0
  0
SPLINE
  5
12d
100
AcDbEntity
  8
Calque_1
 62
7
100
AcDbSpline
 70
8
 71
3
 72
8
 73
4
 74
0
 40
0
 40
0
 40
0
 40
0
 40
1
 40
1
 40
1
 40
1
 10
1971.769261
 20
559.762647
 30
0.0
 10
1970.370105
 20
561.633444
 30
0.0
 10
1968.437175
 20
563.109057
 30
0.0
 10
1966.504245
 20
564.584669
 30
0.0
  0
SPLINE
  5
12e
100
AcDbEntity
  8
Calque_1
 62
7
100
AcDbSpline
 70
8
 71
3
 72
8
 73
4
 74
0
 40
0
 40
0
 40
0
 40
0
 40
1
 40
1
 40
1
 40
1
 10
2306.699599
 20
532.234614
 30
0.0
 10
2304.091717
 20
529.912822
 30
0.0
 10
2301.483834
 20
527.591130
 30
0.0
 10
2298.470995
 20
526.093012
 30
0.0
  0
SPLINE
  5
12f
100
AcDbEntity
  8
Calque_1
 62
7
100
AcDbSpline
 70
8
 71
3
 72
8
 73
4
 74
0
 40
0
 40
0
 40
0
 40
0
 40
1
 40
1
 40
1
 40
1
 10
2298.470995
 20
526.093012
 30
0.0
 10
2294.560957
 20
524.148900
 30
0.0
 10
2289.968874
 20
523.591982
 30
0.0
 10
2285.491015
 20
523.078073
 30
0.0
  0
SPLINE
  5
130
100
AcDbEntity
  8
Calque_1
 62
7
100
AcDbSpline
 70
8
 71
3
 72
8
 73
4
 74
0
 40
0
 40
0
 40
0
 40
0
 40
1
 40
1
 40
1
 40
1
 10
2285.491015
 20
523.078073
 30
0.0
 10
2282.115719
 20
522.690791
 30
0.0
 10
2278.805328
 20
522.327914
 30
0.0
 10
2275.461509
 20
522.530657
 30
0.0
  0
SPLINE
  5
131
100
AcDbEntity
  8
Calque_1
 62
7
100
AcDbSpline
 70
8
 71
3
 72
8
 73
4
 74
0
 40
0
 40
0
 40
0
 40
0
 40
1
 40
1
 40
1
 40
1
 10
2275.461509
 20
522.530657
 30
0.0
 10
2273.893907
 20
522.625677
 30
0.0
 10
2272.318953
 20
522.845124
 30
0.0
 10
2270.818865
 20
523.317824
 30
0.0
  0
SPLINE
  5
132
100
AcDbEntity
  8
Calque_1
 62
7
100
AcDbSpline
 70
8
 71
3
 72
8
 73
4
 74
0
 40
0
 40
0
 40
0
 40
0
 40
1
 40
1
 40
1
 40
1
 10
2270.818865
 20
523.317824
 30
0.0
 10
2269.891259
 20
523.610086
 30
0.0
 10
2268.992288
 20
523.999268
 30
0.0
 10
2268.149090
 20
524.480070
 30
0.0
  0
SPLINE
  5
133
100
AcDbEntity
  8
Calque_1
 62
7
100
AcDbSpline
 70
8
 71
3
 72
8
 73
4
 74
0
 40
0
 40
0
 40
0
 40
0
 40
1
 40
1
 40
1
 40
1
 10
2268.149090
 20
524.480070
 30
0.0
 10
2267.539450
 20
524.827744
 30
0.0
 10
2266.958977
 20
525.223428
 30
0.0
 10
2266.378494
 20
525.619012
 30
0.0
  0
SPLINE
  5
134
100
AcDbEntity
  8
Calque_1
 62
7
100
AcDbSpline
 70
8
 71
3
 72
8
 73
4
 74
0
 40
0
 40
0
 40
0
 40
0
 40
1
 40
1
 40
1
 40
1
 10
2266.378494
 20
538.850116
 30
0.0
 10
2266.958977
 20
539.245799
 30
0.0
 10
2267.539450
 20
539.641383
 30
0.0
 10
2268.149090
 20
539.989057
 30
0.0
  0
SPLINE
  5
135
100
AcDbEntity
  8
Calque_1
 62
7
100
AcDbSpline
 70
8
 71
3
 72
8
 73
4
 74
0
 40
0
 40
0
 40
0
 40
0
 40
1
 40
1
 40
1
 40
1
 10
2268.149090
 20
539.989057
 30
0.0
 10
2268.992288
 20
540.469959
 30
0.0
 10
2269.891259
 20
540.859141
 30
0.0
 10
2270.818865
 20
541.151403
 30
0.0
  0
SPLINE
  5
136
100
AcDbEntity
  8
Calque_1
 62
7
100
AcDbSpline
 70
8
 71
3
 72
8
 73
4
 74
0
 40
0
 40
0
 40
0
 40
0
 40
1
 40
1
 40
1
 40
1
 10
2270.818865
 20
541.151403
 30
0.0
 10
2272.318953
 20
541.624103
 30
0.0
 10
2273.893907
 20
541.843450
 30
0.0
 10
2275.461509
 20
541.938470
 30
0.0
  0
SPLINE
  5
137
100
AcDbEntity
  8
Calque_1
 62
7
100
AcDbSpline
 70
8
 71
3
 72
8
 73
4
 74
0
 40
0
 40
0
 40
0
 40
0
 40
1
 40
1
 40
1
 40
1
 10
2275.461509
 20
541.938470
 30
0.0
 10
2278.805328
 20
542.141213
 30
0.0
 10
2282.115719
 20
541.778336
 30
0.0
 10
2285.491015
 20
541.391054
 30
0.0
  0
SPLINE
  5
138
100
AcDbEntity
  8
Calque_1
 62
7
100
AcDbSpline
 70
8
 71
3
 72
8
 73
4
 74
0
 40
0
 40
0
 40
0
 40
0
 40
1
 40
1
 40
1
 40
1
 10
2285.491015
 20
541.391054
 30
0.0
 10
2289.968874
 20
540.877245
 30
0.0
 10
2294.560957
 20
540.320327
 30
0.0
 10
2298.470995
 20
538.376115
 30
0.0
  0
SPLINE
  5
139
100
AcDbEntity
  8
Calque_1
 62
7
100
AcDbSpline
 70
8
 71
3
 72
8
 73
4
 74
0
 40
0
 40
0
 40
0
 40
0
 40
1
 40
1
 40
1
 40
1
 10
2298.470995
 20
538.376115
 30
0.0
 10
2301.483834
 20
536.878098
 30
0.0
 10
2304.091717
 20
534.556306
 30
0.0
 10
2306.699599
 20
532.234614
 30
0.0
  0
LWPOLYLINE
  5
13a
100
AcDbEntity
  8
Calque_1
 62
7
100
AcDbPolyline
 90
2
 70
0
 10
1270.033510
 20
529.055740
 30
0.0
 10
1249.440106
 20
529.055740
 30
0.0
  0
LWPOLYLINE
  5
13b
100
AcDbEntity
  8
Calque_1
 62
7
100
AcDbPolyline
 90
2
 70
0
 10
2374.724245
 20
497.277606
 30
0.0
 10
1815.235599
 20
497.277606
 30
0.0
  0
SPLINE
  5
13c
100
AcDbEntity
  8
Calque_1
 62
7
100
AcDbSpline
 70
8
 71
3
 72
8
 73
4
 74
0
 40
0
 40
0
 40
0
 40
0
 40
1
 40
1
 40
1
 40
1
 10
2360.437687
 20
559.797055
 30
0.0
 10
2359.379293
 20
559.639721
 30
0.0
 10
2358.320889
 20
559.482388
 30
0.0
 10
2357.386971
 20
558.997185
 30
0.0
  0
SPLINE
  5
13d
100
AcDbEntity
  8
Calque_1
 62
7
100
AcDbSpline
 70
8
 71
3
 72
8
 73
4
 74
0
 40
0
 40
0
 40
0
 40
0
 40
1
 40
1
 40
1
 40
1
 10
2357.386971
 20
558.997185
 30
0.0
 10
2356.482819
 20
558.527486
 30
0.0
 10
2355.695342
 20
557.750521
 30
0.0
 10
2355.213570
 20
556.852731
 30
0.0
  0
SPLINE
  5
13e
100
AcDbEntity
  8
Calque_1
 62
7
100
AcDbSpline
 70
8
 71
3
 72
8
 73
4
 74
0
 40
0
 40
0
 40
0
 40
0
 40
1
 40
1
 40
1
 40
1
 10
2355.213570
 20
556.852731
 30
0.0
 10
2354.715935
 20
555.925334
 30
0.0
 10
2354.544458
 20
554.869110
 30
0.0
 10
2354.372992
 20
553.812987
 30
0.0
  0
LWPOLYLINE
  5
13f
100
AcDbEntity
  8
Calque_1
 62
7
100
AcDbPolyline
 90
2
 70
0
 10
2354.372992
 20
553.812987
 30
0.0
 10
2354.372992
 20
535.039908
 30
0.0
  0
LWPOLYLINE
  5
140
100
AcDbEntity
  8
Calque_1
 62
7
100
AcDbPolyline
 90
2
 70
0
 10
2381.031091
 20
559.797055
 30
0.0
 10
2360.437687
 20
559.797055
 30
0.0
  0
SPLINE
  5
141
100
AcDbEntity
  8
Calque_1
 62
7
100
AcDbSpline
 70
8
 71
3
 72
8
 73
4
 74
0
 40
0
 40
0
 40
0
 40
0
 40
1
 40
1
 40
1
 40
1
 10
2354.372992
 20
535.039908
 30
0.0
 10
2354.544458
 20
533.983684
 30
0.0
 10
2354.715935
 20
532.927460
 30
0.0
 10
2355.213570
 20
532.000164
 30
0.0
  0
SPLINE
  5
142
100
AcDbEntity
  8
Calque_1
 62
7
100
AcDbSpline
 70
8
 71
3
 72
8
 73
4
 74
0
 40
0
 40
0
 40
0
 40
0
 40
1
 40
1
 40
1
 40
1
 10
2355.213570
 20
532.000164
 30
0.0
 10
2355.695342
 20
531.102374
 30
0.0
 10
2356.482819
 20
530.325309
 30
0.0
 10
2357.386971
 20
529.855609
 30
0.0
  0
SPLINE
  5
143
100
AcDbEntity
  8
Calque_1
 62
7
100
AcDbSpline
 70
8
 71
3
 72
8
 73
4
 74
0
 40
0
 40
0
 40
0
 40
0
 40
1
 40
1
 40
1
 40
1
 10
2357.386971
 20
529.855609
 30
0.0
 10
2358.320889
 20
529.370407
 30
0.0
 10
2359.379293
 20
529.213073
 30
0.0
 10
2360.437687
 20
529.055740
 30
0.0
  0
LWPOLYLINE
  5
144
100
AcDbEntity
  8
Calque_1
 62
7
100
AcDbPolyline
 90
2
 70
0
 10
2360.437687
 20
529.055740
 30
0.0
 10
2381.031091
 20
529.055740
 30
0.0
  0
LWPOLYLINE
  5
145
100
AcDbEntity
  8
Calque_1
 62
7
100
AcDbPolyline
 90
2
 70
0
 10
2533.498052
 20
528.751676
 30
0.0
 10
2529.717721
 20
528.751676
 30
0.0
  0
LWPOLYLINE
  5
146
100
AcDbEntity
  8
Calque_1
 62
7
100
AcDbPolyline
 90
4
 70
0
 10
2529.717721
 20
574.115589
 30
0.0
 10
2529.717721
 20
558.994285
 30
0.0
 10
2533.498052
 20
558.994285
 30
0.0
 10
2533.498052
 20
566.554887
 30
0.0
  0
LWPOLYLINE
  5
147
100
AcDbEntity
  8
Calque_1
 62
7
100
AcDbPolyline
 90
2
 70
0
 10
2552.399698
 20
532.531977
 30
0.0
 10
2533.498052
 20
521.190973
 30
0.0
  0
LWPOLYLINE
  5
148
100
AcDbEntity
  8
Calque_1
 62
7
100
AcDbPolyline
 90
2
 70
0
 10
2552.399688
 20
555.213983
 30
0.0
 10
2552.399698
 20
532.531977
 30
0.0
  0
LWPOLYLINE
  5
149
100
AcDbEntity
  8
Calque_1
 62
7
100
AcDbPolyline
 90
2
 70
0
 10
2529.717721
 20
528.751676
 30
0.0
 10
2529.717721
 20
520.056933
 30
0.0
  0
LWPOLYLINE
  5
14a
100
AcDbEntity
  8
Calque_1
 62
7
100
AcDbPolyline
 90
2
 70
0
 10
2533.498052
 20
566.554887
 30
0.0
 10
2552.399688
 20
555.213983
 30
0.0
  0
LWPOLYLINE
  5
14b
100
AcDbEntity
  8
Calque_1
 62
7
100
AcDbPolyline
 90
2
 70
0
 10
2533.498052
 20
521.190973
 30
0.0
 10
2533.498052
 20
528.751676
 30
0.0
  0
LWPOLYLINE
  5
14c
100
AcDbEntity
  8
Calque_1
 62
7
100
AcDbPolyline
 90
3
 70
0
 10
2529.717721
 20
520.056933
 30
0.0
 10
2431.429172
 20
524.070584
 30
0.0
 10
2374.724245
 20
497.277606
 30
0.0
  0
LWPOLYLINE
  5
14d
100
AcDbEntity
  8
Calque_1
 62
7
100
AcDbPolyline
 90
2
 70
0
 10
2374.724245
 20
580.444830
 30
0.0
 10
2529.717721
 20
574.115589
 30
0.0
  0
LWPOLYLINE
  5
14e
100
AcDbEntity
  8
Calque_1
 62
7
100
AcDbPolyline
 90
2
 70
0
 10
1815.235599
 20
580.444830
 30
0.0
 10
2374.724245
 20
580.444830
 30
0.0
  0
LWPOLYLINE
  5
14f
100
AcDbEntity
  8
Calque_1
 62
7
100
AcDbPolyline
 90
4
 70
1
 10
30.389836
 20
548.886717
 30
0.0
 10
218.466128
 20
548.886717
 30
0.0
 10
218.466128
 20
512.023772
 30
0.0
 10
30.389836
 20
512.023772
 30
0.0
  0
LWPOLYLINE
  5
150
100
AcDbEntity
  8
Calque_1
 62
7
100
AcDbPolyline
 90
3
 70
0
 10
1809.338380
 20
537.185631
 30
0.0
 10
1815.235525
 20
549.081798
 30
0.0
 10
1821.132669
 20
537.185631
 30
0.0
  0
LWPOLYLINE
  5
151
100
AcDbEntity
  8
Calque_1
 62
7
100
AcDbPolyline
 90
2
 70
0
 10
1815.235489
 20
549.081798
 30
0.0
 10
1815.235489
 20
527.518385
 30
0.0
  0
LWPOLYLINE
  5
152
100
AcDbEntity
  8
Calque_1
 62
7
100
AcDbPolyline
 90
3
 70
0
 10
1809.338380
 20
626.023467
 30
0.0
 10
1815.235525
 20
637.919634
 30
0.0
 10
1821.132669
 20
626.023467
 30
0.0
  0
LWPOLYLINE
  5
153
100
AcDbEntity
  8
Calque_1
 62
7
100
AcDbPolyline
 90
2
 70
0
 10
1815.235489
 20
637.919634
 30
0.0
 10
1815.235489
 20
616.356221
 30
0.0
  0
LWPOLYLINE
  5
154
100
AcDbEntity
  8
Calque_1
 62
7
100
AcDbPolyline
 90
3
 70
0
 10
2502.905159
 20
633.596440
 30
0.0
 10
2514.801327
 20
627.699296
 30
0.0
 10
2502.905159
 20
621.802152
 30
0.0
  0
LWPOLYLINE
  5
155
100
AcDbEntity
  8
Calque_1
 62
7
100
AcDbPolyline
 90
2
 70
0
 10
2514.801327
 20
627.699332
 30
0.0
 10
2493.237913
 20
627.699332
 30
0.0
  0
LWPOLYLINE
  5
156
100
AcDbEntity
  8
Calque_1
 62
7
100
AcDbPolyline
 90
2
 70
0
 10
529.615343
 20
594.224361
 30
0.0
 10
598.188275
 20
581.117184
 30
0.0
  0
LWPOLYLINE
  5
157
100
AcDbEntity
  8
Calque_1
 62
7
100
AcDbPolyline
 90
2
 70
0
 10
1067.511363
 20
580.444941
 30
0.0
 10
605.285579
 20
580.444941
 30
0.0
  0
LWPOLYLINE
  5
158
100
AcDbEntity
  8
Calque_1
 62
7
100
AcDbPolyline
 90
2
 70
0
 10
1067.511363
 20
580.444941
 30
0.0
 10
1123.962006
 20
580.444941
 30
0.0
  0
LWPOLYLINE
  5
159
100
AcDbEntity
  8
Calque_1
 62
7
100
AcDbPolyline
 90
4
 70
0
 10
1127.125857
 20
586.294281
 30
0.0
 10
1121.500295
 20
594.896604
 30
0.0
 10
1129.060957
 20
594.896604
 30
0.0
 10
1137.392652
 20
582.156204
 30
0.0
  0
LWPOLYLINE
  5
15a
100
AcDbEntity
  8
Calque_1
 62
7
100
AcDbPolyline
 90
2
 70
0
 10
1140.556513
 20
580.444941
 30
0.0
 10
1811.410279
 20
580.444941
 30
0.0
  0
LWPOLYLINE
  5
15b
100
AcDbEntity
  8
Calque_1
 62
7
100
AcDbPolyline
 90
2
 70
0
 10
1129.060957
 20
660.501507
 30
0.0
 10
1137.392652
 20
673.241907
 30
0.0
  0
LWPOLYLINE
  5
15c
100
AcDbEntity
  8
Calque_1
 62
7
100
AcDbPolyline
 90
2
 70
0
 10
1121.500295
 20
660.501507
 30
0.0
 10
1129.060957
 20
660.501507
 30
0.0
  0
LWPOLYLINE
  5
15d
100
AcDbEntity
  8
Calque_1
 62
7
100
AcDbPolyline
 90
2
 70
0
 10
1127.125857
 20
669.103830
 30
0.0
 10
1121.500295
 20
660.501507
 30
0.0
  0
LWPOLYLINE
  5
15e
100
AcDbEntity
  8
Calque_1
 62
7
100
AcDbPolyline
 90
2
 70
0
 10
1123.962006
 20
674.953169
 30
0.0
 10
1067.511363
 20
674.953169
 30
0.0
  0
LWPOLYLINE
  5
15f
100
AcDbEntity
  8
Calque_1
 62
7
100
AcDbPolyline
 90
2
 70
0
 10
529.616843
 20
661.167848
 30
0.0
 10
598.186775
 20
674.280327
 30
0.0
  0
LWPOLYLINE
  5
160
100
AcDbEntity
  8
Calque_1
 62
7
100
AcDbPolyline
 90
2
 70
0
 10
1811.410279
 20
674.953169
 30
0.0
 10
1140.556513
 20
674.953169
 30
0.0
  0
LWPOLYLINE
  5
161
100
AcDbEntity
  8
Calque_1
 62
7
100
AcDbPolyline
 90
2
 70
0
 10
1067.511363
 20
674.953169
 30
0.0
 10
605.287179
 20
674.953169
 30
0.0
  0
LWPOLYLINE
  5
162
100
AcDbEntity
  8
Calque_1
 62
7
100
AcDbPolyline
 90
3
 70
0
 10
1093.147826
 20
594.896604
 30
0.0
 10
1093.147826
 20
660.501507
 30
0.0
 10
1100.708488
 20
660.501507
 30
0.0
  0
LWPOLYLINE
  5
163
100
AcDbEntity
  8
Calque_1
 62
7
100
AcDbPolyline
 90
2
 70
0
 10
1100.708488
 20
594.896604
 30
0.0
 10
1093.147826
 20
594.896604
 30
0.0
  0
LWPOLYLINE
  5
164
100
AcDbEntity
  8
Calque_1
 62
7
100
AcDbPolyline
 90
2
 70
0
 10
1100.708488
 20
660.501507
 30
0.0
 10
1100.708488
 20
594.896604
 30
0.0
  0
LWPOLYLINE
  5
165
100
AcDbEntity
  8
Calque_1
 62
7
100
AcDbPolyline
 90
3
 70
0
 10
1155.523255
 20
594.896604
 30
0.0
 10
1155.523255
 20
660.501507
 30
0.0
 10
1159.303586
 20
660.501507
 30
0.0
  0
LWPOLYLINE
  5
166
100
AcDbEntity
  8
Calque_1
 62
7
100
AcDbPolyline
 90
2
 70
0
 10
1159.303586
 20
594.896604
 30
0.0
 10
1155.523255
 20
594.896604
 30
0.0
  0
LWPOLYLINE
  5
167
100
AcDbEntity
  8
Calque_1
 62
7
100
AcDbPolyline
 90
2
 70
0
 10
1159.303586
 20
660.501507
 30
0.0
 10
1159.303586
 20
594.896604
 30
0.0
  0
LWPOLYLINE
  5
168
100
AcDbEntity
  8
Calque_1
 62
7
100
AcDbPolyline
 90
3
 70
0
 10
1227.124498
 20
623.276918
 30
0.0
 10
1230.381218
 20
660.501507
 30
0.0
 10
1234.147166
 20
660.172037
 30
0.0
  0
LWPOLYLINE
  5
169
100
AcDbEntity
  8
Calque_1
 62
7
100
AcDbPolyline
 90
2
 70
0
 10
1230.890446
 20
622.947448
 30
0.0
 10
1227.124498
 20
623.276918
 30
0.0
  0
LWPOLYLINE
  5
16a
100
AcDbEntity
  8
Calque_1
 62
7
100
AcDbPolyline
 90
2
 70
0
 10
1234.147166
 20
660.172037
 30
0.0
 10
1230.890446
 20
622.947448
 30
0.0
  0
LWPOLYLINE
  5
16b
100
AcDbEntity
  8
Calque_1
 62
7
100
AcDbPolyline
 90
3
 70
0
 10
1264.951384
 20
623.277018
 30
0.0
 10
1268.208115
 20
660.501507
 30
0.0
 10
1271.974053
 20
660.172037
 30
0.0
  0
LWPOLYLINE
  5
16c
100
AcDbEntity
  8
Calque_1
 62
7
100
AcDbPolyline
 90
2
 70
0
 10
1268.717333
 20
622.947548
 30
0.0
 10
1264.951384
 20
623.277018
 30
0.0
  0
LWPOLYLINE
  5
16d
100
AcDbEntity
  8
Calque_1
 62
7
100
AcDbPolyline
 90
2
 70
0
 10
1271.974053
 20
660.172037
 30
0.0
 10
1268.717333
 20
622.947548
 30
0.0
  0
LWPOLYLINE
  5
16e
100
AcDbEntity
  8
Calque_1
 62
7
100
AcDbPolyline
 90
3
 70
0
 10
1302.777260
 20
623.277018
 30
0.0
 10
1306.033981
 20
660.501507
 30
0.0
 10
1309.799919
 20
660.172037
 30
0.0
  0
LWPOLYLINE
  5
16f
100
AcDbEntity
  8
Calque_1
 62
7
100
AcDbPolyline
 90
2
 70
0
 10
1306.543199
 20
622.947548
 30
0.0
 10
1302.777260
 20
623.277018
 30
0.0
  0
LWPOLYLINE
  5
170
100
AcDbEntity
  8
Calque_1
 62
7
100
AcDbPolyline
 90
2
 70
0
 10
1309.799919
 20
660.172037
 30
0.0
 10
1306.543199
 20
622.947548
 30
0.0
  0
LWPOLYLINE
  5
171
100
AcDbEntity
  8
Calque_1
 62
7
100
AcDbPolyline
 90
3
 70
0
 10
1366.504846
 20
594.896604
 30
0.0
 10
1366.504856
 20
654.831005
 30
0.0
 10
1376.457675
 20
654.831005
 30
0.0
  0
LWPOLYLINE
  5
172
100
AcDbEntity
  8
Calque_1
 62
7
100
AcDbPolyline
 90
2
 70
0
 10
1376.457675
 20
594.896604
 30
0.0
 10
1366.504846
 20
594.896604
 30
0.0
  0
LWPOLYLINE
  5
173
100
AcDbEntity
  8
Calque_1
 62
7
100
AcDbPolyline
 90
2
 70
0
 10
1376.457675
 20
654.831005
 30
0.0
 10
1376.457675
 20
594.896604
 30
0.0
  0
SPLINE
  5
174
100
AcDbEntity
  8
Calque_1
 62
7
100
AcDbSpline
 70
8
 71
3
 72
8
 73
4
 74
0
 40
0
 40
0
 40
0
 40
0
 40
1
 40
1
 40
1
 40
1
 10
21.812630
 20
598.821436
 30
0.0
 10
23.966879
 20
596.329074
 30
0.0
 10
27.098412
 20
594.896607
 30
0.0
 10
30.392748
 20
594.896604
 30
0.0
  0
LWPOLYLINE
  5
175
100
AcDbEntity
  8
Calque_1
 62
7
100
AcDbPolyline
 90
2
 70
0
 10
53.557457
 20
594.896604
 30
0.0
 10
30.392748
 20
594.896604
 30
0.0
  0
SPLINE
  5
176
100
AcDbEntity
  8
Calque_1
 62
7
100
AcDbSpline
 70
8
 71
3
 72
8
 73
4
 74
0
 40
0
 40
0
 40
0
 40
0
 40
1
 40
1
 40
1
 40
1
 10
3.262599
 20
635.115227
 30
0.0
 10
-0.418563
 20
630.856319
 30
0.0
 10
-0.418563
 20
624.541792
 30
0.0
 10
3.262599
 20
620.282884
 30
0.0
  0
LWPOLYLINE
  5
177
100
AcDbEntity
  8
Calque_1
 62
7
100
AcDbPolyline
 90
2
 70
0
 10
3.262599
 20
620.282884
 30
0.0
 10
21.812630
 20
598.821436
 30
0.0
  0
SPLINE
  5
178
100
AcDbEntity
  8
Calque_1
 62
7
100
AcDbSpline
 70
8
 71
3
 72
8
 73
4
 74
0
 40
0
 40
0
 40
0
 40
0
 40
1
 40
1
 40
1
 40
1
 10
30.392748
 20
660.501507
 30
0.0
 10
27.098412
 20
660.501504
 30
0.0
 10
23.966879
 20
659.069036
 30
0.0
 10
21.812630
 20
656.576675
 30
0.0
  0
LWPOLYLINE
  5
179
100
AcDbEntity
  8
Calque_1
 62
7
100
AcDbPolyline
 90
2
 70
0
 10
3.262599
 20
635.115227
 30
0.0
 10
21.812630
 20
656.576675
 30
0.0
  0
LWPOLYLINE
  5
17a
100
AcDbEntity
  8
Calque_1
 62
7
100
AcDbPolyline
 90
2
 70
0
 10
53.783805
 20
660.501507
 30
0.0
 10
30.392748
 20
660.501507
 30
0.0
  0
LWPOLYLINE
  5
17b
100
AcDbEntity
  8
Calque_1
 62
7
100
AcDbPolyline
 90
2
 70
0
 10
1811.410279
 20
674.953169
 30
0.0
 10
2482.264046
 20
674.953169
 30
0.0
  0
LWPOLYLINE
  5
17c
100
AcDbEntity
  8
Calque_1
 62
7
100
AcDbPolyline
 90
2
 70
0
 10
2482.264046
 20
580.444941
 30
0.0
 10
1811.410279
 20
580.444941
 30
0.0
  0
LWPOLYLINE
  5
17d
100
AcDbEntity
  8
Calque_1
 62
7
100
AcDbPolyline
 90
2
 70
0
 10
2498.858553
 20
674.953169
 30
0.0
 10
2537.278314
 20
674.953169
 30
0.0
  0
LWPOLYLINE
  5
17e
100
AcDbEntity
  8
Calque_1
 62
7
100
AcDbPolyline
 90
2
 70
0
 10
2493.759602
 20
660.501507
 30
0.0
 10
2485.427906
 20
673.241907
 30
0.0
  0
LWPOLYLINE
  5
17f
100
AcDbEntity
  8
Calque_1
 62
7
100
AcDbPolyline
 90
3
 70
0
 10
2495.694702
 20
669.103830
 30
0.0
 10
2501.320264
 20
660.501507
 30
0.0
 10
2493.759602
 20
660.501507
 30
0.0
  0
LWPOLYLINE
  5
180
100
AcDbEntity
  8
Calque_1
 62
7
100
AcDbPolyline
 90
2
 70
0
 10
2537.278314
 20
580.444941
 30
0.0
 10
2498.858553
 20
580.444941
 30
0.0
  0
LWPOLYLINE
  5
181
100
AcDbEntity
  8
Calque_1
 62
7
100
AcDbPolyline
 90
4
 70
0
 10
2495.694702
 20
586.294281
 30
0.0
 10
2501.320264
 20
594.896604
 30
0.0
 10
2493.759602
 20
594.896604
 30
0.0
 10
2485.427906
 20
582.156204
 30
0.0
  0
LWPOLYLINE
  5
182
100
AcDbEntity
  8
Calque_1
 62
7
100
AcDbPolyline
 90
2
 70
0
 10
2529.672733
 20
594.896604
 30
0.0
 10
2529.672733
 20
660.501507
 30
0.0
  0
LWPOLYLINE
  5
183
100
AcDbEntity
  8
Calque_1
 62
7
100
AcDbPolyline
 90
3
 70
0
 10
2522.112070
 20
660.501507
 30
0.0
 10
2522.112070
 20
594.896604
 30
0.0
 10
2529.672733
 20
594.896604
 30
0.0
  0
LWPOLYLINE
  5
184
100
AcDbEntity
  8
Calque_1
 62
7
100
AcDbPolyline
 90
2
 70
0
 10
2529.672733
 20
660.501507
 30
0.0
 10
2522.112070
 20
660.501507
 30
0.0
  0
LWPOLYLINE
  5
185
100
AcDbEntity
  8
Calque_1
 62
7
100
AcDbPolyline
 90
2
 70
0
 10
2463.516973
 20
660.501507
 30
0.0
 10
2463.516973
 20
594.896604
 30
0.0
  0
LWPOLYLINE
  5
186
100
AcDbEntity
  8
Calque_1
 62
7
100
AcDbPolyline
 90
3
 70
0
 10
2467.297304
 20
594.896604
 30
0.0
 10
2467.297304
 20
660.501507
 30
0.0
 10
2463.516973
 20
660.501507
 30
0.0
  0
LWPOLYLINE
  5
187
100
AcDbEntity
  8
Calque_1
 62
7
100
AcDbPolyline
 90
2
 70
0
 10
2463.516973
 20
594.896604
 30
0.0
 10
2467.297304
 20
594.896604
 30
0.0
  0
LWPOLYLINE
  5
188
100
AcDbEntity
  8
Calque_1
 62
7
100
AcDbPolyline
 90
2
 70
0
 10
2388.673392
 20
660.172037
 30
0.0
 10
2391.930112
 20
622.947448
 30
0.0
  0
LWPOLYLINE
  5
189
100
AcDbEntity
  8
Calque_1
 62
7
100
AcDbPolyline
 90
3
 70
0
 10
2395.696060
 20
623.276918
 30
0.0
 10
2392.439340
 20
660.501507
 30
0.0
 10
2388.673392
 20
660.172037
 30
0.0
  0
LWPOLYLINE
  5
18a
100
AcDbEntity
  8
Calque_1
 62
7
100
AcDbPolyline
 90
2
 70
0
 10
2391.930112
 20
622.947448
 30
0.0
 10
2395.696060
 20
623.276918
 30
0.0
  0
LWPOLYLINE
  5
18b
100
AcDbEntity
  8
Calque_1
 62
7
100
AcDbPolyline
 90
2
 70
0
 10
2350.846506
 20
660.172037
 30
0.0
 10
2354.103226
 20
622.947548
 30
0.0
  0
LWPOLYLINE
  5
18c
100
AcDbEntity
  8
Calque_1
 62
7
100
AcDbPolyline
 90
2
 70
0
 10
2357.869174
 20
623.277018
 30
0.0
 10
2354.612444
 20
660.501507
 30
0.0
  0
LWPOLYLINE
  5
18d
100
AcDbEntity
  8
Calque_1
 62
7
100
AcDbPolyline
 90
2
 70
0
 10
2354.103226
 20
622.947548
 30
0.0
 10
2357.869174
 20
623.277018
 30
0.0
  0
LWPOLYLINE
  5
18e
100
AcDbEntity
  8
Calque_1
 62
7
100
AcDbPolyline
 90
2
 70
0
 10
2354.612444
 20
660.501507
 30
0.0
 10
2350.846506
 20
660.172037
 30
0.0
  0
LWPOLYLINE
  5
18f
100
AcDbEntity
  8
Calque_1
 62
7
100
AcDbPolyline
 90
3
 70
0
 10
2316.786578
 20
660.501507
 30
0.0
 10
2313.020640
 20
660.172037
 30
0.0
 10
2316.277360
 20
622.947548
 30
0.0
  0
LWPOLYLINE
  5
190
100
AcDbEntity
  8
Calque_1
 62
7
100
AcDbPolyline
 90
2
 70
0
 10
2320.043298
 20
623.277018
 30
0.0
 10
2316.786578
 20
660.501507
 30
0.0
  0
LWPOLYLINE
  5
191
100
AcDbEntity
  8
Calque_1
 62
7
100
AcDbPolyline
 90
2
 70
0
 10
2316.277360
 20
622.947548
 30
0.0
 10
2320.043298
 20
623.277018
 30
0.0
  0
LWPOLYLINE
  5
192
100
AcDbEntity
  8
Calque_1
 62
7
100
AcDbPolyline
 90
2
 70
0
 10
2246.362884
 20
654.831005
 30
0.0
 10
2246.362884
 20
594.896604
 30
0.0
  0
LWPOLYLINE
  5
193
100
AcDbEntity
  8
Calque_1
 62
7
100
AcDbPolyline
 90
2
 70
0
 10
2256.315703
 20
654.831005
 30
0.0
 10
2246.362884
 20
654.831005
 30
0.0
  0
LWPOLYLINE
  5
194
100
AcDbEntity
  8
Calque_1
 62
7
100
AcDbPolyline
 90
2
 70
0
 10
2256.315713
 20
594.896604
 30
0.0
 10
2256.315703
 20
654.831005
 30
0.0
  0
LWPOLYLINE
  5
195
100
AcDbEntity
  8
Calque_1
 62
7
100
AcDbPolyline
 90
2
 70
0
 10
2246.362884
 20
594.896604
 30
0.0
 10
2256.315713
 20
594.896604
 30
0.0
  0
SPLINE
  5
196
100
AcDbEntity
  8
Calque_1
 62
7
100
AcDbSpline
 70
8
 71
3
 72
8
 73
4
 74
0
 40
0
 40
0
 40
0
 40
0
 40
1
 40
1
 40
1
 40
1
 10
2552.399629
 20
659.831865
 30
0.0
 10
2552.399623
 20
668.183132
 30
0.0
 10
2545.629582
 20
674.953169
 30
0.0
 10
2537.278314
 20
674.953169
 30
0.0
  0
SPLINE
  5
197
100
AcDbEntity
  8
Calque_1
 62
7
100
AcDbSpline
 70
8
 71
3
 72
8
 73
4
 74
0
 40
0
 40
0
 40
0
 40
0
 40
1
 40
1
 40
1
 40
1
 10
2537.278314
 20
580.444941
 30
0.0
 10
2545.629582
 20
580.444941
 30
0.0
 10
2552.399623
 20
587.214978
 30
0.0
 10
2552.399629
 20
595.566246
 30
0.0
  0
SPLINE
  5
198
100
AcDbEntity
  8
Calque_1
 62
7
100
AcDbSpline
 70
8
 71
3
 72
8
 73
4
 74
0
 40
0
 40
0
 40
0
 40
0
 40
1
 40
1
 40
1
 40
1
 10
83.800066
 20
597.542865
 30
0.0
 10
82.420731
 20
599.263456
 30
0.0
 10
80.334785
 20
600.264712
 30
0.0
 10
78.129565
 20
600.264712
 30
0.0
  0
SPLINE
  5
199
100
AcDbEntity
  8
Calque_1
 62
7
100
AcDbSpline
 70
8
 71
3
 72
8
 73
4
 74
0
 40
0
 40
0
 40
0
 40
0
 40
1
 40
1
 40
1
 40
1
 10
78.129565
 20
600.264712
 30
0.0
 10
75.924344
 20
600.264712
 30
0.0
 10
73.838398
 20
599.263456
 30
0.0
 10
72.459063
 20
597.542865
 30
0.0
  0
SPLINE
  5
19a
100
AcDbEntity
  8
Calque_1
 62
7
100
AcDbSpline
 70
8
 71
3
 72
8
 73
4
 74
0
 40
0
 40
0
 40
0
 40
0
 40
1
 40
1
 40
1
 40
1
 10
58.244251
 20
593.982610
 30
0.0
 10
63.244482
 20
591.843639
 30
0.0
 10
69.057348
 20
593.299534
 30
0.0
 10
72.459063
 20
597.542865
 30
0.0
  0
SPLINE
  5
19b
100
AcDbEntity
  8
Calque_1
 62
7
100
AcDbSpline
 70
8
 71
3
 72
8
 73
4
 74
0
 40
0
 40
0
 40
0
 40
0
 40
1
 40
1
 40
1
 40
1
 10
58.244251
 20
593.982610
 30
0.0
 10
56.834510
 20
594.585671
 30
0.0
 10
55.317119
 20
594.896601
 30
0.0
 10
53.783805
 20
594.896604
 30
0.0
  0
LWPOLYLINE
  5
19c
100
AcDbEntity
  8
Calque_1
 62
7
100
AcDbPolyline
 90
2
 70
0
 10
2552.399629
 20
659.831865
 30
0.0
 10
2552.399629
 20
595.566246
 30
0.0
  0
LWPOLYLINE
  5
19d
100
AcDbEntity
  8
Calque_1
 62
7
100
AcDbPolyline
 90
2
 70
0
 10
53.557457
 20
594.896604
 30
0.0
 10
53.783805
 20
594.896604
 30
0.0
  0
SPLINE
  5
19e
100
AcDbEntity
  8
Calque_1
 62
7
100
AcDbSpline
 70
8
 71
3
 72
8
 73
4
 74
0
 40
0
 40
0
 40
0
 40
0
 40
1
 40
1
 40
1
 40
1
 10
53.783805
 20
660.501507
 30
0.0
 10
55.317119
 20
660.501510
 30
0.0
 10
56.834510
 20
660.812440
 30
0.0
 10
58.244251
 20
661.415501
 30
0.0
  0
SPLINE
  5
19f
100
AcDbEntity
  8
Calque_1
 62
7
100
AcDbSpline
 70
8
 71
3
 72
8
 73
4
 74
0
 40
0
 40
0
 40
0
 40
0
 40
1
 40
1
 40
1
 40
1
 10
72.459063
 20
657.855246
 30
0.0
 10
69.057348
 20
662.098576
 30
0.0
 10
63.244482
 20
663.554472
 30
0.0
 10
58.244251
 20
661.415501
 30
0.0
  0
SPLINE
  5
1a0
100
AcDbEntity
  8
Calque_1
 62
7
100
AcDbSpline
 70
8
 71
3
 72
8
 73
4
 74
0
 40
0
 40
0
 40
0
 40
0
 40
1
 40
1
 40
1
 40
1
 10
72.459063
 20
657.855246
 30
0.0
 10
73.838398
 20
656.134655
 30
0.0
 10
75.924344
 20
655.133399
 30
0.0
 10
78.129565
 20
655.133399
 30
0.0
  0
SPLINE
  5
1a1
100
AcDbEntity
  8
Calque_1
 62
7
100
AcDbSpline
 70
8
 71
3
 72
8
 73
4
 74
0
 40
0
 40
0
 40
0
 40
0
 40
1
 40
1
 40
1
 40
1
 10
78.129565
 20
655.133399
 30
0.0
 10
80.334785
 20
655.133399
 30
0.0
 10
82.420731
 20
656.134655
 30
0.0
 10
83.800066
 20
657.855246
 30
0.0
  0
SPLINE
  5
1a2
100
AcDbEntity
  8
Calque_1
 62
7
100
AcDbSpline
 70
8
 71
3
 72
8
 73
4
 74
0
 40
0
 40
0
 40
0
 40
0
 40
1
 40
1
 40
1
 40
1
 10
114.042675
 20
597.542865
 30
0.0
 10
112.663340
 20
599.263456
 30
0.0
 10
110.577394
 20
600.264712
 30
0.0
 10
108.372174
 20
600.264712
 30
0.0
  0
SPLINE
  5
1a3
100
AcDbEntity
  8
Calque_1
 62
7
100
AcDbSpline
 70
8
 71
3
 72
8
 73
4
 74
0
 40
0
 40
0
 40
0
 40
0
 40
1
 40
1
 40
1
 40
1
 10
108.372174
 20
600.264712
 30
0.0
 10
106.166953
 20
600.264712
 30
0.0
 10
104.081007
 20
599.263456
 30
0.0
 10
102.701672
 20
597.542865
 30
0.0
  0
SPLINE
  5
1a4
100
AcDbEntity
  8
Calque_1
 62
7
100
AcDbSpline
 70
8
 71
3
 72
8
 73
4
 74
0
 40
0
 40
0
 40
0
 40
0
 40
1
 40
1
 40
1
 40
1
 10
83.800066
 20
597.542865
 30
0.0
 10
86.098959
 20
594.675238
 30
0.0
 10
89.575520
 20
593.006494
 30
0.0
 10
93.250869
 20
593.006494
 30
0.0
  0
SPLINE
  5
1a5
100
AcDbEntity
  8
Calque_1
 62
7
100
AcDbSpline
 70
8
 71
3
 72
8
 73
4
 74
0
 40
0
 40
0
 40
0
 40
0
 40
1
 40
1
 40
1
 40
1
 10
93.250869
 20
593.006494
 30
0.0
 10
96.926219
 20
593.006494
 30
0.0
 10
100.402779
 20
594.675238
 30
0.0
 10
102.701672
 20
597.542865
 30
0.0
  0
SPLINE
  5
1a6
100
AcDbEntity
  8
Calque_1
 62
7
100
AcDbSpline
 70
8
 71
3
 72
8
 73
4
 74
0
 40
0
 40
0
 40
0
 40
0
 40
1
 40
1
 40
1
 40
1
 10
144.285284
 20
597.542865
 30
0.0
 10
142.905948
 20
599.263419
 30
0.0
 10
140.820025
 20
600.264650
 30
0.0
 10
138.614833
 20
600.264650
 30
0.0
  0
SPLINE
  5
1a7
100
AcDbEntity
  8
Calque_1
 62
7
100
AcDbSpline
 70
8
 71
3
 72
8
 73
4
 74
0
 40
0
 40
0
 40
0
 40
0
 40
1
 40
1
 40
1
 40
1
 10
138.614833
 20
600.264650
 30
0.0
 10
136.409640
 20
600.264650
 30
0.0
 10
134.323718
 20
599.263419
 30
0.0
 10
132.944381
 20
597.542865
 30
0.0
  0
SPLINE
  5
1a8
100
AcDbEntity
  8
Calque_1
 62
7
100
AcDbSpline
 70
8
 71
3
 72
8
 73
4
 74
0
 40
0
 40
0
 40
0
 40
0
 40
1
 40
1
 40
1
 40
1
 10
114.042675
 20
597.542865
 30
0.0
 10
116.341567
 20
594.675201
 30
0.0
 10
119.818151
 20
593.006431
 30
0.0
 10
123.493528
 20
593.006431
 30
0.0
  0
SPLINE
  5
1a9
100
AcDbEntity
  8
Calque_1
 62
7
100
AcDbSpline
 70
8
 71
3
 72
8
 73
4
 74
0
 40
0
 40
0
 40
0
 40
0
 40
1
 40
1
 40
1
 40
1
 10
123.493528
 20
593.006431
 30
0.0
 10
127.168906
 20
593.006431
 30
0.0
 10
130.645490
 20
594.675201
 30
0.0
 10
132.944381
 20
597.542865
 30
0.0
  0
SPLINE
  5
1aa
100
AcDbEntity
  8
Calque_1
 62
7
100
AcDbSpline
 70
8
 71
3
 72
8
 73
4
 74
0
 40
0
 40
0
 40
0
 40
0
 40
1
 40
1
 40
1
 40
1
 10
102.701672
 20
657.855246
 30
0.0
 10
104.081007
 20
656.134655
 30
0.0
 10
106.166953
 20
655.133399
 30
0.0
 10
108.372174
 20
655.133399
 30
0.0
  0
SPLINE
  5
1ab
100
AcDbEntity
  8
Calque_1
 62
7
100
AcDbSpline
 70
8
 71
3
 72
8
 73
4
 74
0
 40
0
 40
0
 40
0
 40
0
 40
1
 40
1
 40
1
 40
1
 10
108.372174
 20
655.133399
 30
0.0
 10
110.577394
 20
655.133399
 30
0.0
 10
112.663340
 20
656.134655
 30
0.0
 10
114.042675
 20
657.855246
 30
0.0
  0
SPLINE
  5
1ac
100
AcDbEntity
  8
Calque_1
 62
7
100
AcDbSpline
 70
8
 71
3
 72
8
 73
4
 74
0
 40
0
 40
0
 40
0
 40
0
 40
1
 40
1
 40
1
 40
1
 10
102.701672
 20
657.855246
 30
0.0
 10
100.402779
 20
660.722873
 30
0.0
 10
96.926219
 20
662.391617
 30
0.0
 10
93.250869
 20
662.391617
 30
0.0
  0
SPLINE
  5
1ad
100
AcDbEntity
  8
Calque_1
 62
7
100
AcDbSpline
 70
8
 71
3
 72
8
 73
4
 74
0
 40
0
 40
0
 40
0
 40
0
 40
1
 40
1
 40
1
 40
1
 10
93.250869
 20
662.391617
 30
0.0
 10
89.575520
 20
662.391617
 30
0.0
 10
86.098959
 20
660.722873
 30
0.0
 10
83.800066
 20
657.855246
 30
0.0
  0
SPLINE
  5
1ae
100
AcDbEntity
  8
Calque_1
 62
7
100
AcDbSpline
 70
8
 71
3
 72
8
 73
4
 74
0
 40
0
 40
0
 40
0
 40
0
 40
1
 40
1
 40
1
 40
1
 10
132.944381
 20
657.855246
 30
0.0
 10
134.323718
 20
656.134692
 30
0.0
 10
136.409640
 20
655.133461
 30
0.0
 10
138.614833
 20
655.133461
 30
0.0
  0
SPLINE
  5
1af
100
AcDbEntity
  8
Calque_1
 62
7
100
AcDbSpline
 70
8
 71
3
 72
8
 73
4
 74
0
 40
0
 40
0
 40
0
 40
0
 40
1
 40
1
 40
1
 40
1
 10
138.614833
 20
655.133461
 30
0.0
 10
140.820025
 20
655.133461
 30
0.0
 10
142.905948
 20
656.134692
 30
0.0
 10
144.285284
 20
657.855246
 30
0.0
  0
SPLINE
  5
1b0
100
AcDbEntity
  8
Calque_1
 62
7
100
AcDbSpline
 70
8
 71
3
 72
8
 73
4
 74
0
 40
0
 40
0
 40
0
 40
0
 40
1
 40
1
 40
1
 40
1
 10
132.944381
 20
657.855246
 30
0.0
 10
130.645490
 20
660.722910
 30
0.0
 10
127.168906
 20
662.391679
 30
0.0
 10
123.493528
 20
662.391679
 30
0.0
  0
SPLINE
  5
1b1
100
AcDbEntity
  8
Calque_1
 62
7
100
AcDbSpline
 70
8
 71
3
 72
8
 73
4
 74
0
 40
0
 40
0
 40
0
 40
0
 40
1
 40
1
 40
1
 40
1
 10
123.493528
 20
662.391679
 30
0.0
 10
119.818151
 20
662.391679
 30
0.0
 10
116.341567
 20
660.722910
 30
0.0
 10
114.042675
 20
657.855246
 30
0.0
  0
SPLINE
  5
1b2
100
AcDbEntity
  8
Calque_1
 62
7
100
AcDbSpline
 70
8
 71
3
 72
8
 73
4
 74
0
 40
0
 40
0
 40
0
 40
0
 40
1
 40
1
 40
1
 40
1
 10
163.186990
 20
657.855246
 30
0.0
 10
164.566325
 20
656.134655
 30
0.0
 10
166.652271
 20
655.133399
 30
0.0
 10
168.857492
 20
655.133399
 30
0.0
  0
SPLINE
  5
1b3
100
AcDbEntity
  8
Calque_1
 62
7
100
AcDbSpline
 70
8
 71
3
 72
8
 73
4
 74
0
 40
0
 40
0
 40
0
 40
0
 40
1
 40
1
 40
1
 40
1
 10
168.857492
 20
655.133399
 30
0.0
 10
171.062712
 20
655.133399
 30
0.0
 10
173.148658
 20
656.134655
 30
0.0
 10
174.527993
 20
657.855246
 30
0.0
  0
SPLINE
  5
1b4
100
AcDbEntity
  8
Calque_1
 62
7
100
AcDbSpline
 70
8
 71
3
 72
8
 73
4
 74
0
 40
0
 40
0
 40
0
 40
0
 40
1
 40
1
 40
1
 40
1
 10
163.186990
 20
657.855246
 30
0.0
 10
160.888099
 20
660.722910
 30
0.0
 10
157.411515
 20
662.391679
 30
0.0
 10
153.736137
 20
662.391679
 30
0.0
  0
SPLINE
  5
1b5
100
AcDbEntity
  8
Calque_1
 62
7
100
AcDbSpline
 70
8
 71
3
 72
8
 73
4
 74
0
 40
0
 40
0
 40
0
 40
0
 40
1
 40
1
 40
1
 40
1
 10
153.736137
 20
662.391679
 30
0.0
 10
150.060760
 20
662.391679
 30
0.0
 10
146.584176
 20
660.722910
 30
0.0
 10
144.285284
 20
657.855246
 30
0.0
  0
SPLINE
  5
1b6
100
AcDbEntity
  8
Calque_1
 62
7
100
AcDbSpline
 70
8
 71
3
 72
8
 73
4
 74
0
 40
0
 40
0
 40
0
 40
0
 40
1
 40
1
 40
1
 40
1
 10
193.429599
 20
657.855246
 30
0.0
 10
194.808934
 20
656.134655
 30
0.0
 10
196.894880
 20
655.133399
 30
0.0
 10
199.100101
 20
655.133399
 30
0.0
  0
SPLINE
  5
1b7
100
AcDbEntity
  8
Calque_1
 62
7
100
AcDbSpline
 70
8
 71
3
 72
8
 73
4
 74
0
 40
0
 40
0
 40
0
 40
0
 40
1
 40
1
 40
1
 40
1
 10
199.100101
 20
655.133399
 30
0.0
 10
201.305321
 20
655.133399
 30
0.0
 10
203.391267
 20
656.134655
 30
0.0
 10
204.770602
 20
657.855246
 30
0.0
  0
SPLINE
  5
1b8
100
AcDbEntity
  8
Calque_1
 62
7
100
AcDbSpline
 70
8
 71
3
 72
8
 73
4
 74
0
 40
0
 40
0
 40
0
 40
0
 40
1
 40
1
 40
1
 40
1
 10
193.429599
 20
657.855246
 30
0.0
 10
191.130706
 20
660.722873
 30
0.0
 10
187.654146
 20
662.391617
 30
0.0
 10
183.978796
 20
662.391617
 30
0.0
  0
SPLINE
  5
1b9
100
AcDbEntity
  8
Calque_1
 62
7
100
AcDbSpline
 70
8
 71
3
 72
8
 73
4
 74
0
 40
0
 40
0
 40
0
 40
0
 40
1
 40
1
 40
1
 40
1
 10
183.978796
 20
662.391617
 30
0.0
 10
180.303447
 20
662.391617
 30
0.0
 10
176.826886
 20
660.722873
 30
0.0
 10
174.527993
 20
657.855246
 30
0.0
  0
SPLINE
  5
1ba
100
AcDbEntity
  8
Calque_1
 62
7
100
AcDbSpline
 70
8
 71
3
 72
8
 73
4
 74
0
 40
0
 40
0
 40
0
 40
0
 40
1
 40
1
 40
1
 40
1
 10
223.672208
 20
657.855246
 30
0.0
 10
225.051543
 20
656.134655
 30
0.0
 10
227.137489
 20
655.133399
 30
0.0
 10
229.342710
 20
655.133399
 30
0.0
  0
SPLINE
  5
1bb
100
AcDbEntity
  8
Calque_1
 62
7
100
AcDbSpline
 70
8
 71
3
 72
8
 73
4
 74
0
 40
0
 40
0
 40
0
 40
0
 40
1
 40
1
 40
1
 40
1
 10
229.342710
 20
655.133399
 30
0.0
 10
231.547930
 20
655.133399
 30
0.0
 10
233.633876
 20
656.134655
 30
0.0
 10
235.013211
 20
657.855246
 30
0.0
  0
SPLINE
  5
1bc
100
AcDbEntity
  8
Calque_1
 62
7
100
AcDbSpline
 70
8
 71
3
 72
8
 73
4
 74
0
 40
0
 40
0
 40
0
 40
0
 40
1
 40
1
 40
1
 40
1
 10
223.672208
 20
657.855246
 30
0.0
 10
221.373315
 20
660.722873
 30
0.0
 10
217.896754
 20
662.391617
 30
0.0
 10
214.221405
 20
662.391617
 30
0.0
  0
SPLINE
  5
1bd
100
AcDbEntity
  8
Calque_1
 62
7
100
AcDbSpline
 70
8
 71
3
 72
8
 73
4
 74
0
 40
0
 40
0
 40
0
 40
0
 40
1
 40
1
 40
1
 40
1
 10
214.221405
 20
662.391617
 30
0.0
 10
210.546056
 20
662.391617
 30
0.0
 10
207.069495
 20
660.722873
 30
0.0
 10
204.770602
 20
657.855246
 30
0.0
  0
SPLINE
  5
1be
100
AcDbEntity
  8
Calque_1
 62
7
100
AcDbSpline
 70
8
 71
3
 72
8
 73
4
 74
0
 40
0
 40
0
 40
0
 40
0
 40
1
 40
1
 40
1
 40
1
 10
253.914817
 20
657.855246
 30
0.0
 10
255.294152
 20
656.134655
 30
0.0
 10
257.380098
 20
655.133399
 30
0.0
 10
259.585319
 20
655.133399
 30
0.0
  0
SPLINE
  5
1bf
100
AcDbEntity
  8
Calque_1
 62
7
100
AcDbSpline
 70
8
 71
3
 72
8
 73
4
 74
0
 40
0
 40
0
 40
0
 40
0
 40
1
 40
1
 40
1
 40
1
 10
259.585319
 20
655.133399
 30
0.0
 10
261.790539
 20
655.133399
 30
0.0
 10
263.876485
 20
656.134655
 30
0.0
 10
265.255820
 20
657.855246
 30
0.0
  0
SPLINE
  5
1c0
100
AcDbEntity
  8
Calque_1
 62
7
100
AcDbSpline
 70
8
 71
3
 72
8
 73
4
 74
0
 40
0
 40
0
 40
0
 40
0
 40
1
 40
1
 40
1
 40
1
 10
253.914817
 20
657.855246
 30
0.0
 10
251.615924
 20
660.722873
 30
0.0
 10
248.139363
 20
662.391617
 30
0.0
 10
244.464014
 20
662.391617
 30
0.0
  0
SPLINE
  5
1c1
100
AcDbEntity
  8
Calque_1
 62
7
100
AcDbSpline
 70
8
 71
3
 72
8
 73
4
 74
0
 40
0
 40
0
 40
0
 40
0
 40
1
 40
1
 40
1
 40
1
 10
244.464014
 20
662.391617
 30
0.0
 10
240.788665
 20
662.391617
 30
0.0
 10
237.312104
 20
660.722873
 30
0.0
 10
235.013211
 20
657.855246
 30
0.0
  0
SPLINE
  5
1c2
100
AcDbEntity
  8
Calque_1
 62
7
100
AcDbSpline
 70
8
 71
3
 72
8
 73
4
 74
0
 40
0
 40
0
 40
0
 40
0
 40
1
 40
1
 40
1
 40
1
 10
284.157526
 20
657.855246
 30
0.0
 10
285.536862
 20
656.134692
 30
0.0
 10
287.622785
 20
655.133461
 30
0.0
 10
289.827978
 20
655.133461
 30
0.0
  0
SPLINE
  5
1c3
100
AcDbEntity
  8
Calque_1
 62
7
100
AcDbSpline
 70
8
 71
3
 72
8
 73
4
 74
0
 40
0
 40
0
 40
0
 40
0
 40
1
 40
1
 40
1
 40
1
 10
289.827978
 20
655.133461
 30
0.0
 10
292.033170
 20
655.133461
 30
0.0
 10
294.119093
 20
656.134692
 30
0.0
 10
295.498429
 20
657.855246
 30
0.0
  0
SPLINE
  5
1c4
100
AcDbEntity
  8
Calque_1
 62
7
100
AcDbSpline
 70
8
 71
3
 72
8
 73
4
 74
0
 40
0
 40
0
 40
0
 40
0
 40
1
 40
1
 40
1
 40
1
 10
284.157526
 20
657.855246
 30
0.0
 10
281.858635
 20
660.722910
 30
0.0
 10
278.382050
 20
662.391679
 30
0.0
 10
274.706673
 20
662.391679
 30
0.0
  0
SPLINE
  5
1c5
100
AcDbEntity
  8
Calque_1
 62
7
100
AcDbSpline
 70
8
 71
3
 72
8
 73
4
 74
0
 40
0
 40
0
 40
0
 40
0
 40
1
 40
1
 40
1
 40
1
 10
274.706673
 20
662.391679
 30
0.0
 10
271.031296
 20
662.391679
 30
0.0
 10
267.554712
 20
660.722910
 30
0.0
 10
265.255820
 20
657.855246
 30
0.0
  0
SPLINE
  5
1c6
100
AcDbEntity
  8
Calque_1
 62
7
100
AcDbSpline
 70
8
 71
3
 72
8
 73
4
 74
0
 40
0
 40
0
 40
0
 40
0
 40
1
 40
1
 40
1
 40
1
 10
314.400135
 20
657.855246
 30
0.0
 10
315.779470
 20
656.134655
 30
0.0
 10
317.865416
 20
655.133399
 30
0.0
 10
320.070637
 20
655.133399
 30
0.0
  0
SPLINE
  5
1c7
100
AcDbEntity
  8
Calque_1
 62
7
100
AcDbSpline
 70
8
 71
3
 72
8
 73
4
 74
0
 40
0
 40
0
 40
0
 40
0
 40
1
 40
1
 40
1
 40
1
 10
320.070637
 20
655.133399
 30
0.0
 10
322.275857
 20
655.133399
 30
0.0
 10
324.361803
 20
656.134655
 30
0.0
 10
325.741138
 20
657.855246
 30
0.0
  0
SPLINE
  5
1c8
100
AcDbEntity
  8
Calque_1
 62
7
100
AcDbSpline
 70
8
 71
3
 72
8
 73
4
 74
0
 40
0
 40
0
 40
0
 40
0
 40
1
 40
1
 40
1
 40
1
 10
314.400135
 20
657.855246
 30
0.0
 10
312.101244
 20
660.722910
 30
0.0
 10
308.624659
 20
662.391679
 30
0.0
 10
304.949282
 20
662.391679
 30
0.0
  0
SPLINE
  5
1c9
100
AcDbEntity
  8
Calque_1
 62
7
100
AcDbSpline
 70
8
 71
3
 72
8
 73
4
 74
0
 40
0
 40
0
 40
0
 40
0
 40
1
 40
1
 40
1
 40
1
 10
304.949282
 20
662.391679
 30
0.0
 10
301.273905
 20
662.391679
 30
0.0
 10
297.797321
 20
660.722910
 30
0.0
 10
295.498429
 20
657.855246
 30
0.0
  0
SPLINE
  5
1ca
100
AcDbEntity
  8
Calque_1
 62
7
100
AcDbSpline
 70
8
 71
3
 72
8
 73
4
 74
0
 40
0
 40
0
 40
0
 40
0
 40
1
 40
1
 40
1
 40
1
 10
344.642744
 20
657.855246
 30
0.0
 10
346.022079
 20
656.134655
 30
0.0
 10
348.108025
 20
655.133399
 30
0.0
 10
350.313246
 20
655.133399
 30
0.0
  0
SPLINE
  5
1cb
100
AcDbEntity
  8
Calque_1
 62
7
100
AcDbSpline
 70
8
 71
3
 72
8
 73
4
 74
0
 40
0
 40
0
 40
0
 40
0
 40
1
 40
1
 40
1
 40
1
 10
350.313246
 20
655.133399
 30
0.0
 10
352.518466
 20
655.133399
 30
0.0
 10
354.604412
 20
656.134655
 30
0.0
 10
355.983747
 20
657.855246
 30
0.0
  0
SPLINE
  5
1cc
100
AcDbEntity
  8
Calque_1
 62
7
100
AcDbSpline
 70
8
 71
3
 72
8
 73
4
 74
0
 40
0
 40
0
 40
0
 40
0
 40
1
 40
1
 40
1
 40
1
 10
344.642744
 20
657.855246
 30
0.0
 10
342.343851
 20
660.722873
 30
0.0
 10
338.867290
 20
662.391617
 30
0.0
 10
335.191941
 20
662.391617
 30
0.0
  0
SPLINE
  5
1cd
100
AcDbEntity
  8
Calque_1
 62
7
100
AcDbSpline
 70
8
 71
3
 72
8
 73
4
 74
0
 40
0
 40
0
 40
0
 40
0
 40
1
 40
1
 40
1
 40
1
 10
335.191941
 20
662.391617
 30
0.0
 10
331.516592
 20
662.391617
 30
0.0
 10
328.040031
 20
660.722873
 30
0.0
 10
325.741138
 20
657.855246
 30
0.0
  0
SPLINE
  5
1ce
100
AcDbEntity
  8
Calque_1
 62
7
100
AcDbSpline
 70
8
 71
3
 72
8
 73
4
 74
0
 40
0
 40
0
 40
0
 40
0
 40
1
 40
1
 40
1
 40
1
 10
374.885353
 20
657.855246
 30
0.0
 10
376.264688
 20
656.134655
 30
0.0
 10
378.350634
 20
655.133399
 30
0.0
 10
380.555855
 20
655.133399
 30
0.0
  0
SPLINE
  5
1cf
100
AcDbEntity
  8
Calque_1
 62
7
100
AcDbSpline
 70
8
 71
3
 72
8
 73
4
 74
0
 40
0
 40
0
 40
0
 40
0
 40
1
 40
1
 40
1
 40
1
 10
380.555855
 20
655.133399
 30
0.0
 10
382.761075
 20
655.133399
 30
0.0
 10
384.847021
 20
656.134655
 30
0.0
 10
386.226356
 20
657.855246
 30
0.0
  0
SPLINE
  5
1d0
100
AcDbEntity
  8
Calque_1
 62
7
100
AcDbSpline
 70
8
 71
3
 72
8
 73
4
 74
0
 40
0
 40
0
 40
0
 40
0
 40
1
 40
1
 40
1
 40
1
 10
374.885353
 20
657.855246
 30
0.0
 10
372.586460
 20
660.722873
 30
0.0
 10
369.109899
 20
662.391617
 30
0.0
 10
365.434550
 20
662.391617
 30
0.0
  0
SPLINE
  5
1d1
100
AcDbEntity
  8
Calque_1
 62
7
100
AcDbSpline
 70
8
 71
3
 72
8
 73
4
 74
0
 40
0
 40
0
 40
0
 40
0
 40
1
 40
1
 40
1
 40
1
 10
365.434550
 20
662.391617
 30
0.0
 10
361.759201
 20
662.391617
 30
0.0
 10
358.282640
 20
660.722873
 30
0.0
 10
355.983747
 20
657.855246
 30
0.0
  0
SPLINE
  5
1d2
100
AcDbEntity
  8
Calque_1
 62
7
100
AcDbSpline
 70
8
 71
3
 72
8
 73
4
 74
0
 40
0
 40
0
 40
0
 40
0
 40
1
 40
1
 40
1
 40
1
 10
405.127962
 20
657.855246
 30
0.0
 10
406.507297
 20
656.134655
 30
0.0
 10
408.593243
 20
655.133399
 30
0.0
 10
410.798463
 20
655.133399
 30
0.0
  0
SPLINE
  5
1d3
100
AcDbEntity
  8
Calque_1
 62
7
100
AcDbSpline
 70
8
 71
3
 72
8
 73
4
 74
0
 40
0
 40
0
 40
0
 40
0
 40
1
 40
1
 40
1
 40
1
 10
410.798463
 20
655.133399
 30
0.0
 10
413.003684
 20
655.133399
 30
0.0
 10
415.089630
 20
656.134655
 30
0.0
 10
416.468965
 20
657.855246
 30
0.0
  0
SPLINE
  5
1d4
100
AcDbEntity
  8
Calque_1
 62
7
100
AcDbSpline
 70
8
 71
3
 72
8
 73
4
 74
0
 40
0
 40
0
 40
0
 40
0
 40
1
 40
1
 40
1
 40
1
 10
405.127962
 20
657.855246
 30
0.0
 10
402.829069
 20
660.722873
 30
0.0
 10
399.352508
 20
662.391617
 30
0.0
 10
395.677159
 20
662.391617
 30
0.0
  0
SPLINE
  5
1d5
100
AcDbEntity
  8
Calque_1
 62
7
100
AcDbSpline
 70
8
 71
3
 72
8
 73
4
 74
0
 40
0
 40
0
 40
0
 40
0
 40
1
 40
1
 40
1
 40
1
 10
395.677159
 20
662.391617
 30
0.0
 10
392.001810
 20
662.391617
 30
0.0
 10
388.525249
 20
660.722873
 30
0.0
 10
386.226356
 20
657.855246
 30
0.0
  0
SPLINE
  5
1d6
100
AcDbEntity
  8
Calque_1
 62
7
100
AcDbSpline
 70
8
 71
3
 72
8
 73
4
 74
0
 40
0
 40
0
 40
0
 40
0
 40
1
 40
1
 40
1
 40
1
 10
435.370671
 20
657.855246
 30
0.0
 10
436.750006
 20
656.134655
 30
0.0
 10
438.835952
 20
655.133399
 30
0.0
 10
441.041172
 20
655.133399
 30
0.0
  0
SPLINE
  5
1d7
100
AcDbEntity
  8
Calque_1
 62
7
100
AcDbSpline
 70
8
 71
3
 72
8
 73
4
 74
0
 40
0
 40
0
 40
0
 40
0
 40
1
 40
1
 40
1
 40
1
 10
441.041172
 20
655.133399
 30
0.0
 10
443.246393
 20
655.133399
 30
0.0
 10
445.332339
 20
656.134655
 30
0.0
 10
446.711674
 20
657.855246
 30
0.0
  0
SPLINE
  5
1d8
100
AcDbEntity
  8
Calque_1
 62
7
100
AcDbSpline
 70
8
 71
3
 72
8
 73
4
 74
0
 40
0
 40
0
 40
0
 40
0
 40
1
 40
1
 40
1
 40
1
 10
435.370671
 20
657.855246
 30
0.0
 10
433.071779
 20
660.722910
 30
0.0
 10
429.595195
 20
662.391679
 30
0.0
 10
425.919818
 20
662.391679
 30
0.0
  0
SPLINE
  5
1d9
100
AcDbEntity
  8
Calque_1
 62
7
100
AcDbSpline
 70
8
 71
3
 72
8
 73
4
 74
0
 40
0
 40
0
 40
0
 40
0
 40
1
 40
1
 40
1
 40
1
 10
425.919818
 20
662.391679
 30
0.0
 10
422.244441
 20
662.391679
 30
0.0
 10
418.767856
 20
660.722910
 30
0.0
 10
416.468965
 20
657.855246
 30
0.0
  0
SPLINE
  5
1da
100
AcDbEntity
  8
Calque_1
 62
7
100
AcDbSpline
 70
8
 71
3
 72
8
 73
4
 74
0
 40
0
 40
0
 40
0
 40
0
 40
1
 40
1
 40
1
 40
1
 10
465.613280
 20
657.855246
 30
0.0
 10
466.992615
 20
656.134655
 30
0.0
 10
469.078561
 20
655.133399
 30
0.0
 10
471.283781
 20
655.133399
 30
0.0
  0
SPLINE
  5
1db
100
AcDbEntity
  8
Calque_1
 62
7
100
AcDbSpline
 70
8
 71
3
 72
8
 73
4
 74
0
 40
0
 40
0
 40
0
 40
0
 40
1
 40
1
 40
1
 40
1
 10
471.283781
 20
655.133399
 30
0.0
 10
473.489002
 20
655.133399
 30
0.0
 10
475.574948
 20
656.134655
 30
0.0
 10
476.954283
 20
657.855246
 30
0.0
  0
SPLINE
  5
1dc
100
AcDbEntity
  8
Calque_1
 62
7
100
AcDbSpline
 70
8
 71
3
 72
8
 73
4
 74
0
 40
0
 40
0
 40
0
 40
0
 40
1
 40
1
 40
1
 40
1
 10
465.613280
 20
657.855246
 30
0.0
 10
463.314387
 20
660.722873
 30
0.0
 10
459.837826
 20
662.391617
 30
0.0
 10
456.162477
 20
662.391617
 30
0.0
  0
SPLINE
  5
1dd
100
AcDbEntity
  8
Calque_1
 62
7
100
AcDbSpline
 70
8
 71
3
 72
8
 73
4
 74
0
 40
0
 40
0
 40
0
 40
0
 40
1
 40
1
 40
1
 40
1
 10
456.162477
 20
662.391617
 30
0.0
 10
452.487128
 20
662.391617
 30
0.0
 10
449.010567
 20
660.722873
 30
0.0
 10
446.711674
 20
657.855246
 30
0.0
  0
SPLINE
  5
1de
100
AcDbEntity
  8
Calque_1
 62
7
100
AcDbSpline
 70
8
 71
3
 72
8
 73
4
 74
0
 40
0
 40
0
 40
0
 40
0
 40
1
 40
1
 40
1
 40
1
 10
514.646371
 20
660.495005
 30
0.0
 10
511.664295
 20
660.495019
 30
0.0
 10
508.802209
 20
659.320488
 30
0.0
 10
506.679783
 20
657.225713
 30
0.0
  0
LWPOLYLINE
  5
1df
100
AcDbEntity
  8
Calque_1
 62
7
100
AcDbPolyline
 90
2
 70
0
 10
53.783805
 20
660.501507
 30
0.0
 10
30.392748
 20
660.501507
 30
0.0
  0
SPLINE
  5
1e0
100
AcDbEntity
  8
Calque_1
 62
7
100
AcDbSpline
 70
8
 71
3
 72
8
 73
4
 74
0
 40
0
 40
0
 40
0
 40
0
 40
1
 40
1
 40
1
 40
1
 10
522.516439
 20
660.495005
 30
0.0
 10
524.899156
 20
660.495018
 30
0.0
 10
527.276535
 20
660.720301
 30
0.0
 10
529.616843
 20
661.167848
 30
0.0
  0
SPLINE
  5
1e1
100
AcDbEntity
  8
Calque_1
 62
7
100
AcDbSpline
 70
8
 71
3
 72
8
 73
4
 74
0
 40
0
 40
0
 40
0
 40
0
 40
1
 40
1
 40
1
 40
1
 10
605.287179
 20
674.953169
 30
0.0
 10
602.904462
 20
674.953157
 30
0.0
 10
600.527083
 20
674.727874
 30
0.0
 10
598.186775
 20
674.280327
 30
0.0
  0
SPLINE
  5
1e2
100
AcDbEntity
  8
Calque_1
 62
7
100
AcDbSpline
 70
8
 71
3
 72
8
 73
4
 74
0
 40
0
 40
0
 40
0
 40
0
 40
1
 40
1
 40
1
 40
1
 10
1127.125857
 20
669.103830
 30
0.0
 10
1127.885609
 20
670.265622
 30
0.0
 10
1127.947502
 20
671.750357
 30
0.0
 10
1127.287079
 20
672.971351
 30
0.0
  0
SPLINE
  5
1e3
100
AcDbEntity
  8
Calque_1
 62
7
100
AcDbSpline
 70
8
 71
3
 72
8
 73
4
 74
0
 40
0
 40
0
 40
0
 40
0
 40
1
 40
1
 40
1
 40
1
 10
1127.287079
 20
672.971351
 30
0.0
 10
1126.626655
 20
674.192345
 30
0.0
 10
1125.350165
 20
674.953162
 30
0.0
 10
1123.962006
 20
674.953169
 30
0.0
  0
LWPOLYLINE
  5
1e4
100
AcDbEntity
  8
Calque_1
 62
7
100
AcDbPolyline
 90
2
 70
0
 10
514.646371
 20
660.495005
 30
0.0
 10
522.516439
 20
660.495005
 30
0.0
  0
SPLINE
  5
1e5
100
AcDbEntity
  8
Calque_1
 62
7
100
AcDbSpline
 70
8
 71
3
 72
8
 73
4
 74
0
 40
0
 40
0
 40
0
 40
0
 40
1
 40
1
 40
1
 40
1
 10
1140.556513
 20
674.953169
 30
0.0
 10
1139.280694
 20
674.953178
 30
0.0
 10
1138.090939
 20
674.309666
 30
0.0
 10
1137.392652
 20
673.241907
 30
0.0
  0
SPLINE
  5
1e6
100
AcDbEntity
  8
Calque_1
 62
7
100
AcDbSpline
 70
8
 71
3
 72
8
 73
4
 74
0
 40
0
 40
0
 40
0
 40
0
 40
1
 40
1
 40
1
 40
1
 10
495.855889
 20
657.855246
 30
0.0
 10
497.148691
 20
656.242627
 30
0.0
 10
499.064482
 20
655.253597
 30
0.0
 10
501.127847
 20
655.133588
 30
0.0
  0
SPLINE
  5
1e7
100
AcDbEntity
  8
Calque_1
 62
7
100
AcDbSpline
 70
8
 71
3
 72
8
 73
4
 74
0
 40
0
 40
0
 40
0
 40
0
 40
1
 40
1
 40
1
 40
1
 10
501.127847
 20
655.133588
 30
0.0
 10
503.191212
 20
655.013580
 30
0.0
 10
505.208745
 20
655.773843
 30
0.0
 10
506.679783
 20
657.225713
 30
0.0
  0
SPLINE
  5
1e8
100
AcDbEntity
  8
Calque_1
 62
7
100
AcDbSpline
 70
8
 71
3
 72
8
 73
4
 74
0
 40
0
 40
0
 40
0
 40
0
 40
1
 40
1
 40
1
 40
1
 10
495.855889
 20
657.855246
 30
0.0
 10
493.556996
 20
660.722873
 30
0.0
 10
490.080435
 20
662.391617
 30
0.0
 10
486.405086
 20
662.391617
 30
0.0
  0
SPLINE
  5
1e9
100
AcDbEntity
  8
Calque_1
 62
7
100
AcDbSpline
 70
8
 71
3
 72
8
 73
4
 74
0
 40
0
 40
0
 40
0
 40
0
 40
1
 40
1
 40
1
 40
1
 10
486.405086
 20
662.391617
 30
0.0
 10
482.729737
 20
662.391617
 30
0.0
 10
479.253176
 20
660.722873
 30
0.0
 10
476.954283
 20
657.855246
 30
0.0
  0
LWPOLYLINE
  5
1ea
100
AcDbEntity
  8
Calque_1
 62
7
100
AcDbPolyline
 90
4
 70
0
 10
1127.125857
 20
669.103830
 30
0.0
 10
1121.500295
 20
660.501507
 30
0.0
 10
1129.060957
 20
660.501507
 30
0.0
 10
1137.392652
 20
673.241907
 30
0.0
  0
SPLINE
  5
1eb
100
AcDbEntity
  8
Calque_1
 62
7
100
AcDbSpline
 70
8
 71
3
 72
8
 73
4
 74
0
 40
0
 40
0
 40
0
 40
0
 40
1
 40
1
 40
1
 40
1
 10
1137.392652
 20
582.156204
 30
0.0
 10
1138.090939
 20
581.088445
 30
0.0
 10
1139.280694
 20
580.444933
 30
0.0
 10
1140.556513
 20
580.444941
 30
0.0
  0
LWPOLYLINE
  5
1ec
100
AcDbEntity
  8
Calque_1
 62
7
100
AcDbPolyline
 90
2
 70
0
 10
1140.556513
 20
580.444941
 30
0.0
 10
1811.410279
 20
580.444941
 30
0.0
  0
LWPOLYLINE
  5
1ed
100
AcDbEntity
  8
Calque_1
 62
7
100
AcDbPolyline
 90
2
 70
0
 10
1129.060957
 20
594.896604
 30
0.0
 10
1137.392652
 20
582.156204
 30
0.0
  0
LWPOLYLINE
  5
1ee
100
AcDbEntity
  8
Calque_1
 62
7
100
AcDbPolyline
 90
2
 70
0
 10
1121.500295
 20
594.896604
 30
0.0
 10
1129.060957
 20
594.896604
 30
0.0
  0
SPLINE
  5
1ef
100
AcDbEntity
  8
Calque_1
 62
7
100
AcDbSpline
 70
8
 71
3
 72
8
 73
4
 74
0
 40
0
 40
0
 40
0
 40
0
 40
1
 40
1
 40
1
 40
1
 10
1123.962006
 20
580.444941
 30
0.0
 10
1125.350165
 20
580.444949
 30
0.0
 10
1126.626655
 20
581.205766
 30
0.0
 10
1127.287079
 20
582.426760
 30
0.0
  0
SPLINE
  5
1f0
100
AcDbEntity
  8
Calque_1
 62
7
100
AcDbSpline
 70
8
 71
3
 72
8
 73
4
 74
0
 40
0
 40
0
 40
0
 40
0
 40
1
 40
1
 40
1
 40
1
 10
1127.287079
 20
582.426760
 30
0.0
 10
1127.947502
 20
583.647754
 30
0.0
 10
1127.885609
 20
585.132489
 30
0.0
 10
1127.125857
 20
586.294281
 30
0.0
  0
SPLINE
  5
1f1
100
AcDbEntity
  8
Calque_1
 62
7
100
AcDbSpline
 70
8
 71
3
 72
8
 73
4
 74
0
 40
0
 40
0
 40
0
 40
0
 40
1
 40
1
 40
1
 40
1
 10
598.188275
 20
581.117184
 30
0.0
 10
600.527585
 20
580.670033
 30
0.0
 10
602.903917
 20
580.444952
 30
0.0
 10
605.285579
 20
580.444941
 30
0.0
  0
SPLINE
  5
1f2
100
AcDbEntity
  8
Calque_1
 62
7
100
AcDbSpline
 70
8
 71
3
 72
8
 73
4
 74
0
 40
0
 40
0
 40
0
 40
0
 40
1
 40
1
 40
1
 40
1
 10
529.615343
 20
594.224361
 30
0.0
 10
527.276033
 20
594.671512
 30
0.0
 10
524.899701
 20
594.896594
 30
0.0
 10
522.518039
 20
594.896604
 30
0.0
  0
LWPOLYLINE
  5
1f3
100
AcDbEntity
  8
Calque_1
 62
7
100
AcDbPolyline
 90
2
 70
0
 10
1127.125857
 20
586.294281
 30
0.0
 10
1121.500295
 20
594.896604
 30
0.0
  0
SPLINE
  5
1f4
100
AcDbEntity
  8
Calque_1
 62
7
100
AcDbSpline
 70
8
 71
3
 72
8
 73
4
 74
0
 40
0
 40
0
 40
0
 40
0
 40
1
 40
1
 40
1
 40
1
 10
506.682383
 20
598.169898
 30
0.0
 10
508.805147
 20
596.072683
 30
0.0
 10
511.668942
 20
594.896604
 30
0.0
 10
514.652972
 20
594.896604
 30
0.0
  0
SPLINE
  5
1f5
100
AcDbEntity
  8
Calque_1
 62
7
100
AcDbSpline
 70
8
 71
3
 72
8
 73
4
 74
0
 40
0
 40
0
 40
0
 40
0
 40
1
 40
1
 40
1
 40
1
 10
476.954283
 20
597.542865
 30
0.0
 10
479.253176
 20
594.675238
 30
0.0
 10
482.729737
 20
593.006494
 30
0.0
 10
486.405086
 20
593.006494
 30
0.0
  0
SPLINE
  5
1f6
100
AcDbEntity
  8
Calque_1
 62
7
100
AcDbSpline
 70
8
 71
3
 72
8
 73
4
 74
0
 40
0
 40
0
 40
0
 40
0
 40
1
 40
1
 40
1
 40
1
 10
486.405086
 20
593.006494
 30
0.0
 10
490.080435
 20
593.006494
 30
0.0
 10
493.556996
 20
594.675238
 30
0.0
 10
495.855889
 20
597.542865
 30
0.0
  0
SPLINE
  5
1f7
100
AcDbEntity
  8
Calque_1
 62
7
100
AcDbSpline
 70
8
 71
3
 72
8
 73
4
 74
0
 40
0
 40
0
 40
0
 40
0
 40
1
 40
1
 40
1
 40
1
 10
506.682383
 20
598.169898
 30
0.0
 10
505.211611
 20
599.622943
 30
0.0
 10
503.193687
 20
600.384205
 30
0.0
 10
501.129657
 20
600.264663
 30
0.0
  0
SPLINE
  5
1f8
100
AcDbEntity
  8
Calque_1
 62
7
100
AcDbSpline
 70
8
 71
3
 72
8
 73
4
 74
0
 40
0
 40
0
 40
0
 40
0
 40
1
 40
1
 40
1
 40
1
 10
501.129657
 20
600.264663
 30
0.0
 10
499.065626
 20
600.145122
 30
0.0
 10
497.149079
 20
599.155990
 30
0.0
 10
495.855889
 20
597.542865
 30
0.0
  0
SPLINE
  5
1f9
100
AcDbEntity
  8
Calque_1
 62
7
100
AcDbSpline
 70
8
 71
3
 72
8
 73
4
 74
0
 40
0
 40
0
 40
0
 40
0
 40
1
 40
1
 40
1
 40
1
 10
446.711674
 20
597.542865
 30
0.0
 10
449.010567
 20
594.675238
 30
0.0
 10
452.487128
 20
593.006494
 30
0.0
 10
456.162477
 20
593.006494
 30
0.0
  0
SPLINE
  5
1fa
100
AcDbEntity
  8
Calque_1
 62
7
100
AcDbSpline
 70
8
 71
3
 72
8
 73
4
 74
0
 40
0
 40
0
 40
0
 40
0
 40
1
 40
1
 40
1
 40
1
 10
456.162477
 20
593.006494
 30
0.0
 10
459.837826
 20
593.006494
 30
0.0
 10
463.314387
 20
594.675238
 30
0.0
 10
465.613280
 20
597.542865
 30
0.0
  0
SPLINE
  5
1fb
100
AcDbEntity
  8
Calque_1
 62
7
100
AcDbSpline
 70
8
 71
3
 72
8
 73
4
 74
0
 40
0
 40
0
 40
0
 40
0
 40
1
 40
1
 40
1
 40
1
 10
476.954283
 20
597.542865
 30
0.0
 10
475.574948
 20
599.263456
 30
0.0
 10
473.489002
 20
600.264712
 30
0.0
 10
471.283781
 20
600.264712
 30
0.0
  0
SPLINE
  5
1fc
100
AcDbEntity
  8
Calque_1
 62
7
100
AcDbSpline
 70
8
 71
3
 72
8
 73
4
 74
0
 40
0
 40
0
 40
0
 40
0
 40
1
 40
1
 40
1
 40
1
 10
471.283781
 20
600.264712
 30
0.0
 10
469.078561
 20
600.264712
 30
0.0
 10
466.992615
 20
599.263456
 30
0.0
 10
465.613280
 20
597.542865
 30
0.0
  0
SPLINE
  5
1fd
100
AcDbEntity
  8
Calque_1
 62
7
100
AcDbSpline
 70
8
 71
3
 72
8
 73
4
 74
0
 40
0
 40
0
 40
0
 40
0
 40
1
 40
1
 40
1
 40
1
 10
416.468965
 20
597.542865
 30
0.0
 10
418.767856
 20
594.675201
 30
0.0
 10
422.244441
 20
593.006431
 30
0.0
 10
425.919818
 20
593.006431
 30
0.0
  0
SPLINE
  5
1fe
100
AcDbEntity
  8
Calque_1
 62
7
100
AcDbSpline
 70
8
 71
3
 72
8
 73
4
 74
0
 40
0
 40
0
 40
0
 40
0
 40
1
 40
1
 40
1
 40
1
 10
425.919818
 20
593.006431
 30
0.0
 10
429.595195
 20
593.006431
 30
0.0
 10
433.071779
 20
594.675201
 30
0.0
 10
435.370671
 20
597.542865
 30
0.0
  0
SPLINE
  5
1ff
100
AcDbEntity
  8
Calque_1
 62
7
100
AcDbSpline
 70
8
 71
3
 72
8
 73
4
 74
0
 40
0
 40
0
 40
0
 40
0
 40
1
 40
1
 40
1
 40
1
 10
446.711674
 20
597.542865
 30
0.0
 10
445.332339
 20
599.263456
 30
0.0
 10
443.246393
 20
600.264712
 30
0.0
 10
441.041172
 20
600.264712
 30
0.0
  0
SPLINE
  5
200
100
AcDbEntity
  8
Calque_1
 62
7
100
AcDbSpline
 70
8
 71
3
 72
8
 73
4
 74
0
 40
0
 40
0
 40
0
 40
0
 40
1
 40
1
 40
1
 40
1
 10
441.041172
 20
600.264712
 30
0.0
 10
438.835952
 20
600.264712
 30
0.0
 10
436.750006
 20
599.263456
 30
0.0
 10
435.370671
 20
597.542865
 30
0.0
  0
SPLINE
  5
201
100
AcDbEntity
  8
Calque_1
 62
7
100
AcDbSpline
 70
8
 71
3
 72
8
 73
4
 74
0
 40
0
 40
0
 40
0
 40
0
 40
1
 40
1
 40
1
 40
1
 10
386.226356
 20
597.542865
 30
0.0
 10
388.525249
 20
594.675238
 30
0.0
 10
392.001810
 20
593.006494
 30
0.0
 10
395.677159
 20
593.006494
 30
0.0
  0
SPLINE
  5
202
100
AcDbEntity
  8
Calque_1
 62
7
100
AcDbSpline
 70
8
 71
3
 72
8
 73
4
 74
0
 40
0
 40
0
 40
0
 40
0
 40
1
 40
1
 40
1
 40
1
 10
395.677159
 20
593.006494
 30
0.0
 10
399.352508
 20
593.006494
 30
0.0
 10
402.829069
 20
594.675238
 30
0.0
 10
405.127962
 20
597.542865
 30
0.0
  0
SPLINE
  5
203
100
AcDbEntity
  8
Calque_1
 62
7
100
AcDbSpline
 70
8
 71
3
 72
8
 73
4
 74
0
 40
0
 40
0
 40
0
 40
0
 40
1
 40
1
 40
1
 40
1
 10
416.468965
 20
597.542865
 30
0.0
 10
415.089630
 20
599.263456
 30
0.0
 10
413.003684
 20
600.264712
 30
0.0
 10
410.798463
 20
600.264712
 30
0.0
  0
SPLINE
  5
204
100
AcDbEntity
  8
Calque_1
 62
7
100
AcDbSpline
 70
8
 71
3
 72
8
 73
4
 74
0
 40
0
 40
0
 40
0
 40
0
 40
1
 40
1
 40
1
 40
1
 10
410.798463
 20
600.264712
 30
0.0
 10
408.593243
 20
600.264712
 30
0.0
 10
406.507297
 20
599.263456
 30
0.0
 10
405.127962
 20
597.542865
 30
0.0
  0
SPLINE
  5
205
100
AcDbEntity
  8
Calque_1
 62
7
100
AcDbSpline
 70
8
 71
3
 72
8
 73
4
 74
0
 40
0
 40
0
 40
0
 40
0
 40
1
 40
1
 40
1
 40
1
 10
355.983747
 20
597.542865
 30
0.0
 10
358.282640
 20
594.675238
 30
0.0
 10
361.759201
 20
593.006494
 30
0.0
 10
365.434550
 20
593.006494
 30
0.0
  0
SPLINE
  5
206
100
AcDbEntity
  8
Calque_1
 62
7
100
AcDbSpline
 70
8
 71
3
 72
8
 73
4
 74
0
 40
0
 40
0
 40
0
 40
0
 40
1
 40
1
 40
1
 40
1
 10
365.434550
 20
593.006494
 30
0.0
 10
369.109899
 20
593.006494
 30
0.0
 10
372.586460
 20
594.675238
 30
0.0
 10
374.885353
 20
597.542865
 30
0.0
  0
SPLINE
  5
207
100
AcDbEntity
  8
Calque_1
 62
7
100
AcDbSpline
 70
8
 71
3
 72
8
 73
4
 74
0
 40
0
 40
0
 40
0
 40
0
 40
1
 40
1
 40
1
 40
1
 10
386.226356
 20
597.542865
 30
0.0
 10
384.847021
 20
599.263456
 30
0.0
 10
382.761075
 20
600.264712
 30
0.0
 10
380.555855
 20
600.264712
 30
0.0
  0
SPLINE
  5
208
100
AcDbEntity
  8
Calque_1
 62
7
100
AcDbSpline
 70
8
 71
3
 72
8
 73
4
 74
0
 40
0
 40
0
 40
0
 40
0
 40
1
 40
1
 40
1
 40
1
 10
380.555855
 20
600.264712
 30
0.0
 10
378.350634
 20
600.264712
 30
0.0
 10
376.264688
 20
599.263456
 30
0.0
 10
374.885353
 20
597.542865
 30
0.0
  0
SPLINE
  5
209
100
AcDbEntity
  8
Calque_1
 62
7
100
AcDbSpline
 70
8
 71
3
 72
8
 73
4
 74
0
 40
0
 40
0
 40
0
 40
0
 40
1
 40
1
 40
1
 40
1
 10
325.741138
 20
597.542865
 30
0.0
 10
328.040031
 20
594.675238
 30
0.0
 10
331.516592
 20
593.006494
 30
0.0
 10
335.191941
 20
593.006494
 30
0.0
  0
SPLINE
  5
20a
100
AcDbEntity
  8
Calque_1
 62
7
100
AcDbSpline
 70
8
 71
3
 72
8
 73
4
 74
0
 40
0
 40
0
 40
0
 40
0
 40
1
 40
1
 40
1
 40
1
 10
335.191941
 20
593.006494
 30
0.0
 10
338.867290
 20
593.006494
 30
0.0
 10
342.343851
 20
594.675238
 30
0.0
 10
344.642744
 20
597.542865
 30
0.0
  0
SPLINE
  5
20b
100
AcDbEntity
  8
Calque_1
 62
7
100
AcDbSpline
 70
8
 71
3
 72
8
 73
4
 74
0
 40
0
 40
0
 40
0
 40
0
 40
1
 40
1
 40
1
 40
1
 10
355.983747
 20
597.542865
 30
0.0
 10
354.604412
 20
599.263456
 30
0.0
 10
352.518466
 20
600.264712
 30
0.0
 10
350.313246
 20
600.264712
 30
0.0
  0
SPLINE
  5
20c
100
AcDbEntity
  8
Calque_1
 62
7
100
AcDbSpline
 70
8
 71
3
 72
8
 73
4
 74
0
 40
0
 40
0
 40
0
 40
0
 40
1
 40
1
 40
1
 40
1
 10
350.313246
 20
600.264712
 30
0.0
 10
348.108025
 20
600.264712
 30
0.0
 10
346.022079
 20
599.263456
 30
0.0
 10
344.642744
 20
597.542865
 30
0.0
  0
SPLINE
  5
20d
100
AcDbEntity
  8
Calque_1
 62
7
100
AcDbSpline
 70
8
 71
3
 72
8
 73
4
 74
0
 40
0
 40
0
 40
0
 40
0
 40
1
 40
1
 40
1
 40
1
 10
295.498429
 20
597.542865
 30
0.0
 10
297.797321
 20
594.675201
 30
0.0
 10
301.273905
 20
593.006431
 30
0.0
 10
304.949282
 20
593.006431
 30
0.0
  0
SPLINE
  5
20e
100
AcDbEntity
  8
Calque_1
 62
7
100
AcDbSpline
 70
8
 71
3
 72
8
 73
4
 74
0
 40
0
 40
0
 40
0
 40
0
 40
1
 40
1
 40
1
 40
1
 10
304.949282
 20
593.006431
 30
0.0
 10
308.624659
 20
593.006431
 30
0.0
 10
312.101244
 20
594.675201
 30
0.0
 10
314.400135
 20
597.542865
 30
0.0
  0
SPLINE
  5
20f
100
AcDbEntity
  8
Calque_1
 62
7
100
AcDbSpline
 70
8
 71
3
 72
8
 73
4
 74
0
 40
0
 40
0
 40
0
 40
0
 40
1
 40
1
 40
1
 40
1
 10
325.741138
 20
597.542865
 30
0.0
 10
324.361803
 20
599.263456
 30
0.0
 10
322.275857
 20
600.264712
 30
0.0
 10
320.070637
 20
600.264712
 30
0.0
  0
SPLINE
  5
210
100
AcDbEntity
  8
Calque_1
 62
7
100
AcDbSpline
 70
8
 71
3
 72
8
 73
4
 74
0
 40
0
 40
0
 40
0
 40
0
 40
1
 40
1
 40
1
 40
1
 10
320.070637
 20
600.264712
 30
0.0
 10
317.865416
 20
600.264712
 30
0.0
 10
315.779470
 20
599.263456
 30
0.0
 10
314.400135
 20
597.542865
 30
0.0
  0
SPLINE
  5
211
100
AcDbEntity
  8
Calque_1
 62
7
100
AcDbSpline
 70
8
 71
3
 72
8
 73
4
 74
0
 40
0
 40
0
 40
0
 40
0
 40
1
 40
1
 40
1
 40
1
 10
265.255820
 20
597.542865
 30
0.0
 10
267.554712
 20
594.675201
 30
0.0
 10
271.031296
 20
593.006431
 30
0.0
 10
274.706673
 20
593.006431
 30
0.0
  0
SPLINE
  5
212
100
AcDbEntity
  8
Calque_1
 62
7
100
AcDbSpline
 70
8
 71
3
 72
8
 73
4
 74
0
 40
0
 40
0
 40
0
 40
0
 40
1
 40
1
 40
1
 40
1
 10
274.706673
 20
593.006431
 30
0.0
 10
278.382050
 20
593.006431
 30
0.0
 10
281.858635
 20
594.675201
 30
0.0
 10
284.157526
 20
597.542865
 30
0.0
  0
SPLINE
  5
213
100
AcDbEntity
  8
Calque_1
 62
7
100
AcDbSpline
 70
8
 71
3
 72
8
 73
4
 74
0
 40
0
 40
0
 40
0
 40
0
 40
1
 40
1
 40
1
 40
1
 10
295.498429
 20
597.542865
 30
0.0
 10
294.119093
 20
599.263419
 30
0.0
 10
292.033170
 20
600.264650
 30
0.0
 10
289.827978
 20
600.264650
 30
0.0
  0
SPLINE
  5
214
100
AcDbEntity
  8
Calque_1
 62
7
100
AcDbSpline
 70
8
 71
3
 72
8
 73
4
 74
0
 40
0
 40
0
 40
0
 40
0
 40
1
 40
1
 40
1
 40
1
 10
289.827978
 20
600.264650
 30
0.0
 10
287.622785
 20
600.264650
 30
0.0
 10
285.536862
 20
599.263419
 30
0.0
 10
284.157526
 20
597.542865
 30
0.0
  0
SPLINE
  5
215
100
AcDbEntity
  8
Calque_1
 62
7
100
AcDbSpline
 70
8
 71
3
 72
8
 73
4
 74
0
 40
0
 40
0
 40
0
 40
0
 40
1
 40
1
 40
1
 40
1
 10
235.013211
 20
597.542865
 30
0.0
 10
237.312104
 20
594.675238
 30
0.0
 10
240.788665
 20
593.006494
 30
0.0
 10
244.464014
 20
593.006494
 30
0.0
  0
SPLINE
  5
216
100
AcDbEntity
  8
Calque_1
 62
7
100
AcDbSpline
 70
8
 71
3
 72
8
 73
4
 74
0
 40
0
 40
0
 40
0
 40
0
 40
1
 40
1
 40
1
 40
1
 10
244.464014
 20
593.006494
 30
0.0
 10
248.139363
 20
593.006494
 30
0.0
 10
251.615924
 20
594.675238
 30
0.0
 10
253.914817
 20
597.542865
 30
0.0
  0
SPLINE
  5
217
100
AcDbEntity
  8
Calque_1
 62
7
100
AcDbSpline
 70
8
 71
3
 72
8
 73
4
 74
0
 40
0
 40
0
 40
0
 40
0
 40
1
 40
1
 40
1
 40
1
 10
265.255820
 20
597.542865
 30
0.0
 10
263.876485
 20
599.263456
 30
0.0
 10
261.790539
 20
600.264712
 30
0.0
 10
259.585319
 20
600.264712
 30
0.0
  0
SPLINE
  5
218
100
AcDbEntity
  8
Calque_1
 62
7
100
AcDbSpline
 70
8
 71
3
 72
8
 73
4
 74
0
 40
0
 40
0
 40
0
 40
0
 40
1
 40
1
 40
1
 40
1
 10
259.585319
 20
600.264712
 30
0.0
 10
257.380098
 20
600.264712
 30
0.0
 10
255.294152
 20
599.263456
 30
0.0
 10
253.914817
 20
597.542865
 30
0.0
  0
SPLINE
  5
219
100
AcDbEntity
  8
Calque_1
 62
7
100
AcDbSpline
 70
8
 71
3
 72
8
 73
4
 74
0
 40
0
 40
0
 40
0
 40
0
 40
1
 40
1
 40
1
 40
1
 10
204.770602
 20
597.542865
 30
0.0
 10
207.069495
 20
594.675238
 30
0.0
 10
210.546056
 20
593.006494
 30
0.0
 10
214.221405
 20
593.006494
 30
0.0
  0
SPLINE
  5
21a
100
AcDbEntity
  8
Calque_1
 62
7
100
AcDbSpline
 70
8
 71
3
 72
8
 73
4
 74
0
 40
0
 40
0
 40
0
 40
0
 40
1
 40
1
 40
1
 40
1
 10
214.221405
 20
593.006494
 30
0.0
 10
217.896754
 20
593.006494
 30
0.0
 10
221.373315
 20
594.675238
 30
0.0
 10
223.672208
 20
597.542865
 30
0.0
  0
SPLINE
  5
21b
100
AcDbEntity
  8
Calque_1
 62
7
100
AcDbSpline
 70
8
 71
3
 72
8
 73
4
 74
0
 40
0
 40
0
 40
0
 40
0
 40
1
 40
1
 40
1
 40
1
 10
235.013211
 20
597.542865
 30
0.0
 10
233.633876
 20
599.263456
 30
0.0
 10
231.547930
 20
600.264712
 30
0.0
 10
229.342710
 20
600.264712
 30
0.0
  0
SPLINE
  5
21c
100
AcDbEntity
  8
Calque_1
 62
7
100
AcDbSpline
 70
8
 71
3
 72
8
 73
4
 74
0
 40
0
 40
0
 40
0
 40
0
 40
1
 40
1
 40
1
 40
1
 10
229.342710
 20
600.264712
 30
0.0
 10
227.137489
 20
600.264712
 30
0.0
 10
225.051543
 20
599.263456
 30
0.0
 10
223.672208
 20
597.542865
 30
0.0
  0
SPLINE
  5
21d
100
AcDbEntity
  8
Calque_1
 62
7
100
AcDbSpline
 70
8
 71
3
 72
8
 73
4
 74
0
 40
0
 40
0
 40
0
 40
0
 40
1
 40
1
 40
1
 40
1
 10
174.527993
 20
597.542865
 30
0.0
 10
176.826886
 20
594.675238
 30
0.0
 10
180.303447
 20
593.006494
 30
0.0
 10
183.978796
 20
593.006494
 30
0.0
  0
SPLINE
  5
21e
100
AcDbEntity
  8
Calque_1
 62
7
100
AcDbSpline
 70
8
 71
3
 72
8
 73
4
 74
0
 40
0
 40
0
 40
0
 40
0
 40
1
 40
1
 40
1
 40
1
 10
183.978796
 20
593.006494
 30
0.0
 10
187.654146
 20
593.006494
 30
0.0
 10
191.130706
 20
594.675238
 30
0.0
 10
193.429599
 20
597.542865
 30
0.0
  0
SPLINE
  5
21f
100
AcDbEntity
  8
Calque_1
 62
7
100
AcDbSpline
 70
8
 71
3
 72
8
 73
4
 74
0
 40
0
 40
0
 40
0
 40
0
 40
1
 40
1
 40
1
 40
1
 10
204.770602
 20
597.542865
 30
0.0
 10
203.391267
 20
599.263456
 30
0.0
 10
201.305321
 20
600.264712
 30
0.0
 10
199.100101
 20
600.264712
 30
0.0
  0
SPLINE
  5
220
100
AcDbEntity
  8
Calque_1
 62
7
100
AcDbSpline
 70
8
 71
3
 72
8
 73
4
 74
0
 40
0
 40
0
 40
0
 40
0
 40
1
 40
1
 40
1
 40
1
 10
199.100101
 20
600.264712
 30
0.0
 10
196.894880
 20
600.264712
 30
0.0
 10
194.808934
 20
599.263456
 30
0.0
 10
193.429599
 20
597.542865
 30
0.0
  0
SPLINE
  5
221
100
AcDbEntity
  8
Calque_1
 62
7
100
AcDbSpline
 70
8
 71
3
 72
8
 73
4
 74
0
 40
0
 40
0
 40
0
 40
0
 40
1
 40
1
 40
1
 40
1
 10
144.285284
 20
597.542865
 30
0.0
 10
146.584176
 20
594.675201
 30
0.0
 10
150.060760
 20
593.006431
 30
0.0
 10
153.736137
 20
593.006431
 30
0.0
  0
SPLINE
  5
222
100
AcDbEntity
  8
Calque_1
 62
7
100
AcDbSpline
 70
8
 71
3
 72
8
 73
4
 74
0
 40
0
 40
0
 40
0
 40
0
 40
1
 40
1
 40
1
 40
1
 10
153.736137
 20
593.006431
 30
0.0
 10
157.411515
 20
593.006431
 30
0.0
 10
160.888099
 20
594.675201
 30
0.0
 10
163.186990
 20
597.542865
 30
0.0
  0
SPLINE
  5
223
100
AcDbEntity
  8
Calque_1
 62
7
100
AcDbSpline
 70
8
 71
3
 72
8
 73
4
 74
0
 40
0
 40
0
 40
0
 40
0
 40
1
 40
1
 40
1
 40
1
 10
174.527993
 20
597.542865
 30
0.0
 10
173.148658
 20
599.263456
 30
0.0
 10
171.062712
 20
600.264712
 30
0.0
 10
168.857492
 20
600.264712
 30
0.0
  0
SPLINE
  5
224
100
AcDbEntity
  8
Calque_1
 62
7
100
AcDbSpline
 70
8
 71
3
 72
8
 73
4
 74
0
 40
0
 40
0
 40
0
 40
0
 40
1
 40
1
 40
1
 40
1
 10
168.857492
 20
600.264712
 30
0.0
 10
166.652271
 20
600.264712
 30
0.0
 10
164.566325
 20
599.263456
 30
0.0
 10
163.186990
 20
597.542865
 30
0.0
  0
SPLINE
  5
225
100
AcDbEntity
  8
Calque_1
 62
7
100
AcDbSpline
 70
8
 71
3
 72
8
 73
4
 74
0
 40
0
 40
0
 40
0
 40
0
 40
1
 40
1
 40
1
 40
1
 10
2498.858553
 20
674.953169
 30
0.0
 10
2497.470394
 20
674.953162
 30
0.0
 10
2496.193904
 20
674.192345
 30
0.0
 10
2495.533480
 20
672.971351
 30
0.0
  0
SPLINE
  5
226
100
AcDbEntity
  8
Calque_1
 62
7
100
AcDbSpline
 70
8
 71
3
 72
8
 73
4
 74
0
 40
0
 40
0
 40
0
 40
0
 40
1
 40
1
 40
1
 40
1
 10
2495.533480
 20
672.971351
 30
0.0
 10
2494.873056
 20
671.750357
 30
0.0
 10
2494.934949
 20
670.265622
 30
0.0
 10
2495.694702
 20
669.103830
 30
0.0
  0
SPLINE
  5
227
100
AcDbEntity
  8
Calque_1
 62
7
100
AcDbSpline
 70
8
 71
3
 72
8
 73
4
 74
0
 40
0
 40
0
 40
0
 40
0
 40
1
 40
1
 40
1
 40
1
 10
2485.427906
 20
673.241907
 30
0.0
 10
2484.729620
 20
674.309666
 30
0.0
 10
2483.539865
 20
674.953178
 30
0.0
 10
2482.264046
 20
674.953169
 30
0.0
  0
SPLINE
  5
228
100
AcDbEntity
  8
Calque_1
 62
7
100
AcDbSpline
 70
8
 71
3
 72
8
 73
4
 74
0
 40
0
 40
0
 40
0
 40
0
 40
1
 40
1
 40
1
 40
1
 10
2495.694702
 20
586.294281
 30
0.0
 10
2494.934949
 20
585.132489
 30
0.0
 10
2494.873056
 20
583.647754
 30
0.0
 10
2495.533480
 20
582.426760
 30
0.0
  0
SPLINE
  5
229
100
AcDbEntity
  8
Calque_1
 62
7
100
AcDbSpline
 70
8
 71
3
 72
8
 73
4
 74
0
 40
0
 40
0
 40
0
 40
0
 40
1
 40
1
 40
1
 40
1
 10
2495.533480
 20
582.426760
 30
0.0
 10
2496.193904
 20
581.205766
 30
0.0
 10
2497.470394
 20
580.444949
 30
0.0
 10
2498.858553
 20
580.444941
 30
0.0
  0
SPLINE
  5
22a
100
AcDbEntity
  8
Calque_1
 62
7
100
AcDbSpline
 70
8
 71
3
 72
8
 73
4
 74
0
 40
0
 40
0
 40
0
 40
0
 40
1
 40
1
 40
1
 40
1
 10
2482.264046
 20
580.444941
 30
0.0
 10
2483.539865
 20
580.444933
 30
0.0
 10
2484.729620
 20
581.088445
 30
0.0
 10
2485.427906
 20
582.156204
 30
0.0
  0
LWPOLYLINE
  5
22b
100
AcDbEntity
  8
Calque_1
 62
7
100
AcDbPolyline
 90
2
 70
0
 10
514.652972
 20
594.896604
 30
0.0
 10
522.518039
 20
594.896604
 30
0.0
  0
ENDSEC
  0
SECTION
  2
OBJECTS
  0
DICTIONARY
  5
C
330
0
100
AcDbDictionary
  3
ACAD_GROUP
350
D
  3
ACAD_MLINESTYLE
350
17
  0
DICTIONARY
  5
D
330
C
100
AcDbDictionary
  0
DICTIONARY
  5
1A
330
C
100
AcDbDictionary
  0
DICTIONARY
  5
17
330
C
100
AcDbDictionary
  3
STANDARD
350
18
  0
DICTIONARY
  5
19
330
C
100
AcDbDictionary
  0
ENDSEC
  0
EOF
